v 0.0000000 -0.0160000 0.0100000
v 0.0000000 -0.0160000 0.2600000
v -0.0061228 -0.0147821 0.0100000
v -0.0061228 -0.0147821 0.2600000
v -0.0113137 -0.0113137 0.0100000
v -0.0113137 -0.0113137 0.2600000
v -0.0147822 -0.0061229 0.0100000
v -0.0147822 -0.0061229 0.2600000
v -0.0160000 0.0000000 0.0100000
v -0.0160000 0.0000000 0.2600000
v -0.0147822 0.0061229 0.0100000
v -0.0147822 0.0061229 0.2600000
v -0.0113137 0.0113137 0.0100000
v -0.0113137 0.0113137 0.2600000
v -0.0061228 0.0147821 0.0100000
v -0.0061228 0.0147821 0.2600000
v 0.0000000 0.0160000 0.0100000
v 0.0000000 0.0160000 0.2600000
v 0.0061228 0.0147821 0.0100000
v 0.0061228 0.0147821 0.2600000
v 0.0113137 0.0113137 0.0100000
v 0.0113137 0.0113137 0.2600000
v 0.0147822 0.0061229 0.0100000
v 0.0147822 0.0061229 0.2600000
v 0.0160000 0.0000000 0.0100000
v 0.0160000 0.0000000 0.2600000
v 0.0147822 -0.0061229 0.0100000
v 0.0147822 -0.0061229 0.2600000
v 0.0113137 -0.0113137 0.0100000
v 0.0113137 -0.0113137 0.2600000
v 0.0061228 -0.0147821 0.0100000
v 0.0061228 -0.0147821 0.2600000
f 1 2 4
f 1 4 3
f 3 4 6
f 3 6 5
f 5 6 8
f 5 8 7
f 7 8 10
f 7 10 9
f 9 10 12
f 9 12 11
f 11 12 14
f 11 14 13
f 13 14 16
f 13 16 15
f 15 16 18
f 15 18 17
f 17 18 20
f 17 20 19
f 19 20 22
f 19 22 21
f 21 22 24
f 21 24 23
f 23 24 26
f 23 26 25
f 25 26 28
f 25 28 27
f 27 28 30
f 27 30 29
f 6 4 2
f 2 32 30
f 30 28 26
f 26 24 22
f 22 20 18
f 18 16 14
f 14 12 10
f 10 8 6
f 6 2 30
f 30 26 22
f 22 18 14
f 14 10 6
f 6 30 22
f 22 14 6
f 29 30 32
f 29 32 31
f 31 32 2
f 31 2 1
f 31 1 3
f 3 5 7
f 7 9 11
f 11 13 15
f 15 17 19
f 19 21 23
f 23 25 27
f 27 29 31
f 31 3 7
f 7 11 15
f 15 19 23
f 23 27 31
f 31 7 15
f 15 23 31
v 0.0000000 0.0000000 0.0210000
v -0.1999998 0.0000000 0.0210000
v 0.0000000 -0.0042095 0.0201627
v -0.1999998 -0.0042095 0.0201627
v 0.0000000 -0.0077782 0.0177782
v -0.1999998 -0.0077782 0.0177782
v 0.0000000 -0.0101627 0.0142095
v -0.1999998 -0.0101627 0.0142095
v 0.0000000 -0.0110000 0.0100000
v -0.1999998 -0.0110000 0.0100000
v 0.0000000 -0.0101627 0.0057905
v -0.1999998 -0.0101627 0.0057905
v 0.0000000 -0.0077782 0.0022218
v -0.1999998 -0.0077782 0.0022218
v 0.0000000 -0.0042095 -0.0001627
v -0.1999998 -0.0042095 -0.0001627
v 0.0000000 0.0000000 -0.0010000
v -0.1999998 0.0000000 -0.0010000
v 0.0000000 0.0042095 -0.0001627
v -0.1999998 0.0042095 -0.0001627
v 0.0000000 0.0077782 0.0022218
v -0.1999998 0.0077782 0.0022218
v 0.0000000 0.0101627 0.0057905
v -0.1999998 0.0101627 0.0057905
v 0.0000000 0.0110000 0.0100000
v -0.1999998 0.0110000 0.0100000
v 0.0000000 0.0101627 0.0142095
v -0.1999998 0.0101627 0.0142095
v 0.0000000 0.0077782 0.0177782
v -0.1999998 0.0077782 0.0177782
v 0.0000000 0.0042095 0.0201627
v -0.1999998 0.0042095 0.0201627
f 33 34 36
f 33 36 35
f 35 36 38
f 35 38 37
f 37 38 40
f 37 40 39
f 39 40 42
f 39 42 41
f 41 42 44
f 41 44 43
f 43 44 46
f 43 46 45
f 45 46 48
f 45 48 47
f 47 48 50
f 47 50 49
f 49 50 52
f 49 52 51
f 51 52 54
f 51 54 53
f 53 54 56
f 53 56 55
f 55 56 58
f 55 58 57
f 57 58 60
f 57 60 59
f 59 60 62
f 59 62 61
f 38 36 34
f 34 64 62
f 62 60 58
f 58 56 54
f 54 52 50
f 50 48 46
f 46 44 42
f 42 40 38
f 38 34 62
f 62 58 54
f 54 50 46
f 46 42 38
f 38 62 54
f 54 46 38
f 61 62 64
f 61 64 63
f 63 64 34
f 63 34 33
f 63 33 35
f 35 37 39
f 39 41 43
f 43 45 47
f 47 49 51
f 51 53 55
f 55 57 59
f 59 61 63
f 63 35 39
f 39 43 47
f 47 51 55
f 55 59 63
f 63 39 47
f 47 55 63
v -0.2000000 -0.0080000 0.0100000
v -0.2000000 -0.0080000 0.0860000
v -0.2030616 -0.0073910 0.0100000
v -0.2030616 -0.0073910 0.0860000
v -0.2056570 -0.0056569 0.0100000
v -0.2056570 -0.0056569 0.0860000
v -0.2073910 -0.0030615 0.0100000
v -0.2073910 -0.0030615 0.0860000
v -0.2079999 0.0000000 0.0100000
v -0.2079999 0.0000000 0.0860000
v -0.2073910 0.0030615 0.0100000
v -0.2073910 0.0030615 0.0860000
v -0.2056570 0.0056569 0.0100000
v -0.2056570 0.0056569 0.0860000
v -0.2030616 0.0073910 0.0100000
v -0.2030616 0.0073910 0.0860000
v -0.2000000 0.0080000 0.0100000
v -0.2000000 0.0080000 0.0860000
v -0.1969385 0.0073910 0.0100000
v -0.1969385 0.0073910 0.0860000
v -0.1943431 0.0056569 0.0100000
v -0.1943431 0.0056569 0.0860000
v -0.1926091 0.0030615 0.0100000
v -0.1926091 0.0030615 0.0860000
v -0.1920002 0.0000000 0.0100000
v -0.1920002 0.0000000 0.0860000
v -0.1926091 -0.0030615 0.0100000
v -0.1926091 -0.0030615 0.0860000
v -0.1943431 -0.0056569 0.0100000
v -0.1943431 -0.0056569 0.0860000
v -0.1969385 -0.0073910 0.0100000
v -0.1969385 -0.0073910 0.0860000
f 65 66 68
f 65 68 67
f 67 68 70
f 67 70 69
f 69 70 72
f 69 72 71
f 71 72 74
f 71 74 73
f 73 74 76
f 73 76 75
f 75 76 78
f 75 78 77
f 77 78 80
f 77 80 79
f 79 80 82
f 79 82 81
f 81 82 84
f 81 84 83
f 83 84 86
f 83 86 85
f 85 86 88
f 85 88 87
f 87 88 90
f 87 90 89
f 89 90 92
f 89 92 91
f 91 92 94
f 91 94 93
f 70 68 66
f 66 96 94
f 94 92 90
f 90 88 86
f 86 84 82
f 82 80 78
f 78 76 74
f 74 72 70
f 70 66 94
f 94 90 86
f 86 82 78
f 78 74 70
f 70 94 86
f 86 78 70
f 93 94 96
f 93 96 95
f 95 96 66
f 95 66 65
f 95 65 67
f 67 69 71
f 71 73 75
f 75 77 79
f 79 81 83
f 83 85 87
f 87 89 91
f 91 93 95
f 95 67 71
f 71 75 79
f 79 83 87
f 87 91 95
f 95 71 79
f 79 87 95
