v -0.0004629 0.0000000 0.0119911
v 0.1993883 0.0000000 0.0197056
v -0.0004276 0.0045922 0.0110783
v 0.1994235 0.0045922 0.0187928
v -0.0003273 0.0084853 0.0084790
v 0.1995239 0.0084853 0.0161934
v -0.0001771 0.0110866 0.0045888
v 0.1996740 0.0110865 0.0123033
v 0.0000000 0.0120000 0.0000000
v 0.1998512 0.0120000 0.0077145
v 0.0001771 0.0110866 -0.0045888
v 0.2000283 0.0110865 0.0031257
v 0.0003273 0.0084853 -0.0084789
v 0.2001785 0.0084853 -0.0007645
v 0.0004276 0.0045922 -0.0110783
v 0.2002788 0.0045922 -0.0033638
v 0.0004629 0.0000000 -0.0119911
v 0.2003140 0.0000000 -0.0042766
v 0.0004276 -0.0045922 -0.0110783
v 0.2002788 -0.0045922 -0.0033638
v 0.0003273 -0.0084853 -0.0084789
v 0.2001785 -0.0084853 -0.0007645
v 0.0001771 -0.0110866 -0.0045888
v 0.2000283 -0.0110866 0.0031257
v 0.0000000 -0.0120000 0.0000000
v 0.1998512 -0.0120000 0.0077145
v -0.0001771 -0.0110866 0.0045888
v 0.1996740 -0.0110866 0.0123033
v -0.0003273 -0.0084853 0.0084790
v 0.1995239 -0.0084853 0.0161934
v -0.0004276 -0.0045922 0.0110783
v 0.1994235 -0.0045922 0.0187928
f 1 2 4
f 1 4 3
f 3 4 6
f 3 6 5
f 5 6 8
f 5 8 7
f 7 8 10
f 7 10 9
f 9 10 12
f 9 12 11
f 11 12 14
f 11 14 13
f 13 14 16
f 13 16 15
f 15 16 18
f 15 18 17
f 17 18 20
f 17 20 19
f 19 20 22
f 19 22 21
f 21 22 24
f 21 24 23
f 23 24 26
f 23 26 25
f 25 26 28
f 25 28 27
f 27 28 30
f 27 30 29
f 6 4 2
f 2 32 30
f 30 28 26
f 26 24 22
f 22 20 18
f 18 16 14
f 14 12 10
f 10 8 6
f 6 2 30
f 30 26 22
f 22 18 14
f 14 10 6
f 6 30 22
f 22 14 6
f 29 30 32
f 29 32 31
f 31 32 2
f 31 2 1
f 31 1 3
f 3 5 7
f 7 9 11
f 11 13 15
f 15 17 19
f 19 21 23
f 23 25 27
f 27 29 31
f 31 3 7
f 7 11 15
f 15 19 23
f 23 27 31
f 31 7 15
f 15 23 31
v 0.1998512 -0.0200000 0.0477145
v 0.1998512 0.0200000 0.0477145
v 0.1845438 -0.0200000 0.0446697
v 0.1845438 0.0200000 0.0446697
v 0.1715669 -0.0200000 0.0359988
v 0.1715669 0.0200000 0.0359988
v 0.1628960 -0.0200000 0.0230219
v 0.1628960 0.0200000 0.0230219
v 0.1598511 -0.0200000 0.0077145
v 0.1598511 0.0200000 0.0077145
v 0.1628960 -0.0200000 -0.0075928
v 0.1628960 0.0200000 -0.0075929
v 0.1715669 -0.0200000 -0.0205697
v 0.1715669 0.0200000 -0.0205697
v 0.1845438 -0.0200000 -0.0292407
v 0.1845438 0.0200000 -0.0292407
v 0.1998512 -0.0200000 -0.0322855
v 0.1998512 0.0200000 -0.0322855
v 0.2151585 -0.0200000 -0.0292407
v 0.2151585 0.0200000 -0.0292407
v 0.2281354 -0.0200000 -0.0205697
v 0.2281354 0.0200000 -0.0205697
v 0.2368063 -0.0200000 -0.0075929
v 0.2368063 0.0200000 -0.0075929
v 0.2398512 -0.0200000 0.0077145
v 0.2398512 0.0200000 0.0077145
v 0.2368063 -0.0200000 0.0230219
v 0.2368063 0.0200000 0.0230218
v 0.2281354 -0.0200000 0.0359988
v 0.2281354 0.0200000 0.0359988
v 0.2151585 -0.0200000 0.0446697
v 0.2151585 0.0200000 0.0446697
f 33 34 36
f 33 36 35
f 35 36 38
f 35 38 37
f 37 38 40
f 37 40 39
f 39 40 42
f 39 42 41
f 41 42 44
f 41 44 43
f 43 44 46
f 43 46 45
f 45 46 48
f 45 48 47
f 47 48 50
f 47 50 49
f 49 50 52
f 49 52 51
f 51 52 54
f 51 54 53
f 53 54 56
f 53 56 55
f 55 56 58
f 55 58 57
f 57 58 60
f 57 60 59
f 59 60 62
f 59 62 61
f 38 36 34
f 34 64 62
f 62 60 58
f 58 56 54
f 54 52 50
f 50 48 46
f 46 44 42
f 42 40 38
f 38 34 62
f 62 58 54
f 54 50 46
f 46 42 38
f 38 62 54
f 54 46 38
f 61 62 64
f 61 64 63
f 63 64 34
f 63 34 33
f 63 33 35
f 35 37 39
f 39 41 43
f 43 45 47
f 47 49 51
f 51 53 55
f 55 57 59
f 59 61 63
f 63 35 39
f 39 43 47
f 47 51 55
f 55 59 63
f 63 39 47
f 47 55 63
