v 0.0000000 -0.5610000 0.0220001
v 0.0000000 0.5610000 0.0219999
v -0.0084190 -0.5610000 0.0203254
v -0.0084190 0.5610000 0.0203253
v -0.0155563 -0.5610000 0.0155564
v -0.0155563 0.5610000 0.0155563
v -0.0203254 -0.5610000 0.0084191
v -0.0203254 0.5610000 0.0084190
v -0.0220001 -0.5610000 0.0000001
v -0.0220001 0.5610000 -0.0000001
v -0.0203254 -0.5610000 -0.0084189
v -0.0203254 0.5610000 -0.0084191
v -0.0155563 -0.5610000 -0.0155563
v -0.0155563 0.5610000 -0.0155564
v -0.0084190 -0.5610000 -0.0203253
v -0.0084190 0.5610000 -0.0203254
v 0.0000000 -0.5610000 -0.0219999
v 0.0000000 0.5610000 -0.0220001
v 0.0084190 -0.5610000 -0.0203253
v 0.0084190 0.5610000 -0.0203254
v 0.0155563 -0.5610000 -0.0155563
v 0.0155563 0.5610000 -0.0155564
v 0.0203254 -0.5610000 -0.0084190
v 0.0203254 0.5610000 -0.0084191
v 0.0220001 -0.5610000 0.0000001
v 0.0220001 0.5610000 -0.0000001
v 0.0203254 -0.5610000 0.0084191
v 0.0203254 0.5610000 0.0084189
v 0.0155563 -0.5610000 0.0155564
v 0.0155563 0.5610000 0.0155563
v 0.0084190 -0.5610000 0.0203254
v 0.0084190 0.5610000 0.0203253
f 1 2 4
f 1 4 3
f 3 4 6
f 3 6 5
f 5 6 8
f 5 8 7
f 7 8 10
f 7 10 9
f 9 10 12
f 9 12 11
f 11 12 14
f 11 14 13
f 13 14 16
f 13 16 15
f 15 16 18
f 15 18 17
f 17 18 20
f 17 20 19
f 19 20 22
f 19 22 21
f 21 22 24
f 21 24 23
f 23 24 26
f 23 26 25
f 25 26 28
f 25 28 27
f 27 28 30
f 27 30 29
f 6 4 2
f 2 32 30
f 30 28 26
f 26 24 22
f 22 20 18
f 18 16 14
f 14 12 10
f 10 8 6
f 6 2 30
f 30 26 22
f 22 18 14
f 14 10 6
f 6 30 22
f 22 14 6
f 29 30 32
f 29 32 31
f 31 32 2
f 31 2 1
f 31 1 3
f 3 5 7
f 7 9 11
f 11 13 15
f 15 17 19
f 19 21 23
f 23 25 27
f 27 29 31
f 31 3 7
f 7 11 15
f 15 19 23
f 23 27 31
f 31 7 15
f 15 23 31
v 0.0000000 0.5610000 -0.0250000
v 0.0000000 0.5610000 0.0249999
v -0.0114806 0.5632836 -0.0250000
v -0.0114806 0.5632836 0.0249999
v -0.0212133 0.5697868 -0.0250000
v -0.0212133 0.5697868 0.0249999
v -0.0277164 0.5795195 -0.0250000
v -0.0277164 0.5795195 0.0249999
v -0.0300000 0.5910000 -0.0250000
v -0.0300000 0.5910000 0.0249999
v -0.0277164 0.6024805 -0.0250000
v -0.0277164 0.6024805 0.0249999
v -0.0212133 0.6122132 -0.0250000
v -0.0212133 0.6122132 0.0249999
v -0.0114806 0.6187164 -0.0250000
v -0.0114806 0.6187164 0.0249999
v 0.0000000 0.6210000 -0.0250000
v 0.0000000 0.6210000 0.0249999
v 0.0114806 0.6187164 -0.0250000
v 0.0114806 0.6187164 0.0249999
v 0.0212133 0.6122132 -0.0250000
v 0.0212133 0.6122132 0.0249999
v 0.0277164 0.6024805 -0.0250000
v 0.0277164 0.6024805 0.0249999
v 0.0300000 0.5910000 -0.0250000
v 0.0300000 0.5910000 0.0249999
v 0.0277164 0.5795195 -0.0250000
v 0.0277164 0.5795195 0.0249999
v 0.0212133 0.5697868 -0.0250000
v 0.0212133 0.5697868 0.0249999
v 0.0114806 0.5632836 -0.0250000
v 0.0114806 0.5632836 0.0249999
f 33 34 36
f 33 36 35
f 35 36 38
f 35 38 37
f 37 38 40
f 37 40 39
f 39 40 42
f 39 42 41
f 41 42 44
f 41 44 43
f 43 44 46
f 43 46 45
f 45 46 48
f 45 48 47
f 47 48 50
f 47 50 49
f 49 50 52
f 49 52 51
f 51 52 54
f 51 54 53
f 53 54 56
f 53 56 55
f 55 56 58
f 55 58 57
f 57 58 60
f 57 60 59
f 59 60 62
f 59 62 61
f 38 36 34
f 34 64 62
f 62 60 58
f 58 56 54
f 54 52 50
f 50 48 46
f 46 44 42
f 42 40 38
f 38 34 62
f 62 58 54
f 54 50 46
f 46 42 38
f 38 62 54
f 54 46 38
f 61 62 64
f 61 64 63
f 63 64 34
f 63 34 33
f 63 33 35
f 35 37 39
f 39 41 43
f 43 45 47
f 47 49 51
f 51 53 55
f 55 57 59
f 59 61 63
f 63 35 39
f 39 43 47
f 47 51 55
f 55 59 63
f 63 39 47
f 47 55 63
v 0.0000000 -0.6210000 -0.0250000
v 0.0000000 -0.6210000 0.0249999
v -0.0114806 -0.6187164 -0.0250000
v -0.0114806 -0.6187164 0.0249999
v -0.0212133 -0.6122132 -0.0250000
v -0.0212133 -0.6122132 0.0249999
v -0.0277164 -0.6024805 -0.0250000
v -0.0277164 -0.6024805 0.0249999
v -0.0300000 -0.5910000 -0.0250000
v -0.0300000 -0.5910000 0.0249999
v -0.0277164 -0.5795195 -0.0250000
v -0.0277164 -0.5795195 0.0249999
v -0.0212133 -0.5697868 -0.0250000
v -0.0212133 -0.5697868 0.0249999
v -0.0114806 -0.5632836 -0.0250000
v -0.0114806 -0.5632836 0.0249999
v 0.0000000 -0.5610000 -0.0250000
v 0.0000000 -0.5610000 0.0249999
v 0.0114806 -0.5632836 -0.0250000
v 0.0114806 -0.5632836 0.0249999
v 0.0212133 -0.5697868 -0.0250000
v 0.0212133 -0.5697868 0.0249999
v 0.0277164 -0.5795195 -0.0250000
v 0.0277164 -0.5795195 0.0249999
v 0.0300000 -0.5910000 -0.0250000
v 0.0300000 -0.5910000 0.0249999
v 0.0277164 -0.6024805 -0.0250000
v 0.0277164 -0.6024805 0.0249999
v 0.0212133 -0.6122132 -0.0250000
v 0.0212133 -0.6122132 0.0249999
v 0.0114806 -0.6187164 -0.0250000
v 0.0114806 -0.6187164 0.0249999
f 65 66 68
f 65 68 67
f 67 68 70
f 67 70 69
f 69 70 72
f 69 72 71
f 71 72 74
f 71 74 73
f 73 74 76
f 73 76 75
f 75 76 78
f 75 78 77
f 77 78 80
f 77 80 79
f 79 80 82
f 79 82 81
f 81 82 84
f 81 84 83
f 83 84 86
f 83 86 85
f 85 86 88
f 85 88 87
f 87 88 90
f 87 90 89
f 89 90 92
f 89 92 91
f 91 92 94
f 91 94 93
f 70 68 66
f 66 96 94
f 94 92 90
f 90 88 86
f 86 84 82
f 82 80 78
f 78 76 74
f 74 72 70
f 70 66 94
f 94 90 86
f 86 82 78
f 78 74 70
f 70 94 86
f 86 78 70
f 93 94 96
f 93 96 95
f 95 96 66
f 95 66 65
f 95 65 67
f 67 69 71
f 71 73 75
f 75 77 79
f 79 81 83
f 83 85 87
f 87 89 91
f 91 93 95
f 95 67 71
f 71 75 79
f 79 83 87
f 87 91 95
f 95 71 79
f 79 87 95
v -0.8000000 -0.0000000 0.0490000
v -0.7400000 -0.0000000 0.0490000
v -0.8000000 0.0114805 0.0467164
v -0.7400000 0.0114805 0.0467164
v -0.8000000 0.0212132 0.0402132
v -0.7400000 0.0212132 0.0402132
v -0.8000000 0.0277164 0.0304805
v -0.7400000 0.0277164 0.0304805
v -0.8000000 0.0300000 0.0190000
v -0.7400000 0.0300000 0.0190000
v -0.8000000 0.0277164 0.0075195
v -0.7400000 0.0277164 0.0075195
v -0.8000000 0.0212132 -0.0022132
v -0.7400000 0.0212132 -0.0022132
v -0.8000000 0.0114805 -0.0087164
v -0.7400000 0.0114805 -0.0087164
v -0.8000000 0.0000000 -0.0110000
v -0.7400000 0.0000000 -0.0110000
v -0.8000000 -0.0114805 -0.0087164
v -0.7400000 -0.0114805 -0.0087164
v -0.8000000 -0.0212132 -0.0022132
v -0.7400000 -0.0212132 -0.0022132
v -0.8000000 -0.0277164 0.0075195
v -0.7400000 -0.0277164 0.0075195
v -0.8000000 -0.0300000 0.0190000
v -0.7400000 -0.0300000 0.0190000
v -0.8000000 -0.0277164 0.0304805
v -0.7400000 -0.0277164 0.0304805
v -0.8000000 -0.0212132 0.0402132
v -0.7400000 -0.0212132 0.0402132
v -0.8000000 -0.0114805 0.0467164
v -0.7400000 -0.0114805 0.0467164
f 97 98 100
f 97 100 99
f 99 100 102
f 99 102 101
f 101 102 104
f 101 104 103
f 103 104 106
f 103 106 105
f 105 106 108
f 105 108 107
f 107 108 110
f 107 110 109
f 109 110 112
f 109 112 111
f 111 112 114
f 111 114 113
f 113 114 116
f 113 116 115
f 115 116 118
f 115 118 117
f 117 118 120
f 117 120 119
f 119 120 122
f 119 122 121
f 121 122 124
f 121 124 123
f 123 124 126
f 123 126 125
f 102 100 98
f 98 128 126
f 126 124 122
f 122 120 118
f 118 116 114
f 114 112 110
f 110 108 106
f 106 104 102
f 102 98 126
f 126 122 118
f 118 114 110
f 110 106 102
f 102 126 118
f 118 110 102
f 125 126 128
f 125 128 127
f 127 128 98
f 127 98 97
f 127 97 99
f 99 101 103
f 103 105 107
f 107 109 111
f 111 113 115
f 115 117 119
f 119 121 123
f 123 125 127
f 127 99 103
f 103 107 111
f 111 115 119
f 119 123 127
f 127 103 111
f 111 119 127
v 0.0003097 -0.3501367 0.0149963
v -0.7696904 -0.0101368 0.0339961
v -0.0020325 -0.3553774 0.0138547
v -0.7720326 -0.0153775 0.0328546
v -0.0040653 -0.3597994 0.0106040
v -0.7740655 -0.0197995 0.0296038
v -0.0054791 -0.3627296 0.0057389
v -0.7754793 -0.0227297 0.0247387
v -0.0060589 -0.3637218 0.0000001
v -0.7760590 -0.0237219 0.0189999
v -0.0057161 -0.3626250 -0.0057387
v -0.7757163 -0.0226250 0.0132611
v -0.0045033 -0.3596061 -0.0106038
v -0.7745034 -0.0196061 0.0083960
v -0.0026047 -0.3551248 -0.0138546
v -0.7726048 -0.0151248 0.0051453
v -0.0003095 -0.3498632 -0.0149961
v -0.7703097 -0.0098633 0.0040037
v 0.0020328 -0.3446225 -0.0138546
v -0.7679675 -0.0046226 0.0051453
v 0.0040655 -0.3402005 -0.0106038
v -0.7659347 -0.0002005 0.0083960
v 0.0054793 -0.3372703 -0.0057387
v -0.7645208 0.0027296 0.0132611
v 0.0060592 -0.3362781 0.0000001
v -0.7639410 0.0037218 0.0189999
v 0.0057163 -0.3373750 0.0057389
v -0.7642838 0.0026250 0.0247387
v 0.0045035 -0.3403938 0.0106040
v -0.7654967 -0.0003939 0.0296038
v 0.0026050 -0.3448752 0.0138547
v -0.7673953 -0.0048752 0.0328546
f 129 130 132
f 129 132 131
f 131 132 134
f 131 134 133
f 133 134 136
f 133 136 135
f 135 136 138
f 135 138 137
f 137 138 140
f 137 140 139
f 139 140 142
f 139 142 141
f 141 142 144
f 141 144 143
f 143 144 146
f 143 146 145
f 145 146 148
f 145 148 147
f 147 148 150
f 147 150 149
f 149 150 152
f 149 152 151
f 151 152 154
f 151 154 153
f 153 154 156
f 153 156 155
f 155 156 158
f 155 158 157
f 134 132 130
f 130 160 158
f 158 156 154
f 154 152 150
f 150 148 146
f 146 144 142
f 142 140 138
f 138 136 134
f 134 130 158
f 158 154 150
f 150 146 142
f 142 138 134
f 134 158 150
f 150 142 134
f 157 158 160
f 157 160 159
f 159 160 130
f 159 130 129
f 159 129 131
f 131 133 135
f 135 137 139
f 139 141 143
f 143 145 147
f 147 149 151
f 151 153 155
f 155 157 159
f 159 131 135
f 135 139 143
f 143 147 151
f 151 155 159
f 159 135 143
f 143 151 159
v -0.0179999 -0.5180000 0.0220000
v -0.0179999 -0.5300000 0.0340000
v -0.0300000 -0.5180000 0.0340000
v -0.0179999 -0.5239921 0.0236031
v -0.0239921 -0.5180000 0.0236031
v -0.0237386 -0.5237386 0.0251604
v -0.0239921 -0.5283968 0.0340000
v -0.0179999 -0.5283968 0.0280079
v -0.0237386 -0.5268396 0.0282615
v -0.0283968 -0.5180000 0.0280079
v -0.0283968 -0.5239921 0.0340000
v -0.0268395 -0.5237386 0.0282615
v -0.0179999 -0.5300000 0.0370000
v -0.0179999 -0.5180000 0.0490000
v -0.0300000 -0.5180000 0.0370000
v -0.0179999 -0.5283968 0.0429921
v -0.0239921 -0.5283968 0.0370000
v -0.0237386 -0.5268396 0.0427385
v -0.0239921 -0.5180000 0.0473968
v -0.0179999 -0.5239921 0.0473968
v -0.0237386 -0.5237386 0.0458396
v -0.0283968 -0.5239921 0.0370000
v -0.0283968 -0.5180000 0.0429921
v -0.0268395 -0.5237386 0.0427385
v -0.0179999 -0.4820000 0.0220000
v -0.0300000 -0.4820000 0.0340000
v -0.0179999 -0.4700000 0.0340000
v -0.0239921 -0.4820000 0.0236031
v -0.0179999 -0.4760079 0.0236031
v -0.0237386 -0.4762615 0.0251604
v -0.0283968 -0.4760079 0.0340000
v -0.0283968 -0.4820000 0.0280079
v -0.0268395 -0.4762615 0.0282615
v -0.0179999 -0.4716032 0.0280079
v -0.0239921 -0.4716032 0.0340000
v -0.0237386 -0.4731604 0.0282615
v -0.0179999 -0.4820000 0.0490000
v -0.0179999 -0.4700000 0.0370000
v -0.0300000 -0.4820000 0.0370000
v -0.0179999 -0.4760079 0.0473968
v -0.0239921 -0.4820000 0.0473968
v -0.0237386 -0.4762615 0.0458396
v -0.0239921 -0.4716032 0.0370000
v -0.0179999 -0.4716032 0.0429921
v -0.0237386 -0.4731604 0.0427385
v -0.0283968 -0.4820000 0.0429921
v -0.0283968 -0.4760079 0.0370000
v -0.0268395 -0.4762615 0.0427385
v 0.0179999 -0.5180000 0.0220000
v 0.0300000 -0.5180000 0.0340000
v 0.0179999 -0.5300000 0.0340000
v 0.0239921 -0.5180000 0.0236031
v 0.0179999 -0.5239921 0.0236031
v 0.0237386 -0.5237386 0.0251604
v 0.0283968 -0.5239921 0.0340000
v 0.0283968 -0.5180000 0.0280079
v 0.0268395 -0.5237386 0.0282615
v 0.0179999 -0.5283968 0.0280079
v 0.0239921 -0.5283968 0.0340000
v 0.0237386 -0.5268396 0.0282615
v 0.0179999 -0.5180000 0.0490000
v 0.0179999 -0.5300000 0.0370000
v 0.0300000 -0.5180000 0.0370000
v 0.0179999 -0.5239921 0.0473968
v 0.0239921 -0.5180000 0.0473968
v 0.0237386 -0.5237386 0.0458396
v 0.0239921 -0.5283968 0.0370000
v 0.0179999 -0.5283968 0.0429921
v 0.0237386 -0.5268396 0.0427385
v 0.0283968 -0.5180000 0.0429921
v 0.0283968 -0.5239921 0.0370000
v 0.0268395 -0.5237386 0.0427385
v 0.0179999 -0.4820000 0.0220000
v 0.0179999 -0.4700000 0.0340000
v 0.0300000 -0.4820000 0.0340000
v 0.0179999 -0.4760079 0.0236031
v 0.0239921 -0.4820000 0.0236031
v 0.0237386 -0.4762615 0.0251604
v 0.0239921 -0.4716032 0.0340000
v 0.0179999 -0.4716032 0.0280079
v 0.0237386 -0.4731604 0.0282615
v 0.0283968 -0.4820000 0.0280079
v 0.0283968 -0.4760079 0.0340000
v 0.0268395 -0.4762615 0.0282615
v 0.0179999 -0.4820000 0.0490000
v 0.0300000 -0.4820000 0.0370000
v 0.0179999 -0.4700000 0.0370000
v 0.0239921 -0.4820000 0.0473968
v 0.0179999 -0.4760079 0.0473968
v 0.0237386 -0.4762615 0.0458396
v 0.0283968 -0.4760079 0.0370000
v 0.0283968 -0.4820000 0.0429921
v 0.0268395 -0.4762615 0.0427385
v 0.0179999 -0.4716032 0.0429921
v 0.0239921 -0.4716032 0.0370000
v 0.0237386 -0.4731604 0.0427385
f 161 164 166
f 161 166 165
f 164 168 169
f 164 169 166
f 162 167 169
f 162 169 168
f 167 171 172
f 167 172 169
f 163 170 172
f 163 172 171
f 170 165 166
f 170 166 172
f 166 169 172
f 173 176 178
f 173 178 177
f 176 180 181
f 176 181 178
f 174 179 181
f 174 181 180
f 179 183 184
f 179 184 181
f 175 182 184
f 175 184 183
f 182 177 178
f 182 178 184
f 178 181 184
f 185 188 190
f 185 190 189
f 188 192 193
f 188 193 190
f 186 191 193
f 186 193 192
f 191 195 196
f 191 196 193
f 187 194 196
f 187 196 195
f 194 189 190
f 194 190 196
f 190 193 196
f 197 200 202
f 197 202 201
f 200 204 205
f 200 205 202
f 198 203 205
f 198 205 204
f 203 207 208
f 203 208 205
f 199 206 208
f 199 208 207
f 206 201 202
f 206 202 208
f 202 205 208
f 209 212 214
f 209 214 213
f 212 216 217
f 212 217 214
f 210 215 217
f 210 217 216
f 215 219 220
f 215 220 217
f 211 218 220
f 211 220 219
f 218 213 214
f 218 214 220
f 214 217 220
f 221 224 226
f 221 226 225
f 224 228 229
f 224 229 226
f 222 227 229
f 222 229 228
f 227 231 232
f 227 232 229
f 223 230 232
f 223 232 231
f 230 225 226
f 230 226 232
f 226 229 232
f 233 236 238
f 233 238 237
f 236 240 241
f 236 241 238
f 234 239 241
f 234 241 240
f 239 243 244
f 239 244 241
f 235 242 244
f 235 244 243
f 242 237 238
f 242 238 244
f 238 241 244
f 245 248 250
f 245 250 249
f 248 252 253
f 248 253 250
f 246 251 253
f 246 253 252
f 251 255 256
f 251 256 253
f 247 254 256
f 247 256 255
f 254 249 250
f 254 250 256
f 250 253 256
f 185 161 165
f 185 165 188
f 188 165 170
f 188 170 192
f 192 170 163
f 192 163 186
f 162 173 177
f 162 177 167
f 167 177 182
f 167 182 171
f 171 182 175
f 171 175 163
f 174 197 201
f 174 201 179
f 179 201 206
f 179 206 183
f 183 206 199
f 183 199 175
f 198 187 195
f 198 195 203
f 203 195 191
f 203 191 207
f 207 191 186
f 207 186 199
f 233 185 189
f 233 189 236
f 236 189 194
f 236 194 240
f 240 194 187
f 240 187 234
f 197 245 249
f 197 249 200
f 200 249 254
f 200 254 204
f 204 254 247
f 204 247 198
f 246 235 243
f 246 243 251
f 251 243 239
f 251 239 255
f 255 239 234
f 255 234 247
f 209 233 237
f 209 237 212
f 212 237 242
f 212 242 216
f 216 242 235
f 216 235 210
f 245 221 225
f 245 225 248
f 248 225 230
f 248 230 252
f 252 230 223
f 252 223 246
f 222 211 219
f 222 219 227
f 227 219 215
f 227 215 231
f 231 215 210
f 231 210 223
f 161 209 213
f 161 213 164
f 164 213 218
f 164 218 168
f 168 218 211
f 168 211 162
f 221 174 180
f 221 180 224
f 224 180 176
f 224 176 228
f 228 176 173
f 228 173 222
f 185 233 209
f 185 209 161
f 163 175 199
f 163 199 186
f 211 222 173
f 211 173 162
f 245 197 174
f 245 174 221
f 187 198 247
f 187 247 234
f 235 246 223
f 235 223 210
v 0.0003097 0.3501368 0.0149962
v -0.7696904 0.0101367 0.0339962
v 0.0026047 0.3448752 0.0138547
v -0.7673953 0.0048751 0.0328546
v 0.0045035 0.3403939 0.0106039
v -0.7654967 0.0003938 0.0296039
v 0.0057163 0.3373750 0.0057388
v -0.7642838 -0.0026251 0.0247388
v 0.0060589 0.3362782 0.0000000
v -0.7639410 -0.0037219 0.0190000
v 0.0054793 0.3372704 -0.0057388
v -0.7645208 -0.0027297 0.0132612
v 0.0040655 0.3402006 -0.0106039
v -0.7659347 0.0002004 0.0083961
v 0.0020328 0.3446226 -0.0138547
v -0.7679675 0.0046225 0.0051453
v -0.0003097 0.3498633 -0.0149962
v -0.7703097 0.0098632 0.0040038
v -0.0026047 0.3551249 -0.0138547
v -0.7726048 0.0151247 0.0051453
v -0.0045033 0.3596062 -0.0106039
v -0.7745034 0.0196060 0.0083961
v -0.0057163 0.3626251 -0.0057388
v -0.7757163 0.0226249 0.0132612
v -0.0060589 0.3637219 0.0000000
v -0.7760590 0.0237218 0.0190000
v -0.0054791 0.3627297 0.0057388
v -0.7754793 0.0227296 0.0247388
v -0.0040653 0.3597995 0.0106039
v -0.7740654 0.0197994 0.0296039
v -0.0020325 0.3553775 0.0138547
v -0.7720326 0.0153774 0.0328546
f 257 258 260
f 257 260 259
f 259 260 262
f 259 262 261
f 261 262 264
f 261 264 263
f 263 264 266
f 263 266 265
f 265 266 268
f 265 268 267
f 267 268 270
f 267 270 269
f 269 270 272
f 269 272 271
f 271 272 274
f 271 274 273
f 273 274 276
f 273 276 275
f 275 276 278
f 275 278 277
f 277 278 280
f 277 280 279
f 279 280 282
f 279 282 281
f 281 282 284
f 281 284 283
f 283 284 286
f 283 286 285
f 262 260 258
f 258 288 286
f 286 284 282
f 282 280 278
f 278 276 274
f 274 272 270
f 270 268 266
f 266 264 262
f 262 258 286
f 286 282 278
f 278 274 270
f 270 266 262
f 262 286 278
f 278 270 262
f 285 286 288
f 285 288 287
f 287 288 258
f 287 258 257
f 287 257 259
f 259 261 263
f 263 265 267
f 267 269 271
f 271 273 275
f 275 277 279
f 279 281 283
f 283 285 287
f 287 259 263
f 263 267 271
f 271 275 279
f 279 283 287
f 287 263 271
f 271 279 287
v -0.0179999 0.4820000 0.0220000
v -0.0179999 0.4700000 0.0340000
v -0.0300000 0.4820000 0.0340000
v -0.0179999 0.4760079 0.0236031
v -0.0239921 0.4820000 0.0236031
v -0.0237386 0.4762615 0.0251604
v -0.0239921 0.4716032 0.0340000
v -0.0179999 0.4716032 0.0280079
v -0.0237386 0.4731604 0.0282615
v -0.0283968 0.4820000 0.0280079
v -0.0283968 0.4760079 0.0340000
v -0.0268395 0.4762615 0.0282615
v -0.0179999 0.4700000 0.0370000
v -0.0179999 0.4820000 0.0490000
v -0.0300000 0.4820000 0.0370000
v -0.0179999 0.4716032 0.0429921
v -0.0239921 0.4716032 0.0370000
v -0.0237386 0.4731604 0.0427385
v -0.0239921 0.4820000 0.0473968
v -0.0179999 0.4760079 0.0473968
v -0.0237386 0.4762615 0.0458396
v -0.0283968 0.4760079 0.0370000
v -0.0283968 0.4820000 0.0429921
v -0.0268395 0.4762615 0.0427385
v -0.0179999 0.5180000 0.0220000
v -0.0300000 0.5180000 0.0340000
v -0.0179999 0.5300000 0.0340000
v -0.0239921 0.5180000 0.0236031
v -0.0179999 0.5239921 0.0236031
v -0.0237386 0.5237386 0.0251604
v -0.0283968 0.5239921 0.0340000
v -0.0283968 0.5180000 0.0280079
v -0.0268395 0.5237386 0.0282615
v -0.0179999 0.5283968 0.0280079
v -0.0239921 0.5283968 0.0340000
v -0.0237386 0.5268396 0.0282615
v -0.0179999 0.5180000 0.0490000
v -0.0179999 0.5300000 0.0370000
v -0.0300000 0.5180000 0.0370000
v -0.0179999 0.5239921 0.0473968
v -0.0239921 0.5180000 0.0473968
v -0.0237386 0.5237386 0.0458396
v -0.0239921 0.5283968 0.0370000
v -0.0179999 0.5283968 0.0429921
v -0.0237386 0.5268396 0.0427385
v -0.0283968 0.5180000 0.0429921
v -0.0283968 0.5239921 0.0370000
v -0.0268395 0.5237386 0.0427385
v 0.0179999 0.4820000 0.0220000
v 0.0300000 0.4820000 0.0340000
v 0.0179999 0.4700000 0.0340000
v 0.0239921 0.4820000 0.0236031
v 0.0179999 0.4760079 0.0236031
v 0.0237386 0.4762615 0.0251604
v 0.0283968 0.4760079 0.0340000
v 0.0283968 0.4820000 0.0280079
v 0.0268395 0.4762615 0.0282615
v 0.0179999 0.4716032 0.0280079
v 0.0239921 0.4716032 0.0340000
v 0.0237386 0.4731604 0.0282615
v 0.0179999 0.4820000 0.0490000
v 0.0179999 0.4700000 0.0370000
v 0.0300000 0.4820000 0.0370000
v 0.0179999 0.4760079 0.0473968
v 0.0239921 0.4820000 0.0473968
v 0.0237386 0.4762615 0.0458396
v 0.0239921 0.4716032 0.0370000
v 0.0179999 0.4716032 0.0429921
v 0.0237386 0.4731604 0.0427385
v 0.0283968 0.4820000 0.0429921
v 0.0283968 0.4760079 0.0370000
v 0.0268395 0.4762615 0.0427385
v 0.0179999 0.5180000 0.0220000
v 0.0179999 0.5300000 0.0340000
v 0.0300000 0.5180000 0.0340000
v 0.0179999 0.5239921 0.0236031
v 0.0239921 0.5180000 0.0236031
v 0.0237386 0.5237386 0.0251604
v 0.0239921 0.5283968 0.0340000
v 0.0179999 0.5283968 0.0280079
v 0.0237386 0.5268396 0.0282615
v 0.0283968 0.5180000 0.0280079
v 0.0283968 0.5239921 0.0340000
v 0.0268395 0.5237386 0.0282615
v 0.0179999 0.5180000 0.0490000
v 0.0300000 0.5180000 0.0370000
v 0.0179999 0.5300000 0.0370000
v 0.0239921 0.5180000 0.0473968
v 0.0179999 0.5239921 0.0473968
v 0.0237386 0.5237386 0.0458396
v 0.0283968 0.5239921 0.0370000
v 0.0283968 0.5180000 0.0429921
v 0.0268395 0.5237386 0.0427385
v 0.0179999 0.5283968 0.0429921
v 0.0239921 0.5283968 0.0370000
v 0.0237386 0.5268396 0.0427385
f 289 292 294
f 289 294 293
f 292 296 297
f 292 297 294
f 290 295 297
f 290 297 296
f 295 299 300
f 295 300 297
f 291 298 300
f 291 300 299
f 298 293 294
f 298 294 300
f 294 297 300
f 301 304 306
f 301 306 305
f 304 308 309
f 304 309 306
f 302 307 309
f 302 309 308
f 307 311 312
f 307 312 309
f 303 310 312
f 303 312 311
f 310 305 306
f 310 306 312
f 306 309 312
f 313 316 318
f 313 318 317
f 316 320 321
f 316 321 318
f 314 319 321
f 314 321 320
f 319 323 324
f 319 324 321
f 315 322 324
f 315 324 323
f 322 317 318
f 322 318 324
f 318 321 324
f 325 328 330
f 325 330 329
f 328 332 333
f 328 333 330
f 326 331 333
f 326 333 332
f 331 335 336
f 331 336 333
f 327 334 336
f 327 336 335
f 334 329 330
f 334 330 336
f 330 333 336
f 337 340 342
f 337 342 341
f 340 344 345
f 340 345 342
f 338 343 345
f 338 345 344
f 343 347 348
f 343 348 345
f 339 346 348
f 339 348 347
f 346 341 342
f 346 342 348
f 342 345 348
f 349 352 354
f 349 354 353
f 352 356 357
f 352 357 354
f 350 355 357
f 350 357 356
f 355 359 360
f 355 360 357
f 351 358 360
f 351 360 359
f 358 353 354
f 358 354 360
f 354 357 360
f 361 364 366
f 361 366 365
f 364 368 369
f 364 369 366
f 362 367 369
f 362 369 368
f 367 371 372
f 367 372 369
f 363 370 372
f 363 372 371
f 370 365 366
f 370 366 372
f 366 369 372
f 373 376 378
f 373 378 377
f 376 380 381
f 376 381 378
f 374 379 381
f 374 381 380
f 379 383 384
f 379 384 381
f 375 382 384
f 375 384 383
f 382 377 378
f 382 378 384
f 378 381 384
f 313 289 293
f 313 293 316
f 316 293 298
f 316 298 320
f 320 298 291
f 320 291 314
f 290 301 305
f 290 305 295
f 295 305 310
f 295 310 299
f 299 310 303
f 299 303 291
f 302 325 329
f 302 329 307
f 307 329 334
f 307 334 311
f 311 334 327
f 311 327 303
f 326 315 323
f 326 323 331
f 331 323 319
f 331 319 335
f 335 319 314
f 335 314 327
f 361 313 317
f 361 317 364
f 364 317 322
f 364 322 368
f 368 322 315
f 368 315 362
f 325 373 377
f 325 377 328
f 328 377 382
f 328 382 332
f 332 382 375
f 332 375 326
f 374 363 371
f 374 371 379
f 379 371 367
f 379 367 383
f 383 367 362
f 383 362 375
f 337 361 365
f 337 365 340
f 340 365 370
f 340 370 344
f 344 370 363
f 344 363 338
f 373 349 353
f 373 353 376
f 376 353 358
f 376 358 380
f 380 358 351
f 380 351 374
f 350 339 347
f 350 347 355
f 355 347 343
f 355 343 359
f 359 343 338
f 359 338 351
f 289 337 341
f 289 341 292
f 292 341 346
f 292 346 296
f 296 346 339
f 296 339 290
f 349 302 308
f 349 308 352
f 352 308 304
f 352 304 356
f 356 304 301
f 356 301 350
f 313 361 337
f 313 337 289
f 291 303 327
f 291 327 314
f 339 350 301
f 339 301 290
f 373 325 302
f 373 302 349
f 315 326 375
f 315 375 362
f 363 374 351
f 363 351 338
