v 0.0117099 -0.0000001 0.0162136
v -0.8882903 0.0000001 0.6662135
v 0.0108185 -0.0076537 0.0149794
v -0.8891816 -0.0076536 0.6649793
v 0.0082800 -0.0141422 0.0114647
v -0.8917201 -0.0141421 0.6614647
v 0.0044811 -0.0184776 0.0062047
v -0.8955190 -0.0184775 0.6562047
v 0.0000000 -0.0200001 0.0000000
v -0.9000001 -0.0200000 0.6500000
v -0.0044811 -0.0184776 -0.0062047
v -0.9044813 -0.0184775 0.6437953
v -0.0082800 -0.0141422 -0.0114647
v -0.9082803 -0.0141421 0.6385353
v -0.0108185 -0.0076537 -0.0149794
v -0.9108186 -0.0076536 0.6350206
v -0.0117097 -0.0000001 -0.0162136
v -0.9117099 0.0000001 0.6337864
v -0.0108185 0.0076536 -0.0149794
v -0.9108186 0.0076537 0.6350206
v -0.0082800 0.0141421 -0.0114647
v -0.9082803 0.0141422 0.6385353
v -0.0044811 0.0184775 -0.0062047
v -0.9044813 0.0184776 0.6437953
v 0.0000000 0.0200000 0.0000000
v -0.9000001 0.0200001 0.6500000
v 0.0044811 0.0184775 0.0062047
v -0.8955190 0.0184776 0.6562047
v 0.0082800 0.0141421 0.0114647
v -0.8917201 0.0141422 0.6614647
v 0.0108185 0.0076536 0.0149794
v -0.8891816 0.0076537 0.6649793
f 1 2 4
f 1 4 3
f 3 4 6
f 3 6 5
f 5 6 8
f 5 8 7
f 7 8 10
f 7 10 9
f 9 10 12
f 9 12 11
f 11 12 14
f 11 14 13
f 13 14 16
f 13 16 15
f 15 16 18
f 15 18 17
f 17 18 20
f 17 20 19
f 19 20 22
f 19 22 21
f 21 22 24
f 21 24 23
f 23 24 26
f 23 26 25
f 25 26 28
f 25 28 27
f 27 28 30
f 27 30 29
f 6 4 2
f 2 32 30
f 30 28 26
f 26 24 22
f 22 20 18
f 18 16 14
f 14 12 10
f 10 8 6
f 6 2 30
f 30 26 22
f 22 18 14
f 14 10 6
f 6 30 22
f 22 14 6
f 29 30 32
f 29 32 31
f 31 32 2
f 31 2 1
f 31 1 3
f 3 5 7
f 7 9 11
f 11 13 15
f 15 17 19
f 19 21 23
f 23 25 27
f 27 29 31
f 31 3 7
f 7 11 15
f 15 19 23
f 23 27 31
f 31 7 15
f 15 23 31
v -0.9000001 -0.2040000 0.6500000
v -0.9056749 -0.2021244 0.6540984
v -0.9098291 -0.1970000 0.6570987
v -0.9113497 -0.1900000 0.6581968
v -0.9098291 -0.1830000 0.6570987
v -0.9056748 -0.1778757 0.6540984
v -0.9000001 -0.1760000 0.6500000
v -0.8943254 -0.1778757 0.6459016
v -0.8901712 -0.1830000 0.6429013
v -0.8886507 -0.1900000 0.6418031
v -0.8901712 -0.1970000 0.6429013
v -0.8943254 -0.2021244 0.6459016
v -0.8921883 -0.2035632 0.6608163
v -0.8979349 -0.2016916 0.6648153
v -0.9022853 -0.1965782 0.6675439
v -0.9040740 -0.1895932 0.6682708
v -0.9028214 -0.1826082 0.6668016
v -0.8988634 -0.1774948 0.6635296
v -0.8932606 -0.1756232 0.6593317
v -0.8875140 -0.1774948 0.6553327
v -0.8831636 -0.1826082 0.6526041
v -0.8813750 -0.1895932 0.6518772
v -0.8826275 -0.1965782 0.6533464
v -0.8865855 -0.2016916 0.6566184
v -0.8844100 -0.2022548 0.6715863
v -0.8902282 -0.2003952 0.6754862
v -0.8947740 -0.1953147 0.6779442
v -0.8968295 -0.1883745 0.6783017
v -0.8958439 -0.1814344 0.6764628
v -0.8920813 -0.1763539 0.6729203
v -0.8865498 -0.1744943 0.6686234
v -0.8807318 -0.1763539 0.6647234
v -0.8761860 -0.1814344 0.6622654
v -0.8741305 -0.1883745 0.6619079
v -0.8751161 -0.1953147 0.6637468
v -0.8788786 -0.2003952 0.6672894
v -0.8766985 -0.2000802 0.6822637
v -0.8825876 -0.1982406 0.6860656
v -0.8873271 -0.1932147 0.6882554
v -0.8896471 -0.1863492 0.6882465
v -0.8889261 -0.1794837 0.6860412
v -0.8853573 -0.1744578 0.6822305
v -0.8798968 -0.1726182 0.6778355
v -0.8740078 -0.1744578 0.6740336
v -0.8692682 -0.1794837 0.6718438
v -0.8669481 -0.1863492 0.6718527
v -0.8676691 -0.1932147 0.6740580
v -0.8712380 -0.1982406 0.6778687
v -0.8690867 -0.1970489 0.6928031
v -0.8750458 -0.1952372 0.6965080
v -0.8799765 -0.1902874 0.6984330
v -0.8825577 -0.1835259 0.6980625
v -0.8820980 -0.1767644 0.6954956
v -0.8787203 -0.1718147 0.6914202
v -0.8733298 -0.1700030 0.6869282
v -0.8673708 -0.1718147 0.6832232
v -0.8624401 -0.1767644 0.6812983
v -0.8598588 -0.1835259 0.6816688
v -0.8603185 -0.1902874 0.6842357
v -0.8636962 -0.1952372 0.6883111
v -0.8616073 -0.1931738 0.7031592
v -0.8676351 -0.1913977 0.7067689
v -0.8727537 -0.1865452 0.7084339
v -0.8755916 -0.1799167 0.7077079
v -0.8753885 -0.1732882 0.7047856
v -0.8721987 -0.1684358 0.7004501
v -0.8668770 -0.1666597 0.6958629
v -0.8608491 -0.1684358 0.6922532
v -0.8557305 -0.1732882 0.6905882
v -0.8528926 -0.1799167 0.6913141
v -0.8530958 -0.1865452 0.6942364
v -0.8562856 -0.1913977 0.6985720
v -0.8542924 -0.1884715 0.7132876
v -0.8603874 -0.1867386 0.7168041
v -0.8656898 -0.1820043 0.7182146
v -0.8687787 -0.1755371 0.7171413
v -0.8688265 -0.1690700 0.7138714
v -0.8658205 -0.1643357 0.7092814
v -0.8605660 -0.1626028 0.7046010
v -0.8544710 -0.1643357 0.7010845
v -0.8491687 -0.1690700 0.6996740
v -0.8460797 -0.1755371 0.7007475
v -0.8460318 -0.1820043 0.7040173
v -0.8490379 -0.1867386 0.7086073
v -0.8471731 -0.1829621 0.7231451
v -0.8533336 -0.1812798 0.7265710
v -0.8588148 -0.1766839 0.7277339
v -0.8621480 -0.1704058 0.7263222
v -0.8624401 -0.1641277 0.7227142
v -0.8596129 -0.1595318 0.7178766
v -0.8544239 -0.1578496 0.7131056
v -0.8482634 -0.1595318 0.7096796
v -0.8427823 -0.1641277 0.7085167
v -0.8394490 -0.1704058 0.7099284
v -0.8391569 -0.1766839 0.7135365
v -0.8419840 -0.1812798 0.7183741
v -0.8402801 -0.1766692 0.7326893
v -0.8465039 -0.1750448 0.7360275
v -0.8521583 -0.1706070 0.7369506
v -0.8557280 -0.1645448 0.7352114
v -0.8562567 -0.1584826 0.7312759
v -0.8536026 -0.1540448 0.7261984
v -0.8484769 -0.1524205 0.7213398
v -0.8422531 -0.1540448 0.7180016
v -0.8365988 -0.1584827 0.7170784
v -0.8330290 -0.1645448 0.7188177
v -0.8325003 -0.1706070 0.7227533
v -0.8351544 -0.1750448 0.7278306
v -0.8336427 -0.1696198 0.7418795
v -0.8399277 -0.1680603 0.7451330
v -0.8457487 -0.1637995 0.7458254
v -0.8495462 -0.1579792 0.7437708
v -0.8503026 -0.1521589 0.7395200
v -0.8478153 -0.1478982 0.7342117
v -0.8427507 -0.1463387 0.7292686
v -0.8364657 -0.1478982 0.7260149
v -0.8306447 -0.1521589 0.7253225
v -0.8268472 -0.1579792 0.7273771
v -0.8260908 -0.1637995 0.7316279
v -0.8285781 -0.1680603 0.7369362
v -0.8272896 -0.1618441 0.7506760
v -0.8336329 -0.1603561 0.7538489
v -0.8396136 -0.1562906 0.7543201
v -0.8436291 -0.1507372 0.7519639
v -0.8446035 -0.1451837 0.7474110
v -0.8422757 -0.1411183 0.7418818
v -0.8372695 -0.1396302 0.7368578
v -0.8309262 -0.1411183 0.7336850
v -0.8249456 -0.1451837 0.7332137
v -0.8209300 -0.1507372 0.7355701
v -0.8199556 -0.1562907 0.7401228
v -0.8222834 -0.1603561 0.7456520
v -0.8212478 -0.1533753 0.7590417
v -0.8276466 -0.1519651 0.7621375
v -0.8337791 -0.1481124 0.7623987
v -0.8380018 -0.1428496 0.7597553
v -0.8391836 -0.1375867 0.7549155
v -0.8370076 -0.1337340 0.7491761
v -0.8320570 -0.1323238 0.7440752
v -0.8256581 -0.1337340 0.7409793
v -0.8195257 -0.1375867 0.7407181
v -0.8153028 -0.1428496 0.7433616
v -0.8141211 -0.1481125 0.7482014
v -0.8162972 -0.1519652 0.7539407
v -0.8155432 -0.1442498 0.7669404
v -0.8219945 -0.1429235 0.7699636
v -0.8282702 -0.1393000 0.7700263
v -0.8326888 -0.1343503 0.7671119
v -0.8340663 -0.1294005 0.7620010
v -0.8320336 -0.1257771 0.7560633
v -0.8271353 -0.1244508 0.7508897
v -0.8206841 -0.1257771 0.7478664
v -0.8144083 -0.1294006 0.7478037
v -0.8099898 -0.1343503 0.7507181
v -0.8086123 -0.1393000 0.7558290
v -0.8106450 -0.1429235 0.7617667
v -0.8102003 -0.1345066 0.7743382
v -0.8167007 -0.1332699 0.7772934
v -0.8231107 -0.1298911 0.7771704
v -0.8277125 -0.1252757 0.7740021
v -0.8292733 -0.1206603 0.7686373
v -0.8273749 -0.1172816 0.7625138
v -0.8225257 -0.1160449 0.7572721
v -0.8160254 -0.1172816 0.7543169
v -0.8096155 -0.1206603 0.7544399
v -0.8050135 -0.1252757 0.7576083
v -0.8034527 -0.1298912 0.7629730
v -0.8053513 -0.1332699 0.7690965
v -0.8052419 -0.1241874 0.7812036
v -0.8117880 -0.1230456 0.7840958
v -0.8183224 -0.1199260 0.7838002
v -0.8230945 -0.1156647 0.7803963
v -0.8248254 -0.1114034 0.7747960
v -0.8230515 -0.1082838 0.7685001
v -0.8182479 -0.1071421 0.7631953
v -0.8117020 -0.1082839 0.7603031
v -0.8051676 -0.1114034 0.7605987
v -0.8003955 -0.1156647 0.7640026
v -0.7986645 -0.1199260 0.7696028
v -0.8004384 -0.1230456 0.7758988
v -0.8006893 -0.1133363 0.7875073
v -0.8072772 -0.1122943 0.7903414
v -0.8139260 -0.1094473 0.7898875
v -0.8188542 -0.1055583 0.7862674
v -0.8207414 -0.1016693 0.7804508
v -0.8190819 -0.0988224 0.7739965
v -0.8143202 -0.0977803 0.7686337
v -0.8077323 -0.0988224 0.7657995
v -0.8010836 -0.1016693 0.7662535
v -0.7961552 -0.1055583 0.7698736
v -0.7942681 -0.1094473 0.7756902
v -0.7959276 -0.1122943 0.7821445
v -0.7965620 -0.1020000 0.7932221
v -0.8031877 -0.1010622 0.7960037
v -0.8099402 -0.0985000 0.7954062
v -0.8150102 -0.0950000 0.7915900
v -0.8170390 -0.0915000 0.7855773
v -0.8154831 -0.0889378 0.7789794
v -0.8107593 -0.0880000 0.7735641
v -0.8041335 -0.0889378 0.7707825
v -0.7973810 -0.0915000 0.7713799
v -0.7923112 -0.0950000 0.7751962
v -0.7902824 -0.0985000 0.7812089
v -0.7918383 -0.1010622 0.7878067
v -0.7928776 -0.0902269 0.7983235
v -0.7995373 -0.0893973 0.8010582
v -0.8063823 -0.0871309 0.8003327
v -0.8115786 -0.0840349 0.7963413
v -0.8137338 -0.0809388 0.7901536
v -0.8122705 -0.0786724 0.7834276
v -0.8075807 -0.0778428 0.7779654
v -0.8009210 -0.0786724 0.7752306
v -0.7940760 -0.0809388 0.7759563
v -0.7888796 -0.0840349 0.7799476
v -0.7867243 -0.0871309 0.7861353
v -0.7881877 -0.0893973 0.7928613
v -0.7896519 -0.0780675 0.8027898
v -0.7963412 -0.0773497 0.8054835
v -0.8032674 -0.0753887 0.8046458
v -0.8085743 -0.0727099 0.8005011
v -0.8108402 -0.0700311 0.7941601
v -0.8094579 -0.0680701 0.7873219
v -0.8047978 -0.0673523 0.7818187
v -0.7981083 -0.0680701 0.7791251
v -0.7911823 -0.0700311 0.7799628
v -0.7858753 -0.0727099 0.7841074
v -0.7836094 -0.0753887 0.7904484
v -0.7849917 -0.0773497 0.7972866
v -0.7868987 -0.0655736 0.8066020
v -0.7936133 -0.0649707 0.8092605
v -0.8006086 -0.0633236 0.8083271
v -0.8060101 -0.0610735 0.8040516
v -0.8083705 -0.0588234 0.7975799
v -0.8070573 -0.0571762 0.7906458
v -0.8024224 -0.0565733 0.7851076
v -0.7957078 -0.0571762 0.7824490
v -0.7887125 -0.0588234 0.7833824
v -0.7833110 -0.0610735 0.7876579
v -0.7809507 -0.0633236 0.7941296
v -0.7822639 -0.0649707 0.8010637
v -0.7846298 -0.0527991 0.8097434
v -0.7913654 -0.0523137 0.8123732
v -0.7984176 -0.0509874 0.8113607
v -0.8038969 -0.0491756 0.8069775
v -0.8063352 -0.0473639 0.8003980
v -0.8050790 -0.0460376 0.7933850
v -0.8004650 -0.0455522 0.7878178
v -0.7937294 -0.0460376 0.7851882
v -0.7866772 -0.0473639 0.7862005
v -0.7811979 -0.0491756 0.7905837
v -0.7787597 -0.0509874 0.7971634
v -0.7800158 -0.0523137 0.8041762
v -0.7828550 -0.0397985 0.8122009
v -0.7896068 -0.0394326 0.8148080
v -0.7967037 -0.0384328 0.8137338
v -0.8022439 -0.0370672 0.8092663
v -0.8047431 -0.0357016 0.8026024
v -0.8035314 -0.0347019 0.7955277
v -0.7989337 -0.0343359 0.7899380
v -0.7921820 -0.0347019 0.7873309
v -0.7850851 -0.0357016 0.7884049
v -0.7795449 -0.0370672 0.7928725
v -0.7770457 -0.0384328 0.7995365
v -0.7782574 -0.0394326 0.8066111
v -0.7815819 -0.0266273 0.8139638
v -0.7883453 -0.0263825 0.8165547
v -0.7954742 -0.0257136 0.8154362
v -0.8010581 -0.0247999 0.8109082
v -0.8036009 -0.0238863 0.8041838
v -0.8024213 -0.0232174 0.7970649
v -0.7978354 -0.0229726 0.7914588
v -0.7910718 -0.0232174 0.7888680
v -0.7839431 -0.0238863 0.7899864
v -0.7783591 -0.0247999 0.7945144
v -0.7758163 -0.0257136 0.8012388
v -0.7769959 -0.0263825 0.8083577
v -0.7808157 -0.0133422 0.8150245
v -0.7875863 -0.0132196 0.8176056
v -0.7947344 -0.0128844 0.8164606
v -0.8003446 -0.0124266 0.8118961
v -0.8029137 -0.0119688 0.8051354
v -0.8017533 -0.0116336 0.7979897
v -0.7971743 -0.0115109 0.7923740
v -0.7904038 -0.0116336 0.7897929
v -0.7832558 -0.0119688 0.7909379
v -0.7776456 -0.0124266 0.7955024
v -0.7750765 -0.0128844 0.8022631
v -0.7762368 -0.0132196 0.8094088
v -0.7805600 -0.0000000 0.8153785
v -0.7873330 -0.0000000 0.8179564
v -0.7944875 0.0000000 0.8168025
v -0.8001064 0.0000000 0.8122259
v -0.8026843 0.0000000 0.8054529
v -0.8015304 0.0000000 0.7982985
v -0.7969538 0.0000000 0.7926795
v -0.7901808 -0.0000000 0.7901016
v -0.7830263 -0.0000000 0.7912556
v -0.7774074 -0.0000000 0.7958322
v -0.7748295 -0.0000000 0.8026052
v -0.7759835 -0.0000000 0.8097596
v -0.7808157 0.0133422 0.8150245
v -0.7875863 0.0132195 0.8176056
v -0.7947344 0.0128844 0.8164606
v -0.8003446 0.0124266 0.8118961
v -0.8029137 0.0119687 0.8051354
v -0.8017533 0.0116336 0.7979897
v -0.7971743 0.0115109 0.7923740
v -0.7904038 0.0116336 0.7897929
v -0.7832558 0.0119687 0.7909379
v -0.7776456 0.0124266 0.7955024
v -0.7750765 0.0128844 0.8022631
v -0.7762368 0.0132195 0.8094088
v -0.7815819 0.0266274 0.8139637
v -0.7883453 0.0263826 0.8165547
v -0.7954742 0.0257137 0.8154362
v -0.8010581 0.0248000 0.8109082
v -0.8036009 0.0238863 0.8041838
v -0.8024213 0.0232175 0.7970649
v -0.7978354 0.0229726 0.7914588
v -0.7910718 0.0232175 0.7888680
v -0.7839431 0.0238863 0.7899864
v -0.7783591 0.0248000 0.7945144
v -0.7758163 0.0257137 0.8012388
v -0.7769959 0.0263826 0.8083577
v -0.7828550 0.0397984 0.8122008
v -0.7896068 0.0394325 0.8148079
v -0.7967037 0.0384328 0.8137338
v -0.8022439 0.0370672 0.8092663
v -0.8047431 0.0357015 0.8026024
v -0.8035314 0.0347018 0.7955277
v -0.7989337 0.0343359 0.7899380
v -0.7921820 0.0347018 0.7873309
v -0.7850851 0.0357015 0.7884049
v -0.7795448 0.0370672 0.7928725
v -0.7770457 0.0384328 0.7995365
v -0.7782574 0.0394325 0.8066111
v -0.7846298 0.0527991 0.8097434
v -0.7913654 0.0523136 0.8123732
v -0.7984176 0.0509873 0.8113607
v -0.8038969 0.0491756 0.8069775
v -0.8063352 0.0473639 0.8003979
v -0.8050790 0.0460376 0.7933850
v -0.8004650 0.0455521 0.7878178
v -0.7937294 0.0460376 0.7851882
v -0.7866772 0.0473639 0.7862005
v -0.7811979 0.0491756 0.7905837
v -0.7787596 0.0509873 0.7971634
v -0.7800158 0.0523136 0.8041762
v -0.7868987 0.0655737 0.8066019
v -0.7936133 0.0649708 0.8092605
v -0.8006086 0.0633236 0.8083270
v -0.8060101 0.0610735 0.8040516
v -0.8083705 0.0588235 0.7975798
v -0.8070573 0.0571763 0.7906458
v -0.8024224 0.0565734 0.7851075
v -0.7957078 0.0571763 0.7824489
v -0.7887125 0.0588235 0.7833824
v -0.7833110 0.0610735 0.7876579
v -0.7809507 0.0633236 0.7941296
v -0.7822639 0.0649708 0.8010637
v -0.7896519 0.0780675 0.8027898
v -0.7963412 0.0773497 0.8054835
v -0.8032672 0.0753887 0.8046458
v -0.8085743 0.0727099 0.8005011
v -0.8108402 0.0700311 0.7941601
v -0.8094579 0.0680701 0.7873219
v -0.8047976 0.0673523 0.7818187
v -0.7981083 0.0680701 0.7791251
v -0.7911823 0.0700311 0.7799628
v -0.7858753 0.0727099 0.7841074
v -0.7836094 0.0753887 0.7904483
v -0.7849916 0.0773497 0.7972866
v -0.7928776 0.0902269 0.7983235
v -0.7995372 0.0893973 0.8010582
v -0.8063823 0.0871309 0.8003327
v -0.8115786 0.0840348 0.7963413
v -0.8137338 0.0809388 0.7901536
v -0.8122705 0.0786724 0.7834276
v -0.8075806 0.0778428 0.7779654
v -0.8009210 0.0786724 0.7752306
v -0.7940758 0.0809388 0.7759563
v -0.7888796 0.0840348 0.7799475
v -0.7867243 0.0871309 0.7861353
v -0.7881877 0.0893973 0.7928613
v -0.7965620 0.1020000 0.7932221
v -0.8031877 0.1010621 0.7960036
v -0.8099402 0.0985000 0.7954062
v -0.8150102 0.0950000 0.7915900
v -0.8170389 0.0915000 0.7855773
v -0.8154831 0.0889378 0.7789794
v -0.8107593 0.0880000 0.7735641
v -0.8041335 0.0889378 0.7707825
v -0.7973810 0.0915000 0.7713798
v -0.7923111 0.0950000 0.7751962
v -0.7902824 0.0985000 0.7812089
v -0.7918382 0.1010621 0.7878067
v -0.8006893 0.1133363 0.7875073
v -0.8072771 0.1122942 0.7903414
v -0.8139260 0.1094473 0.7898875
v -0.8188542 0.1055583 0.7862673
v -0.8207414 0.1016693 0.7804508
v -0.8190818 0.0988224 0.7739965
v -0.8143202 0.0977803 0.7686337
v -0.8077323 0.0988224 0.7657995
v -0.8010834 0.1016693 0.7662534
v -0.7961552 0.1055583 0.7698736
v -0.7942680 0.1094473 0.7756902
v -0.7959276 0.1122942 0.7821445
v -0.8052419 0.1241873 0.7812036
v -0.8117878 0.1230455 0.7840958
v -0.8183224 0.1199260 0.7838002
v -0.8230945 0.1156647 0.7803963
v -0.8248254 0.1114034 0.7747960
v -0.8230515 0.1082838 0.7685000
v -0.8182479 0.1071420 0.7631953
v -0.8117019 0.1082838 0.7603031
v -0.8051674 0.1114034 0.7605987
v -0.8003954 0.1156647 0.7640026
v -0.7986645 0.1199260 0.7696028
v -0.8004384 0.1230455 0.7758988
v -0.8102003 0.1345066 0.7743381
v -0.8167007 0.1332698 0.7772934
v -0.8231106 0.1298911 0.7771703
v -0.8277125 0.1252757 0.7740021
v -0.8292733 0.1206603 0.7686373
v -0.8273748 0.1172816 0.7625138
v -0.8225257 0.1160448 0.7572721
v -0.8160254 0.1172816 0.7543169
v -0.8096154 0.1206603 0.7544399
v -0.8050135 0.1252757 0.7576083
v -0.8034527 0.1298911 0.7629730
v -0.8053511 0.1332698 0.7690965
v -0.8155432 0.1442498 0.7669402
v -0.8219945 0.1429236 0.7699635
v -0.8282702 0.1393001 0.7700263
v -0.8326888 0.1343503 0.7671118
v -0.8340663 0.1294006 0.7620009
v -0.8320335 0.1257771 0.7560632
v -0.8271353 0.1244508 0.7508897
v -0.8206841 0.1257771 0.7478664
v -0.8144083 0.1294006 0.7478036
v -0.8099898 0.1343503 0.7507181
v -0.8086123 0.1393001 0.7558289
v -0.8106450 0.1429236 0.7617667
v -0.8212478 0.1533754 0.7590417
v -0.8276466 0.1519652 0.7621375
v -0.8337790 0.1481124 0.7623987
v -0.8380018 0.1428496 0.7597553
v -0.8391836 0.1375867 0.7549155
v -0.8370076 0.1337340 0.7491761
v -0.8320569 0.1323238 0.7440752
v -0.8256581 0.1337340 0.7409792
v -0.8195257 0.1375867 0.7407180
v -0.8153028 0.1428496 0.7433615
v -0.8141211 0.1481124 0.7482013
v -0.8162971 0.1519652 0.7539406
v -0.8272896 0.1618441 0.7506760
v -0.8336328 0.1603561 0.7538488
v -0.8396136 0.1562906 0.7543201
v -0.8436290 0.1507371 0.7519637
v -0.8446034 0.1451837 0.7474110
v -0.8422757 0.1411183 0.7418818
v -0.8372694 0.1396302 0.7368578
v -0.8309262 0.1411183 0.7336850
v -0.8249456 0.1451837 0.7332137
v -0.8209300 0.1507371 0.7355701
v -0.8199556 0.1562906 0.7401228
v -0.8222834 0.1603560 0.7456520
v -0.8336427 0.1696198 0.7418793
v -0.8399276 0.1680603 0.7451330
v -0.8457487 0.1637995 0.7458254
v -0.8495462 0.1579792 0.7437708
v -0.8503026 0.1521589 0.7395200
v -0.8478153 0.1478982 0.7342117
v -0.8427505 0.1463387 0.7292686
v -0.8364657 0.1478982 0.7260149
v -0.8306446 0.1521589 0.7253225
v -0.8268472 0.1579792 0.7273771
v -0.8260907 0.1637995 0.7316279
v -0.8285781 0.1680603 0.7369362
v -0.8402801 0.1766692 0.7326893
v -0.8465039 0.1750448 0.7360275
v -0.8521582 0.1706070 0.7369506
v -0.8557279 0.1645449 0.7352114
v -0.8562566 0.1584826 0.7312758
v -0.8536025 0.1540448 0.7261984
v -0.8484769 0.1524204 0.7213398
v -0.8422531 0.1540448 0.7180016
v -0.8365988 0.1584826 0.7170784
v -0.8330289 0.1645448 0.7188177
v -0.8325002 0.1706070 0.7227532
v -0.8351543 0.1750448 0.7278305
v -0.8471731 0.1829620 0.7231450
v -0.8533336 0.1812799 0.7265710
v -0.8588147 0.1766839 0.7277339
v -0.8621479 0.1704058 0.7263222
v -0.8624401 0.1641277 0.7227141
v -0.8596129 0.1595319 0.7178764
v -0.8544239 0.1578496 0.7131056
v -0.8482634 0.1595318 0.7096796
v -0.8427821 0.1641277 0.7085167
v -0.8394489 0.1704058 0.7099284
v -0.8391569 0.1766839 0.7135365
v -0.8419840 0.1812798 0.7183740
v -0.8542923 0.1884715 0.7132876
v -0.8603873 0.1867386 0.7168041
v -0.8656898 0.1820043 0.7182146
v -0.8687787 0.1755371 0.7171412
v -0.8688265 0.1690700 0.7138714
v -0.8658204 0.1643357 0.7092814
v -0.8605659 0.1626028 0.7046010
v -0.8544710 0.1643356 0.7010845
v -0.8491685 0.1690700 0.6996740
v -0.8460796 0.1755371 0.7007475
v -0.8460318 0.1820042 0.7040173
v -0.8490379 0.1867386 0.7086073
v -0.8616073 0.1931738 0.7031591
v -0.8676351 0.1913977 0.7067688
v -0.8727537 0.1865453 0.7084337
v -0.8755916 0.1799168 0.7077078
v -0.8753885 0.1732883 0.7047856
v -0.8721987 0.1684358 0.7004499
v -0.8668770 0.1666597 0.6958628
v -0.8608491 0.1684358 0.6922531
v -0.8557305 0.1732883 0.6905881
v -0.8528926 0.1799168 0.6913141
v -0.8530958 0.1865453 0.6942363
v -0.8562856 0.1913977 0.6985719
v -0.8690867 0.1970489 0.6928030
v -0.8750457 0.1952372 0.6965079
v -0.8799764 0.1902874 0.6984330
v -0.8825577 0.1835259 0.6980624
v -0.8820980 0.1767645 0.6954956
v -0.8787203 0.1718147 0.6914201
v -0.8733298 0.1700030 0.6869282
v -0.8673707 0.1718147 0.6832232
v -0.8624400 0.1767645 0.6812981
v -0.8598588 0.1835259 0.6816688
v -0.8603185 0.1902874 0.6842356
v -0.8636962 0.1952372 0.6883111
v -0.8766985 0.2000802 0.6822637
v -0.8825874 0.1982406 0.6860656
v -0.8873270 0.1932147 0.6882553
v -0.8896471 0.1863492 0.6882464
v -0.8889261 0.1794837 0.6860411
v -0.8853573 0.1744578 0.6822305
v -0.8798968 0.1726182 0.6778353
v -0.8740077 0.1744578 0.6740335
v -0.8692682 0.1794837 0.6718438
v -0.8669481 0.1863492 0.6718527
v -0.8676691 0.1932147 0.6740580
v -0.8712380 0.1982406 0.6778686
v -0.8844100 0.2022547 0.6715862
v -0.8902282 0.2003952 0.6754862
v -0.8947740 0.1953147 0.6779442
v -0.8968294 0.1883745 0.6783017
v -0.8958439 0.1814344 0.6764628
v -0.8920813 0.1763539 0.6729203
v -0.8865498 0.1744943 0.6686234
v -0.8807317 0.1763539 0.6647234
v -0.8761859 0.1814344 0.6622654
v -0.8741304 0.1883745 0.6619079
v -0.8751160 0.1953147 0.6637468
v -0.8788786 0.2003952 0.6672893
v -0.8921883 0.2035632 0.6608163
v -0.8979349 0.2016916 0.6648153
v -0.9022853 0.1965782 0.6675438
v -0.9040740 0.1895932 0.6682708
v -0.9028214 0.1826082 0.6668016
v -0.8988634 0.1774948 0.6635295
v -0.8932605 0.1756231 0.6593317
v -0.8875139 0.1774948 0.6553327
v -0.8831635 0.1826082 0.6526041
v -0.8813748 0.1895932 0.6518772
v -0.8826274 0.1965782 0.6533464
v -0.8865854 0.2016916 0.6566184
v -0.9000001 0.2040000 0.6500000
v -0.9056748 0.2021244 0.6540984
v -0.9098290 0.1970001 0.6570987
v -0.9113495 0.1900000 0.6581968
v -0.9098290 0.1830000 0.6570987
v -0.9056748 0.1778757 0.6540984
v -0.9000001 0.1760000 0.6500000
v -0.8943253 0.1778757 0.6459016
v -0.8901711 0.1830000 0.6429013
v -0.8886505 0.1900000 0.6418031
v -0.8901711 0.1970000 0.6429013
v -0.8943253 0.2021244 0.6459016
v -0.9078118 0.2035632 0.6391838
v -0.9134147 0.2016917 0.6433816
v -0.9173727 0.1965782 0.6466535
v -0.9186252 0.1895932 0.6481229
v -0.9168366 0.1826082 0.6473958
v -0.9124862 0.1774948 0.6446673
v -0.9067396 0.1756232 0.6406683
v -0.9011366 0.1774948 0.6364704
v -0.8971786 0.1826082 0.6331985
v -0.8959262 0.1895932 0.6317291
v -0.8977147 0.1965782 0.6324562
v -0.9020653 0.2016916 0.6351848
v -0.9155902 0.2022548 0.6284137
v -0.9211216 0.2003952 0.6327106
v -0.9248842 0.1953147 0.6362531
v -0.9258697 0.1883745 0.6380919
v -0.9238143 0.1814344 0.6377345
v -0.9192684 0.1763539 0.6352764
v -0.9134504 0.1744943 0.6313765
v -0.9079189 0.1763539 0.6270796
v -0.9041563 0.1814344 0.6235371
v -0.9031707 0.1883745 0.6216983
v -0.9052262 0.1953147 0.6220556
v -0.9097720 0.2003952 0.6245137
v -0.9233017 0.2000802 0.6177362
v -0.9287622 0.1982406 0.6221312
v -0.9323311 0.1932147 0.6259420
v -0.9330521 0.1863492 0.6281472
v -0.9307319 0.1794837 0.6281562
v -0.9259924 0.1744578 0.6259663
v -0.9201034 0.1726182 0.6221646
v -0.9146429 0.1744578 0.6177695
v -0.9110740 0.1794837 0.6139587
v -0.9103531 0.1863492 0.6117535
v -0.9126731 0.1932147 0.6117446
v -0.9174126 0.1982406 0.6139344
v -0.9309134 0.1970489 0.6071968
v -0.9363040 0.1952372 0.6116889
v -0.9396816 0.1902874 0.6157643
v -0.9401414 0.1835259 0.6183312
v -0.9375601 0.1767645 0.6187017
v -0.9326293 0.1718147 0.6167767
v -0.9266704 0.1700030 0.6130718
v -0.9212799 0.1718147 0.6085798
v -0.9179022 0.1767645 0.6045043
v -0.9174424 0.1835259 0.6019374
v -0.9200237 0.1902874 0.6015669
v -0.9249544 0.1952372 0.6034920
v -0.9383928 0.1931738 0.5968407
v -0.9437145 0.1913977 0.6014280
v -0.9469043 0.1865453 0.6057636
v -0.9471076 0.1799168 0.6086859
v -0.9442695 0.1732883 0.6094117
v -0.9391509 0.1684358 0.6077468
v -0.9331232 0.1666597 0.6041372
v -0.9278015 0.1684358 0.5995500
v -0.9246117 0.1732883 0.5952144
v -0.9244084 0.1799168 0.5922921
v -0.9272465 0.1865453 0.5915662
v -0.9323651 0.1913977 0.5932311
v -0.9457078 0.1884715 0.5867124
v -0.9509623 0.1867386 0.5913926
v -0.9539683 0.1820043 0.5959827
v -0.9539205 0.1755371 0.5992525
v -0.9508315 0.1690700 0.6003259
v -0.9455292 0.1643357 0.5989155
v -0.9394342 0.1626029 0.5953989
v -0.9341797 0.1643357 0.5907186
v -0.9311736 0.1690700 0.5861286
v -0.9312215 0.1755371 0.5828588
v -0.9343104 0.1820043 0.5817853
v -0.9396127 0.1867386 0.5831958
v -0.9528271 0.1829621 0.5768549
v -0.9580162 0.1812799 0.5816258
v -0.9608433 0.1766839 0.5864635
v -0.9605511 0.1704058 0.5900716
v -0.9572179 0.1641277 0.5914832
v -0.9517368 0.1595319 0.5903203
v -0.9455763 0.1578496 0.5868944
v -0.9403872 0.1595318 0.5821235
v -0.9375601 0.1641277 0.5772859
v -0.9378521 0.1704058 0.5736778
v -0.9411854 0.1766839 0.5722661
v -0.9466666 0.1812798 0.5734290
v -0.9597201 0.1766692 0.5673107
v -0.9648458 0.1750449 0.5721694
v -0.9674999 0.1706071 0.5772468
v -0.9669712 0.1645449 0.5811824
v -0.9634014 0.1584827 0.5829215
v -0.9577471 0.1540448 0.5819983
v -0.9515232 0.1524205 0.5786602
v -0.9463975 0.1540448 0.5738015
v -0.9437435 0.1584827 0.5687242
v -0.9442722 0.1645449 0.5647886
v -0.9478419 0.1706070 0.5630494
v -0.9534962 0.1750449 0.5639725
v -0.9663575 0.1696198 0.5581205
v -0.9714221 0.1680603 0.5630637
v -0.9739094 0.1637995 0.5683719
v -0.9731530 0.1579792 0.5726229
v -0.9693555 0.1521589 0.5746773
v -0.9635345 0.1478982 0.5739851
v -0.9572495 0.1463387 0.5707314
v -0.9521849 0.1478982 0.5657883
v -0.9496976 0.1521589 0.5604800
v -0.9504540 0.1579792 0.5562291
v -0.9542515 0.1637995 0.5541745
v -0.9600725 0.1680603 0.5548669
v -0.9727106 0.1618441 0.5493239
v -0.9777168 0.1603561 0.5543480
v -0.9800446 0.1562906 0.5598772
v -0.9790702 0.1507371 0.5644299
v -0.9750546 0.1451837 0.5667863
v -0.9690740 0.1411183 0.5663149
v -0.9627308 0.1396302 0.5631422
v -0.9577245 0.1411183 0.5581181
v -0.9553968 0.1451837 0.5525889
v -0.9563712 0.1507371 0.5480361
v -0.9603866 0.1562906 0.5456797
v -0.9663672 0.1603560 0.5461510
v -0.9787524 0.1533754 0.5409583
v -0.9837030 0.1519652 0.5460593
v -0.9858791 0.1481124 0.5517986
v -0.9846973 0.1428496 0.5566384
v -0.9804745 0.1375867 0.5592818
v -0.9743421 0.1337340 0.5590206
v -0.9679432 0.1323238 0.5559248
v -0.9629925 0.1337340 0.5508238
v -0.9608165 0.1375867 0.5450845
v -0.9619983 0.1428496 0.5402447
v -0.9662211 0.1481124 0.5376012
v -0.9723536 0.1519652 0.5378624
v -0.9844569 0.1442498 0.5330597
v -0.9893552 0.1429236 0.5382333
v -0.9913878 0.1393001 0.5441710
v -0.9900104 0.1343503 0.5492818
v -0.9855918 0.1294006 0.5521964
v -0.9793161 0.1257771 0.5521336
v -0.9728649 0.1244508 0.5491103
v -0.9679666 0.1257771 0.5439367
v -0.9659339 0.1294006 0.5379989
v -0.9673114 0.1343503 0.5328882
v -0.9717300 0.1393001 0.5299736
v -0.9780056 0.1429236 0.5300364
v -0.9897999 0.1345066 0.5256618
v -0.9946489 0.1332699 0.5309035
v -0.9965475 0.1298912 0.5370270
v -0.9949867 0.1252758 0.5423917
v -0.9903847 0.1206603 0.5455600
v -0.9839748 0.1172816 0.5456830
v -0.9774745 0.1160449 0.5427278
v -0.9726253 0.1172816 0.5374862
v -0.9707267 0.1206603 0.5313627
v -0.9722877 0.1252758 0.5259980
v -0.9768895 0.1298912 0.5228297
v -0.9832995 0.1332699 0.5227065
v -0.9947582 0.1241874 0.5187963
v -0.9995618 0.1230456 0.5241011
v -1.0013356 0.1199261 0.5303972
v -0.9996047 0.1156648 0.5359974
v -0.9948326 0.1114034 0.5394013
v -0.9882982 0.1082839 0.5396968
v -0.9817522 0.1071421 0.5368047
v -0.9769486 0.1082839 0.5315000
v -0.9751748 0.1114034 0.5252039
v -0.9769057 0.1156648 0.5196036
v -0.9816778 0.1199261 0.5161997
v -0.9882122 0.1230456 0.5159043
v -0.9993109 0.1133365 0.5124928
v -1.0040724 0.1122944 0.5178555
v -1.0057321 0.1094474 0.5243099
v -1.0038449 0.1055585 0.5301263
v -0.9989166 0.1016695 0.5337466
v -0.9922678 0.0988225 0.5342004
v -0.9856800 0.0977805 0.5313663
v -0.9809183 0.0988225 0.5260036
v -0.9792587 0.1016695 0.5195493
v -0.9811459 0.1055585 0.5137327
v -0.9860741 0.1094474 0.5101124
v -0.9927230 0.1122944 0.5096586
v -1.0034382 0.1020000 0.5067779
v -1.0081619 0.1010621 0.5121932
v -1.0097178 0.0985000 0.5187911
v -1.0076890 0.0950000 0.5248038
v -1.0026191 0.0915000 0.5286200
v -0.9958667 0.0889378 0.5292175
v -0.9892409 0.0880000 0.5264359
v -0.9845171 0.0889378 0.5210205
v -0.9829612 0.0915000 0.5144227
v -0.9849900 0.0950000 0.5084100
v -0.9900600 0.0985000 0.5045937
v -0.9968125 0.1010621 0.5039963
v -1.0071226 0.0902269 0.5016764
v -1.0118124 0.0893973 0.5071386
v -1.0132759 0.0871309 0.5138646
v -1.0111206 0.0840348 0.5200523
v -1.0059242 0.0809388 0.5240437
v -0.9990792 0.0786724 0.5247693
v -0.9924195 0.0778428 0.5220345
v -0.9877297 0.0786724 0.5165724
v -0.9862664 0.0809388 0.5098463
v -0.9884216 0.0840348 0.5036587
v -0.9936179 0.0871309 0.4996673
v -1.0004629 0.0893973 0.4989418
v -1.0103483 0.0780675 0.4972101
v -1.0150084 0.0773497 0.5027133
v -1.0163908 0.0753887 0.5095515
v -1.0141249 0.0727099 0.5158925
v -1.0088179 0.0700311 0.5200372
v -1.0018919 0.0680701 0.5208749
v -0.9952024 0.0673523 0.5181812
v -0.9905423 0.0680701 0.5126780
v -0.9891599 0.0700311 0.5058398
v -0.9914259 0.0727099 0.4994988
v -0.9967328 0.0753887 0.4953542
v -1.0036590 0.0773497 0.4945165
v -1.0131015 0.0655737 0.4933981
v -1.0177363 0.0649708 0.4989363
v -1.0190495 0.0633236 0.5058703
v -1.0166892 0.0610735 0.5123421
v -1.0112877 0.0588235 0.5166175
v -1.0042924 0.0571763 0.5175509
v -0.9975778 0.0565734 0.5148925
v -0.9929429 0.0571763 0.5093541
v -0.9916297 0.0588235 0.5024201
v -0.9939901 0.0610735 0.4959483
v -0.9993916 0.0633236 0.4916729
v -1.0063869 0.0649708 0.4907395
v -1.0153704 0.0527992 0.4902565
v -1.0199844 0.0523137 0.4958237
v -1.0212405 0.0509874 0.5028366
v -1.0188023 0.0491757 0.5094162
v -1.0133229 0.0473640 0.5137994
v -1.0062708 0.0460377 0.5148118
v -0.9995352 0.0455522 0.5121821
v -0.9949212 0.0460377 0.5066149
v -0.9936650 0.0473639 0.4996021
v -0.9961033 0.0491757 0.4930224
v -1.0015826 0.0509874 0.4886392
v -1.0086348 0.0523137 0.4876268
v -1.0171452 0.0397985 0.4877992
v -1.0217428 0.0394326 0.4933889
v -1.0229545 0.0384329 0.5004635
v -1.0204552 0.0370673 0.5071274
v -1.0149151 0.0357016 0.5115950
v -1.0078182 0.0347019 0.5126691
v -1.0010664 0.0343360 0.5100620
v -0.9964687 0.0347019 0.5044723
v -0.9952571 0.0357016 0.4973975
v -0.9977562 0.0370673 0.4907336
v -1.0032965 0.0384329 0.4862661
v -1.0103933 0.0394326 0.4851921
v -1.0184183 0.0266275 0.4860363
v -1.0230043 0.0263827 0.4916422
v -1.0241839 0.0257138 0.4987612
v -1.0216411 0.0248001 0.5054855
v -1.0160571 0.0238864 0.5100136
v -1.0089284 0.0232175 0.5111320
v -1.0021648 0.0229727 0.5085411
v -0.9975789 0.0232175 0.5029351
v -0.9963993 0.0238864 0.4958161
v -0.9989420 0.0248001 0.4890918
v -1.0045260 0.0257138 0.4845637
v -1.0116547 0.0263827 0.4834453
v -1.0191845 0.0133422 0.4849755
v -1.0237634 0.0132195 0.4905912
v -1.0249237 0.0128844 0.4977368
v -1.0223546 0.0124266 0.5044975
v -1.0167444 0.0119687 0.5090621
v -1.0095963 0.0116336 0.5102071
v -1.0028259 0.0115109 0.5076259
v -0.9982469 0.0116336 0.5020102
v -0.9970865 0.0119687 0.4948646
v -0.9996556 0.0124266 0.4881039
v -1.0052658 0.0128844 0.4835393
v -1.0124139 0.0132195 0.4823943
v -1.0194402 0.0000000 0.4846214
v -1.0240167 0.0000000 0.4902403
v -1.0251707 0.0000000 0.4973948
v -1.0225928 0.0000000 0.5041678
v -1.0169739 0.0000000 0.5087444
v -1.0098194 0.0000000 0.5098983
v -1.0030464 0.0000000 0.5073204
v -0.9984698 0.0000000 0.5017015
v -0.9973159 0.0000000 0.4945470
v -0.9998938 0.0000000 0.4877740
v -1.0055127 -0.0000000 0.4831975
v -1.0126672 -0.0000000 0.4820435
v -1.0191845 -0.0133422 0.4849755
v -1.0237634 -0.0132196 0.4905912
v -1.0249237 -0.0128844 0.4977368
v -1.0223546 -0.0124266 0.5044975
v -1.0167444 -0.0119688 0.5090621
v -1.0095963 -0.0116336 0.5102071
v -1.0028259 -0.0115109 0.5076259
v -0.9982469 -0.0116336 0.5020102
v -0.9970865 -0.0119688 0.4948646
v -0.9996556 -0.0124266 0.4881039
v -1.0052658 -0.0128844 0.4835393
v -1.0124139 -0.0132196 0.4823943
v -1.0184183 -0.0266273 0.4860362
v -1.0230043 -0.0263825 0.4916422
v -1.0241840 -0.0257136 0.4987612
v -1.0216411 -0.0247999 0.5054855
v -1.0160571 -0.0238863 0.5100136
v -1.0089284 -0.0232174 0.5111320
v -1.0021648 -0.0229726 0.5085411
v -0.9975789 -0.0232174 0.5029351
v -0.9963993 -0.0238863 0.4958161
v -0.9989421 -0.0247999 0.4890918
v -1.0045260 -0.0257136 0.4845637
v -1.0116549 -0.0263825 0.4834453
v -1.0171452 -0.0397983 0.4877990
v -1.0217428 -0.0394324 0.4933889
v -1.0229545 -0.0384327 0.5004635
v -1.0204554 -0.0370671 0.5071274
v -1.0149151 -0.0357015 0.5115949
v -1.0078182 -0.0347018 0.5126691
v -1.0010664 -0.0343359 0.5100620
v -0.9964688 -0.0347018 0.5044723
v -0.9952571 -0.0357015 0.4973975
v -0.9977562 -0.0370671 0.4907336
v -1.0032965 -0.0384327 0.4862661
v -1.0103934 -0.0394324 0.4851919
v -1.0153704 -0.0527990 0.4902565
v -1.0199844 -0.0523135 0.4958237
v -1.0212406 -0.0509873 0.5028366
v -1.0188023 -0.0491755 0.5094162
v -1.0133229 -0.0473638 0.5137994
v -1.0062708 -0.0460375 0.5148118
v -0.9995352 -0.0455521 0.5121821
v -0.9949212 -0.0460375 0.5066149
v -0.9936651 -0.0473638 0.4996020
v -0.9961033 -0.0491755 0.4930224
v -1.0015826 -0.0509873 0.4886392
v -1.0086348 -0.0523135 0.4876268
v -1.0131016 -0.0655735 0.4933980
v -1.0177364 -0.0649706 0.4989363
v -1.0190495 -0.0633235 0.5058703
v -1.0166892 -0.0610734 0.5123421
v -1.0112877 -0.0588233 0.5166175
v -1.0042925 -0.0571761 0.5175509
v -0.9975778 -0.0565732 0.5148923
v -0.9929429 -0.0571761 0.5093541
v -0.9916297 -0.0588233 0.5024201
v -0.9939902 -0.0610734 0.4959483
v -0.9993917 -0.0633235 0.4916729
v -1.0063869 -0.0649706 0.4907395
v -1.0103483 -0.0780675 0.4972101
v -1.0150084 -0.0773497 0.5027133
v -1.0163908 -0.0753887 0.5095516
v -1.0141249 -0.0727099 0.5158925
v -1.0088179 -0.0700311 0.5200372
v -1.0018919 -0.0680701 0.5208749
v -0.9952025 -0.0673523 0.5181813
v -0.9905423 -0.0680701 0.5126780
v -0.9891599 -0.0700311 0.5058398
v -0.9914259 -0.0727099 0.4994988
v -0.9967330 -0.0753887 0.4953542
v -1.0036590 -0.0773497 0.4945165
v -1.0071226 -0.0902269 0.5016764
v -1.0118124 -0.0893973 0.5071386
v -1.0132759 -0.0871309 0.5138646
v -1.0111206 -0.0840349 0.5200524
v -1.0059243 -0.0809388 0.5240437
v -0.9990792 -0.0786724 0.5247693
v -0.9924196 -0.0778428 0.5220345
v -0.9877297 -0.0786724 0.5165725
v -0.9862664 -0.0809388 0.5098463
v -0.9884216 -0.0840349 0.5036587
v -0.9936179 -0.0871309 0.4996673
v -1.0004630 -0.0893973 0.4989418
v -1.0034382 -0.1020000 0.5067779
v -1.0081619 -0.1010622 0.5121932
v -1.0097178 -0.0985000 0.5187911
v -1.0076891 -0.0950000 0.5248038
v -1.0026191 -0.0915000 0.5286201
v -0.9958667 -0.0889378 0.5292175
v -0.9892409 -0.0880000 0.5264359
v -0.9845171 -0.0889378 0.5210207
v -0.9829613 -0.0915000 0.5144227
v -0.9849900 -0.0950000 0.5084100
v -0.9900600 -0.0985000 0.5045937
v -0.9968125 -0.1010622 0.5039964
v -0.9993109 -0.1133363 0.5124927
v -1.0040725 -0.1122943 0.5178554
v -1.0057322 -0.1094473 0.5243098
v -1.0038450 -0.1055583 0.5301263
v -0.9989167 -0.1016693 0.5337466
v -0.9922678 -0.0988224 0.5342004
v -0.9856800 -0.0977803 0.5313662
v -0.9809184 -0.0988224 0.5260035
v -0.9792588 -0.1016693 0.5195491
v -0.9811460 -0.1055583 0.5137327
v -0.9860742 -0.1094473 0.5101124
v -0.9927231 -0.1122943 0.5096586
v -0.9947582 -0.1241873 0.5187963
v -0.9995618 -0.1230455 0.5241011
v -1.0013357 -0.1199260 0.5303971
v -0.9996048 -0.1156646 0.5359974
v -0.9948328 -0.1114033 0.5394013
v -0.9882983 -0.1082838 0.5396968
v -0.9817523 -0.1071420 0.5368047
v -0.9769487 -0.1082838 0.5314999
v -0.9751748 -0.1114033 0.5252038
v -0.9769058 -0.1156646 0.5196036
v -0.9816779 -0.1199260 0.5161997
v -0.9882123 -0.1230455 0.5159042
v -0.9898000 -0.1345065 0.5256617
v -0.9946491 -0.1332698 0.5309033
v -0.9965476 -0.1298911 0.5370269
v -0.9949868 -0.1252756 0.5423917
v -0.9903848 -0.1206602 0.5455600
v -0.9839749 -0.1172815 0.5456830
v -0.9774745 -0.1160448 0.5427278
v -0.9726254 -0.1172815 0.5374861
v -0.9707268 -0.1206602 0.5313625
v -0.9722877 -0.1252757 0.5259979
v -0.9768896 -0.1298911 0.5228295
v -0.9832995 -0.1332698 0.5227065
v -0.9844570 -0.1442497 0.5330596
v -0.9893553 -0.1429234 0.5382333
v -0.9913880 -0.1393000 0.5441710
v -0.9900105 -0.1343502 0.5492818
v -0.9855919 -0.1294005 0.5521963
v -0.9793162 -0.1257770 0.5521334
v -0.9728649 -0.1244507 0.5491103
v -0.9679667 -0.1257770 0.5439366
v -0.9659339 -0.1294005 0.5379989
v -0.9673115 -0.1343502 0.5328881
v -0.9717300 -0.1393000 0.5299736
v -0.9780058 -0.1429234 0.5300363
v -0.9787524 -0.1533754 0.5409584
v -0.9837031 -0.1519652 0.5460594
v -0.9858791 -0.1481125 0.5517987
v -0.9846973 -0.1428496 0.5566385
v -0.9804745 -0.1375867 0.5592819
v -0.9743421 -0.1337340 0.5590208
v -0.9679433 -0.1323238 0.5559249
v -0.9629925 -0.1337340 0.5508238
v -0.9608166 -0.1375867 0.5450845
v -0.9619983 -0.1428496 0.5402447
v -0.9662211 -0.1481125 0.5376012
v -0.9723536 -0.1519652 0.5378624
v -0.9727106 -0.1618441 0.5493239
v -0.9777168 -0.1603561 0.5543480
v -0.9800446 -0.1562906 0.5598772
v -0.9790702 -0.1507372 0.5644299
v -0.9750546 -0.1451837 0.5667863
v -0.9690740 -0.1411183 0.5663149
v -0.9627308 -0.1396302 0.5631422
v -0.9577245 -0.1411183 0.5581181
v -0.9553968 -0.1451837 0.5525889
v -0.9563712 -0.1507372 0.5480362
v -0.9603866 -0.1562907 0.5456798
v -0.9663674 -0.1603561 0.5461512
v -0.9663575 -0.1696198 0.5581206
v -0.9714221 -0.1680603 0.5630637
v -0.9739095 -0.1637995 0.5683720
v -0.9731530 -0.1579792 0.5726229
v -0.9693555 -0.1521589 0.5746775
v -0.9635345 -0.1478982 0.5739851
v -0.9572496 -0.1463386 0.5707315
v -0.9521849 -0.1478982 0.5657883
v -0.9496976 -0.1521589 0.5604800
v -0.9504540 -0.1579792 0.5562291
v -0.9542515 -0.1637995 0.5541747
v -0.9600726 -0.1680603 0.5548669
v -0.9597201 -0.1766692 0.5673107
v -0.9648458 -0.1750448 0.5721694
v -0.9674999 -0.1706070 0.5772468
v -0.9669713 -0.1645448 0.5811824
v -0.9634014 -0.1584826 0.5829215
v -0.9577471 -0.1540448 0.5819983
v -0.9515233 -0.1524205 0.5786602
v -0.9463977 -0.1540448 0.5738015
v -0.9437436 -0.1584827 0.5687242
v -0.9442722 -0.1645448 0.5647886
v -0.9478420 -0.1706070 0.5630493
v -0.9534963 -0.1750448 0.5639725
v -0.9528271 -0.1829620 0.5768548
v -0.9580162 -0.1812798 0.5816258
v -0.9608434 -0.1766839 0.5864635
v -0.9605513 -0.1704058 0.5900716
v -0.9572181 -0.1641277 0.5914832
v -0.9517368 -0.1595318 0.5903203
v -0.9455763 -0.1578496 0.5868944
v -0.9403874 -0.1595318 0.5821234
v -0.9375601 -0.1641277 0.5772858
v -0.9378523 -0.1704058 0.5736778
v -0.9411855 -0.1766839 0.5722661
v -0.9466667 -0.1812798 0.5734290
v -0.9457079 -0.1884714 0.5867122
v -0.9509624 -0.1867385 0.5913926
v -0.9539684 -0.1820043 0.5959827
v -0.9539206 -0.1755371 0.5992525
v -0.9508317 -0.1690699 0.6003259
v -0.9455293 -0.1643356 0.5989153
v -0.9394343 -0.1626028 0.5953988
v -0.9341798 -0.1643357 0.5907185
v -0.9311737 -0.1690699 0.5861285
v -0.9312216 -0.1755371 0.5828587
v -0.9343106 -0.1820043 0.5817852
v -0.9396129 -0.1867385 0.5831957
v -0.9383929 -0.1931737 0.5968407
v -0.9437147 -0.1913976 0.6014279
v -0.9469045 -0.1865452 0.6057636
v -0.9471077 -0.1799167 0.6086857
v -0.9442697 -0.1732882 0.6094117
v -0.9391510 -0.1684358 0.6077467
v -0.9331234 -0.1666597 0.6041371
v -0.9278016 -0.1684358 0.5995499
v -0.9246118 -0.1732882 0.5952142
v -0.9244087 -0.1799167 0.5922921
v -0.9272466 -0.1865452 0.5915661
v -0.9323652 -0.1913976 0.5932311
v -0.9309134 -0.1970489 0.6071969
v -0.9363040 -0.1952372 0.6116889
v -0.9396816 -0.1902874 0.6157644
v -0.9401414 -0.1835259 0.6183312
v -0.9375602 -0.1767644 0.6187018
v -0.9326295 -0.1718147 0.6167767
v -0.9266704 -0.1700030 0.6130718
v -0.9212799 -0.1718147 0.6085799
v -0.9179022 -0.1767644 0.6045045
v -0.9174424 -0.1835259 0.6019375
v -0.9200237 -0.1902874 0.6015669
v -0.9249544 -0.1952372 0.6034920
v -0.9233017 -0.2000802 0.6177362
v -0.9287622 -0.1982406 0.6221313
v -0.9323311 -0.1932147 0.6259420
v -0.9330521 -0.1863492 0.6281474
v -0.9307320 -0.1794837 0.6281562
v -0.9259925 -0.1744578 0.6259664
v -0.9201034 -0.1726182 0.6221646
v -0.9146429 -0.1744578 0.6177696
v -0.9110740 -0.1794837 0.6139588
v -0.9103531 -0.1863492 0.6117536
v -0.9126731 -0.1932147 0.6117446
v -0.9174128 -0.1982406 0.6139345
v -0.9155902 -0.2022548 0.6284138
v -0.9211216 -0.2003952 0.6327107
v -0.9248842 -0.1953147 0.6362531
v -0.9258698 -0.1883745 0.6380920
v -0.9238143 -0.1814344 0.6377345
v -0.9192685 -0.1763539 0.6352766
v -0.9134504 -0.1744943 0.6313766
v -0.9079189 -0.1763539 0.6270797
v -0.9041563 -0.1814344 0.6235372
v -0.9031707 -0.1883745 0.6216983
v -0.9052262 -0.1953147 0.6220558
v -0.9097720 -0.2003952 0.6245137
v -0.9078119 -0.2035632 0.6391838
v -0.9134148 -0.2016916 0.6433816
v -0.9173728 -0.1965782 0.6466535
v -0.9186252 -0.1895932 0.6481229
v -0.9168367 -0.1826082 0.6473958
v -0.9124863 -0.1774948 0.6446673
v -0.9067397 -0.1756232 0.6406683
v -0.9011368 -0.1774948 0.6364704
v -0.8971788 -0.1826082 0.6331985
v -0.8959262 -0.1895932 0.6317291
v -0.8977149 -0.1965782 0.6324562
v -0.9020653 -0.2016916 0.6351848
f 33 45 46
f 33 46 34
f 34 46 47
f 34 47 35
f 35 47 48
f 35 48 36
f 36 48 49
f 36 49 37
f 37 49 50
f 37 50 38
f 38 50 51
f 38 51 39
f 39 51 52
f 39 52 40
f 40 52 53
f 40 53 41
f 41 53 54
f 41 54 42
f 42 54 55
f 42 55 43
f 43 55 56
f 43 56 44
f 44 56 45
f 44 45 33
f 45 57 58
f 45 58 46
f 46 58 59
f 46 59 47
f 47 59 60
f 47 60 48
f 48 60 61
f 48 61 49
f 49 61 62
f 49 62 50
f 50 62 63
f 50 63 51
f 51 63 64
f 51 64 52
f 52 64 65
f 52 65 53
f 53 65 66
f 53 66 54
f 54 66 67
f 54 67 55
f 55 67 68
f 55 68 56
f 56 68 57
f 56 57 45
f 57 69 70
f 57 70 58
f 58 70 71
f 58 71 59
f 59 71 72
f 59 72 60
f 60 72 73
f 60 73 61
f 61 73 74
f 61 74 62
f 62 74 75
f 62 75 63
f 63 75 76
f 63 76 64
f 64 76 77
f 64 77 65
f 65 77 78
f 65 78 66
f 66 78 79
f 66 79 67
f 67 79 80
f 67 80 68
f 68 80 69
f 68 69 57
f 69 81 82
f 69 82 70
f 70 82 83
f 70 83 71
f 71 83 84
f 71 84 72
f 72 84 85
f 72 85 73
f 73 85 86
f 73 86 74
f 74 86 87
f 74 87 75
f 75 87 88
f 75 88 76
f 76 88 89
f 76 89 77
f 77 89 90
f 77 90 78
f 78 90 91
f 78 91 79
f 79 91 92
f 79 92 80
f 80 92 81
f 80 81 69
f 81 93 94
f 81 94 82
f 82 94 95
f 82 95 83
f 83 95 96
f 83 96 84
f 84 96 97
f 84 97 85
f 85 97 98
f 85 98 86
f 86 98 99
f 86 99 87
f 87 99 100
f 87 100 88
f 88 100 101
f 88 101 89
f 89 101 102
f 89 102 90
f 90 102 103
f 90 103 91
f 91 103 104
f 91 104 92
f 92 104 93
f 92 93 81
f 93 105 106
f 93 106 94
f 94 106 107
f 94 107 95
f 95 107 108
f 95 108 96
f 96 108 109
f 96 109 97
f 97 109 110
f 97 110 98
f 98 110 111
f 98 111 99
f 99 111 112
f 99 112 100
f 100 112 113
f 100 113 101
f 101 113 114
f 101 114 102
f 102 114 115
f 102 115 103
f 103 115 116
f 103 116 104
f 104 116 105
f 104 105 93
f 105 117 118
f 105 118 106
f 106 118 119
f 106 119 107
f 107 119 120
f 107 120 108
f 108 120 121
f 108 121 109
f 109 121 122
f 109 122 110
f 110 122 123
f 110 123 111
f 111 123 124
f 111 124 112
f 112 124 125
f 112 125 113
f 113 125 126
f 113 126 114
f 114 126 127
f 114 127 115
f 115 127 128
f 115 128 116
f 116 128 117
f 116 117 105
f 117 129 130
f 117 130 118
f 118 130 131
f 118 131 119
f 119 131 132
f 119 132 120
f 120 132 133
f 120 133 121
f 121 133 134
f 121 134 122
f 122 134 135
f 122 135 123
f 123 135 136
f 123 136 124
f 124 136 137
f 124 137 125
f 125 137 138
f 125 138 126
f 126 138 139
f 126 139 127
f 127 139 140
f 127 140 128
f 128 140 129
f 128 129 117
f 129 141 142
f 129 142 130
f 130 142 143
f 130 143 131
f 131 143 144
f 131 144 132
f 132 144 145
f 132 145 133
f 133 145 146
f 133 146 134
f 134 146 147
f 134 147 135
f 135 147 148
f 135 148 136
f 136 148 149
f 136 149 137
f 137 149 150
f 137 150 138
f 138 150 151
f 138 151 139
f 139 151 152
f 139 152 140
f 140 152 141
f 140 141 129
f 141 153 154
f 141 154 142
f 142 154 155
f 142 155 143
f 143 155 156
f 143 156 144
f 144 156 157
f 144 157 145
f 145 157 158
f 145 158 146
f 146 158 159
f 146 159 147
f 147 159 160
f 147 160 148
f 148 160 161
f 148 161 149
f 149 161 162
f 149 162 150
f 150 162 163
f 150 163 151
f 151 163 164
f 151 164 152
f 152 164 153
f 152 153 141
f 153 165 166
f 153 166 154
f 154 166 167
f 154 167 155
f 155 167 168
f 155 168 156
f 156 168 169
f 156 169 157
f 157 169 170
f 157 170 158
f 158 170 171
f 158 171 159
f 159 171 172
f 159 172 160
f 160 172 173
f 160 173 161
f 161 173 174
f 161 174 162
f 162 174 175
f 162 175 163
f 163 175 176
f 163 176 164
f 164 176 165
f 164 165 153
f 165 177 178
f 165 178 166
f 166 178 179
f 166 179 167
f 167 179 180
f 167 180 168
f 168 180 181
f 168 181 169
f 169 181 182
f 169 182 170
f 170 182 183
f 170 183 171
f 171 183 184
f 171 184 172
f 172 184 185
f 172 185 173
f 173 185 186
f 173 186 174
f 174 186 187
f 174 187 175
f 175 187 188
f 175 188 176
f 176 188 177
f 176 177 165
f 177 189 190
f 177 190 178
f 178 190 191
f 178 191 179
f 179 191 192
f 179 192 180
f 180 192 193
f 180 193 181
f 181 193 194
f 181 194 182
f 182 194 195
f 182 195 183
f 183 195 196
f 183 196 184
f 184 196 197
f 184 197 185
f 185 197 198
f 185 198 186
f 186 198 199
f 186 199 187
f 187 199 200
f 187 200 188
f 188 200 189
f 188 189 177
f 189 201 202
f 189 202 190
f 190 202 203
f 190 203 191
f 191 203 204
f 191 204 192
f 192 204 205
f 192 205 193
f 193 205 206
f 193 206 194
f 194 206 207
f 194 207 195
f 195 207 208
f 195 208 196
f 196 208 209
f 196 209 197
f 197 209 210
f 197 210 198
f 198 210 211
f 198 211 199
f 199 211 212
f 199 212 200
f 200 212 201
f 200 201 189
f 201 213 214
f 201 214 202
f 202 214 215
f 202 215 203
f 203 215 216
f 203 216 204
f 204 216 217
f 204 217 205
f 205 217 218
f 205 218 206
f 206 218 219
f 206 219 207
f 207 219 220
f 207 220 208
f 208 220 221
f 208 221 209
f 209 221 222
f 209 222 210
f 210 222 223
f 210 223 211
f 211 223 224
f 211 224 212
f 212 224 213
f 212 213 201
f 213 225 226
f 213 226 214
f 214 226 227
f 214 227 215
f 215 227 228
f 215 228 216
f 216 228 229
f 216 229 217
f 217 229 230
f 217 230 218
f 218 230 231
f 218 231 219
f 219 231 232
f 219 232 220
f 220 232 233
f 220 233 221
f 221 233 234
f 221 234 222
f 222 234 235
f 222 235 223
f 223 235 236
f 223 236 224
f 224 236 225
f 224 225 213
f 225 237 238
f 225 238 226
f 226 238 239
f 226 239 227
f 227 239 240
f 227 240 228
f 228 240 241
f 228 241 229
f 229 241 242
f 229 242 230
f 230 242 243
f 230 243 231
f 231 243 244
f 231 244 232
f 232 244 245
f 232 245 233
f 233 245 246
f 233 246 234
f 234 246 247
f 234 247 235
f 235 247 248
f 235 248 236
f 236 248 237
f 236 237 225
f 237 249 250
f 237 250 238
f 238 250 251
f 238 251 239
f 239 251 252
f 239 252 240
f 240 252 253
f 240 253 241
f 241 253 254
f 241 254 242
f 242 254 255
f 242 255 243
f 243 255 256
f 243 256 244
f 244 256 257
f 244 257 245
f 245 257 258
f 245 258 246
f 246 258 259
f 246 259 247
f 247 259 260
f 247 260 248
f 248 260 249
f 248 249 237
f 249 261 262
f 249 262 250
f 250 262 263
f 250 263 251
f 251 263 264
f 251 264 252
f 252 264 265
f 252 265 253
f 253 265 266
f 253 266 254
f 254 266 267
f 254 267 255
f 255 267 268
f 255 268 256
f 256 268 269
f 256 269 257
f 257 269 270
f 257 270 258
f 258 270 271
f 258 271 259
f 259 271 272
f 259 272 260
f 260 272 261
f 260 261 249
f 261 273 274
f 261 274 262
f 262 274 275
f 262 275 263
f 263 275 276
f 263 276 264
f 264 276 277
f 264 277 265
f 265 277 278
f 265 278 266
f 266 278 279
f 266 279 267
f 267 279 280
f 267 280 268
f 268 280 281
f 268 281 269
f 269 281 282
f 269 282 270
f 270 282 283
f 270 283 271
f 271 283 284
f 271 284 272
f 272 284 273
f 272 273 261
f 273 285 286
f 273 286 274
f 274 286 287
f 274 287 275
f 275 287 288
f 275 288 276
f 276 288 289
f 276 289 277
f 277 289 290
f 277 290 278
f 278 290 291
f 278 291 279
f 279 291 292
f 279 292 280
f 280 292 293
f 280 293 281
f 281 293 294
f 281 294 282
f 282 294 295
f 282 295 283
f 283 295 296
f 283 296 284
f 284 296 285
f 284 285 273
f 285 297 298
f 285 298 286
f 286 298 299
f 286 299 287
f 287 299 300
f 287 300 288
f 288 300 301
f 288 301 289
f 289 301 302
f 289 302 290
f 290 302 303
f 290 303 291
f 291 303 304
f 291 304 292
f 292 304 305
f 292 305 293
f 293 305 306
f 293 306 294
f 294 306 307
f 294 307 295
f 295 307 308
f 295 308 296
f 296 308 297
f 296 297 285
f 297 309 310
f 297 310 298
f 298 310 311
f 298 311 299
f 299 311 312
f 299 312 300
f 300 312 313
f 300 313 301
f 301 313 314
f 301 314 302
f 302 314 315
f 302 315 303
f 303 315 316
f 303 316 304
f 304 316 317
f 304 317 305
f 305 317 318
f 305 318 306
f 306 318 319
f 306 319 307
f 307 319 320
f 307 320 308
f 308 320 309
f 308 309 297
f 309 321 322
f 309 322 310
f 310 322 323
f 310 323 311
f 311 323 324
f 311 324 312
f 312 324 325
f 312 325 313
f 313 325 326
f 313 326 314
f 314 326 327
f 314 327 315
f 315 327 328
f 315 328 316
f 316 328 329
f 316 329 317
f 317 329 330
f 317 330 318
f 318 330 331
f 318 331 319
f 319 331 332
f 319 332 320
f 320 332 321
f 320 321 309
f 321 333 334
f 321 334 322
f 322 334 335
f 322 335 323
f 323 335 336
f 323 336 324
f 324 336 337
f 324 337 325
f 325 337 338
f 325 338 326
f 326 338 339
f 326 339 327
f 327 339 340
f 327 340 328
f 328 340 341
f 328 341 329
f 329 341 342
f 329 342 330
f 330 342 343
f 330 343 331
f 331 343 344
f 331 344 332
f 332 344 333
f 332 333 321
f 333 345 346
f 333 346 334
f 334 346 347
f 334 347 335
f 335 347 348
f 335 348 336
f 336 348 349
f 336 349 337
f 337 349 350
f 337 350 338
f 338 350 351
f 338 351 339
f 339 351 352
f 339 352 340
f 340 352 353
f 340 353 341
f 341 353 354
f 341 354 342
f 342 354 355
f 342 355 343
f 343 355 356
f 343 356 344
f 344 356 345
f 344 345 333
f 345 357 358
f 345 358 346
f 346 358 359
f 346 359 347
f 347 359 360
f 347 360 348
f 348 360 361
f 348 361 349
f 349 361 362
f 349 362 350
f 350 362 363
f 350 363 351
f 351 363 364
f 351 364 352
f 352 364 365
f 352 365 353
f 353 365 366
f 353 366 354
f 354 366 367
f 354 367 355
f 355 367 368
f 355 368 356
f 356 368 357
f 356 357 345
f 357 369 370
f 357 370 358
f 358 370 371
f 358 371 359
f 359 371 372
f 359 372 360
f 360 372 373
f 360 373 361
f 361 373 374
f 361 374 362
f 362 374 375
f 362 375 363
f 363 375 376
f 363 376 364
f 364 376 377
f 364 377 365
f 365 377 378
f 365 378 366
f 366 378 379
f 366 379 367
f 367 379 380
f 367 380 368
f 368 380 369
f 368 369 357
f 369 381 382
f 369 382 370
f 370 382 383
f 370 383 371
f 371 383 384
f 371 384 372
f 372 384 385
f 372 385 373
f 373 385 386
f 373 386 374
f 374 386 387
f 374 387 375
f 375 387 388
f 375 388 376
f 376 388 389
f 376 389 377
f 377 389 390
f 377 390 378
f 378 390 391
f 378 391 379
f 379 391 392
f 379 392 380
f 380 392 381
f 380 381 369
f 381 393 394
f 381 394 382
f 382 394 395
f 382 395 383
f 383 395 396
f 383 396 384
f 384 396 397
f 384 397 385
f 385 397 398
f 385 398 386
f 386 398 399
f 386 399 387
f 387 399 400
f 387 400 388
f 388 400 401
f 388 401 389
f 389 401 402
f 389 402 390
f 390 402 403
f 390 403 391
f 391 403 404
f 391 404 392
f 392 404 393
f 392 393 381
f 393 405 406
f 393 406 394
f 394 406 407
f 394 407 395
f 395 407 408
f 395 408 396
f 396 408 409
f 396 409 397
f 397 409 410
f 397 410 398
f 398 410 411
f 398 411 399
f 399 411 412
f 399 412 400
f 400 412 413
f 400 413 401
f 401 413 414
f 401 414 402
f 402 414 415
f 402 415 403
f 403 415 416
f 403 416 404
f 404 416 405
f 404 405 393
f 405 417 418
f 405 418 406
f 406 418 419
f 406 419 407
f 407 419 420
f 407 420 408
f 408 420 421
f 408 421 409
f 409 421 422
f 409 422 410
f 410 422 423
f 410 423 411
f 411 423 424
f 411 424 412
f 412 424 425
f 412 425 413
f 413 425 426
f 413 426 414
f 414 426 427
f 414 427 415
f 415 427 428
f 415 428 416
f 416 428 417
f 416 417 405
f 417 429 430
f 417 430 418
f 418 430 431
f 418 431 419
f 419 431 432
f 419 432 420
f 420 432 433
f 420 433 421
f 421 433 434
f 421 434 422
f 422 434 435
f 422 435 423
f 423 435 436
f 423 436 424
f 424 436 437
f 424 437 425
f 425 437 438
f 425 438 426
f 426 438 439
f 426 439 427
f 427 439 440
f 427 440 428
f 428 440 429
f 428 429 417
f 429 441 442
f 429 442 430
f 430 442 443
f 430 443 431
f 431 443 444
f 431 444 432
f 432 444 445
f 432 445 433
f 433 445 446
f 433 446 434
f 434 446 447
f 434 447 435
f 435 447 448
f 435 448 436
f 436 448 449
f 436 449 437
f 437 449 450
f 437 450 438
f 438 450 451
f 438 451 439
f 439 451 452
f 439 452 440
f 440 452 441
f 440 441 429
f 441 453 454
f 441 454 442
f 442 454 455
f 442 455 443
f 443 455 456
f 443 456 444
f 444 456 457
f 444 457 445
f 445 457 458
f 445 458 446
f 446 458 459
f 446 459 447
f 447 459 460
f 447 460 448
f 448 460 461
f 448 461 449
f 449 461 462
f 449 462 450
f 450 462 463
f 450 463 451
f 451 463 464
f 451 464 452
f 452 464 453
f 452 453 441
f 453 465 466
f 453 466 454
f 454 466 467
f 454 467 455
f 455 467 468
f 455 468 456
f 456 468 469
f 456 469 457
f 457 469 470
f 457 470 458
f 458 470 471
f 458 471 459
f 459 471 472
f 459 472 460
f 460 472 473
f 460 473 461
f 461 473 474
f 461 474 462
f 462 474 475
f 462 475 463
f 463 475 476
f 463 476 464
f 464 476 465
f 464 465 453
f 465 477 478
f 465 478 466
f 466 478 479
f 466 479 467
f 467 479 480
f 467 480 468
f 468 480 481
f 468 481 469
f 469 481 482
f 469 482 470
f 470 482 483
f 470 483 471
f 471 483 484
f 471 484 472
f 472 484 485
f 472 485 473
f 473 485 486
f 473 486 474
f 474 486 487
f 474 487 475
f 475 487 488
f 475 488 476
f 476 488 477
f 476 477 465
f 477 489 490
f 477 490 478
f 478 490 491
f 478 491 479
f 479 491 492
f 479 492 480
f 480 492 493
f 480 493 481
f 481 493 494
f 481 494 482
f 482 494 495
f 482 495 483
f 483 495 496
f 483 496 484
f 484 496 497
f 484 497 485
f 485 497 498
f 485 498 486
f 486 498 499
f 486 499 487
f 487 499 500
f 487 500 488
f 488 500 489
f 488 489 477
f 489 501 502
f 489 502 490
f 490 502 503
f 490 503 491
f 491 503 504
f 491 504 492
f 492 504 505
f 492 505 493
f 493 505 506
f 493 506 494
f 494 506 507
f 494 507 495
f 495 507 508
f 495 508 496
f 496 508 509
f 496 509 497
f 497 509 510
f 497 510 498
f 498 510 511
f 498 511 499
f 499 511 512
f 499 512 500
f 500 512 501
f 500 501 489
f 501 513 514
f 501 514 502
f 502 514 515
f 502 515 503
f 503 515 516
f 503 516 504
f 504 516 517
f 504 517 505
f 505 517 518
f 505 518 506
f 506 518 519
f 506 519 507
f 507 519 520
f 507 520 508
f 508 520 521
f 508 521 509
f 509 521 522
f 509 522 510
f 510 522 523
f 510 523 511
f 511 523 524
f 511 524 512
f 512 524 513
f 512 513 501
f 513 525 526
f 513 526 514
f 514 526 527
f 514 527 515
f 515 527 528
f 515 528 516
f 516 528 529
f 516 529 517
f 517 529 530
f 517 530 518
f 518 530 531
f 518 531 519
f 519 531 532
f 519 532 520
f 520 532 533
f 520 533 521
f 521 533 534
f 521 534 522
f 522 534 535
f 522 535 523
f 523 535 536
f 523 536 524
f 524 536 525
f 524 525 513
f 525 537 538
f 525 538 526
f 526 538 539
f 526 539 527
f 527 539 540
f 527 540 528
f 528 540 541
f 528 541 529
f 529 541 542
f 529 542 530
f 530 542 543
f 530 543 531
f 531 543 544
f 531 544 532
f 532 544 545
f 532 545 533
f 533 545 546
f 533 546 534
f 534 546 547
f 534 547 535
f 535 547 548
f 535 548 536
f 536 548 537
f 536 537 525
f 537 549 550
f 537 550 538
f 538 550 551
f 538 551 539
f 539 551 552
f 539 552 540
f 540 552 553
f 540 553 541
f 541 553 554
f 541 554 542
f 542 554 555
f 542 555 543
f 543 555 556
f 543 556 544
f 544 556 557
f 544 557 545
f 545 557 558
f 545 558 546
f 546 558 559
f 546 559 547
f 547 559 560
f 547 560 548
f 548 560 549
f 548 549 537
f 549 561 562
f 549 562 550
f 550 562 563
f 550 563 551
f 551 563 564
f 551 564 552
f 552 564 565
f 552 565 553
f 553 565 566
f 553 566 554
f 554 566 567
f 554 567 555
f 555 567 568
f 555 568 556
f 556 568 569
f 556 569 557
f 557 569 570
f 557 570 558
f 558 570 571
f 558 571 559
f 559 571 572
f 559 572 560
f 560 572 561
f 560 561 549
f 561 573 574
f 561 574 562
f 562 574 575
f 562 575 563
f 563 575 576
f 563 576 564
f 564 576 577
f 564 577 565
f 565 577 578
f 565 578 566
f 566 578 579
f 566 579 567
f 567 579 580
f 567 580 568
f 568 580 581
f 568 581 569
f 569 581 582
f 569 582 570
f 570 582 583
f 570 583 571
f 571 583 584
f 571 584 572
f 572 584 573
f 572 573 561
f 573 585 586
f 573 586 574
f 574 586 587
f 574 587 575
f 575 587 588
f 575 588 576
f 576 588 589
f 576 589 577
f 577 589 590
f 577 590 578
f 578 590 591
f 578 591 579
f 579 591 592
f 579 592 580
f 580 592 593
f 580 593 581
f 581 593 594
f 581 594 582
f 582 594 595
f 582 595 583
f 583 595 596
f 583 596 584
f 584 596 585
f 584 585 573
f 585 597 598
f 585 598 586
f 586 598 599
f 586 599 587
f 587 599 600
f 587 600 588
f 588 600 601
f 588 601 589
f 589 601 602
f 589 602 590
f 590 602 603
f 590 603 591
f 591 603 604
f 591 604 592
f 592 604 605
f 592 605 593
f 593 605 606
f 593 606 594
f 594 606 607
f 594 607 595
f 595 607 608
f 595 608 596
f 596 608 597
f 596 597 585
f 597 609 610
f 597 610 598
f 598 610 611
f 598 611 599
f 599 611 612
f 599 612 600
f 600 612 613
f 600 613 601
f 601 613 614
f 601 614 602
f 602 614 615
f 602 615 603
f 603 615 616
f 603 616 604
f 604 616 617
f 604 617 605
f 605 617 618
f 605 618 606
f 606 618 619
f 606 619 607
f 607 619 620
f 607 620 608
f 608 620 609
f 608 609 597
f 609 621 622
f 609 622 610
f 610 622 623
f 610 623 611
f 611 623 624
f 611 624 612
f 612 624 625
f 612 625 613
f 613 625 626
f 613 626 614
f 614 626 627
f 614 627 615
f 615 627 628
f 615 628 616
f 616 628 629
f 616 629 617
f 617 629 630
f 617 630 618
f 618 630 631
f 618 631 619
f 619 631 632
f 619 632 620
f 620 632 621
f 620 621 609
f 621 633 634
f 621 634 622
f 622 634 635
f 622 635 623
f 623 635 636
f 623 636 624
f 624 636 637
f 624 637 625
f 625 637 638
f 625 638 626
f 626 638 639
f 626 639 627
f 627 639 640
f 627 640 628
f 628 640 641
f 628 641 629
f 629 641 642
f 629 642 630
f 630 642 643
f 630 643 631
f 631 643 644
f 631 644 632
f 632 644 633
f 632 633 621
f 633 645 646
f 633 646 634
f 634 646 647
f 634 647 635
f 635 647 648
f 635 648 636
f 636 648 649
f 636 649 637
f 637 649 650
f 637 650 638
f 638 650 651
f 638 651 639
f 639 651 652
f 639 652 640
f 640 652 653
f 640 653 641
f 641 653 654
f 641 654 642
f 642 654 655
f 642 655 643
f 643 655 656
f 643 656 644
f 644 656 645
f 644 645 633
f 645 657 658
f 645 658 646
f 646 658 659
f 646 659 647
f 647 659 660
f 647 660 648
f 648 660 661
f 648 661 649
f 649 661 662
f 649 662 650
f 650 662 663
f 650 663 651
f 651 663 664
f 651 664 652
f 652 664 665
f 652 665 653
f 653 665 666
f 653 666 654
f 654 666 667
f 654 667 655
f 655 667 668
f 655 668 656
f 656 668 657
f 656 657 645
f 657 669 670
f 657 670 658
f 658 670 671
f 658 671 659
f 659 671 672
f 659 672 660
f 660 672 673
f 660 673 661
f 661 673 674
f 661 674 662
f 662 674 675
f 662 675 663
f 663 675 676
f 663 676 664
f 664 676 677
f 664 677 665
f 665 677 678
f 665 678 666
f 666 678 679
f 666 679 667
f 667 679 680
f 667 680 668
f 668 680 669
f 668 669 657
f 669 681 682
f 669 682 670
f 670 682 683
f 670 683 671
f 671 683 684
f 671 684 672
f 672 684 685
f 672 685 673
f 673 685 686
f 673 686 674
f 674 686 687
f 674 687 675
f 675 687 688
f 675 688 676
f 676 688 689
f 676 689 677
f 677 689 690
f 677 690 678
f 678 690 691
f 678 691 679
f 679 691 692
f 679 692 680
f 680 692 681
f 680 681 669
f 681 693 694
f 681 694 682
f 682 694 695
f 682 695 683
f 683 695 696
f 683 696 684
f 684 696 697
f 684 697 685
f 685 697 698
f 685 698 686
f 686 698 699
f 686 699 687
f 687 699 700
f 687 700 688
f 688 700 701
f 688 701 689
f 689 701 702
f 689 702 690
f 690 702 703
f 690 703 691
f 691 703 704
f 691 704 692
f 692 704 693
f 692 693 681
f 693 705 706
f 693 706 694
f 694 706 707
f 694 707 695
f 695 707 708
f 695 708 696
f 696 708 709
f 696 709 697
f 697 709 710
f 697 710 698
f 698 710 711
f 698 711 699
f 699 711 712
f 699 712 700
f 700 712 713
f 700 713 701
f 701 713 714
f 701 714 702
f 702 714 715
f 702 715 703
f 703 715 716
f 703 716 704
f 704 716 705
f 704 705 693
f 705 717 718
f 705 718 706
f 706 718 719
f 706 719 707
f 707 719 720
f 707 720 708
f 708 720 721
f 708 721 709
f 709 721 722
f 709 722 710
f 710 722 723
f 710 723 711
f 711 723 724
f 711 724 712
f 712 724 725
f 712 725 713
f 713 725 726
f 713 726 714
f 714 726 727
f 714 727 715
f 715 727 728
f 715 728 716
f 716 728 717
f 716 717 705
f 717 729 730
f 717 730 718
f 718 730 731
f 718 731 719
f 719 731 732
f 719 732 720
f 720 732 733
f 720 733 721
f 721 733 734
f 721 734 722
f 722 734 735
f 722 735 723
f 723 735 736
f 723 736 724
f 724 736 737
f 724 737 725
f 725 737 738
f 725 738 726
f 726 738 739
f 726 739 727
f 727 739 740
f 727 740 728
f 728 740 729
f 728 729 717
f 729 741 742
f 729 742 730
f 730 742 743
f 730 743 731
f 731 743 744
f 731 744 732
f 732 744 745
f 732 745 733
f 733 745 746
f 733 746 734
f 734 746 747
f 734 747 735
f 735 747 748
f 735 748 736
f 736 748 749
f 736 749 737
f 737 749 750
f 737 750 738
f 738 750 751
f 738 751 739
f 739 751 752
f 739 752 740
f 740 752 741
f 740 741 729
f 741 753 754
f 741 754 742
f 742 754 755
f 742 755 743
f 743 755 756
f 743 756 744
f 744 756 757
f 744 757 745
f 745 757 758
f 745 758 746
f 746 758 759
f 746 759 747
f 747 759 760
f 747 760 748
f 748 760 761
f 748 761 749
f 749 761 762
f 749 762 750
f 750 762 763
f 750 763 751
f 751 763 764
f 751 764 752
f 752 764 753
f 752 753 741
f 753 765 766
f 753 766 754
f 754 766 767
f 754 767 755
f 755 767 768
f 755 768 756
f 756 768 769
f 756 769 757
f 757 769 770
f 757 770 758
f 758 770 771
f 758 771 759
f 759 771 772
f 759 772 760
f 760 772 773
f 760 773 761
f 761 773 774
f 761 774 762
f 762 774 775
f 762 775 763
f 763 775 776
f 763 776 764
f 764 776 765
f 764 765 753
f 765 777 778
f 765 778 766
f 766 778 779
f 766 779 767
f 767 779 780
f 767 780 768
f 768 780 781
f 768 781 769
f 769 781 782
f 769 782 770
f 770 782 783
f 770 783 771
f 771 783 784
f 771 784 772
f 772 784 785
f 772 785 773
f 773 785 786
f 773 786 774
f 774 786 787
f 774 787 775
f 775 787 788
f 775 788 776
f 776 788 777
f 776 777 765
f 777 789 790
f 777 790 778
f 778 790 791
f 778 791 779
f 779 791 792
f 779 792 780
f 780 792 793
f 780 793 781
f 781 793 794
f 781 794 782
f 782 794 795
f 782 795 783
f 783 795 796
f 783 796 784
f 784 796 797
f 784 797 785
f 785 797 798
f 785 798 786
f 786 798 799
f 786 799 787
f 787 799 800
f 787 800 788
f 788 800 789
f 788 789 777
f 789 801 802
f 789 802 790
f 790 802 803
f 790 803 791
f 791 803 804
f 791 804 792
f 792 804 805
f 792 805 793
f 793 805 806
f 793 806 794
f 794 806 807
f 794 807 795
f 795 807 808
f 795 808 796
f 796 808 809
f 796 809 797
f 797 809 810
f 797 810 798
f 798 810 811
f 798 811 799
f 799 811 812
f 799 812 800
f 800 812 801
f 800 801 789
f 801 813 814
f 801 814 802
f 802 814 815
f 802 815 803
f 803 815 816
f 803 816 804
f 804 816 817
f 804 817 805
f 805 817 818
f 805 818 806
f 806 818 819
f 806 819 807
f 807 819 820
f 807 820 808
f 808 820 821
f 808 821 809
f 809 821 822
f 809 822 810
f 810 822 823
f 810 823 811
f 811 823 824
f 811 824 812
f 812 824 813
f 812 813 801
f 813 825 826
f 813 826 814
f 814 826 827
f 814 827 815
f 815 827 828
f 815 828 816
f 816 828 829
f 816 829 817
f 817 829 830
f 817 830 818
f 818 830 831
f 818 831 819
f 819 831 832
f 819 832 820
f 820 832 833
f 820 833 821
f 821 833 834
f 821 834 822
f 822 834 835
f 822 835 823
f 823 835 836
f 823 836 824
f 824 836 825
f 824 825 813
f 825 837 838
f 825 838 826
f 826 838 839
f 826 839 827
f 827 839 840
f 827 840 828
f 828 840 841
f 828 841 829
f 829 841 842
f 829 842 830
f 830 842 843
f 830 843 831
f 831 843 844
f 831 844 832
f 832 844 845
f 832 845 833
f 833 845 846
f 833 846 834
f 834 846 847
f 834 847 835
f 835 847 848
f 835 848 836
f 836 848 837
f 836 837 825
f 837 849 850
f 837 850 838
f 838 850 851
f 838 851 839
f 839 851 852
f 839 852 840
f 840 852 853
f 840 853 841
f 841 853 854
f 841 854 842
f 842 854 855
f 842 855 843
f 843 855 856
f 843 856 844
f 844 856 857
f 844 857 845
f 845 857 858
f 845 858 846
f 846 858 859
f 846 859 847
f 847 859 860
f 847 860 848
f 848 860 849
f 848 849 837
f 849 861 862
f 849 862 850
f 850 862 863
f 850 863 851
f 851 863 864
f 851 864 852
f 852 864 865
f 852 865 853
f 853 865 866
f 853 866 854
f 854 866 867
f 854 867 855
f 855 867 868
f 855 868 856
f 856 868 869
f 856 869 857
f 857 869 870
f 857 870 858
f 858 870 871
f 858 871 859
f 859 871 872
f 859 872 860
f 860 872 861
f 860 861 849
f 861 873 874
f 861 874 862
f 862 874 875
f 862 875 863
f 863 875 876
f 863 876 864
f 864 876 877
f 864 877 865
f 865 877 878
f 865 878 866
f 866 878 879
f 866 879 867
f 867 879 880
f 867 880 868
f 868 880 881
f 868 881 869
f 869 881 882
f 869 882 870
f 870 882 883
f 870 883 871
f 871 883 884
f 871 884 872
f 872 884 873
f 872 873 861
f 873 885 886
f 873 886 874
f 874 886 887
f 874 887 875
f 875 887 888
f 875 888 876
f 876 888 889
f 876 889 877
f 877 889 890
f 877 890 878
f 878 890 891
f 878 891 879
f 879 891 892
f 879 892 880
f 880 892 893
f 880 893 881
f 881 893 894
f 881 894 882
f 882 894 895
f 882 895 883
f 883 895 896
f 883 896 884
f 884 896 885
f 884 885 873
f 885 897 898
f 885 898 886
f 886 898 899
f 886 899 887
f 887 899 900
f 887 900 888
f 888 900 901
f 888 901 889
f 889 901 902
f 889 902 890
f 890 902 903
f 890 903 891
f 891 903 904
f 891 904 892
f 892 904 905
f 892 905 893
f 893 905 906
f 893 906 894
f 894 906 907
f 894 907 895
f 895 907 908
f 895 908 896
f 896 908 897
f 896 897 885
f 897 909 910
f 897 910 898
f 898 910 911
f 898 911 899
f 899 911 912
f 899 912 900
f 900 912 913
f 900 913 901
f 901 913 914
f 901 914 902
f 902 914 915
f 902 915 903
f 903 915 916
f 903 916 904
f 904 916 917
f 904 917 905
f 905 917 918
f 905 918 906
f 906 918 919
f 906 919 907
f 907 919 920
f 907 920 908
f 908 920 909
f 908 909 897
f 909 921 922
f 909 922 910
f 910 922 923
f 910 923 911
f 911 923 924
f 911 924 912
f 912 924 925
f 912 925 913
f 913 925 926
f 913 926 914
f 914 926 927
f 914 927 915
f 915 927 928
f 915 928 916
f 916 928 929
f 916 929 917
f 917 929 930
f 917 930 918
f 918 930 931
f 918 931 919
f 919 931 932
f 919 932 920
f 920 932 921
f 920 921 909
f 921 933 934
f 921 934 922
f 922 934 935
f 922 935 923
f 923 935 936
f 923 936 924
f 924 936 937
f 924 937 925
f 925 937 938
f 925 938 926
f 926 938 939
f 926 939 927
f 927 939 940
f 927 940 928
f 928 940 941
f 928 941 929
f 929 941 942
f 929 942 930
f 930 942 943
f 930 943 931
f 931 943 944
f 931 944 932
f 932 944 933
f 932 933 921
f 933 945 946
f 933 946 934
f 934 946 947
f 934 947 935
f 935 947 948
f 935 948 936
f 936 948 949
f 936 949 937
f 937 949 950
f 937 950 938
f 938 950 951
f 938 951 939
f 939 951 952
f 939 952 940
f 940 952 953
f 940 953 941
f 941 953 954
f 941 954 942
f 942 954 955
f 942 955 943
f 943 955 956
f 943 956 944
f 944 956 945
f 944 945 933
f 945 957 958
f 945 958 946
f 946 958 959
f 946 959 947
f 947 959 960
f 947 960 948
f 948 960 961
f 948 961 949
f 949 961 962
f 949 962 950
f 950 962 963
f 950 963 951
f 951 963 964
f 951 964 952
f 952 964 965
f 952 965 953
f 953 965 966
f 953 966 954
f 954 966 967
f 954 967 955
f 955 967 968
f 955 968 956
f 956 968 957
f 956 957 945
f 957 969 970
f 957 970 958
f 958 970 971
f 958 971 959
f 959 971 972
f 959 972 960
f 960 972 973
f 960 973 961
f 961 973 974
f 961 974 962
f 962 974 975
f 962 975 963
f 963 975 976
f 963 976 964
f 964 976 977
f 964 977 965
f 965 977 978
f 965 978 966
f 966 978 979
f 966 979 967
f 967 979 980
f 967 980 968
f 968 980 969
f 968 969 957
f 969 981 982
f 969 982 970
f 970 982 983
f 970 983 971
f 971 983 984
f 971 984 972
f 972 984 985
f 972 985 973
f 973 985 986
f 973 986 974
f 974 986 987
f 974 987 975
f 975 987 988
f 975 988 976
f 976 988 989
f 976 989 977
f 977 989 990
f 977 990 978
f 978 990 991
f 978 991 979
f 979 991 992
f 979 992 980
f 980 992 981
f 980 981 969
f 981 993 994
f 981 994 982
f 982 994 995
f 982 995 983
f 983 995 996
f 983 996 984
f 984 996 997
f 984 997 985
f 985 997 998
f 985 998 986
f 986 998 999
f 986 999 987
f 987 999 1000
f 987 1000 988
f 988 1000 1001
f 988 1001 989
f 989 1001 1002
f 989 1002 990
f 990 1002 1003
f 990 1003 991
f 991 1003 1004
f 991 1004 992
f 992 1004 993
f 992 993 981
f 993 1005 1006
f 993 1006 994
f 994 1006 1007
f 994 1007 995
f 995 1007 1008
f 995 1008 996
f 996 1008 1009
f 996 1009 997
f 997 1009 1010
f 997 1010 998
f 998 1010 1011
f 998 1011 999
f 999 1011 1012
f 999 1012 1000
f 1000 1012 1013
f 1000 1013 1001
f 1001 1013 1014
f 1001 1014 1002
f 1002 1014 1015
f 1002 1015 1003
f 1003 1015 1016
f 1003 1016 1004
f 1004 1016 1005
f 1004 1005 993
f 1005 1017 1018
f 1005 1018 1006
f 1006 1018 1019
f 1006 1019 1007
f 1007 1019 1020
f 1007 1020 1008
f 1008 1020 1021
f 1008 1021 1009
f 1009 1021 1022
f 1009 1022 1010
f 1010 1022 1023
f 1010 1023 1011
f 1011 1023 1024
f 1011 1024 1012
f 1012 1024 1025
f 1012 1025 1013
f 1013 1025 1026
f 1013 1026 1014
f 1014 1026 1027
f 1014 1027 1015
f 1015 1027 1028
f 1015 1028 1016
f 1016 1028 1017
f 1016 1017 1005
f 1017 1029 1030
f 1017 1030 1018
f 1018 1030 1031
f 1018 1031 1019
f 1019 1031 1032
f 1019 1032 1020
f 1020 1032 1033
f 1020 1033 1021
f 1021 1033 1034
f 1021 1034 1022
f 1022 1034 1035
f 1022 1035 1023
f 1023 1035 1036
f 1023 1036 1024
f 1024 1036 1037
f 1024 1037 1025
f 1025 1037 1038
f 1025 1038 1026
f 1026 1038 1039
f 1026 1039 1027
f 1027 1039 1040
f 1027 1040 1028
f 1028 1040 1029
f 1028 1029 1017
f 1029 1041 1042
f 1029 1042 1030
f 1030 1042 1043
f 1030 1043 1031
f 1031 1043 1044
f 1031 1044 1032
f 1032 1044 1045
f 1032 1045 1033
f 1033 1045 1046
f 1033 1046 1034
f 1034 1046 1047
f 1034 1047 1035
f 1035 1047 1048
f 1035 1048 1036
f 1036 1048 1049
f 1036 1049 1037
f 1037 1049 1050
f 1037 1050 1038
f 1038 1050 1051
f 1038 1051 1039
f 1039 1051 1052
f 1039 1052 1040
f 1040 1052 1041
f 1040 1041 1029
f 1041 1053 1054
f 1041 1054 1042
f 1042 1054 1055
f 1042 1055 1043
f 1043 1055 1056
f 1043 1056 1044
f 1044 1056 1057
f 1044 1057 1045
f 1045 1057 1058
f 1045 1058 1046
f 1046 1058 1059
f 1046 1059 1047
f 1047 1059 1060
f 1047 1060 1048
f 1048 1060 1061
f 1048 1061 1049
f 1049 1061 1062
f 1049 1062 1050
f 1050 1062 1063
f 1050 1063 1051
f 1051 1063 1064
f 1051 1064 1052
f 1052 1064 1053
f 1052 1053 1041
f 1053 1065 1066
f 1053 1066 1054
f 1054 1066 1067
f 1054 1067 1055
f 1055 1067 1068
f 1055 1068 1056
f 1056 1068 1069
f 1056 1069 1057
f 1057 1069 1070
f 1057 1070 1058
f 1058 1070 1071
f 1058 1071 1059
f 1059 1071 1072
f 1059 1072 1060
f 1060 1072 1073
f 1060 1073 1061
f 1061 1073 1074
f 1061 1074 1062
f 1062 1074 1075
f 1062 1075 1063
f 1063 1075 1076
f 1063 1076 1064
f 1064 1076 1065
f 1064 1065 1053
f 1065 1077 1078
f 1065 1078 1066
f 1066 1078 1079
f 1066 1079 1067
f 1067 1079 1080
f 1067 1080 1068
f 1068 1080 1081
f 1068 1081 1069
f 1069 1081 1082
f 1069 1082 1070
f 1070 1082 1083
f 1070 1083 1071
f 1071 1083 1084
f 1071 1084 1072
f 1072 1084 1085
f 1072 1085 1073
f 1073 1085 1086
f 1073 1086 1074
f 1074 1086 1087
f 1074 1087 1075
f 1075 1087 1088
f 1075 1088 1076
f 1076 1088 1077
f 1076 1077 1065
f 1077 1089 1090
f 1077 1090 1078
f 1078 1090 1091
f 1078 1091 1079
f 1079 1091 1092
f 1079 1092 1080
f 1080 1092 1093
f 1080 1093 1081
f 1081 1093 1094
f 1081 1094 1082
f 1082 1094 1095
f 1082 1095 1083
f 1083 1095 1096
f 1083 1096 1084
f 1084 1096 1097
f 1084 1097 1085
f 1085 1097 1098
f 1085 1098 1086
f 1086 1098 1099
f 1086 1099 1087
f 1087 1099 1100
f 1087 1100 1088
f 1088 1100 1089
f 1088 1089 1077
f 1089 1101 1102
f 1089 1102 1090
f 1090 1102 1103
f 1090 1103 1091
f 1091 1103 1104
f 1091 1104 1092
f 1092 1104 1105
f 1092 1105 1093
f 1093 1105 1106
f 1093 1106 1094
f 1094 1106 1107
f 1094 1107 1095
f 1095 1107 1108
f 1095 1108 1096
f 1096 1108 1109
f 1096 1109 1097
f 1097 1109 1110
f 1097 1110 1098
f 1098 1110 1111
f 1098 1111 1099
f 1099 1111 1112
f 1099 1112 1100
f 1100 1112 1101
f 1100 1101 1089
f 1101 1113 1114
f 1101 1114 1102
f 1102 1114 1115
f 1102 1115 1103
f 1103 1115 1116
f 1103 1116 1104
f 1104 1116 1117
f 1104 1117 1105
f 1105 1117 1118
f 1105 1118 1106
f 1106 1118 1119
f 1106 1119 1107
f 1107 1119 1120
f 1107 1120 1108
f 1108 1120 1121
f 1108 1121 1109
f 1109 1121 1122
f 1109 1122 1110
f 1110 1122 1123
f 1110 1123 1111
f 1111 1123 1124
f 1111 1124 1112
f 1112 1124 1113
f 1112 1113 1101
f 1113 1125 1126
f 1113 1126 1114
f 1114 1126 1127
f 1114 1127 1115
f 1115 1127 1128
f 1115 1128 1116
f 1116 1128 1129
f 1116 1129 1117
f 1117 1129 1130
f 1117 1130 1118
f 1118 1130 1131
f 1118 1131 1119
f 1119 1131 1132
f 1119 1132 1120
f 1120 1132 1133
f 1120 1133 1121
f 1121 1133 1134
f 1121 1134 1122
f 1122 1134 1135
f 1122 1135 1123
f 1123 1135 1136
f 1123 1136 1124
f 1124 1136 1125
f 1124 1125 1113
f 1125 1137 1138
f 1125 1138 1126
f 1126 1138 1139
f 1126 1139 1127
f 1127 1139 1140
f 1127 1140 1128
f 1128 1140 1141
f 1128 1141 1129
f 1129 1141 1142
f 1129 1142 1130
f 1130 1142 1143
f 1130 1143 1131
f 1131 1143 1144
f 1131 1144 1132
f 1132 1144 1145
f 1132 1145 1133
f 1133 1145 1146
f 1133 1146 1134
f 1134 1146 1147
f 1134 1147 1135
f 1135 1147 1148
f 1135 1148 1136
f 1136 1148 1137
f 1136 1137 1125
f 1137 1149 1150
f 1137 1150 1138
f 1138 1150 1151
f 1138 1151 1139
f 1139 1151 1152
f 1139 1152 1140
f 1140 1152 1153
f 1140 1153 1141
f 1141 1153 1154
f 1141 1154 1142
f 1142 1154 1155
f 1142 1155 1143
f 1143 1155 1156
f 1143 1156 1144
f 1144 1156 1157
f 1144 1157 1145
f 1145 1157 1158
f 1145 1158 1146
f 1146 1158 1159
f 1146 1159 1147
f 1147 1159 1160
f 1147 1160 1148
f 1148 1160 1149
f 1148 1149 1137
f 1149 1161 1162
f 1149 1162 1150
f 1150 1162 1163
f 1150 1163 1151
f 1151 1163 1164
f 1151 1164 1152
f 1152 1164 1165
f 1152 1165 1153
f 1153 1165 1166
f 1153 1166 1154
f 1154 1166 1167
f 1154 1167 1155
f 1155 1167 1168
f 1155 1168 1156
f 1156 1168 1169
f 1156 1169 1157
f 1157 1169 1170
f 1157 1170 1158
f 1158 1170 1171
f 1158 1171 1159
f 1159 1171 1172
f 1159 1172 1160
f 1160 1172 1161
f 1160 1161 1149
f 1161 1173 1174
f 1161 1174 1162
f 1162 1174 1175
f 1162 1175 1163
f 1163 1175 1176
f 1163 1176 1164
f 1164 1176 1177
f 1164 1177 1165
f 1165 1177 1178
f 1165 1178 1166
f 1166 1178 1179
f 1166 1179 1167
f 1167 1179 1180
f 1167 1180 1168
f 1168 1180 1181
f 1168 1181 1169
f 1169 1181 1182
f 1169 1182 1170
f 1170 1182 1183
f 1170 1183 1171
f 1171 1183 1184
f 1171 1184 1172
f 1172 1184 1173
f 1172 1173 1161
f 1173 33 34
f 1173 34 1174
f 1174 34 35
f 1174 35 1175
f 1175 35 36
f 1175 36 1176
f 1176 36 37
f 1176 37 1177
f 1177 37 38
f 1177 38 1178
f 1178 38 39
f 1178 39 1179
f 1179 39 40
f 1179 40 1180
f 1180 40 41
f 1180 41 1181
f 1181 41 42
f 1181 42 1182
f 1182 42 43
f 1182 43 1183
f 1183 43 44
f 1183 44 1184
f 1184 44 33
f 1184 33 1173
v -0.8493327 0.0000000 0.6689156
v -0.8898666 0.0000000 0.6981902
v -0.8513383 -0.0172208 0.6661388
v -0.8918722 -0.0172208 0.6954134
v -0.8570496 -0.0318198 0.6582308
v -0.8975835 -0.0318198 0.6875054
v -0.8655971 -0.0415746 0.6463957
v -0.9061310 -0.0415746 0.6756703
v -0.8756799 -0.0450000 0.6324352
v -0.9162138 -0.0450000 0.6617097
v -0.8857625 -0.0415746 0.6184746
v -0.9262964 -0.0415746 0.6477492
v -0.8943100 -0.0318198 0.6066395
v -0.9348439 -0.0318198 0.6359141
v -0.9000213 -0.0172208 0.5987315
v -0.9405553 -0.0172208 0.6280061
v -0.9020269 0.0000000 0.5959547
v -0.9425608 0.0000000 0.6252292
v -0.9000213 0.0172208 0.5987315
v -0.9405552 0.0172208 0.6280061
v -0.8943100 0.0318198 0.6066395
v -0.9348439 0.0318198 0.6359141
v -0.8857625 0.0415746 0.6184746
v -0.9262964 0.0415746 0.6477492
v -0.8756797 0.0450000 0.6324352
v -0.9162136 0.0450000 0.6617097
v -0.8655971 0.0415746 0.6463957
v -0.9061310 0.0415746 0.6756703
v -0.8570496 0.0318198 0.6582308
v -0.8975835 0.0318198 0.6875054
v -0.8513381 0.0172208 0.6661388
v -0.8918722 0.0172208 0.6954134
f 1185 1186 1188
f 1185 1188 1187
f 1187 1188 1190
f 1187 1190 1189
f 1189 1190 1192
f 1189 1192 1191
f 1191 1192 1194
f 1191 1194 1193
f 1193 1194 1196
f 1193 1196 1195
f 1195 1196 1198
f 1195 1198 1197
f 1197 1198 1200
f 1197 1200 1199
f 1199 1200 1202
f 1199 1202 1201
f 1201 1202 1204
f 1201 1204 1203
f 1203 1204 1206
f 1203 1206 1205
f 1205 1206 1208
f 1205 1208 1207
f 1207 1208 1210
f 1207 1210 1209
f 1209 1210 1212
f 1209 1212 1211
f 1211 1212 1214
f 1211 1214 1213
f 1190 1188 1186
f 1186 1216 1214
f 1214 1212 1210
f 1210 1208 1206
f 1206 1204 1202
f 1202 1200 1198
f 1198 1196 1194
f 1194 1192 1190
f 1190 1186 1214
f 1214 1210 1206
f 1206 1202 1198
f 1198 1194 1190
f 1190 1214 1206
f 1206 1198 1190
f 1213 1214 1216
f 1213 1216 1215
f 1215 1216 1186
f 1215 1186 1185
f 1215 1185 1187
f 1187 1189 1191
f 1191 1193 1195
f 1195 1197 1199
f 1199 1201 1203
f 1203 1205 1207
f 1207 1209 1211
f 1211 1213 1215
f 1215 1187 1191
f 1191 1195 1199
f 1199 1203 1207
f 1207 1211 1215
f 1215 1191 1199
f 1199 1207 1215
v -0.9218796 -0.0302948 0.6325784
v -0.9901015 -0.1247559 0.5381174
v -0.9184967 -0.0321468 0.6319871
v -0.9867185 -0.1266078 0.5375261
v -0.9150674 -0.0329396 0.6303031
v -0.9832892 -0.1274006 0.5358422
v -0.9121139 -0.0325525 0.6277831
v -0.9803357 -0.1270136 0.5333221
v -0.9100858 -0.0310445 0.6248103
v -0.9783076 -0.1255056 0.5303494
v -0.9092920 -0.0286452 0.6218376
v -0.9775138 -0.1231062 0.5273767
v -0.9098531 -0.0257198 0.6193175
v -0.9780749 -0.1201808 0.5248566
v -0.9116839 -0.0227136 0.6176336
v -0.9799057 -0.1171747 0.5231726
v -0.9145056 -0.0200844 0.6170423
v -0.9827274 -0.1145455 0.5225813
v -0.9178885 -0.0182325 0.6176336
v -0.9861103 -0.1126935 0.5231726
v -0.9213178 -0.0174397 0.6193175
v -0.9895396 -0.1119007 0.5248566
v -0.9242713 -0.0178267 0.6218376
v -0.9924932 -0.1122878 0.5273767
v -0.9262995 -0.0193347 0.6248103
v -0.9945213 -0.1137958 0.5303494
v -0.9270933 -0.0217341 0.6277831
v -0.9953151 -0.1161951 0.5333221
v -0.9265321 -0.0246595 0.6303031
v -0.9947540 -0.1191205 0.5358422
v -0.9247013 -0.0276656 0.6319871
v -0.9929231 -0.1221267 0.5375261
f 1217 1218 1220
f 1217 1220 1219
f 1219 1220 1222
f 1219 1222 1221
f 1221 1222 1224
f 1221 1224 1223
f 1223 1224 1226
f 1223 1226 1225
f 1225 1226 1228
f 1225 1228 1227
f 1227 1228 1230
f 1227 1230 1229
f 1229 1230 1232
f 1229 1232 1231
f 1231 1232 1234
f 1231 1234 1233
f 1233 1234 1236
f 1233 1236 1235
f 1235 1236 1238
f 1235 1238 1237
f 1237 1238 1240
f 1237 1240 1239
f 1239 1240 1242
f 1239 1242 1241
f 1241 1242 1244
f 1241 1244 1243
f 1243 1244 1246
f 1243 1246 1245
f 1222 1220 1218
f 1218 1248 1246
f 1246 1244 1242
f 1242 1240 1238
f 1238 1236 1234
f 1234 1232 1230
f 1230 1228 1226
f 1226 1224 1222
f 1222 1218 1246
f 1246 1242 1238
f 1238 1234 1230
f 1230 1226 1222
f 1222 1246 1238
f 1238 1230 1222
f 1245 1246 1248
f 1245 1248 1247
f 1247 1248 1218
f 1247 1218 1217
f 1247 1217 1219
f 1219 1221 1223
f 1223 1225 1227
f 1227 1229 1231
f 1231 1233 1235
f 1235 1237 1239
f 1239 1241 1243
f 1243 1245 1247
f 1247 1219 1223
f 1223 1227 1231
f 1231 1235 1239
f 1239 1243 1247
f 1247 1223 1231
f 1231 1239 1247
v -0.8874408 -0.0264602 0.6790193
v -0.8321348 -0.1429811 0.7555970
v -0.8838171 -0.0251704 0.6783648
v -0.8285111 -0.1416912 0.7549424
v -0.8804116 -0.0247790 0.6765008
v -0.8251057 -0.1412999 0.7530785
v -0.8777431 -0.0253457 0.6737112
v -0.8224372 -0.1418666 0.7502888
v -0.8762177 -0.0267843 0.6704206
v -0.8209118 -0.1433052 0.7469983
v -0.8760676 -0.0288756 0.6671301
v -0.8207617 -0.1453965 0.7437078
v -0.8773159 -0.0313014 0.6643405
v -0.8220099 -0.1478223 0.7409182
v -0.8797722 -0.0336923 0.6624765
v -0.8244662 -0.1502132 0.7390542
v -0.8830627 -0.0356843 0.6618220
v -0.8277568 -0.1522051 0.7383996
v -0.8866864 -0.0369741 0.6624765
v -0.8313805 -0.1534950 0.7390542
v -0.8900919 -0.0373655 0.6643405
v -0.8347859 -0.1538863 0.7409182
v -0.8927604 -0.0367987 0.6671301
v -0.8374544 -0.1533196 0.7437078
v -0.8942858 -0.0353602 0.6704206
v -0.8389798 -0.1518810 0.7469983
v -0.8944359 -0.0332688 0.6737112
v -0.8391299 -0.1497897 0.7502888
v -0.8931876 -0.0308431 0.6765008
v -0.8378817 -0.1473640 0.7530785
v -0.8907313 -0.0284522 0.6783648
v -0.8354254 -0.1449731 0.7549424
f 1249 1250 1252
f 1249 1252 1251
f 1251 1252 1254
f 1251 1254 1253
f 1253 1254 1256
f 1253 1256 1255
f 1255 1256 1258
f 1255 1258 1257
f 1257 1258 1260
f 1257 1260 1259
f 1259 1260 1262
f 1259 1262 1261
f 1261 1262 1264
f 1261 1264 1263
f 1263 1264 1266
f 1263 1266 1265
f 1265 1266 1268
f 1265 1268 1267
f 1267 1268 1270
f 1267 1270 1269
f 1269 1270 1272
f 1269 1272 1271
f 1271 1272 1274
f 1271 1274 1273
f 1273 1274 1276
f 1273 1276 1275
f 1275 1276 1278
f 1275 1278 1277
f 1254 1252 1250
f 1250 1280 1278
f 1278 1276 1274
f 1274 1272 1270
f 1270 1268 1266
f 1266 1264 1262
f 1262 1260 1258
f 1258 1256 1254
f 1254 1250 1278
f 1278 1274 1270
f 1270 1266 1262
f 1262 1258 1254
f 1254 1278 1270
f 1270 1262 1254
f 1277 1278 1280
f 1277 1280 1279
f 1279 1280 1250
f 1279 1250 1249
f 1279 1249 1251
f 1251 1253 1255
f 1255 1257 1259
f 1259 1261 1263
f 1263 1265 1267
f 1267 1269 1271
f 1271 1273 1275
f 1275 1277 1279
f 1279 1251 1255
f 1255 1259 1263
f 1263 1267 1271
f 1271 1275 1279
f 1279 1255 1263
f 1263 1271 1279
v -0.8854946 0.0200844 0.6829576
v -0.8172728 0.1145454 0.7774186
v -0.8883163 0.0227136 0.6823664
v -0.8200945 0.1171747 0.7768273
v -0.8901471 0.0257197 0.6806824
v -0.8219253 0.1201808 0.7751434
v -0.8907082 0.0286452 0.6781623
v -0.8224864 0.1231062 0.7726233
v -0.8899144 0.0310445 0.6751896
v -0.8216926 0.1255055 0.7696506
v -0.8878863 0.0325525 0.6722169
v -0.8196645 0.1270135 0.7666779
v -0.8849328 0.0329396 0.6696968
v -0.8167109 0.1274006 0.7641578
v -0.8815035 0.0321468 0.6680129
v -0.8132817 0.1266078 0.7624738
v -0.8781205 0.0302948 0.6674216
v -0.8098987 0.1247558 0.7618825
v -0.8752989 0.0276656 0.6680129
v -0.8070771 0.1221266 0.7624738
v -0.8734680 0.0246595 0.6696968
v -0.8052462 0.1191205 0.7641578
v -0.8729069 0.0217341 0.6722169
v -0.8046851 0.1161951 0.7666779
v -0.8737007 0.0193347 0.6751896
v -0.8054789 0.1137957 0.7696506
v -0.8757288 0.0178267 0.6781623
v -0.8075070 0.1122877 0.7726233
v -0.8786824 0.0174397 0.6806824
v -0.8104606 0.1119007 0.7751434
v -0.8821117 0.0182325 0.6823664
v -0.8138899 0.1126935 0.7768273
f 1281 1282 1284
f 1281 1284 1283
f 1283 1284 1286
f 1283 1286 1285
f 1285 1286 1288
f 1285 1288 1287
f 1287 1288 1290
f 1287 1290 1289
f 1289 1290 1292
f 1289 1292 1291
f 1291 1292 1294
f 1291 1294 1293
f 1293 1294 1296
f 1293 1296 1295
f 1295 1296 1298
f 1295 1298 1297
f 1297 1298 1300
f 1297 1300 1299
f 1299 1300 1302
f 1299 1302 1301
f 1301 1302 1304
f 1301 1304 1303
f 1303 1304 1306
f 1303 1306 1305
f 1305 1306 1308
f 1305 1308 1307
f 1307 1308 1310
f 1307 1310 1309
f 1286 1284 1282
f 1282 1312 1310
f 1310 1308 1306
f 1306 1304 1302
f 1302 1300 1298
f 1298 1296 1294
f 1294 1292 1290
f 1290 1288 1286
f 1286 1282 1310
f 1310 1306 1302
f 1302 1298 1294
f 1294 1290 1286
f 1286 1310 1302
f 1302 1294 1286
f 1309 1310 1312
f 1309 1312 1311
f 1311 1312 1282
f 1311 1282 1281
f 1311 1281 1283
f 1283 1285 1287
f 1287 1289 1291
f 1291 1293 1295
f 1295 1297 1299
f 1299 1301 1303
f 1303 1305 1307
f 1307 1309 1311
f 1311 1283 1287
f 1287 1291 1295
f 1295 1299 1303
f 1303 1307 1311
f 1311 1287 1295
f 1295 1303 1311
v -0.9169375 0.0356843 0.6381780
v -0.9722434 0.1522051 0.5616003
v -0.9202280 0.0336923 0.6375234
v -0.9755340 0.1502132 0.5609457
v -0.9226843 0.0313014 0.6356595
v -0.9779903 0.1478223 0.5590818
v -0.9239326 0.0288756 0.6328698
v -0.9792385 0.1453965 0.5562922
v -0.9237825 0.0267843 0.6295793
v -0.9790884 0.1433052 0.5530016
v -0.9222571 0.0253457 0.6262888
v -0.9775630 0.1418666 0.5497111
v -0.9195886 0.0247790 0.6234992
v -0.9748945 0.1412999 0.5469215
v -0.9161831 0.0251704 0.6216352
v -0.9714891 0.1416912 0.5450575
v -0.9125594 0.0264602 0.6209806
v -0.9678653 0.1429811 0.5444030
v -0.9092689 0.0284522 0.6216352
v -0.9645748 0.1449731 0.5450575
v -0.9068125 0.0308431 0.6234992
v -0.9621185 0.1473639 0.5469215
v -0.9055643 0.0332688 0.6262888
v -0.9608703 0.1497897 0.5497111
v -0.9057144 0.0353602 0.6295793
v -0.9610204 0.1518811 0.5530016
v -0.9072398 0.0367987 0.6328698
v -0.9625458 0.1533196 0.5562922
v -0.9099083 0.0373655 0.6356595
v -0.9652143 0.1538863 0.5590818
v -0.9133137 0.0369741 0.6375234
v -0.9686197 0.1534950 0.5609457
f 1313 1314 1316
f 1313 1316 1315
f 1315 1316 1318
f 1315 1318 1317
f 1317 1318 1320
f 1317 1320 1319
f 1319 1320 1322
f 1319 1322 1321
f 1321 1322 1324
f 1321 1324 1323
f 1323 1324 1326
f 1323 1326 1325
f 1325 1326 1328
f 1325 1328 1327
f 1327 1328 1330
f 1327 1330 1329
f 1329 1330 1332
f 1329 1332 1331
f 1331 1332 1334
f 1331 1334 1333
f 1333 1334 1336
f 1333 1336 1335
f 1335 1336 1338
f 1335 1338 1337
f 1337 1338 1340
f 1337 1340 1339
f 1339 1340 1342
f 1339 1342 1341
f 1318 1316 1314
f 1314 1344 1342
f 1342 1340 1338
f 1338 1336 1334
f 1334 1332 1330
f 1330 1328 1326
f 1326 1324 1322
f 1322 1320 1318
f 1318 1314 1342
f 1342 1338 1334
f 1334 1330 1326
f 1326 1322 1318
f 1318 1342 1334
f 1334 1326 1318
f 1341 1342 1344
f 1341 1344 1343
f 1343 1344 1314
f 1343 1314 1313
f 1343 1313 1315
f 1315 1317 1319
f 1319 1321 1323
f 1323 1325 1327
f 1327 1329 1331
f 1331 1333 1335
f 1335 1337 1339
f 1339 1341 1343
f 1343 1315 1319
f 1319 1323 1327
f 1327 1331 1335
f 1335 1339 1343
f 1343 1319 1327
f 1327 1335 1343
