v 0.0000000 -0.5400001 0.0220001
v 0.0000000 0.5400001 0.0219999
v -0.0084190 -0.5400001 0.0203254
v -0.0084190 0.5400001 0.0203253
v -0.0155563 -0.5400001 0.0155564
v -0.0155563 0.5400001 0.0155563
v -0.0203254 -0.5400001 0.0084191
v -0.0203254 0.5400001 0.0084190
v -0.0220001 -0.5400001 0.0000001
v -0.0220001 0.5400001 -0.0000001
v -0.0203254 -0.5400001 -0.0084190
v -0.0203254 0.5400001 -0.0084191
v -0.0155563 -0.5400001 -0.0155563
v -0.0155563 0.5400001 -0.0155564
v -0.0084190 -0.5400001 -0.0203253
v -0.0084190 0.5400001 -0.0203254
v 0.0000000 -0.5400001 -0.0219999
v 0.0000000 0.5400001 -0.0220001
v 0.0084190 -0.5400001 -0.0203253
v 0.0084190 0.5400001 -0.0203254
v 0.0155563 -0.5400001 -0.0155563
v 0.0155563 0.5400001 -0.0155564
v 0.0203254 -0.5400001 -0.0084190
v 0.0203254 0.5400001 -0.0084191
v 0.0220001 -0.5400001 0.0000001
v 0.0220001 0.5400001 -0.0000001
v 0.0203254 -0.5400001 0.0084191
v 0.0203254 0.5400001 0.0084190
v 0.0155563 -0.5400001 0.0155564
v 0.0155563 0.5400001 0.0155563
v 0.0084190 -0.5400001 0.0203254
v 0.0084190 0.5400001 0.0203253
f 1 2 4
f 1 4 3
f 3 4 6
f 3 6 5
f 5 6 8
f 5 8 7
f 7 8 10
f 7 10 9
f 9 10 12
f 9 12 11
f 11 12 14
f 11 14 13
f 13 14 16
f 13 16 15
f 15 16 18
f 15 18 17
f 17 18 20
f 17 20 19
f 19 20 22
f 19 22 21
f 21 22 24
f 21 24 23
f 23 24 26
f 23 26 25
f 25 26 28
f 25 28 27
f 27 28 30
f 27 30 29
f 6 4 2
f 2 32 30
f 30 28 26
f 26 24 22
f 22 20 18
f 18 16 14
f 14 12 10
f 10 8 6
f 6 2 30
f 30 26 22
f 22 18 14
f 14 10 6
f 6 30 22
f 22 14 6
f 29 30 32
f 29 32 31
f 31 32 2
f 31 2 1
f 31 1 3
f 3 5 7
f 7 9 11
f 11 13 15
f 15 17 19
f 19 21 23
f 23 25 27
f 27 29 31
f 31 3 7
f 7 11 15
f 15 19 23
f 23 27 31
f 31 7 15
f 15 23 31
v 0.0000000 0.5400000 -0.0250000
v 0.0000000 0.5400000 0.0249999
v -0.0114806 0.5422836 -0.0250000
v -0.0114806 0.5422836 0.0249999
v -0.0212133 0.5487868 -0.0250000
v -0.0212133 0.5487868 0.0249999
v -0.0277164 0.5585195 -0.0250000
v -0.0277164 0.5585195 0.0249999
v -0.0300000 0.5700000 -0.0250000
v -0.0300000 0.5700000 0.0249999
v -0.0277164 0.5814805 -0.0250000
v -0.0277164 0.5814805 0.0249999
v -0.0212133 0.5912132 -0.0250000
v -0.0212133 0.5912132 0.0249999
v -0.0114806 0.5977164 -0.0250000
v -0.0114806 0.5977164 0.0249999
v 0.0000000 0.6000000 -0.0250000
v 0.0000000 0.6000000 0.0249999
v 0.0114806 0.5977164 -0.0250000
v 0.0114806 0.5977164 0.0249999
v 0.0212133 0.5912132 -0.0250000
v 0.0212133 0.5912132 0.0249999
v 0.0277164 0.5814805 -0.0250000
v 0.0277164 0.5814805 0.0249999
v 0.0300000 0.5700000 -0.0250000
v 0.0300000 0.5700000 0.0249999
v 0.0277164 0.5585195 -0.0250000
v 0.0277164 0.5585195 0.0249999
v 0.0212133 0.5487868 -0.0250000
v 0.0212133 0.5487868 0.0249999
v 0.0114806 0.5422836 -0.0250000
v 0.0114806 0.5422836 0.0249999
f 33 34 36
f 33 36 35
f 35 36 38
f 35 38 37
f 37 38 40
f 37 40 39
f 39 40 42
f 39 42 41
f 41 42 44
f 41 44 43
f 43 44 46
f 43 46 45
f 45 46 48
f 45 48 47
f 47 48 50
f 47 50 49
f 49 50 52
f 49 52 51
f 51 52 54
f 51 54 53
f 53 54 56
f 53 56 55
f 55 56 58
f 55 58 57
f 57 58 60
f 57 60 59
f 59 60 62
f 59 62 61
f 38 36 34
f 34 64 62
f 62 60 58
f 58 56 54
f 54 52 50
f 50 48 46
f 46 44 42
f 42 40 38
f 38 34 62
f 62 58 54
f 54 50 46
f 46 42 38
f 38 62 54
f 54 46 38
f 61 62 64
f 61 64 63
f 63 64 34
f 63 34 33
f 63 33 35
f 35 37 39
f 39 41 43
f 43 45 47
f 47 49 51
f 51 53 55
f 55 57 59
f 59 61 63
f 63 35 39
f 39 43 47
f 47 51 55
f 55 59 63
f 63 39 47
f 47 55 63
v 0.0000000 -0.6000000 -0.0250000
v 0.0000000 -0.6000000 0.0249999
v -0.0114806 -0.5977164 -0.0250000
v -0.0114806 -0.5977164 0.0249999
v -0.0212133 -0.5912132 -0.0250000
v -0.0212133 -0.5912132 0.0249999
v -0.0277164 -0.5814805 -0.0250000
v -0.0277164 -0.5814805 0.0249999
v -0.0300000 -0.5700000 -0.0250000
v -0.0300000 -0.5700000 0.0249999
v -0.0277164 -0.5585195 -0.0250000
v -0.0277164 -0.5585195 0.0249999
v -0.0212133 -0.5487868 -0.0250000
v -0.0212133 -0.5487868 0.0249999
v -0.0114806 -0.5422836 -0.0250000
v -0.0114806 -0.5422836 0.0249999
v 0.0000000 -0.5400000 -0.0250000
v 0.0000000 -0.5400000 0.0249999
v 0.0114806 -0.5422836 -0.0250000
v 0.0114806 -0.5422836 0.0249999
v 0.0212133 -0.5487868 -0.0250000
v 0.0212133 -0.5487868 0.0249999
v 0.0277164 -0.5585195 -0.0250000
v 0.0277164 -0.5585195 0.0249999
v 0.0300000 -0.5700000 -0.0250000
v 0.0300000 -0.5700000 0.0249999
v 0.0277164 -0.5814805 -0.0250000
v 0.0277164 -0.5814805 0.0249999
v 0.0212133 -0.5912132 -0.0250000
v 0.0212133 -0.5912132 0.0249999
v 0.0114806 -0.5977164 -0.0250000
v 0.0114806 -0.5977164 0.0249999
f 65 66 68
f 65 68 67
f 67 68 70
f 67 70 69
f 69 70 72
f 69 72 71
f 71 72 74
f 71 74 73
f 73 74 76
f 73 76 75
f 75 76 78
f 75 78 77
f 77 78 80
f 77 80 79
f 79 80 82
f 79 82 81
f 81 82 84
f 81 84 83
f 83 84 86
f 83 86 85
f 85 86 88
f 85 88 87
f 87 88 90
f 87 90 89
f 89 90 92
f 89 92 91
f 91 92 94
f 91 94 93
f 70 68 66
f 66 96 94
f 94 92 90
f 90 88 86
f 86 84 82
f 82 80 78
f 78 76 74
f 74 72 70
f 70 66 94
f 94 90 86
f 86 82 78
f 78 74 70
f 70 94 86
f 86 78 70
f 93 94 96
f 93 96 95
f 95 96 66
f 95 66 65
f 95 65 67
f 67 69 71
f 71 73 75
f 75 77 79
f 79 81 83
f 83 85 87
f 87 89 91
f 91 93 95
f 95 67 71
f 71 75 79
f 79 83 87
f 87 91 95
f 95 71 79
f 79 87 95
v -0.0400000 -0.3500000 0.0220000
v -0.0400000 -0.3600000 0.0320000
v -0.0500000 -0.3500000 0.0320000
v -0.0400000 -0.3549935 0.0233359
v -0.0449934 -0.3500000 0.0233359
v -0.0447822 -0.3547821 0.0246336
v -0.0449934 -0.3586640 0.0320000
v -0.0400000 -0.3586640 0.0270065
v -0.0447822 -0.3573663 0.0272179
v -0.0486641 -0.3500000 0.0270065
v -0.0486641 -0.3549935 0.0320000
v -0.0473664 -0.3547821 0.0272179
v -0.0400000 -0.3600000 0.0320000
v -0.0400000 -0.3500000 0.0420000
v -0.0500000 -0.3500000 0.0320000
v -0.0400000 -0.3586640 0.0369934
v -0.0449934 -0.3586640 0.0320000
v -0.0447822 -0.3573663 0.0367821
v -0.0449934 -0.3500000 0.0406640
v -0.0400000 -0.3549935 0.0406640
v -0.0447822 -0.3547821 0.0393663
v -0.0486641 -0.3549935 0.0320000
v -0.0486641 -0.3500000 0.0369934
v -0.0473664 -0.3547821 0.0367821
v -0.0400000 -0.3100000 0.0220000
v -0.0500000 -0.3100000 0.0320000
v -0.0400000 -0.3000000 0.0320000
v -0.0449934 -0.3100000 0.0233359
v -0.0400000 -0.3050066 0.0233359
v -0.0447822 -0.3052179 0.0246336
v -0.0486641 -0.3050066 0.0320000
v -0.0486641 -0.3100000 0.0270065
v -0.0473664 -0.3052179 0.0272179
v -0.0400000 -0.3013360 0.0270065
v -0.0449934 -0.3013360 0.0320000
v -0.0447822 -0.3026337 0.0272179
v -0.0400000 -0.3100000 0.0420000
v -0.0400000 -0.3000000 0.0320000
v -0.0500000 -0.3100000 0.0320000
v -0.0400000 -0.3050066 0.0406640
v -0.0449934 -0.3100000 0.0406640
v -0.0447822 -0.3052179 0.0393663
v -0.0449934 -0.3013360 0.0320000
v -0.0400000 -0.3013360 0.0369934
v -0.0447822 -0.3026337 0.0367821
v -0.0486641 -0.3100000 0.0369934
v -0.0486641 -0.3050066 0.0320000
v -0.0473664 -0.3052179 0.0367821
v 0.0400000 -0.3500000 0.0220000
v 0.0500000 -0.3500000 0.0320000
v 0.0400000 -0.3600000 0.0320000
v 0.0449934 -0.3500000 0.0233359
v 0.0400000 -0.3549935 0.0233359
v 0.0447822 -0.3547821 0.0246336
v 0.0486641 -0.3549935 0.0320000
v 0.0486641 -0.3500000 0.0270065
v 0.0473664 -0.3547821 0.0272179
v 0.0400000 -0.3586640 0.0270065
v 0.0449934 -0.3586640 0.0320000
v 0.0447822 -0.3573663 0.0272179
v 0.0400000 -0.3500000 0.0420000
v 0.0400000 -0.3600000 0.0320000
v 0.0500000 -0.3500000 0.0320000
v 0.0400000 -0.3549935 0.0406640
v 0.0449934 -0.3500000 0.0406640
v 0.0447822 -0.3547821 0.0393663
v 0.0449934 -0.3586640 0.0320000
v 0.0400000 -0.3586640 0.0369934
v 0.0447822 -0.3573663 0.0367821
v 0.0486641 -0.3500000 0.0369934
v 0.0486641 -0.3549935 0.0320000
v 0.0473664 -0.3547821 0.0367821
v 0.0400000 -0.3100000 0.0220000
v 0.0400000 -0.3000000 0.0320000
v 0.0500000 -0.3100000 0.0320000
v 0.0400000 -0.3050066 0.0233359
v 0.0449934 -0.3100000 0.0233359
v 0.0447822 -0.3052179 0.0246336
v 0.0449934 -0.3013360 0.0320000
v 0.0400000 -0.3013360 0.0270065
v 0.0447822 -0.3026337 0.0272179
v 0.0486641 -0.3100000 0.0270065
v 0.0486641 -0.3050066 0.0320000
v 0.0473664 -0.3052179 0.0272179
v 0.0400000 -0.3100000 0.0420000
v 0.0500000 -0.3100000 0.0320000
v 0.0400000 -0.3000000 0.0320000
v 0.0449934 -0.3100000 0.0406640
v 0.0400000 -0.3050066 0.0406640
v 0.0447822 -0.3052179 0.0393663
v 0.0486641 -0.3050066 0.0320000
v 0.0486641 -0.3100000 0.0369934
v 0.0473664 -0.3052179 0.0367821
v 0.0400000 -0.3013360 0.0369934
v 0.0449934 -0.3013360 0.0320000
v 0.0447822 -0.3026337 0.0367821
f 97 100 102
f 97 102 101
f 100 104 105
f 100 105 102
f 98 103 105
f 98 105 104
f 103 107 108
f 103 108 105
f 99 106 108
f 99 108 107
f 106 101 102
f 106 102 108
f 102 105 108
f 109 112 114
f 109 114 113
f 112 116 117
f 112 117 114
f 110 115 117
f 110 117 116
f 115 119 120
f 115 120 117
f 111 118 120
f 111 120 119
f 118 113 114
f 118 114 120
f 114 117 120
f 121 124 126
f 121 126 125
f 124 128 129
f 124 129 126
f 122 127 129
f 122 129 128
f 127 131 132
f 127 132 129
f 123 130 132
f 123 132 131
f 130 125 126
f 130 126 132
f 126 129 132
f 133 136 138
f 133 138 137
f 136 140 141
f 136 141 138
f 134 139 141
f 134 141 140
f 139 143 144
f 139 144 141
f 135 142 144
f 135 144 143
f 142 137 138
f 142 138 144
f 138 141 144
f 145 148 150
f 145 150 149
f 148 152 153
f 148 153 150
f 146 151 153
f 146 153 152
f 151 155 156
f 151 156 153
f 147 154 156
f 147 156 155
f 154 149 150
f 154 150 156
f 150 153 156
f 157 160 162
f 157 162 161
f 160 164 165
f 160 165 162
f 158 163 165
f 158 165 164
f 163 167 168
f 163 168 165
f 159 166 168
f 159 168 167
f 166 161 162
f 166 162 168
f 162 165 168
f 169 172 174
f 169 174 173
f 172 176 177
f 172 177 174
f 170 175 177
f 170 177 176
f 175 179 180
f 175 180 177
f 171 178 180
f 171 180 179
f 178 173 174
f 178 174 180
f 174 177 180
f 181 184 186
f 181 186 185
f 184 188 189
f 184 189 186
f 182 187 189
f 182 189 188
f 187 191 192
f 187 192 189
f 183 190 192
f 183 192 191
f 190 185 186
f 190 186 192
f 186 189 192
f 121 97 101
f 121 101 124
f 124 101 106
f 124 106 128
f 128 106 99
f 128 99 122
f 98 109 113
f 98 113 103
f 103 113 118
f 103 118 107
f 107 118 111
f 107 111 99
f 110 133 137
f 110 137 115
f 115 137 142
f 115 142 119
f 119 142 135
f 119 135 111
f 134 123 131
f 134 131 139
f 139 131 127
f 139 127 143
f 143 127 122
f 143 122 135
f 169 121 125
f 169 125 172
f 172 125 130
f 172 130 176
f 176 130 123
f 176 123 170
f 133 181 185
f 133 185 136
f 136 185 190
f 136 190 140
f 140 190 183
f 140 183 134
f 182 171 179
f 182 179 187
f 187 179 175
f 187 175 191
f 191 175 170
f 191 170 183
f 145 169 173
f 145 173 148
f 148 173 178
f 148 178 152
f 152 178 171
f 152 171 146
f 181 157 161
f 181 161 184
f 184 161 166
f 184 166 188
f 188 166 159
f 188 159 182
f 158 147 155
f 158 155 163
f 163 155 151
f 163 151 167
f 167 151 146
f 167 146 159
f 97 145 149
f 97 149 100
f 100 149 154
f 100 154 104
f 104 154 147
f 104 147 98
f 157 110 116
f 157 116 160
f 160 116 112
f 160 112 164
f 164 112 109
f 164 109 158
f 121 169 145
f 121 145 97
f 99 111 135
f 99 135 122
f 147 158 109
f 147 109 98
f 181 133 110
f 181 110 157
f 123 134 183
f 123 183 170
f 171 182 159
f 171 159 146
v -0.0400000 0.3100000 0.0220000
v -0.0400000 0.3000000 0.0320000
v -0.0500000 0.3100000 0.0320000
v -0.0400000 0.3050066 0.0233359
v -0.0449934 0.3100000 0.0233359
v -0.0447822 0.3052179 0.0246336
v -0.0449934 0.3013360 0.0320000
v -0.0400000 0.3013360 0.0270065
v -0.0447822 0.3026337 0.0272179
v -0.0486641 0.3100000 0.0270065
v -0.0486641 0.3050066 0.0320000
v -0.0473664 0.3052179 0.0272179
v -0.0400000 0.3000000 0.0320000
v -0.0400000 0.3100000 0.0420000
v -0.0500000 0.3100000 0.0320000
v -0.0400000 0.3013360 0.0369934
v -0.0449934 0.3013360 0.0320000
v -0.0447822 0.3026337 0.0367821
v -0.0449934 0.3100000 0.0406640
v -0.0400000 0.3050066 0.0406640
v -0.0447822 0.3052179 0.0393663
v -0.0486641 0.3050066 0.0320000
v -0.0486641 0.3100000 0.0369934
v -0.0473664 0.3052179 0.0367821
v -0.0400000 0.3500000 0.0220000
v -0.0500000 0.3500000 0.0320000
v -0.0400000 0.3600000 0.0320000
v -0.0449934 0.3500000 0.0233359
v -0.0400000 0.3549935 0.0233359
v -0.0447822 0.3547821 0.0246336
v -0.0486641 0.3549935 0.0320000
v -0.0486641 0.3500000 0.0270065
v -0.0473664 0.3547821 0.0272179
v -0.0400000 0.3586640 0.0270065
v -0.0449934 0.3586640 0.0320000
v -0.0447822 0.3573663 0.0272179
v -0.0400000 0.3500000 0.0420000
v -0.0400000 0.3600000 0.0320000
v -0.0500000 0.3500000 0.0320000
v -0.0400000 0.3549935 0.0406640
v -0.0449934 0.3500000 0.0406640
v -0.0447822 0.3547821 0.0393663
v -0.0449934 0.3586640 0.0320000
v -0.0400000 0.3586640 0.0369934
v -0.0447822 0.3573663 0.0367821
v -0.0486641 0.3500000 0.0369934
v -0.0486641 0.3549935 0.0320000
v -0.0473664 0.3547821 0.0367821
v 0.0400000 0.3100000 0.0220000
v 0.0500000 0.3100000 0.0320000
v 0.0400000 0.3000000 0.0320000
v 0.0449934 0.3100000 0.0233359
v 0.0400000 0.3050066 0.0233359
v 0.0447822 0.3052179 0.0246336
v 0.0486641 0.3050066 0.0320000
v 0.0486641 0.3100000 0.0270065
v 0.0473664 0.3052179 0.0272179
v 0.0400000 0.3013360 0.0270065
v 0.0449934 0.3013360 0.0320000
v 0.0447822 0.3026337 0.0272179
v 0.0400000 0.3100000 0.0420000
v 0.0400000 0.3000000 0.0320000
v 0.0500000 0.3100000 0.0320000
v 0.0400000 0.3050066 0.0406640
v 0.0449934 0.3100000 0.0406640
v 0.0447822 0.3052179 0.0393663
v 0.0449934 0.3013360 0.0320000
v 0.0400000 0.3013360 0.0369934
v 0.0447822 0.3026337 0.0367821
v 0.0486641 0.3100000 0.0369934
v 0.0486641 0.3050066 0.0320000
v 0.0473664 0.3052179 0.0367821
v 0.0400000 0.3500000 0.0220000
v 0.0400000 0.3600000 0.0320000
v 0.0500000 0.3500000 0.0320000
v 0.0400000 0.3549935 0.0233359
v 0.0449934 0.3500000 0.0233359
v 0.0447822 0.3547821 0.0246336
v 0.0449934 0.3586640 0.0320000
v 0.0400000 0.3586640 0.0270065
v 0.0447822 0.3573663 0.0272179
v 0.0486641 0.3500000 0.0270065
v 0.0486641 0.3549935 0.0320000
v 0.0473664 0.3547821 0.0272179
v 0.0400000 0.3500000 0.0420000
v 0.0500000 0.3500000 0.0320000
v 0.0400000 0.3600000 0.0320000
v 0.0449934 0.3500000 0.0406640
v 0.0400000 0.3549935 0.0406640
v 0.0447822 0.3547821 0.0393663
v 0.0486641 0.3549935 0.0320000
v 0.0486641 0.3500000 0.0369934
v 0.0473664 0.3547821 0.0367821
v 0.0400000 0.3586640 0.0369934
v 0.0449934 0.3586640 0.0320000
v 0.0447822 0.3573663 0.0367821
f 193 196 198
f 193 198 197
f 196 200 201
f 196 201 198
f 194 199 201
f 194 201 200
f 199 203 204
f 199 204 201
f 195 202 204
f 195 204 203
f 202 197 198
f 202 198 204
f 198 201 204
f 205 208 210
f 205 210 209
f 208 212 213
f 208 213 210
f 206 211 213
f 206 213 212
f 211 215 216
f 211 216 213
f 207 214 216
f 207 216 215
f 214 209 210
f 214 210 216
f 210 213 216
f 217 220 222
f 217 222 221
f 220 224 225
f 220 225 222
f 218 223 225
f 218 225 224
f 223 227 228
f 223 228 225
f 219 226 228
f 219 228 227
f 226 221 222
f 226 222 228
f 222 225 228
f 229 232 234
f 229 234 233
f 232 236 237
f 232 237 234
f 230 235 237
f 230 237 236
f 235 239 240
f 235 240 237
f 231 238 240
f 231 240 239
f 238 233 234
f 238 234 240
f 234 237 240
f 241 244 246
f 241 246 245
f 244 248 249
f 244 249 246
f 242 247 249
f 242 249 248
f 247 251 252
f 247 252 249
f 243 250 252
f 243 252 251
f 250 245 246
f 250 246 252
f 246 249 252
f 253 256 258
f 253 258 257
f 256 260 261
f 256 261 258
f 254 259 261
f 254 261 260
f 259 263 264
f 259 264 261
f 255 262 264
f 255 264 263
f 262 257 258
f 262 258 264
f 258 261 264
f 265 268 270
f 265 270 269
f 268 272 273
f 268 273 270
f 266 271 273
f 266 273 272
f 271 275 276
f 271 276 273
f 267 274 276
f 267 276 275
f 274 269 270
f 274 270 276
f 270 273 276
f 277 280 282
f 277 282 281
f 280 284 285
f 280 285 282
f 278 283 285
f 278 285 284
f 283 287 288
f 283 288 285
f 279 286 288
f 279 288 287
f 286 281 282
f 286 282 288
f 282 285 288
f 217 193 197
f 217 197 220
f 220 197 202
f 220 202 224
f 224 202 195
f 224 195 218
f 194 205 209
f 194 209 199
f 199 209 214
f 199 214 203
f 203 214 207
f 203 207 195
f 206 229 233
f 206 233 211
f 211 233 238
f 211 238 215
f 215 238 231
f 215 231 207
f 230 219 227
f 230 227 235
f 235 227 223
f 235 223 239
f 239 223 218
f 239 218 231
f 265 217 221
f 265 221 268
f 268 221 226
f 268 226 272
f 272 226 219
f 272 219 266
f 229 277 281
f 229 281 232
f 232 281 286
f 232 286 236
f 236 286 279
f 236 279 230
f 278 267 275
f 278 275 283
f 283 275 271
f 283 271 287
f 287 271 266
f 287 266 279
f 241 265 269
f 241 269 244
f 244 269 274
f 244 274 248
f 248 274 267
f 248 267 242
f 277 253 257
f 277 257 280
f 280 257 262
f 280 262 284
f 284 262 255
f 284 255 278
f 254 243 251
f 254 251 259
f 259 251 247
f 259 247 263
f 263 247 242
f 263 242 255
f 193 241 245
f 193 245 196
f 196 245 250
f 196 250 200
f 200 250 243
f 200 243 194
f 253 206 212
f 253 212 256
f 256 212 208
f 256 208 260
f 260 208 205
f 260 205 254
f 217 265 241
f 217 241 193
f 195 207 231
f 195 231 218
f 243 254 205
f 243 205 194
f 277 229 206
f 277 206 253
f 219 230 279
f 219 279 266
f 267 278 255
f 267 255 242
