v 0.0000000 -0.0120000 -0.2050000
v 0.0000000 -0.0120000 0.0500000
v -0.0045922 -0.0110866 -0.2050000
v -0.0045922 -0.0110866 0.0500000
v -0.0084853 -0.0084853 -0.2050000
v -0.0084853 -0.0084853 0.0500000
v -0.0110865 -0.0045922 -0.2050000
v -0.0110865 -0.0045922 0.0500000
v -0.0120001 0.0000000 -0.2050000
v -0.0120001 0.0000000 0.0500000
v -0.0110865 0.0045922 -0.2050000
v -0.0110865 0.0045922 0.0500000
v -0.0084853 0.0084853 -0.2050000
v -0.0084853 0.0084853 0.0500000
v -0.0045922 0.0110866 -0.2050000
v -0.0045922 0.0110866 0.0500000
v 0.0000000 0.0120000 -0.2050000
v 0.0000000 0.0120000 0.0500000
v 0.0045922 0.0110866 -0.2050000
v 0.0045922 0.0110866 0.0500000
v 0.0084853 0.0084853 -0.2050000
v 0.0084853 0.0084853 0.0500000
v 0.0110865 0.0045922 -0.2050000
v 0.0110865 0.0045922 0.0500000
v 0.0120001 0.0000000 -0.2050000
v 0.0120001 0.0000000 0.0500000
v 0.0110865 -0.0045922 -0.2050000
v 0.0110865 -0.0045922 0.0500000
v 0.0084853 -0.0084853 -0.2050000
v 0.0084853 -0.0084853 0.0500000
v 0.0045922 -0.0110866 -0.2050000
v 0.0045922 -0.0110866 0.0500000
f 1 2 4
f 1 4 3
f 3 4 6
f 3 6 5
f 5 6 8
f 5 8 7
f 7 8 10
f 7 10 9
f 9 10 12
f 9 12 11
f 11 12 14
f 11 14 13
f 13 14 16
f 13 16 15
f 15 16 18
f 15 18 17
f 17 18 20
f 17 20 19
f 19 20 22
f 19 22 21
f 21 22 24
f 21 24 23
f 23 24 26
f 23 26 25
f 25 26 28
f 25 28 27
f 27 28 30
f 27 30 29
f 6 4 2
f 2 32 30
f 30 28 26
f 26 24 22
f 22 20 18
f 18 16 14
f 14 12 10
f 10 8 6
f 6 2 30
f 30 26 22
f 22 18 14
f 14 10 6
f 6 30 22
f 22 14 6
f 29 30 32
f 29 32 31
f 31 32 2
f 31 2 1
f 31 1 3
f 3 5 7
f 7 9 11
f 11 13 15
f 15 17 19
f 19 21 23
f 23 25 27
f 27 29 31
f 31 3 7
f 7 11 15
f 15 19 23
f 23 27 31
f 31 7 15
f 15 23 31
v 0.0000000 0.0000000 0.0530000
v 0.0000000 0.0480000 0.0530000
v -0.0045922 0.0000000 0.0520866
v -0.0045922 0.0480000 0.0520865
v -0.0084853 0.0000000 0.0494852
v -0.0084853 0.0480000 0.0494852
v -0.0110865 0.0000000 0.0455922
v -0.0110865 0.0480000 0.0455922
v -0.0120001 0.0000000 0.0410000
v -0.0120001 0.0480000 0.0410000
v -0.0110865 0.0000000 0.0364078
v -0.0110865 0.0480000 0.0364078
v -0.0084853 0.0000000 0.0325147
v -0.0084853 0.0480000 0.0325147
v -0.0045922 0.0000000 0.0299134
v -0.0045922 0.0480000 0.0299134
v 0.0000000 0.0000000 0.0290000
v 0.0000000 0.0480000 0.0290000
v 0.0045922 0.0000000 0.0299134
v 0.0045922 0.0480000 0.0299134
v 0.0084853 0.0000000 0.0325147
v 0.0084853 0.0480000 0.0325147
v 0.0110865 0.0000000 0.0364078
v 0.0110865 0.0480000 0.0364078
v 0.0120001 0.0000000 0.0410000
v 0.0120001 0.0480000 0.0410000
v 0.0110865 0.0000000 0.0455922
v 0.0110865 0.0480000 0.0455922
v 0.0084853 0.0000000 0.0494852
v 0.0084853 0.0480000 0.0494852
v 0.0045922 0.0000000 0.0520866
v 0.0045922 0.0480000 0.0520865
f 33 34 36
f 33 36 35
f 35 36 38
f 35 38 37
f 37 38 40
f 37 40 39
f 39 40 42
f 39 42 41
f 41 42 44
f 41 44 43
f 43 44 46
f 43 46 45
f 45 46 48
f 45 48 47
f 47 48 50
f 47 50 49
f 49 50 52
f 49 52 51
f 51 52 54
f 51 54 53
f 53 54 56
f 53 56 55
f 55 56 58
f 55 58 57
f 57 58 60
f 57 60 59
f 59 60 62
f 59 62 61
f 38 36 34
f 34 64 62
f 62 60 58
f 58 56 54
f 54 52 50
f 50 48 46
f 46 44 42
f 42 40 38
f 38 34 62
f 62 58 54
f 54 50 46
f 46 42 38
f 38 62 54
f 54 46 38
f 61 62 64
f 61 64 63
f 63 64 34
f 63 34 33
f 63 33 35
f 35 37 39
f 39 41 43
f 43 45 47
f 47 49 51
f 51 53 55
f 55 57 59
f 59 61 63
f 63 35 39
f 39 43 47
f 47 51 55
f 55 59 63
f 63 39 47
f 47 55 63
v 0.0000000 0.0000000 -0.0290000
v 0.0000000 0.0480000 -0.0290000
v -0.0045922 0.0000000 -0.0299135
v -0.0045922 0.0480000 -0.0299135
v -0.0084853 0.0000000 -0.0325147
v -0.0084853 0.0480000 -0.0325147
v -0.0110865 0.0000000 -0.0364078
v -0.0110865 0.0480000 -0.0364078
v -0.0120001 0.0000000 -0.0410000
v -0.0120001 0.0480000 -0.0410000
v -0.0110865 0.0000000 -0.0455922
v -0.0110865 0.0480000 -0.0455922
v -0.0084853 0.0000000 -0.0494853
v -0.0084853 0.0480000 -0.0494853
v -0.0045922 0.0000000 -0.0520866
v -0.0045922 0.0480000 -0.0520866
v 0.0000000 0.0000000 -0.0530000
v 0.0000000 0.0480000 -0.0530000
v 0.0045922 0.0000000 -0.0520866
v 0.0045922 0.0480000 -0.0520866
v 0.0084853 0.0000000 -0.0494853
v 0.0084853 0.0480000 -0.0494853
v 0.0110865 0.0000000 -0.0455922
v 0.0110865 0.0480000 -0.0455922
v 0.0120001 0.0000000 -0.0410000
v 0.0120001 0.0480000 -0.0410000
v 0.0110865 0.0000000 -0.0364078
v 0.0110865 0.0480000 -0.0364078
v 0.0084853 0.0000000 -0.0325147
v 0.0084853 0.0480000 -0.0325147
v 0.0045922 0.0000000 -0.0299135
v 0.0045922 0.0480000 -0.0299135
f 65 66 68
f 65 68 67
f 67 68 70
f 67 70 69
f 69 70 72
f 69 72 71
f 71 72 74
f 71 74 73
f 73 74 76
f 73 76 75
f 75 76 78
f 75 78 77
f 77 78 80
f 77 80 79
f 79 80 82
f 79 82 81
f 81 82 84
f 81 84 83
f 83 84 86
f 83 86 85
f 85 86 88
f 85 88 87
f 87 88 90
f 87 90 89
f 89 90 92
f 89 92 91
f 91 92 94
f 91 94 93
f 70 68 66
f 66 96 94
f 94 92 90
f 90 88 86
f 86 84 82
f 82 80 78
f 78 76 74
f 74 72 70
f 70 66 94
f 94 90 86
f 86 82 78
f 78 74 70
f 70 94 86
f 86 78 70
f 93 94 96
f 93 96 95
f 95 96 66
f 95 66 65
f 95 65 67
f 67 69 71
f 71 73 75
f 75 77 79
f 79 81 83
f 83 85 87
f 87 89 91
f 91 93 95
f 95 67 71
f 71 75 79
f 79 83 87
f 87 91 95
f 95 71 79
f 79 87 95
v 0.0000000 0.0360000 -0.0410000
v 0.0000000 0.0360000 0.0410000
v -0.0045922 0.0369134 -0.0410000
v -0.0045922 0.0369134 0.0410000
v -0.0084853 0.0395147 -0.0410000
v -0.0084853 0.0395147 0.0410000
v -0.0110865 0.0434078 -0.0410000
v -0.0110865 0.0434078 0.0410000
v -0.0120001 0.0480000 -0.0410000
v -0.0120001 0.0480000 0.0410000
v -0.0110865 0.0525922 -0.0410000
v -0.0110865 0.0525922 0.0410000
v -0.0084853 0.0564852 -0.0410000
v -0.0084853 0.0564852 0.0410000
v -0.0045922 0.0590866 -0.0410000
v -0.0045922 0.0590866 0.0410000
v 0.0000000 0.0600000 -0.0410000
v 0.0000000 0.0600000 0.0410000
v 0.0045922 0.0590866 -0.0410000
v 0.0045922 0.0590866 0.0410000
v 0.0084853 0.0564852 -0.0410000
v 0.0084853 0.0564852 0.0410000
v 0.0110865 0.0525922 -0.0410000
v 0.0110865 0.0525922 0.0410000
v 0.0120001 0.0480000 -0.0410000
v 0.0120001 0.0480000 0.0410000
v 0.0110865 0.0434078 -0.0410000
v 0.0110865 0.0434078 0.0410000
v 0.0084853 0.0395147 -0.0410000
v 0.0084853 0.0395147 0.0410000
v 0.0045922 0.0369134 -0.0410000
v 0.0045922 0.0369134 0.0410000
f 97 98 100
f 97 100 99
f 99 100 102
f 99 102 101
f 101 102 104
f 101 104 103
f 103 104 106
f 103 106 105
f 105 106 108
f 105 108 107
f 107 108 110
f 107 110 109
f 109 110 112
f 109 112 111
f 111 112 114
f 111 114 113
f 113 114 116
f 113 116 115
f 115 116 118
f 115 118 117
f 117 118 120
f 117 120 119
f 119 120 122
f 119 122 121
f 121 122 124
f 121 124 123
f 123 124 126
f 123 126 125
f 102 100 98
f 98 128 126
f 126 124 122
f 122 120 118
f 118 116 114
f 114 112 110
f 110 108 106
f 106 104 102
f 102 98 126
f 126 122 118
f 118 114 110
f 110 106 102
f 102 126 118
f 118 110 102
f 125 126 128
f 125 128 127
f 127 128 98
f 127 98 97
f 127 97 99
f 99 101 103
f 103 105 107
f 107 109 111
f 111 113 115
f 115 117 119
f 119 121 123
f 123 125 127
f 127 99 103
f 103 107 111
f 111 115 119
f 119 123 127
f 127 103 111
f 111 119 127
v 0.0000000 0.0480000 0.0150000
v 0.0000000 0.1900001 0.0150000
v -0.0057402 0.0480000 0.0138582
v -0.0057402 0.1900001 0.0138582
v -0.0106065 0.0480000 0.0106066
v -0.0106065 0.1900001 0.0106066
v -0.0138581 0.0480000 0.0057403
v -0.0138581 0.1900001 0.0057403
v -0.0150001 0.0480000 0.0000000
v -0.0150001 0.1900001 0.0000000
v -0.0138581 0.0480000 -0.0057403
v -0.0138581 0.1900001 -0.0057403
v -0.0106065 0.0480000 -0.0106066
v -0.0106065 0.1900001 -0.0106066
v -0.0057402 0.0480000 -0.0138582
v -0.0057402 0.1900001 -0.0138582
v 0.0000000 0.0480000 -0.0150000
v 0.0000000 0.1900001 -0.0150000
v 0.0057402 0.0480000 -0.0138582
v 0.0057402 0.1900001 -0.0138582
v 0.0106065 0.0480000 -0.0106066
v 0.0106065 0.1900001 -0.0106066
v 0.0138581 0.0480000 -0.0057403
v 0.0138581 0.1900001 -0.0057403
v 0.0150001 0.0480000 0.0000000
v 0.0150001 0.1900001 0.0000000
v 0.0138581 0.0480000 0.0057403
v 0.0138581 0.1900001 0.0057403
v 0.0106065 0.0480000 0.0106066
v 0.0106065 0.1900001 0.0106066
v 0.0057402 0.0480000 0.0138582
v 0.0057402 0.1900001 0.0138582
f 129 130 132
f 129 132 131
f 131 132 134
f 131 134 133
f 133 134 136
f 133 136 135
f 135 136 138
f 135 138 137
f 137 138 140
f 137 140 139
f 139 140 142
f 139 142 141
f 141 142 144
f 141 144 143
f 143 144 146
f 143 146 145
f 145 146 148
f 145 148 147
f 147 148 150
f 147 150 149
f 149 150 152
f 149 152 151
f 151 152 154
f 151 154 153
f 153 154 156
f 153 156 155
f 155 156 158
f 155 158 157
f 134 132 130
f 130 160 158
f 158 156 154
f 154 152 150
f 150 148 146
f 146 144 142
f 142 140 138
f 138 136 134
f 134 130 158
f 158 154 150
f 150 146 142
f 142 138 134
f 134 158 150
f 150 142 134
f 157 158 160
f 157 160 159
f 159 160 130
f 159 130 129
f 159 129 131
f 131 133 135
f 135 137 139
f 139 141 143
f 143 145 147
f 147 149 151
f 151 153 155
f 155 157 159
f 159 131 135
f 135 139 143
f 143 147 151
f 151 155 159
f 159 135 143
f 143 151 159
v 0.0000000 0.0000000 -0.1840000
v -0.1360388 -0.0330670 -0.1840000
v 0.0009942 -0.0040904 -0.1848373
v -0.1350446 -0.0371574 -0.1848373
v 0.0018373 -0.0075581 -0.1872219
v -0.1342015 -0.0406251 -0.1872219
v 0.0024004 -0.0098751 -0.1907905
v -0.1336384 -0.0429421 -0.1907905
v 0.0025980 -0.0106888 -0.1950000
v -0.1334407 -0.0437558 -0.1950000
v 0.0024004 -0.0098751 -0.1992095
v -0.1336384 -0.0429421 -0.1992095
v 0.0018373 -0.0075581 -0.2027782
v -0.1342015 -0.0406251 -0.2027782
v 0.0009942 -0.0040904 -0.2051627
v -0.1350446 -0.0371574 -0.2051627
v 0.0000000 0.0000000 -0.2060000
v -0.1360388 -0.0330670 -0.2060000
v -0.0009942 0.0040904 -0.2051627
v -0.1370330 -0.0289766 -0.2051627
v -0.0018373 0.0075581 -0.2027782
v -0.1378760 -0.0255089 -0.2027782
v -0.0024004 0.0098751 -0.1992095
v -0.1384392 -0.0231919 -0.1992095
v -0.0025980 0.0106888 -0.1950000
v -0.1386368 -0.0223782 -0.1950000
v -0.0024004 0.0098751 -0.1907905
v -0.1384392 -0.0231919 -0.1907905
v -0.0018373 0.0075581 -0.1872219
v -0.1378760 -0.0255089 -0.1872219
v -0.0009942 0.0040904 -0.1848373
v -0.1370330 -0.0289766 -0.1848373
f 161 162 164
f 161 164 163
f 163 164 166
f 163 166 165
f 165 166 168
f 165 168 167
f 167 168 170
f 167 170 169
f 169 170 172
f 169 172 171
f 171 172 174
f 171 174 173
f 173 174 176
f 173 176 175
f 175 176 178
f 175 178 177
f 177 178 180
f 177 180 179
f 179 180 182
f 179 182 181
f 181 182 184
f 181 184 183
f 183 184 186
f 183 186 185
f 185 186 188
f 185 188 187
f 187 188 190
f 187 190 189
f 166 164 162
f 162 192 190
f 190 188 186
f 186 184 182
f 182 180 178
f 178 176 174
f 174 172 170
f 170 168 166
f 166 162 190
f 190 186 182
f 182 178 174
f 174 170 166
f 166 190 182
f 182 174 166
f 189 190 192
f 189 192 191
f 191 192 162
f 191 162 161
f 191 161 163
f 163 165 167
f 167 169 171
f 171 173 175
f 175 177 179
f 179 181 183
f 183 185 187
f 187 189 191
f 191 163 167
f 167 171 175
f 175 179 183
f 183 187 191
f 191 167 175
f 175 183 191
v -0.0000002 0.0000000 -0.0640000
v -0.2000000 0.0000000 -0.0640000
v -0.0000002 -0.0042095 -0.0648373
v -0.2000000 -0.0042095 -0.0648373
v -0.0000002 -0.0077782 -0.0672219
v -0.2000000 -0.0077782 -0.0672219
v -0.0000002 -0.0101627 -0.0707905
v -0.2000000 -0.0101627 -0.0707905
v -0.0000002 -0.0110000 -0.0750000
v -0.2000000 -0.0110000 -0.0750000
v -0.0000002 -0.0101627 -0.0792095
v -0.2000000 -0.0101627 -0.0792095
v -0.0000002 -0.0077782 -0.0827782
v -0.2000000 -0.0077782 -0.0827782
v -0.0000002 -0.0042095 -0.0851627
v -0.2000000 -0.0042095 -0.0851627
v -0.0000002 0.0000000 -0.0860000
v -0.2000000 0.0000000 -0.0860000
v -0.0000002 0.0042095 -0.0851627
v -0.2000000 0.0042095 -0.0851627
v -0.0000002 0.0077782 -0.0827782
v -0.2000000 0.0077782 -0.0827782
v -0.0000002 0.0101627 -0.0792095
v -0.2000000 0.0101627 -0.0792095
v -0.0000002 0.0110000 -0.0750000
v -0.2000000 0.0110000 -0.0750000
v -0.0000002 0.0101627 -0.0707905
v -0.2000000 0.0101627 -0.0707905
v -0.0000002 0.0077782 -0.0672219
v -0.2000000 0.0077782 -0.0672219
v -0.0000002 0.0042095 -0.0648373
v -0.2000000 0.0042095 -0.0648373
f 193 194 196
f 193 196 195
f 195 196 198
f 195 198 197
f 197 198 200
f 197 200 199
f 199 200 202
f 199 202 201
f 201 202 204
f 201 204 203
f 203 204 206
f 203 206 205
f 205 206 208
f 205 208 207
f 207 208 210
f 207 210 209
f 209 210 212
f 209 212 211
f 211 212 214
f 211 214 213
f 213 214 216
f 213 216 215
f 215 216 218
f 215 218 217
f 217 218 220
f 217 220 219
f 219 220 222
f 219 222 221
f 198 196 194
f 194 224 222
f 222 220 218
f 218 216 214
f 214 212 210
f 210 208 206
f 206 204 202
f 202 200 198
f 198 194 222
f 222 218 214
f 214 210 206
f 206 202 198
f 198 222 214
f 214 206 198
f 221 222 224
f 221 224 223
f 223 224 194
f 223 194 193
f 223 193 195
f 195 197 199
f 199 201 203
f 203 205 207
f 207 209 211
f 211 213 215
f 215 217 219
f 219 221 223
f 223 195 199
f 199 203 207
f 207 211 215
f 215 219 223
f 223 199 207
f 207 215 223
v -0.2000000 -0.0080000 -0.0750000
v -0.2000000 -0.0080000 0.0000000
v -0.2030616 -0.0073910 -0.0750000
v -0.2030616 -0.0073910 0.0000000
v -0.2056570 -0.0056568 -0.0750000
v -0.2056570 -0.0056568 0.0000000
v -0.2073910 -0.0030615 -0.0750000
v -0.2073910 -0.0030615 0.0000000
v -0.2079999 0.0000000 -0.0750000
v -0.2079999 0.0000000 0.0000000
v -0.2073910 0.0030615 -0.0750000
v -0.2073910 0.0030615 0.0000000
v -0.2056570 0.0056568 -0.0750000
v -0.2056570 0.0056568 0.0000000
v -0.2030616 0.0073910 -0.0750000
v -0.2030616 0.0073910 0.0000000
v -0.2000000 0.0080000 -0.0750000
v -0.2000000 0.0080000 0.0000000
v -0.1969385 0.0073910 -0.0750000
v -0.1969385 0.0073910 0.0000000
v -0.1943431 0.0056568 -0.0750000
v -0.1943431 0.0056568 0.0000000
v -0.1926091 0.0030615 -0.0750000
v -0.1926091 0.0030615 0.0000000
v -0.1920002 0.0000000 -0.0750000
v -0.1920002 0.0000000 0.0000000
v -0.1926091 -0.0030615 -0.0750000
v -0.1926091 -0.0030615 0.0000000
v -0.1943431 -0.0056568 -0.0750000
v -0.1943431 -0.0056568 0.0000000
v -0.1969385 -0.0073910 -0.0750000
v -0.1969385 -0.0073910 0.0000000
f 225 226 228
f 225 228 227
f 227 228 230
f 227 230 229
f 229 230 232
f 229 232 231
f 231 232 234
f 231 234 233
f 233 234 236
f 233 236 235
f 235 236 238
f 235 238 237
f 237 238 240
f 237 240 239
f 239 240 242
f 239 242 241
f 241 242 244
f 241 244 243
f 243 244 246
f 243 246 245
f 245 246 248
f 245 248 247
f 247 248 250
f 247 250 249
f 249 250 252
f 249 252 251
f 251 252 254
f 251 254 253
f 230 228 226
f 226 256 254
f 254 252 250
f 250 248 246
f 246 244 242
f 242 240 238
f 238 236 234
f 234 232 230
f 230 226 254
f 254 250 246
f 246 242 238
f 238 234 230
f 230 254 246
f 246 238 230
f 253 254 256
f 253 256 255
f 255 256 226
f 255 226 225
f 255 225 227
f 227 229 231
f 231 233 235
f 235 237 239
f 239 241 243
f 243 245 247
f 247 249 251
f 251 253 255
f 255 227 231
f 231 235 239
f 239 243 247
f 247 251 255
f 255 231 239
f 239 247 255
