v 0.0102899 0.0000000 0.0171498
v -0.9397101 -0.0000000 0.5871499
v 0.0095067 -0.0076536 0.0158443
v -0.9404935 -0.0076537 0.5858445
v 0.0072761 -0.0141421 0.0121267
v -0.9427240 -0.0141422 0.5821269
v 0.0039377 -0.0184776 0.0065629
v -0.9460622 -0.0184776 0.5765631
v 0.0000000 -0.0200000 -0.0000001
v -0.9500000 -0.0200000 0.5700001
v -0.0039377 -0.0184776 -0.0065630
v -0.9539378 -0.0184776 0.5634372
v -0.0072761 -0.0141421 -0.0121268
v -0.9572761 -0.0141422 0.5578733
v -0.0095067 -0.0076536 -0.0158444
v -0.9595066 -0.0076537 0.5541556
v -0.0102899 0.0000000 -0.0171499
v -0.9602900 -0.0000000 0.5528502
v -0.0095067 0.0076537 -0.0158444
v -0.9595066 0.0076536 0.5541556
v -0.0072761 0.0141422 -0.0121268
v -0.9572761 0.0141421 0.5578733
v -0.0039377 0.0184776 -0.0065630
v -0.9539379 0.0184775 0.5634372
v 0.0000000 0.0200000 0.0000000
v -0.9500000 0.0200000 0.5700001
v 0.0039377 0.0184776 0.0065629
v -0.9460623 0.0184775 0.5765631
v 0.0072761 0.0141422 0.0121267
v -0.9427240 0.0141421 0.5821269
v 0.0095067 0.0076537 0.0158443
v -0.9404935 0.0076536 0.5858445
f 1 2 4
f 1 4 3
f 3 4 6
f 3 6 5
f 5 6 8
f 5 8 7
f 7 8 10
f 7 10 9
f 9 10 12
f 9 12 11
f 11 12 14
f 11 14 13
f 13 14 16
f 13 16 15
f 15 16 18
f 15 18 17
f 17 18 20
f 17 20 19
f 19 20 22
f 19 22 21
f 21 22 24
f 21 24 23
f 23 24 26
f 23 26 25
f 25 26 28
f 25 28 27
f 27 28 30
f 27 30 29
f 6 4 2
f 2 32 30
f 30 28 26
f 26 24 22
f 22 20 18
f 18 16 14
f 14 12 10
f 10 8 6
f 6 2 30
f 30 26 22
f 22 18 14
f 14 10 6
f 6 30 22
f 22 14 6
f 29 30 32
f 29 32 31
f 31 32 2
f 31 2 1
f 31 1 3
f 3 5 7
f 7 9 11
f 11 13 15
f 15 17 19
f 19 21 23
f 23 25 27
f 27 29 31
f 31 3 7
f 7 11 15
f 15 19 23
f 23 27 31
f 31 7 15
f 15 23 31
v -0.9500000 -0.2140000 0.5700000
v -0.9560026 -0.2121244 0.5736014
v -0.9603966 -0.2070000 0.5762380
v -0.9620050 -0.2000000 0.5772030
v -0.9603966 -0.1930000 0.5762380
v -0.9560026 -0.1878757 0.5736014
v -0.9500000 -0.1860000 0.5700000
v -0.9439976 -0.1878757 0.5663986
v -0.9396036 -0.1930000 0.5637621
v -0.9379952 -0.2000000 0.5627970
v -0.9396036 -0.2070000 0.5637621
v -0.9439976 -0.2121244 0.5663986
v -0.9427991 -0.2135419 0.5820017
v -0.9488646 -0.2116702 0.5854980
v -0.9534311 -0.2065568 0.5878471
v -0.9552751 -0.1995718 0.5884195
v -0.9539022 -0.1925868 0.5870619
v -0.9496806 -0.1874734 0.5841381
v -0.9437412 -0.1856018 0.5804314
v -0.9376757 -0.1874734 0.5769351
v -0.9331092 -0.1925868 0.5745861
v -0.9312652 -0.1995718 0.5740137
v -0.9326380 -0.2065568 0.5753712
v -0.9368597 -0.2116702 0.5782951
v -0.9356289 -0.2121692 0.5939520
v -0.9417573 -0.2103097 0.5973435
v -0.9464955 -0.2052291 0.5994064
v -0.9485739 -0.1982890 0.5995880
v -0.9474357 -0.1913489 0.5978395
v -0.9433857 -0.1862684 0.5946295
v -0.9375092 -0.1844088 0.5908181
v -0.9313809 -0.1862684 0.5874266
v -0.9266425 -0.1913489 0.5853637
v -0.9245641 -0.1982890 0.5851821
v -0.9257025 -0.2052291 0.5869306
v -0.9297523 -0.2103097 0.5901406
v -0.9285202 -0.2098881 0.6057997
v -0.9347110 -0.2080485 0.6090875
v -0.9396194 -0.2030226 0.6108667
v -0.9419304 -0.1961571 0.6106607
v -0.9410247 -0.1892916 0.6085246
v -0.9371449 -0.1842657 0.6050310
v -0.9313307 -0.1824261 0.6011156
v -0.9251399 -0.1842657 0.5978280
v -0.9202315 -0.1892916 0.5960488
v -0.9179206 -0.1961571 0.5962548
v -0.9188263 -0.2030226 0.5983909
v -0.9227060 -0.2080485 0.6018845
v -0.9215035 -0.2067082 0.6174942
v -0.9277558 -0.2048964 0.6206794
v -0.9328322 -0.1999467 0.6221786
v -0.9353727 -0.1931852 0.6215901
v -0.9346966 -0.1864237 0.6190714
v -0.9309847 -0.1814740 0.6152977
v -0.9252321 -0.1796622 0.6112800
v -0.9189799 -0.1814740 0.6080948
v -0.9139034 -0.1864237 0.6065956
v -0.9113629 -0.1931852 0.6071841
v -0.9120392 -0.1999467 0.6097028
v -0.9157509 -0.2048964 0.6134765
v -0.9146090 -0.2026431 0.6289852
v -0.9209216 -0.2008670 0.6320698
v -0.9261631 -0.1960146 0.6332938
v -0.9289291 -0.1893861 0.6323294
v -0.9284785 -0.1827575 0.6294349
v -0.9249318 -0.1779051 0.6253861
v -0.9192395 -0.1761290 0.6212676
v -0.9129269 -0.1779051 0.6181831
v -0.9076853 -0.1827575 0.6169590
v -0.9049194 -0.1893861 0.6179234
v -0.9053700 -0.1960146 0.6208180
v -0.9089167 -0.2008670 0.6248668
v -0.9078659 -0.1977103 0.6402237
v -0.9142376 -0.1959774 0.6432098
v -0.9196407 -0.1912431 0.6441646
v -0.9226272 -0.1847759 0.6428326
v -0.9223970 -0.1783088 0.6395705
v -0.9190120 -0.1735745 0.6352525
v -0.9133787 -0.1718416 0.6310356
v -0.9070070 -0.1735745 0.6280496
v -0.9016039 -0.1783088 0.6270947
v -0.8986174 -0.1847759 0.6284267
v -0.8988476 -0.1912431 0.6316888
v -0.9022326 -0.1959774 0.6360068
v -0.9013032 -0.1919308 0.6511615
v -0.9077325 -0.1902486 0.6540516
v -0.9132926 -0.1856527 0.6547447
v -0.9164939 -0.1793746 0.6530549
v -0.9164784 -0.1730965 0.6494350
v -0.9132503 -0.1685006 0.6448551
v -0.9076747 -0.1668184 0.6405422
v -0.9012455 -0.1685006 0.6376521
v -0.8956853 -0.1730965 0.6369591
v -0.8924841 -0.1793746 0.6386489
v -0.8924996 -0.1856527 0.6422688
v -0.8957275 -0.1902486 0.6468487
v -0.8949491 -0.1853295 0.6617518
v -0.9014339 -0.1837051 0.6645491
v -0.9071463 -0.1792673 0.6649885
v -0.9105554 -0.1732051 0.6629522
v -0.9107478 -0.1671429 0.6589860
v -0.9076719 -0.1627051 0.6541526
v -0.9021519 -0.1610807 0.6497468
v -0.8956670 -0.1627051 0.6469496
v -0.8899547 -0.1671429 0.6465102
v -0.8865455 -0.1732051 0.6485464
v -0.8863533 -0.1792673 0.6525126
v -0.8894291 -0.1837051 0.6573461
v -0.8888307 -0.1779345 0.6719491
v -0.8953692 -0.1763750 0.6746570
v -0.9012281 -0.1721143 0.6748522
v -0.9048373 -0.1662939 0.6724824
v -0.9052298 -0.1604736 0.6681827
v -0.9023005 -0.1562129 0.6631050
v -0.8968341 -0.1546534 0.6586099
v -0.8902955 -0.1562129 0.6559021
v -0.8844367 -0.1604737 0.6557068
v -0.8808274 -0.1662939 0.6580766
v -0.8804350 -0.1721143 0.6623763
v -0.8833643 -0.1763750 0.6674541
v -0.8829741 -0.1697777 0.6817098
v -0.8895642 -0.1682896 0.6843322
v -0.8955631 -0.1642242 0.6842937
v -0.8993640 -0.1586707 0.6816047
v -0.8999480 -0.1531172 0.6769856
v -0.8971589 -0.1490518 0.6716742
v -0.8917439 -0.1475638 0.6670936
v -0.8851540 -0.1490518 0.6644712
v -0.8791549 -0.1531172 0.6645097
v -0.8753542 -0.1586707 0.6671987
v -0.8747700 -0.1642242 0.6718178
v -0.8775592 -0.1682896 0.6771292
v -0.8774047 -0.1608938 0.6909923
v -0.8840435 -0.1594836 0.6935332
v -0.8901759 -0.1556309 0.6932725
v -0.8941588 -0.1503680 0.6902798
v -0.8949251 -0.1451051 0.6853572
v -0.8922694 -0.1412524 0.6798235
v -0.8869032 -0.1398422 0.6751615
v -0.8802644 -0.1412524 0.6726205
v -0.8741320 -0.1451051 0.6728813
v -0.8701490 -0.1503680 0.6758739
v -0.8693827 -0.1556309 0.6807967
v -0.8720386 -0.1594836 0.6863304
v -0.8721461 -0.1513209 0.6997566
v -0.8788309 -0.1499946 0.7022207
v -0.8850893 -0.1463711 0.7017501
v -0.8892443 -0.1414214 0.6984708
v -0.8901826 -0.1364716 0.6932614
v -0.8876528 -0.1328482 0.6875178
v -0.8823327 -0.1315219 0.6827791
v -0.8756478 -0.1328482 0.6803148
v -0.8693894 -0.1364716 0.6807855
v -0.8652345 -0.1414214 0.6840649
v -0.8642962 -0.1463711 0.6892743
v -0.8668261 -0.1499946 0.6950179
v -0.8672210 -0.1411000 0.7079652
v -0.8739489 -0.1398634 0.7103575
v -0.8803252 -0.1364846 0.7096903
v -0.8846413 -0.1318692 0.7061424
v -0.8857406 -0.1272538 0.7006646
v -0.8833288 -0.1238751 0.6947244
v -0.8780519 -0.1226384 0.6899137
v -0.8713238 -0.1238751 0.6875215
v -0.8649476 -0.1272538 0.6881886
v -0.8606315 -0.1318692 0.6917365
v -0.8595321 -0.1364846 0.6972144
v -0.8619441 -0.1398634 0.7031545
v -0.8626503 -0.1302750 0.7155831
v -0.8694183 -0.1291332 0.7179086
v -0.8759040 -0.1260137 0.7170590
v -0.8803695 -0.1217524 0.7132619
v -0.8816185 -0.1174910 0.7075348
v -0.8793160 -0.1143715 0.7014123
v -0.8740792 -0.1132297 0.6965348
v -0.8673111 -0.1143715 0.6942094
v -0.8608254 -0.1174910 0.6950590
v -0.8563598 -0.1217524 0.6988561
v -0.8551109 -0.1260137 0.7045831
v -0.8574134 -0.1291332 0.7107056
v -0.8584535 -0.1188920 0.7225776
v -0.8652583 -0.1178500 0.7248418
v -0.8718445 -0.1150030 0.7238247
v -0.8764474 -0.1111141 0.7197989
v -0.8778336 -0.1072251 0.7138429
v -0.8756317 -0.1043781 0.7075530
v -0.8704315 -0.1033361 0.7026142
v -0.8636267 -0.1043781 0.7003500
v -0.8570405 -0.1072251 0.7013671
v -0.8524376 -0.1111141 0.7053930
v -0.8510514 -0.1150030 0.7113488
v -0.8532535 -0.1178500 0.7176388
v -0.8546488 -0.1070000 0.7289187
v -0.8614870 -0.1060622 0.7311273
v -0.8681644 -0.1035000 0.7299584
v -0.8728917 -0.1000000 0.7257251
v -0.8744023 -0.0965000 0.7195618
v -0.8722914 -0.0939378 0.7131199
v -0.8671247 -0.0930000 0.7081257
v -0.8602865 -0.0939378 0.7059171
v -0.8536092 -0.0965000 0.7070859
v -0.8488818 -0.1000000 0.7113193
v -0.8473712 -0.1035000 0.7174825
v -0.8494822 -0.1060622 0.7239243
v -0.8512526 -0.0946499 0.7345793
v -0.8581204 -0.0938203 0.7367383
v -0.8648791 -0.0915538 0.7354338
v -0.8697175 -0.0884578 0.7310154
v -0.8713392 -0.0853618 0.7246669
v -0.8693097 -0.0830953 0.7180895
v -0.8641727 -0.0822658 0.7130455
v -0.8573048 -0.0830953 0.7108865
v -0.8505461 -0.0853618 0.7121910
v -0.8457078 -0.0884578 0.7166095
v -0.8440861 -0.0915538 0.7229579
v -0.8461156 -0.0938203 0.7295353
v -0.8482790 -0.0818943 0.7395352
v -0.8551730 -0.0811765 0.7416506
v -0.8620028 -0.0792156 0.7402275
v -0.8669386 -0.0765368 0.7356470
v -0.8686575 -0.0738580 0.7291364
v -0.8666992 -0.0718970 0.7224403
v -0.8615882 -0.0711792 0.7173529
v -0.8546942 -0.0718970 0.7152374
v -0.8478644 -0.0738580 0.7166606
v -0.8429288 -0.0765368 0.7212411
v -0.8412098 -0.0792156 0.7277517
v -0.8431681 -0.0811766 0.7344478
v -0.8457410 -0.0687881 0.7437651
v -0.8526573 -0.0681852 0.7458435
v -0.8595480 -0.0665380 0.7443190
v -0.8645667 -0.0642879 0.7396001
v -0.8663687 -0.0620378 0.7329512
v -0.8644711 -0.0603907 0.7261539
v -0.8593824 -0.0597878 0.7210295
v -0.8524662 -0.0603907 0.7189509
v -0.8455756 -0.0620378 0.7204754
v -0.8405569 -0.0642879 0.7251943
v -0.8387549 -0.0665380 0.7318432
v -0.8406525 -0.0681852 0.7386405
v -0.8436496 -0.0553873 0.7472507
v -0.8505841 -0.0549019 0.7492986
v -0.8575249 -0.0535756 0.7476907
v -0.8626120 -0.0517639 0.7428579
v -0.8644824 -0.0499521 0.7360949
v -0.8626349 -0.0486258 0.7292141
v -0.8575646 -0.0481404 0.7240590
v -0.8506300 -0.0486258 0.7220111
v -0.8436893 -0.0499521 0.7236190
v -0.8386022 -0.0517639 0.7284520
v -0.8367318 -0.0535756 0.7352149
v -0.8385793 -0.0549019 0.7420958
v -0.8420136 -0.0417494 0.7499775
v -0.8489624 -0.0413835 0.7520016
v -0.8559424 -0.0403838 0.7503284
v -0.8610830 -0.0390181 0.7454062
v -0.8630069 -0.0376525 0.7385541
v -0.8611985 -0.0366528 0.7316080
v -0.8561426 -0.0362869 0.7264290
v -0.8491937 -0.0366528 0.7244050
v -0.8422137 -0.0376525 0.7260782
v -0.8370732 -0.0390181 0.7310004
v -0.8351493 -0.0403838 0.7378525
v -0.8369576 -0.0413835 0.7447986
v -0.8408399 -0.0279326 0.7519336
v -0.8477991 -0.0276878 0.7539405
v -0.8548071 -0.0270189 0.7522205
v -0.8599861 -0.0261052 0.7472344
v -0.8619484 -0.0251915 0.7403182
v -0.8601682 -0.0245227 0.7333253
v -0.8551226 -0.0242779 0.7281292
v -0.8481634 -0.0245227 0.7261223
v -0.8411553 -0.0251915 0.7278424
v -0.8359764 -0.0261052 0.7328284
v -0.8340141 -0.0270189 0.7397446
v -0.8357942 -0.0276878 0.7467375
v -0.8401337 -0.0139963 0.7531106
v -0.8470991 -0.0138736 0.7551072
v -0.8541240 -0.0135385 0.7533589
v -0.8593261 -0.0130807 0.7483343
v -0.8613116 -0.0126228 0.7413798
v -0.8595482 -0.0122877 0.7343586
v -0.8545088 -0.0121650 0.7291523
v -0.8475434 -0.0122877 0.7271556
v -0.8405185 -0.0126228 0.7289038
v -0.8353163 -0.0130807 0.7339285
v -0.8333309 -0.0135385 0.7408831
v -0.8350942 -0.0138736 0.7479042
v -0.8398980 -0.0000001 0.7535035
v -0.8468654 -0.0000001 0.7554967
v -0.8538960 -0.0000001 0.7537389
v -0.8591058 -0.0000000 0.7487015
v -0.8610989 -0.0000000 0.7417341
v -0.8593413 -0.0000000 0.7347035
v -0.8543038 -0.0000000 0.7294937
v -0.8473364 -0.0000000 0.7275006
v -0.8403058 -0.0000001 0.7292582
v -0.8350960 -0.0000001 0.7342957
v -0.8331028 -0.0000001 0.7412631
v -0.8348606 -0.0000001 0.7482937
v -0.8401337 0.0139962 0.7531106
v -0.8470991 0.0138735 0.7551072
v -0.8541240 0.0135384 0.7533589
v -0.8593261 0.0130806 0.7483343
v -0.8613116 0.0126227 0.7413798
v -0.8595482 0.0122876 0.7343586
v -0.8545088 0.0121649 0.7291523
v -0.8475434 0.0122876 0.7271556
v -0.8405184 0.0126227 0.7289038
v -0.8353163 0.0130806 0.7339285
v -0.8333309 0.0135384 0.7408831
v -0.8350942 0.0138735 0.7479042
v -0.8408399 0.0279326 0.7519336
v -0.8477991 0.0276878 0.7539405
v -0.8548071 0.0270189 0.7522205
v -0.8599861 0.0261052 0.7472343
v -0.8619484 0.0251916 0.7403182
v -0.8601682 0.0245227 0.7333253
v -0.8551226 0.0242779 0.7281292
v -0.8481634 0.0245227 0.7261223
v -0.8411553 0.0251916 0.7278424
v -0.8359764 0.0261052 0.7328284
v -0.8340139 0.0270189 0.7397446
v -0.8357942 0.0276878 0.7467375
v -0.8420135 0.0417493 0.7499775
v -0.8489624 0.0413834 0.7520016
v -0.8559424 0.0403837 0.7503284
v -0.8610829 0.0390180 0.7454062
v -0.8630068 0.0376524 0.7385541
v -0.8611985 0.0366527 0.7316080
v -0.8561426 0.0362868 0.7264290
v -0.8491937 0.0366527 0.7244050
v -0.8422137 0.0376524 0.7260782
v -0.8370732 0.0390180 0.7310004
v -0.8351493 0.0403837 0.7378525
v -0.8369576 0.0413834 0.7447986
v -0.8436496 0.0553872 0.7472507
v -0.8505841 0.0549018 0.7492988
v -0.8575249 0.0535755 0.7476907
v -0.8626120 0.0517638 0.7428579
v -0.8644824 0.0499520 0.7360950
v -0.8626349 0.0486258 0.7292141
v -0.8575646 0.0481403 0.7240590
v -0.8506300 0.0486258 0.7220111
v -0.8436893 0.0499520 0.7236190
v -0.8386022 0.0517638 0.7284520
v -0.8367318 0.0535755 0.7352149
v -0.8385793 0.0549018 0.7420958
v -0.8457410 0.0687881 0.7437649
v -0.8526573 0.0681852 0.7458435
v -0.8595480 0.0665380 0.7443190
v -0.8645667 0.0642879 0.7396001
v -0.8663687 0.0620378 0.7329512
v -0.8644711 0.0603907 0.7261538
v -0.8593824 0.0597878 0.7210293
v -0.8524661 0.0603907 0.7189509
v -0.8455756 0.0620378 0.7204754
v -0.8405569 0.0642879 0.7251943
v -0.8387549 0.0665380 0.7318432
v -0.8406523 0.0681852 0.7386405
v -0.8482790 0.0818942 0.7395352
v -0.8551730 0.0811765 0.7416506
v -0.8620028 0.0792155 0.7402275
v -0.8669385 0.0765367 0.7356470
v -0.8686575 0.0738579 0.7291364
v -0.8666991 0.0718969 0.7224403
v -0.8615882 0.0711791 0.7173529
v -0.8546942 0.0718969 0.7152374
v -0.8478644 0.0738579 0.7166606
v -0.8429286 0.0765367 0.7212411
v -0.8412098 0.0792155 0.7277517
v -0.8431680 0.0811765 0.7344478
v -0.8512524 0.0946498 0.7345793
v -0.8581204 0.0938202 0.7367383
v -0.8648790 0.0915537 0.7354338
v -0.8697175 0.0884577 0.7310154
v -0.8713392 0.0853617 0.7246669
v -0.8693097 0.0830952 0.7180895
v -0.8641727 0.0822657 0.7130455
v -0.8573048 0.0830952 0.7108865
v -0.8505461 0.0853617 0.7121910
v -0.8457077 0.0884577 0.7166095
v -0.8440859 0.0915537 0.7229579
v -0.8461155 0.0938202 0.7295354
v -0.8546488 0.1070000 0.7289187
v -0.8614870 0.1060621 0.7311273
v -0.8681643 0.1035000 0.7299584
v -0.8728917 0.1000000 0.7257251
v -0.8744023 0.0965000 0.7195619
v -0.8722914 0.0939378 0.7131199
v -0.8671247 0.0930000 0.7081257
v -0.8602865 0.0939378 0.7059171
v -0.8536091 0.0965000 0.7070859
v -0.8488818 0.1000000 0.7113193
v -0.8473712 0.1035000 0.7174825
v -0.8494821 0.1060621 0.7239243
v -0.8584535 0.1188920 0.7225776
v -0.8652582 0.1178499 0.7248418
v -0.8718445 0.1150030 0.7238247
v -0.8764474 0.1111140 0.7197989
v -0.8778336 0.1072250 0.7138429
v -0.8756316 0.1043780 0.7075530
v -0.8704315 0.1033360 0.7026141
v -0.8636267 0.1043780 0.7003500
v -0.8570404 0.1072250 0.7013671
v -0.8524376 0.1111140 0.7053930
v -0.8510514 0.1150030 0.7113488
v -0.8532534 0.1178499 0.7176389
v -0.8626502 0.1302749 0.7155831
v -0.8694181 0.1291331 0.7179086
v -0.8759040 0.1260136 0.7170590
v -0.8803695 0.1217523 0.7132619
v -0.8816184 0.1174909 0.7075348
v -0.8793160 0.1143714 0.7014123
v -0.8740791 0.1132296 0.6965348
v -0.8673111 0.1143714 0.6942094
v -0.8608253 0.1174909 0.6950590
v -0.8563597 0.1217523 0.6988561
v -0.8551109 0.1260136 0.7045831
v -0.8574133 0.1291331 0.7107057
v -0.8672209 0.1411000 0.7079652
v -0.8739488 0.1398633 0.7103575
v -0.8803252 0.1364846 0.7096903
v -0.8846412 0.1318692 0.7061424
v -0.8857406 0.1272537 0.7006646
v -0.8833287 0.1238750 0.6947244
v -0.8780518 0.1226383 0.6899137
v -0.8713238 0.1238750 0.6875215
v -0.8649476 0.1272537 0.6881886
v -0.8606315 0.1318691 0.6917365
v -0.8595320 0.1364846 0.6972144
v -0.8619440 0.1398633 0.7031545
v -0.8721461 0.1513209 0.6997566
v -0.8788309 0.1499946 0.7022207
v -0.8850893 0.1463711 0.7017501
v -0.8892442 0.1414214 0.6984708
v -0.8901825 0.1364716 0.6932613
v -0.8876526 0.1328482 0.6875178
v -0.8823326 0.1315219 0.6827790
v -0.8756478 0.1328482 0.6803148
v -0.8693894 0.1364716 0.6807855
v -0.8652345 0.1414214 0.6840648
v -0.8642962 0.1463711 0.6892743
v -0.8668261 0.1499946 0.6950178
v -0.8774047 0.1608937 0.6909923
v -0.8840433 0.1594836 0.6935332
v -0.8901758 0.1556309 0.6932725
v -0.8941588 0.1503680 0.6902798
v -0.8949250 0.1451051 0.6853572
v -0.8922693 0.1412524 0.6798235
v -0.8869032 0.1398422 0.6751615
v -0.8802644 0.1412524 0.6726205
v -0.8741319 0.1451051 0.6728812
v -0.8701490 0.1503680 0.6758739
v -0.8693827 0.1556309 0.6807967
v -0.8720385 0.1594836 0.6863304
v -0.8829741 0.1697776 0.6817098
v -0.8895640 0.1682896 0.6843322
v -0.8955631 0.1642241 0.6842937
v -0.8993639 0.1586707 0.6816047
v -0.8999480 0.1531172 0.6769856
v -0.8971589 0.1490518 0.6716742
v -0.8917439 0.1475637 0.6670936
v -0.8851539 0.1490518 0.6644712
v -0.8791548 0.1531172 0.6645097
v -0.8753541 0.1586707 0.6671988
v -0.8747699 0.1642241 0.6718178
v -0.8775591 0.1682896 0.6771293
v -0.8888305 0.1779345 0.6719491
v -0.8953692 0.1763749 0.6746570
v -0.9012280 0.1721142 0.6748522
v -0.9048371 0.1662939 0.6724824
v -0.9052297 0.1604736 0.6681827
v -0.9023004 0.1562129 0.6631050
v -0.8968340 0.1546533 0.6586099
v -0.8902954 0.1562129 0.6559021
v -0.8844366 0.1604736 0.6557068
v -0.8808274 0.1662939 0.6580766
v -0.8804349 0.1721142 0.6623763
v -0.8833642 0.1763749 0.6674541
v -0.8949490 0.1853294 0.6617518
v -0.9014338 0.1837051 0.6645491
v -0.9071462 0.1792672 0.6649885
v -0.9105554 0.1732051 0.6629522
v -0.9107476 0.1671429 0.6589860
v -0.9076718 0.1627050 0.6541526
v -0.9021518 0.1610807 0.6497468
v -0.8956670 0.1627050 0.6469496
v -0.8899546 0.1671429 0.6465102
v -0.8865455 0.1732051 0.6485464
v -0.8863531 0.1792672 0.6525126
v -0.8894290 0.1837051 0.6573462
v -0.9013031 0.1919308 0.6511615
v -0.9077324 0.1902486 0.6540516
v -0.9132925 0.1856527 0.6547446
v -0.9164938 0.1793746 0.6530548
v -0.9164783 0.1730964 0.6494350
v -0.9132503 0.1685005 0.6448551
v -0.9076747 0.1668183 0.6405422
v -0.9012454 0.1685005 0.6376521
v -0.8956852 0.1730964 0.6369591
v -0.8924839 0.1793746 0.6386489
v -0.8924994 0.1856527 0.6422687
v -0.8957275 0.1902486 0.6468487
v -0.9078658 0.1977102 0.6402238
v -0.9142375 0.1959774 0.6432098
v -0.9196405 0.1912431 0.6441646
v -0.9226271 0.1847759 0.6428326
v -0.9223970 0.1783088 0.6395705
v -0.9190118 0.1735745 0.6352525
v -0.9133786 0.1718416 0.6310356
v -0.9070069 0.1735745 0.6280497
v -0.9016038 0.1783088 0.6270947
v -0.8986173 0.1847759 0.6284267
v -0.8988475 0.1912431 0.6316888
v -0.9022326 0.1959774 0.6360068
v -0.9146088 0.2026431 0.6289852
v -0.9209216 0.2008670 0.6320696
v -0.9261631 0.1960146 0.6332937
v -0.9289291 0.1893861 0.6323293
v -0.9284784 0.1827576 0.6294349
v -0.9249318 0.1779051 0.6253859
v -0.9192395 0.1761290 0.6212675
v -0.9129268 0.1779051 0.6181831
v -0.9076853 0.1827576 0.6169590
v -0.9049193 0.1893861 0.6179234
v -0.9053700 0.1960146 0.6208178
v -0.9089166 0.2008670 0.6248668
v -0.9215035 0.2067082 0.6174942
v -0.9277557 0.2048964 0.6206793
v -0.9328321 0.1999467 0.6221785
v -0.9353727 0.1931852 0.6215900
v -0.9346964 0.1864237 0.6190714
v -0.9309847 0.1814739 0.6152977
v -0.9252321 0.1796622 0.6112800
v -0.9189798 0.1814739 0.6080948
v -0.9139034 0.1864237 0.6065956
v -0.9113629 0.1931852 0.6071841
v -0.9120390 0.1999467 0.6097026
v -0.9157509 0.2048964 0.6134765
v -0.9285202 0.2098881 0.6057997
v -0.9347109 0.2080485 0.6090874
v -0.9396193 0.2030226 0.6108666
v -0.9419303 0.1961571 0.6106606
v -0.9410245 0.1892916 0.6085246
v -0.9371448 0.1842657 0.6050310
v -0.9313306 0.1824261 0.6011156
v -0.9251399 0.1842657 0.5978280
v -0.9202315 0.1892916 0.5960488
v -0.9179205 0.1961571 0.5962548
v -0.9188262 0.2030226 0.5983908
v -0.9227060 0.2080485 0.6018845
v -0.9356288 0.2121692 0.5939520
v -0.9417572 0.2103096 0.5973435
v -0.9464954 0.2052291 0.5994064
v -0.9485738 0.1982890 0.5995880
v -0.9474356 0.1913489 0.5978395
v -0.9433856 0.1862683 0.5946295
v -0.9375092 0.1844088 0.5908181
v -0.9313807 0.1862683 0.5874266
v -0.9266425 0.1913489 0.5853637
v -0.9245640 0.1982890 0.5851821
v -0.9257023 0.2052291 0.5869306
v -0.9297522 0.2103096 0.5901406
v -0.9427990 0.2135418 0.5820017
v -0.9488645 0.2116702 0.5854980
v -0.9534310 0.2065568 0.5878471
v -0.9552749 0.1995718 0.5884195
v -0.9539021 0.1925868 0.5870619
v -0.9496804 0.1874734 0.5841381
v -0.9437412 0.1856018 0.5804314
v -0.9376756 0.1874734 0.5769351
v -0.9331090 0.1925868 0.5745861
v -0.9312651 0.1995718 0.5740137
v -0.9326379 0.2065568 0.5753712
v -0.9368596 0.2116702 0.5782951
v -0.9500000 0.2140000 0.5700000
v -0.9560025 0.2121244 0.5736014
v -0.9603965 0.2070000 0.5762380
v -0.9620049 0.2000000 0.5772030
v -0.9603965 0.1930000 0.5762380
v -0.9560025 0.1878757 0.5736014
v -0.9500000 0.1860000 0.5700000
v -0.9439975 0.1878757 0.5663986
v -0.9396034 0.1930000 0.5637621
v -0.9379951 0.2000000 0.5627970
v -0.9396034 0.2070000 0.5637621
v -0.9439975 0.2121244 0.5663986
v -0.9572010 0.2135419 0.5579984
v -0.9631404 0.2116702 0.5617049
v -0.9673620 0.2065568 0.5646288
v -0.9687349 0.1995718 0.5659865
v -0.9668909 0.1925868 0.5654140
v -0.9623244 0.1874734 0.5630649
v -0.9562588 0.1856018 0.5595686
v -0.9503195 0.1874734 0.5558620
v -0.9460979 0.1925868 0.5529382
v -0.9447250 0.1995718 0.5515805
v -0.9465688 0.2065568 0.5521529
v -0.9511354 0.2116702 0.5545021
v -0.9643712 0.2121692 0.5460480
v -0.9702477 0.2103096 0.5498593
v -0.9742976 0.2052291 0.5530694
v -0.9754360 0.1982890 0.5548179
v -0.9733576 0.1913489 0.5546363
v -0.9686193 0.1862684 0.5525734
v -0.9624909 0.1844088 0.5491819
v -0.9566144 0.1862683 0.5453704
v -0.9525644 0.1913489 0.5421605
v -0.9514261 0.1982890 0.5404120
v -0.9535046 0.2052291 0.5405934
v -0.9582428 0.2103096 0.5426564
v -0.9714799 0.2098881 0.5342003
v -0.9772941 0.2080485 0.5381154
v -0.9811738 0.2030226 0.5416092
v -0.9820795 0.1961571 0.5437452
v -0.9797685 0.1892916 0.5439512
v -0.9748601 0.1842657 0.5421720
v -0.9686694 0.1824261 0.5388843
v -0.9628552 0.1842657 0.5349690
v -0.9589754 0.1892916 0.5314754
v -0.9580697 0.1961571 0.5293394
v -0.9603807 0.2030226 0.5291334
v -0.9652891 0.2080485 0.5309126
v -0.9784966 0.2067082 0.5225058
v -0.9842492 0.2048965 0.5265235
v -0.9879609 0.1999467 0.5302973
v -0.9886372 0.1931852 0.5328159
v -0.9860966 0.1864237 0.5334044
v -0.9810202 0.1814740 0.5319052
v -0.9747680 0.1796622 0.5287200
v -0.9690154 0.1814740 0.5247023
v -0.9653035 0.1864237 0.5209286
v -0.9646274 0.1931852 0.5184099
v -0.9671679 0.1999467 0.5178214
v -0.9722443 0.2048965 0.5193205
v -0.9853911 0.2026431 0.5110148
v -0.9910834 0.2008670 0.5151332
v -0.9946300 0.1960146 0.5191821
v -0.9950807 0.1893861 0.5220765
v -0.9923147 0.1827576 0.5230410
v -0.9870732 0.1779051 0.5218169
v -0.9807606 0.1761290 0.5187325
v -0.9750682 0.1779051 0.5146140
v -0.9715216 0.1827576 0.5105651
v -0.9710709 0.1893861 0.5076707
v -0.9738369 0.1960146 0.5067063
v -0.9790785 0.2008670 0.5079303
v -0.9921342 0.1977103 0.4997763
v -0.9977673 0.1959774 0.5039932
v -1.0011525 0.1912431 0.5083112
v -1.0013827 0.1847760 0.5115733
v -0.9983962 0.1783088 0.5129053
v -0.9929931 0.1735745 0.5119504
v -0.9866214 0.1718417 0.5089645
v -0.9809881 0.1735745 0.5047475
v -0.9776030 0.1783088 0.5004295
v -0.9773729 0.1847759 0.4971674
v -0.9803594 0.1912431 0.4958354
v -0.9857625 0.1959774 0.4967903
v -0.9986969 0.1919308 0.4888385
v -1.0042726 0.1902486 0.4931512
v -1.0075005 0.1856527 0.4977313
v -1.0075160 0.1793746 0.5013511
v -1.0043148 0.1730965 0.5030409
v -0.9987546 0.1685006 0.5023479
v -0.9923253 0.1668184 0.4994578
v -0.9867498 0.1685006 0.4951449
v -0.9835217 0.1730965 0.4905650
v -0.9835062 0.1793746 0.4869452
v -0.9867074 0.1856527 0.4852553
v -0.9922676 0.1902486 0.4859484
v -1.0050510 0.1853295 0.4782483
v -1.0105710 0.1837051 0.4826539
v -1.0136468 0.1792673 0.4874874
v -1.0134544 0.1732051 0.4914537
v -1.0100454 0.1671430 0.4934899
v -1.0043330 0.1627051 0.4930505
v -0.9978482 0.1610808 0.4902532
v -0.9923282 0.1627051 0.4858475
v -0.9892523 0.1671430 0.4810140
v -0.9894446 0.1732051 0.4770477
v -0.9928538 0.1792673 0.4750115
v -0.9985660 0.1837051 0.4754509
v -1.0111694 0.1779345 0.4680509
v -1.0166358 0.1763750 0.4725459
v -1.0195651 0.1721142 0.4776236
v -1.0191727 0.1662939 0.4819234
v -1.0155634 0.1604737 0.4842932
v -1.0097046 0.1562129 0.4840979
v -1.0031660 0.1546534 0.4813901
v -0.9976996 0.1562129 0.4768950
v -0.9947703 0.1604737 0.4718173
v -0.9951628 0.1662939 0.4675176
v -0.9987720 0.1721142 0.4651477
v -1.0046309 0.1763750 0.4653429
v -1.0170259 0.1697777 0.4582902
v -1.0224409 0.1682896 0.4628707
v -1.0252301 0.1642242 0.4681821
v -1.0246459 0.1586707 0.4728011
v -1.0208452 0.1531172 0.4754903
v -1.0148461 0.1490518 0.4755288
v -1.0082562 0.1475638 0.4729064
v -1.0028412 0.1490518 0.4683258
v -1.0000521 0.1531172 0.4630144
v -1.0006361 0.1586707 0.4583953
v -1.0044370 0.1642242 0.4557063
v -1.0104361 0.1682896 0.4556678
v -1.0225954 0.1608938 0.4490077
v -1.0279615 0.1594836 0.4536696
v -1.0306174 0.1556309 0.4592033
v -1.0298511 0.1503680 0.4641261
v -1.0258681 0.1451051 0.4671187
v -1.0197356 0.1412524 0.4673795
v -1.0130969 0.1398423 0.4648384
v -1.0077307 0.1412524 0.4601765
v -1.0050750 0.1451051 0.4546428
v -1.0058413 0.1503680 0.4497202
v -1.0098242 0.1556309 0.4467275
v -1.0159566 0.1594836 0.4464667
v -1.0278540 0.1513209 0.4402434
v -1.0331740 0.1499946 0.4449822
v -1.0357039 0.1463712 0.4507257
v -1.0347656 0.1414214 0.4559352
v -1.0306106 0.1364717 0.4592145
v -1.0243523 0.1328482 0.4596851
v -1.0176674 0.1315219 0.4572210
v -1.0123473 0.1328482 0.4524822
v -1.0098175 0.1364717 0.4467387
v -1.0107558 0.1414214 0.4415292
v -1.0149108 0.1463712 0.4382499
v -1.0211691 0.1499946 0.4377792
v -1.0327791 0.1411001 0.4320348
v -1.0380560 0.1398634 0.4368455
v -1.0404680 0.1364847 0.4427856
v -1.0393686 0.1318693 0.4482635
v -1.0350525 0.1272538 0.4518114
v -1.0286762 0.1238751 0.4524786
v -1.0219482 0.1226384 0.4500863
v -1.0166713 0.1238751 0.4452756
v -1.0142593 0.1272538 0.4393355
v -1.0153588 0.1318693 0.4338576
v -1.0196749 0.1364847 0.4303097
v -1.0260512 0.1398634 0.4296425
v -1.0373498 0.1302751 0.4244170
v -1.0425867 0.1291333 0.4292944
v -1.0448892 0.1260138 0.4354169
v -1.0436403 0.1217524 0.4411439
v -1.0391747 0.1174911 0.4449411
v -1.0326890 0.1143716 0.4457907
v -1.0259209 0.1132297 0.4434652
v -1.0206840 0.1143716 0.4385877
v -1.0183816 0.1174911 0.4324651
v -1.0196304 0.1217524 0.4267381
v -1.0240960 0.1260138 0.4229410
v -1.0305818 0.1291333 0.4220914
v -1.0415466 0.1188922 0.4174225
v -1.0467466 0.1178501 0.4223612
v -1.0489485 0.1150032 0.4286513
v -1.0475624 0.1111142 0.4346071
v -1.0429596 0.1072252 0.4386329
v -1.0363733 0.1043783 0.4396500
v -1.0295684 0.1033362 0.4373859
v -1.0243684 0.1043783 0.4324471
v -1.0221665 0.1072252 0.4261571
v -1.0235527 0.1111142 0.4202012
v -1.0281554 0.1150032 0.4161754
v -1.0347418 0.1178501 0.4151583
v -1.0453513 0.1070000 0.4110813
v -1.0505180 0.1060622 0.4160756
v -1.0526289 0.1035000 0.4225175
v -1.0511183 0.1000000 0.4286807
v -1.0463909 0.0965000 0.4329141
v -1.0397136 0.0939378 0.4340829
v -1.0328754 0.0930000 0.4318743
v -1.0277086 0.0939378 0.4268801
v -1.0255978 0.0965000 0.4204381
v -1.0271084 0.1000000 0.4142749
v -1.0318358 0.1035000 0.4100416
v -1.0385131 0.1060622 0.4088727
v -1.0487477 0.0946498 0.4054207
v -1.0538845 0.0938202 0.4104646
v -1.0559140 0.0915538 0.4170421
v -1.0542924 0.0884578 0.4233904
v -1.0494540 0.0853617 0.4278089
v -1.0426953 0.0830953 0.4291134
v -1.0358274 0.0822657 0.4269544
v -1.0306904 0.0830953 0.4219105
v -1.0286609 0.0853617 0.4153331
v -1.0302826 0.0884578 0.4089846
v -1.0351210 0.0915538 0.4045662
v -1.0418797 0.0938202 0.4032617
v -1.0517211 0.0818943 0.4004648
v -1.0568320 0.0811765 0.4055522
v -1.0587903 0.0792155 0.4122483
v -1.0570713 0.0765367 0.4187589
v -1.0521357 0.0738579 0.4233394
v -1.0453058 0.0718969 0.4247625
v -1.0384119 0.0711792 0.4226471
v -1.0333009 0.0718969 0.4175597
v -1.0313426 0.0738579 0.4108636
v -1.0330615 0.0765367 0.4043530
v -1.0379972 0.0792155 0.3997725
v -1.0448271 0.0811765 0.3983493
v -1.0542591 0.0687881 0.3962350
v -1.0593476 0.0681852 0.4013595
v -1.0612452 0.0665381 0.4081568
v -1.0594432 0.0642880 0.4148057
v -1.0544245 0.0620379 0.4195246
v -1.0475339 0.0603907 0.4210491
v -1.0406177 0.0597878 0.4189706
v -1.0355290 0.0603907 0.4138462
v -1.0336314 0.0620379 0.4070488
v -1.0354334 0.0642880 0.4003999
v -1.0404521 0.0665381 0.3956810
v -1.0473428 0.0681852 0.3941565
v -1.0563505 0.0553874 0.3927492
v -1.0614208 0.0549019 0.3979042
v -1.0632683 0.0535756 0.4047851
v -1.0613979 0.0517639 0.4115480
v -1.0563108 0.0499522 0.4163809
v -1.0493701 0.0486259 0.4179888
v -1.0424355 0.0481404 0.4159409
v -1.0373652 0.0486259 0.4107859
v -1.0355177 0.0499522 0.4039051
v -1.0373881 0.0517639 0.3971421
v -1.0424752 0.0535756 0.3923092
v -1.0494159 0.0549019 0.3907014
v -1.0579865 0.0417495 0.3900225
v -1.0630425 0.0413835 0.3952014
v -1.0648508 0.0403838 0.4021475
v -1.0629269 0.0390182 0.4089996
v -1.0577863 0.0376526 0.4139218
v -1.0508064 0.0366528 0.4155950
v -1.0438575 0.0362869 0.4135709
v -1.0388014 0.0366528 0.4083920
v -1.0369931 0.0376526 0.4014459
v -1.0389171 0.0390182 0.3945938
v -1.0440577 0.0403838 0.3896716
v -1.0510377 0.0413835 0.3879984
v -1.0591602 0.0279328 0.3880664
v -1.0642059 0.0276880 0.3932624
v -1.0659860 0.0270191 0.4002554
v -1.0640237 0.0261054 0.4071715
v -1.0588448 0.0251917 0.4121576
v -1.0518367 0.0245228 0.4138777
v -1.0448775 0.0242780 0.4118708
v -1.0398319 0.0245228 0.4066747
v -1.0380517 0.0251917 0.3996817
v -1.0400140 0.0261054 0.3927657
v -1.0451930 0.0270191 0.3877795
v -1.0522010 0.0276880 0.3860595
v -1.0598664 0.0139963 0.3868894
v -1.0649059 0.0138736 0.3920957
v -1.0666692 0.0135384 0.3991169
v -1.0646838 0.0130806 0.4060715
v -1.0594816 0.0126228 0.4110962
v -1.0524567 0.0122876 0.4128444
v -1.0454913 0.0121650 0.4108477
v -1.0404519 0.0122876 0.4056414
v -1.0386885 0.0126228 0.3986202
v -1.0406740 0.0130806 0.3916656
v -1.0458761 0.0135384 0.3866411
v -1.0529010 0.0138736 0.3848928
v -1.0601021 0.0000000 0.3864965
v -1.0651395 0.0000000 0.3917063
v -1.0668973 0.0000000 0.3987369
v -1.0649041 0.0000000 0.4057043
v -1.0596943 0.0000000 0.4107417
v -1.0526637 0.0000000 0.4124994
v -1.0456963 0.0000000 0.4105063
v -1.0406588 0.0000000 0.4052965
v -1.0389012 0.0000000 0.3982659
v -1.0408943 0.0000000 0.3912985
v -1.0461041 0.0000000 0.3862610
v -1.0531347 0.0000000 0.3845033
v -1.0598664 -0.0139962 0.3868894
v -1.0649059 -0.0138735 0.3920957
v -1.0666692 -0.0135384 0.3991169
v -1.0646838 -0.0130806 0.4060715
v -1.0594817 -0.0126228 0.4110962
v -1.0524567 -0.0122876 0.4128444
v -1.0454913 -0.0121650 0.4108477
v -1.0404519 -0.0122876 0.4056414
v -1.0386885 -0.0126228 0.3986202
v -1.0406740 -0.0130806 0.3916656
v -1.0458761 -0.0135384 0.3866411
v -1.0529010 -0.0138735 0.3848928
v -1.0591602 -0.0279325 0.3880664
v -1.0642059 -0.0276877 0.3932624
v -1.0659862 -0.0270188 0.4002554
v -1.0640239 -0.0261052 0.4071715
v -1.0588448 -0.0251915 0.4121576
v -1.0518367 -0.0245226 0.4138777
v -1.0448775 -0.0242778 0.4118708
v -1.0398319 -0.0245226 0.4066747
v -1.0380517 -0.0251915 0.3996817
v -1.0400140 -0.0261052 0.3927656
v -1.0451930 -0.0270188 0.3877795
v -1.0522010 -0.0276877 0.3860595
v -1.0579866 -0.0417492 0.3900225
v -1.0630425 -0.0413833 0.3952014
v -1.0648508 -0.0403836 0.4021475
v -1.0629270 -0.0390180 0.4089996
v -1.0577863 -0.0376523 0.4139217
v -1.0508064 -0.0366526 0.4155949
v -1.0438575 -0.0362867 0.4135709
v -1.0388016 -0.0366526 0.4083920
v -1.0369933 -0.0376523 0.4014458
v -1.0389172 -0.0390180 0.3945937
v -1.0440577 -0.0403836 0.3896716
v -1.0510377 -0.0413833 0.3879984
v -1.0563506 -0.0553872 0.3927492
v -1.0614209 -0.0549017 0.3979042
v -1.0632683 -0.0535754 0.4047851
v -1.0613979 -0.0517637 0.4115480
v -1.0563108 -0.0499520 0.4163809
v -1.0493701 -0.0486257 0.4179888
v -1.0424355 -0.0481402 0.4159409
v -1.0373652 -0.0486257 0.4107859
v -1.0355177 -0.0499520 0.4039050
v -1.0373881 -0.0517637 0.3971421
v -1.0424752 -0.0535754 0.3923091
v -1.0494159 -0.0549017 0.3907012
v -1.0542591 -0.0687879 0.3962349
v -1.0593477 -0.0681850 0.4013594
v -1.0612453 -0.0665378 0.4081568
v -1.0594432 -0.0642878 0.4148057
v -1.0544246 -0.0620377 0.4195246
v -1.0475340 -0.0603905 0.4210491
v -1.0406177 -0.0597876 0.4189705
v -1.0355290 -0.0603905 0.4138461
v -1.0336316 -0.0620377 0.4070488
v -1.0354335 -0.0642878 0.4003999
v -1.0404521 -0.0665378 0.3956810
v -1.0473428 -0.0681850 0.3941565
v -1.0517211 -0.0818943 0.4004648
v -1.0568321 -0.0811765 0.4055522
v -1.0587903 -0.0792155 0.4122483
v -1.0570713 -0.0765367 0.4187589
v -1.0521357 -0.0738579 0.4233394
v -1.0453058 -0.0718969 0.4247625
v -1.0384119 -0.0711792 0.4226471
v -1.0333009 -0.0718969 0.4175597
v -1.0313426 -0.0738579 0.4108636
v -1.0330616 -0.0765367 0.4043531
v -1.0379972 -0.0792155 0.3997725
v -1.0448271 -0.0811765 0.3983493
v -1.0487477 -0.0946498 0.4054207
v -1.0538846 -0.0938202 0.4104647
v -1.0559142 -0.0915537 0.4170421
v -1.0542924 -0.0884577 0.4233906
v -1.0494540 -0.0853617 0.4278089
v -1.0426953 -0.0830953 0.4291134
v -1.0358274 -0.0822657 0.4269544
v -1.0306904 -0.0830953 0.4219105
v -1.0286609 -0.0853617 0.4153331
v -1.0302826 -0.0884577 0.4089846
v -1.0351210 -0.0915537 0.4045662
v -1.0418797 -0.0938202 0.4032617
v -1.0453513 -0.1070000 0.4110813
v -1.0505180 -0.1060622 0.4160756
v -1.0526289 -0.1035000 0.4225175
v -1.0511183 -0.1000000 0.4286807
v -1.0463909 -0.0965000 0.4329141
v -1.0397136 -0.0939378 0.4340829
v -1.0328754 -0.0930000 0.4318743
v -1.0277086 -0.0939378 0.4268801
v -1.0255978 -0.0965000 0.4204382
v -1.0271084 -0.1000000 0.4142749
v -1.0318358 -0.1035000 0.4100416
v -1.0385131 -0.1060622 0.4088727
v -1.0415466 -0.1188920 0.4174224
v -1.0467467 -0.1178499 0.4223612
v -1.0489486 -0.1150030 0.4286512
v -1.0475625 -0.1111140 0.4346071
v -1.0429597 -0.1072250 0.4386329
v -1.0363734 -0.1043781 0.4396500
v -1.0295686 -0.1033360 0.4373859
v -1.0243685 -0.1043781 0.4324470
v -1.0221665 -0.1072250 0.4261571
v -1.0235527 -0.1111140 0.4202011
v -1.0281556 -0.1150030 0.4161753
v -1.0347418 -0.1178499 0.4151582
v -1.0373499 -0.1302749 0.4244168
v -1.0425868 -0.1291331 0.4292943
v -1.0448893 -0.1260135 0.4354169
v -1.0436404 -0.1217522 0.4411439
v -1.0391748 -0.1174909 0.4449410
v -1.0326891 -0.1143714 0.4457906
v -1.0259210 -0.1132296 0.4434651
v -1.0206841 -0.1143714 0.4385876
v -1.0183817 -0.1174909 0.4324651
v -1.0196306 -0.1217522 0.4267381
v -1.0240961 -0.1260135 0.4229410
v -1.0305820 -0.1291331 0.4220913
v -1.0327792 -0.1410999 0.4320347
v -1.0380561 -0.1398633 0.4368454
v -1.0404681 -0.1364845 0.4427856
v -1.0393687 -0.1318691 0.4482635
v -1.0350527 -0.1272537 0.4518113
v -1.0286763 -0.1238750 0.4524785
v -1.0219483 -0.1226383 0.4500862
v -1.0166714 -0.1238750 0.4452755
v -1.0142595 -0.1272537 0.4393354
v -1.0153589 -0.1318691 0.4338575
v -1.0196750 -0.1364845 0.4303096
v -1.0260513 -0.1398633 0.4296424
v -1.0278541 -0.1513208 0.4402433
v -1.0331742 -0.1499945 0.4449821
v -1.0357040 -0.1463710 0.4507256
v -1.0347657 -0.1414213 0.4559351
v -1.0306107 -0.1364715 0.4592144
v -1.0243524 -0.1328481 0.4596850
v -1.0176675 -0.1315218 0.4572209
v -1.0123475 -0.1328481 0.4524822
v -1.0098176 -0.1364715 0.4467385
v -1.0107559 -0.1414213 0.4415292
v -1.0149109 -0.1463710 0.4382498
v -1.0211693 -0.1499945 0.4377791
v -1.0225954 -0.1608937 0.4490078
v -1.0279616 -0.1594836 0.4536697
v -1.0306174 -0.1556309 0.4592034
v -1.0298511 -0.1503680 0.4641261
v -1.0258682 -0.1451051 0.4671188
v -1.0197357 -0.1412524 0.4673795
v -1.0130969 -0.1398422 0.4648386
v -1.0077308 -0.1412524 0.4601766
v -1.0050750 -0.1451051 0.4546430
v -1.0058413 -0.1503680 0.4497202
v -1.0098243 -0.1556309 0.4467276
v -1.0159566 -0.1594836 0.4464667
v -1.0170259 -0.1697776 0.4582902
v -1.0224410 -0.1682896 0.4628708
v -1.0252301 -0.1642241 0.4681821
v -1.0246460 -0.1586707 0.4728013
v -1.0208452 -0.1531172 0.4754903
v -1.0148462 -0.1490518 0.4755288
v -1.0082562 -0.1475637 0.4729064
v -1.0028412 -0.1490518 0.4683258
v -1.0000521 -0.1531172 0.4630144
v -1.0006362 -0.1586707 0.4583953
v -1.0044370 -0.1642241 0.4557063
v -1.0104361 -0.1682896 0.4556678
v -1.0111696 -0.1779345 0.4680509
v -1.0166359 -0.1763749 0.4725459
v -1.0195652 -0.1721142 0.4776236
v -1.0191727 -0.1662939 0.4819234
v -1.0155635 -0.1604736 0.4842932
v -1.0097046 -0.1562129 0.4840979
v -1.0031661 -0.1546533 0.4813901
v -0.9976997 -0.1562129 0.4768950
v -0.9947704 -0.1604736 0.4718173
v -0.9951628 -0.1662939 0.4675176
v -0.9987721 -0.1721142 0.4651478
v -1.0046309 -0.1763749 0.4653429
v -1.0050511 -0.1853294 0.4782482
v -1.0105711 -0.1837051 0.4826539
v -1.0136470 -0.1792672 0.4874874
v -1.0134546 -0.1732050 0.4914536
v -1.0100455 -0.1671429 0.4934898
v -1.0043331 -0.1627051 0.4930504
v -0.9978482 -0.1610807 0.4902532
v -0.9923283 -0.1627051 0.4858475
v -0.9892524 -0.1671429 0.4810140
v -0.9894447 -0.1732051 0.4770477
v -0.9928539 -0.1792673 0.4750115
v -0.9985662 -0.1837051 0.4754509
v -0.9986970 -0.1919308 0.4888384
v -1.0042727 -0.1902485 0.4931512
v -1.0075006 -0.1856526 0.4977311
v -1.0075161 -0.1793745 0.5013511
v -1.0043149 -0.1730964 0.5030409
v -0.9987547 -0.1685005 0.5023478
v -0.9923254 -0.1668183 0.4994577
v -0.9867498 -0.1685005 0.4951449
v -0.9835218 -0.1730964 0.4905650
v -0.9835063 -0.1793745 0.4869451
v -0.9867076 -0.1856526 0.4852553
v -0.9922677 -0.1902485 0.4859483
v -0.9921343 -0.1977102 0.4997762
v -0.9977676 -0.1959774 0.5039931
v -1.0011528 -0.1912431 0.5083111
v -1.0013828 -0.1847759 0.5115731
v -0.9983963 -0.1783087 0.5129052
v -0.9929932 -0.1735744 0.5119503
v -0.9866215 -0.1718416 0.5089644
v -0.9809884 -0.1735744 0.5047473
v -0.9776032 -0.1783087 0.5004293
v -0.9773730 -0.1847759 0.4971673
v -0.9803596 -0.1912431 0.4958352
v -0.9857626 -0.1959774 0.4967902
v -0.9853913 -0.2026430 0.5110146
v -0.9910836 -0.2008669 0.5151331
v -0.9946302 -0.1960145 0.5191820
v -0.9950809 -0.1893860 0.5220764
v -0.9923149 -0.1827575 0.5230408
v -0.9870733 -0.1779051 0.5218168
v -0.9807607 -0.1761290 0.5187324
v -0.9750684 -0.1779051 0.5146139
v -0.9715217 -0.1827575 0.5105650
v -0.9710711 -0.1893860 0.5076706
v -0.9738371 -0.1960145 0.5067062
v -0.9790787 -0.2008669 0.5079301
v -0.9784966 -0.2067082 0.5225058
v -0.9842492 -0.2048964 0.5265235
v -0.9879611 -0.1999467 0.5302973
v -0.9886372 -0.1931852 0.5328159
v -0.9860967 -0.1864237 0.5334044
v -0.9810203 -0.1814739 0.5319052
v -0.9747680 -0.1796622 0.5287201
v -0.9690154 -0.1814739 0.5247023
v -0.9653037 -0.1864237 0.5209286
v -0.9646274 -0.1931852 0.5184100
v -0.9671679 -0.1999467 0.5178215
v -0.9722444 -0.2048964 0.5193207
v -0.9714799 -0.2098881 0.5342003
v -0.9772941 -0.2080485 0.5381156
v -0.9811739 -0.2030226 0.5416092
v -0.9820796 -0.1961571 0.5437452
v -0.9797686 -0.1892916 0.5439512
v -0.9748602 -0.1842657 0.5421720
v -0.9686695 -0.1824261 0.5388843
v -0.9628553 -0.1842657 0.5349692
v -0.9589756 -0.1892916 0.5314754
v -0.9580698 -0.1961571 0.5293394
v -0.9603808 -0.2030226 0.5291334
v -0.9652892 -0.2080485 0.5309126
v -0.9643713 -0.2121692 0.5460480
v -0.9702477 -0.2103096 0.5498593
v -0.9742978 -0.2052291 0.5530694
v -0.9754360 -0.1982890 0.5548179
v -0.9733576 -0.1913489 0.5546363
v -0.9686193 -0.1862684 0.5525734
v -0.9624909 -0.1844088 0.5491819
v -0.9566145 -0.1862684 0.5453705
v -0.9525645 -0.1913489 0.5421605
v -0.9514263 -0.1982890 0.5404120
v -0.9535047 -0.2052291 0.5405936
v -0.9582429 -0.2103096 0.5426565
v -0.9572011 -0.2135418 0.5579982
v -0.9631405 -0.2116702 0.5617049
v -0.9673622 -0.2065568 0.5646288
v -0.9687350 -0.1995718 0.5659863
v -0.9668911 -0.1925868 0.5654139
v -0.9623245 -0.1874734 0.5630649
v -0.9562589 -0.1856018 0.5595686
v -0.9503196 -0.1874734 0.5558619
v -0.9460980 -0.1925868 0.5529380
v -0.9447252 -0.1995718 0.5515805
v -0.9465691 -0.2065568 0.5521529
v -0.9511355 -0.2116702 0.5545020
f 33 45 46
f 33 46 34
f 34 46 47
f 34 47 35
f 35 47 48
f 35 48 36
f 36 48 49
f 36 49 37
f 37 49 50
f 37 50 38
f 38 50 51
f 38 51 39
f 39 51 52
f 39 52 40
f 40 52 53
f 40 53 41
f 41 53 54
f 41 54 42
f 42 54 55
f 42 55 43
f 43 55 56
f 43 56 44
f 44 56 45
f 44 45 33
f 45 57 58
f 45 58 46
f 46 58 59
f 46 59 47
f 47 59 60
f 47 60 48
f 48 60 61
f 48 61 49
f 49 61 62
f 49 62 50
f 50 62 63
f 50 63 51
f 51 63 64
f 51 64 52
f 52 64 65
f 52 65 53
f 53 65 66
f 53 66 54
f 54 66 67
f 54 67 55
f 55 67 68
f 55 68 56
f 56 68 57
f 56 57 45
f 57 69 70
f 57 70 58
f 58 70 71
f 58 71 59
f 59 71 72
f 59 72 60
f 60 72 73
f 60 73 61
f 61 73 74
f 61 74 62
f 62 74 75
f 62 75 63
f 63 75 76
f 63 76 64
f 64 76 77
f 64 77 65
f 65 77 78
f 65 78 66
f 66 78 79
f 66 79 67
f 67 79 80
f 67 80 68
f 68 80 69
f 68 69 57
f 69 81 82
f 69 82 70
f 70 82 83
f 70 83 71
f 71 83 84
f 71 84 72
f 72 84 85
f 72 85 73
f 73 85 86
f 73 86 74
f 74 86 87
f 74 87 75
f 75 87 88
f 75 88 76
f 76 88 89
f 76 89 77
f 77 89 90
f 77 90 78
f 78 90 91
f 78 91 79
f 79 91 92
f 79 92 80
f 80 92 81
f 80 81 69
f 81 93 94
f 81 94 82
f 82 94 95
f 82 95 83
f 83 95 96
f 83 96 84
f 84 96 97
f 84 97 85
f 85 97 98
f 85 98 86
f 86 98 99
f 86 99 87
f 87 99 100
f 87 100 88
f 88 100 101
f 88 101 89
f 89 101 102
f 89 102 90
f 90 102 103
f 90 103 91
f 91 103 104
f 91 104 92
f 92 104 93
f 92 93 81
f 93 105 106
f 93 106 94
f 94 106 107
f 94 107 95
f 95 107 108
f 95 108 96
f 96 108 109
f 96 109 97
f 97 109 110
f 97 110 98
f 98 110 111
f 98 111 99
f 99 111 112
f 99 112 100
f 100 112 113
f 100 113 101
f 101 113 114
f 101 114 102
f 102 114 115
f 102 115 103
f 103 115 116
f 103 116 104
f 104 116 105
f 104 105 93
f 105 117 118
f 105 118 106
f 106 118 119
f 106 119 107
f 107 119 120
f 107 120 108
f 108 120 121
f 108 121 109
f 109 121 122
f 109 122 110
f 110 122 123
f 110 123 111
f 111 123 124
f 111 124 112
f 112 124 125
f 112 125 113
f 113 125 126
f 113 126 114
f 114 126 127
f 114 127 115
f 115 127 128
f 115 128 116
f 116 128 117
f 116 117 105
f 117 129 130
f 117 130 118
f 118 130 131
f 118 131 119
f 119 131 132
f 119 132 120
f 120 132 133
f 120 133 121
f 121 133 134
f 121 134 122
f 122 134 135
f 122 135 123
f 123 135 136
f 123 136 124
f 124 136 137
f 124 137 125
f 125 137 138
f 125 138 126
f 126 138 139
f 126 139 127
f 127 139 140
f 127 140 128
f 128 140 129
f 128 129 117
f 129 141 142
f 129 142 130
f 130 142 143
f 130 143 131
f 131 143 144
f 131 144 132
f 132 144 145
f 132 145 133
f 133 145 146
f 133 146 134
f 134 146 147
f 134 147 135
f 135 147 148
f 135 148 136
f 136 148 149
f 136 149 137
f 137 149 150
f 137 150 138
f 138 150 151
f 138 151 139
f 139 151 152
f 139 152 140
f 140 152 141
f 140 141 129
f 141 153 154
f 141 154 142
f 142 154 155
f 142 155 143
f 143 155 156
f 143 156 144
f 144 156 157
f 144 157 145
f 145 157 158
f 145 158 146
f 146 158 159
f 146 159 147
f 147 159 160
f 147 160 148
f 148 160 161
f 148 161 149
f 149 161 162
f 149 162 150
f 150 162 163
f 150 163 151
f 151 163 164
f 151 164 152
f 152 164 153
f 152 153 141
f 153 165 166
f 153 166 154
f 154 166 167
f 154 167 155
f 155 167 168
f 155 168 156
f 156 168 169
f 156 169 157
f 157 169 170
f 157 170 158
f 158 170 171
f 158 171 159
f 159 171 172
f 159 172 160
f 160 172 173
f 160 173 161
f 161 173 174
f 161 174 162
f 162 174 175
f 162 175 163
f 163 175 176
f 163 176 164
f 164 176 165
f 164 165 153
f 165 177 178
f 165 178 166
f 166 178 179
f 166 179 167
f 167 179 180
f 167 180 168
f 168 180 181
f 168 181 169
f 169 181 182
f 169 182 170
f 170 182 183
f 170 183 171
f 171 183 184
f 171 184 172
f 172 184 185
f 172 185 173
f 173 185 186
f 173 186 174
f 174 186 187
f 174 187 175
f 175 187 188
f 175 188 176
f 176 188 177
f 176 177 165
f 177 189 190
f 177 190 178
f 178 190 191
f 178 191 179
f 179 191 192
f 179 192 180
f 180 192 193
f 180 193 181
f 181 193 194
f 181 194 182
f 182 194 195
f 182 195 183
f 183 195 196
f 183 196 184
f 184 196 197
f 184 197 185
f 185 197 198
f 185 198 186
f 186 198 199
f 186 199 187
f 187 199 200
f 187 200 188
f 188 200 189
f 188 189 177
f 189 201 202
f 189 202 190
f 190 202 203
f 190 203 191
f 191 203 204
f 191 204 192
f 192 204 205
f 192 205 193
f 193 205 206
f 193 206 194
f 194 206 207
f 194 207 195
f 195 207 208
f 195 208 196
f 196 208 209
f 196 209 197
f 197 209 210
f 197 210 198
f 198 210 211
f 198 211 199
f 199 211 212
f 199 212 200
f 200 212 201
f 200 201 189
f 201 213 214
f 201 214 202
f 202 214 215
f 202 215 203
f 203 215 216
f 203 216 204
f 204 216 217
f 204 217 205
f 205 217 218
f 205 218 206
f 206 218 219
f 206 219 207
f 207 219 220
f 207 220 208
f 208 220 221
f 208 221 209
f 209 221 222
f 209 222 210
f 210 222 223
f 210 223 211
f 211 223 224
f 211 224 212
f 212 224 213
f 212 213 201
f 213 225 226
f 213 226 214
f 214 226 227
f 214 227 215
f 215 227 228
f 215 228 216
f 216 228 229
f 216 229 217
f 217 229 230
f 217 230 218
f 218 230 231
f 218 231 219
f 219 231 232
f 219 232 220
f 220 232 233
f 220 233 221
f 221 233 234
f 221 234 222
f 222 234 235
f 222 235 223
f 223 235 236
f 223 236 224
f 224 236 225
f 224 225 213
f 225 237 238
f 225 238 226
f 226 238 239
f 226 239 227
f 227 239 240
f 227 240 228
f 228 240 241
f 228 241 229
f 229 241 242
f 229 242 230
f 230 242 243
f 230 243 231
f 231 243 244
f 231 244 232
f 232 244 245
f 232 245 233
f 233 245 246
f 233 246 234
f 234 246 247
f 234 247 235
f 235 247 248
f 235 248 236
f 236 248 237
f 236 237 225
f 237 249 250
f 237 250 238
f 238 250 251
f 238 251 239
f 239 251 252
f 239 252 240
f 240 252 253
f 240 253 241
f 241 253 254
f 241 254 242
f 242 254 255
f 242 255 243
f 243 255 256
f 243 256 244
f 244 256 257
f 244 257 245
f 245 257 258
f 245 258 246
f 246 258 259
f 246 259 247
f 247 259 260
f 247 260 248
f 248 260 249
f 248 249 237
f 249 261 262
f 249 262 250
f 250 262 263
f 250 263 251
f 251 263 264
f 251 264 252
f 252 264 265
f 252 265 253
f 253 265 266
f 253 266 254
f 254 266 267
f 254 267 255
f 255 267 268
f 255 268 256
f 256 268 269
f 256 269 257
f 257 269 270
f 257 270 258
f 258 270 271
f 258 271 259
f 259 271 272
f 259 272 260
f 260 272 261
f 260 261 249
f 261 273 274
f 261 274 262
f 262 274 275
f 262 275 263
f 263 275 276
f 263 276 264
f 264 276 277
f 264 277 265
f 265 277 278
f 265 278 266
f 266 278 279
f 266 279 267
f 267 279 280
f 267 280 268
f 268 280 281
f 268 281 269
f 269 281 282
f 269 282 270
f 270 282 283
f 270 283 271
f 271 283 284
f 271 284 272
f 272 284 273
f 272 273 261
f 273 285 286
f 273 286 274
f 274 286 287
f 274 287 275
f 275 287 288
f 275 288 276
f 276 288 289
f 276 289 277
f 277 289 290
f 277 290 278
f 278 290 291
f 278 291 279
f 279 291 292
f 279 292 280
f 280 292 293
f 280 293 281
f 281 293 294
f 281 294 282
f 282 294 295
f 282 295 283
f 283 295 296
f 283 296 284
f 284 296 285
f 284 285 273
f 285 297 298
f 285 298 286
f 286 298 299
f 286 299 287
f 287 299 300
f 287 300 288
f 288 300 301
f 288 301 289
f 289 301 302
f 289 302 290
f 290 302 303
f 290 303 291
f 291 303 304
f 291 304 292
f 292 304 305
f 292 305 293
f 293 305 306
f 293 306 294
f 294 306 307
f 294 307 295
f 295 307 308
f 295 308 296
f 296 308 297
f 296 297 285
f 297 309 310
f 297 310 298
f 298 310 311
f 298 311 299
f 299 311 312
f 299 312 300
f 300 312 313
f 300 313 301
f 301 313 314
f 301 314 302
f 302 314 315
f 302 315 303
f 303 315 316
f 303 316 304
f 304 316 317
f 304 317 305
f 305 317 318
f 305 318 306
f 306 318 319
f 306 319 307
f 307 319 320
f 307 320 308
f 308 320 309
f 308 309 297
f 309 321 322
f 309 322 310
f 310 322 323
f 310 323 311
f 311 323 324
f 311 324 312
f 312 324 325
f 312 325 313
f 313 325 326
f 313 326 314
f 314 326 327
f 314 327 315
f 315 327 328
f 315 328 316
f 316 328 329
f 316 329 317
f 317 329 330
f 317 330 318
f 318 330 331
f 318 331 319
f 319 331 332
f 319 332 320
f 320 332 321
f 320 321 309
f 321 333 334
f 321 334 322
f 322 334 335
f 322 335 323
f 323 335 336
f 323 336 324
f 324 336 337
f 324 337 325
f 325 337 338
f 325 338 326
f 326 338 339
f 326 339 327
f 327 339 340
f 327 340 328
f 328 340 341
f 328 341 329
f 329 341 342
f 329 342 330
f 330 342 343
f 330 343 331
f 331 343 344
f 331 344 332
f 332 344 333
f 332 333 321
f 333 345 346
f 333 346 334
f 334 346 347
f 334 347 335
f 335 347 348
f 335 348 336
f 336 348 349
f 336 349 337
f 337 349 350
f 337 350 338
f 338 350 351
f 338 351 339
f 339 351 352
f 339 352 340
f 340 352 353
f 340 353 341
f 341 353 354
f 341 354 342
f 342 354 355
f 342 355 343
f 343 355 356
f 343 356 344
f 344 356 345
f 344 345 333
f 345 357 358
f 345 358 346
f 346 358 359
f 346 359 347
f 347 359 360
f 347 360 348
f 348 360 361
f 348 361 349
f 349 361 362
f 349 362 350
f 350 362 363
f 350 363 351
f 351 363 364
f 351 364 352
f 352 364 365
f 352 365 353
f 353 365 366
f 353 366 354
f 354 366 367
f 354 367 355
f 355 367 368
f 355 368 356
f 356 368 357
f 356 357 345
f 357 369 370
f 357 370 358
f 358 370 371
f 358 371 359
f 359 371 372
f 359 372 360
f 360 372 373
f 360 373 361
f 361 373 374
f 361 374 362
f 362 374 375
f 362 375 363
f 363 375 376
f 363 376 364
f 364 376 377
f 364 377 365
f 365 377 378
f 365 378 366
f 366 378 379
f 366 379 367
f 367 379 380
f 367 380 368
f 368 380 369
f 368 369 357
f 369 381 382
f 369 382 370
f 370 382 383
f 370 383 371
f 371 383 384
f 371 384 372
f 372 384 385
f 372 385 373
f 373 385 386
f 373 386 374
f 374 386 387
f 374 387 375
f 375 387 388
f 375 388 376
f 376 388 389
f 376 389 377
f 377 389 390
f 377 390 378
f 378 390 391
f 378 391 379
f 379 391 392
f 379 392 380
f 380 392 381
f 380 381 369
f 381 393 394
f 381 394 382
f 382 394 395
f 382 395 383
f 383 395 396
f 383 396 384
f 384 396 397
f 384 397 385
f 385 397 398
f 385 398 386
f 386 398 399
f 386 399 387
f 387 399 400
f 387 400 388
f 388 400 401
f 388 401 389
f 389 401 402
f 389 402 390
f 390 402 403
f 390 403 391
f 391 403 404
f 391 404 392
f 392 404 393
f 392 393 381
f 393 405 406
f 393 406 394
f 394 406 407
f 394 407 395
f 395 407 408
f 395 408 396
f 396 408 409
f 396 409 397
f 397 409 410
f 397 410 398
f 398 410 411
f 398 411 399
f 399 411 412
f 399 412 400
f 400 412 413
f 400 413 401
f 401 413 414
f 401 414 402
f 402 414 415
f 402 415 403
f 403 415 416
f 403 416 404
f 404 416 405
f 404 405 393
f 405 417 418
f 405 418 406
f 406 418 419
f 406 419 407
f 407 419 420
f 407 420 408
f 408 420 421
f 408 421 409
f 409 421 422
f 409 422 410
f 410 422 423
f 410 423 411
f 411 423 424
f 411 424 412
f 412 424 425
f 412 425 413
f 413 425 426
f 413 426 414
f 414 426 427
f 414 427 415
f 415 427 428
f 415 428 416
f 416 428 417
f 416 417 405
f 417 429 430
f 417 430 418
f 418 430 431
f 418 431 419
f 419 431 432
f 419 432 420
f 420 432 433
f 420 433 421
f 421 433 434
f 421 434 422
f 422 434 435
f 422 435 423
f 423 435 436
f 423 436 424
f 424 436 437
f 424 437 425
f 425 437 438
f 425 438 426
f 426 438 439
f 426 439 427
f 427 439 440
f 427 440 428
f 428 440 429
f 428 429 417
f 429 441 442
f 429 442 430
f 430 442 443
f 430 443 431
f 431 443 444
f 431 444 432
f 432 444 445
f 432 445 433
f 433 445 446
f 433 446 434
f 434 446 447
f 434 447 435
f 435 447 448
f 435 448 436
f 436 448 449
f 436 449 437
f 437 449 450
f 437 450 438
f 438 450 451
f 438 451 439
f 439 451 452
f 439 452 440
f 440 452 441
f 440 441 429
f 441 453 454
f 441 454 442
f 442 454 455
f 442 455 443
f 443 455 456
f 443 456 444
f 444 456 457
f 444 457 445
f 445 457 458
f 445 458 446
f 446 458 459
f 446 459 447
f 447 459 460
f 447 460 448
f 448 460 461
f 448 461 449
f 449 461 462
f 449 462 450
f 450 462 463
f 450 463 451
f 451 463 464
f 451 464 452
f 452 464 453
f 452 453 441
f 453 465 466
f 453 466 454
f 454 466 467
f 454 467 455
f 455 467 468
f 455 468 456
f 456 468 469
f 456 469 457
f 457 469 470
f 457 470 458
f 458 470 471
f 458 471 459
f 459 471 472
f 459 472 460
f 460 472 473
f 460 473 461
f 461 473 474
f 461 474 462
f 462 474 475
f 462 475 463
f 463 475 476
f 463 476 464
f 464 476 465
f 464 465 453
f 465 477 478
f 465 478 466
f 466 478 479
f 466 479 467
f 467 479 480
f 467 480 468
f 468 480 481
f 468 481 469
f 469 481 482
f 469 482 470
f 470 482 483
f 470 483 471
f 471 483 484
f 471 484 472
f 472 484 485
f 472 485 473
f 473 485 486
f 473 486 474
f 474 486 487
f 474 487 475
f 475 487 488
f 475 488 476
f 476 488 477
f 476 477 465
f 477 489 490
f 477 490 478
f 478 490 491
f 478 491 479
f 479 491 492
f 479 492 480
f 480 492 493
f 480 493 481
f 481 493 494
f 481 494 482
f 482 494 495
f 482 495 483
f 483 495 496
f 483 496 484
f 484 496 497
f 484 497 485
f 485 497 498
f 485 498 486
f 486 498 499
f 486 499 487
f 487 499 500
f 487 500 488
f 488 500 489
f 488 489 477
f 489 501 502
f 489 502 490
f 490 502 503
f 490 503 491
f 491 503 504
f 491 504 492
f 492 504 505
f 492 505 493
f 493 505 506
f 493 506 494
f 494 506 507
f 494 507 495
f 495 507 508
f 495 508 496
f 496 508 509
f 496 509 497
f 497 509 510
f 497 510 498
f 498 510 511
f 498 511 499
f 499 511 512
f 499 512 500
f 500 512 501
f 500 501 489
f 501 513 514
f 501 514 502
f 502 514 515
f 502 515 503
f 503 515 516
f 503 516 504
f 504 516 517
f 504 517 505
f 505 517 518
f 505 518 506
f 506 518 519
f 506 519 507
f 507 519 520
f 507 520 508
f 508 520 521
f 508 521 509
f 509 521 522
f 509 522 510
f 510 522 523
f 510 523 511
f 511 523 524
f 511 524 512
f 512 524 513
f 512 513 501
f 513 525 526
f 513 526 514
f 514 526 527
f 514 527 515
f 515 527 528
f 515 528 516
f 516 528 529
f 516 529 517
f 517 529 530
f 517 530 518
f 518 530 531
f 518 531 519
f 519 531 532
f 519 532 520
f 520 532 533
f 520 533 521
f 521 533 534
f 521 534 522
f 522 534 535
f 522 535 523
f 523 535 536
f 523 536 524
f 524 536 525
f 524 525 513
f 525 537 538
f 525 538 526
f 526 538 539
f 526 539 527
f 527 539 540
f 527 540 528
f 528 540 541
f 528 541 529
f 529 541 542
f 529 542 530
f 530 542 543
f 530 543 531
f 531 543 544
f 531 544 532
f 532 544 545
f 532 545 533
f 533 545 546
f 533 546 534
f 534 546 547
f 534 547 535
f 535 547 548
f 535 548 536
f 536 548 537
f 536 537 525
f 537 549 550
f 537 550 538
f 538 550 551
f 538 551 539
f 539 551 552
f 539 552 540
f 540 552 553
f 540 553 541
f 541 553 554
f 541 554 542
f 542 554 555
f 542 555 543
f 543 555 556
f 543 556 544
f 544 556 557
f 544 557 545
f 545 557 558
f 545 558 546
f 546 558 559
f 546 559 547
f 547 559 560
f 547 560 548
f 548 560 549
f 548 549 537
f 549 561 562
f 549 562 550
f 550 562 563
f 550 563 551
f 551 563 564
f 551 564 552
f 552 564 565
f 552 565 553
f 553 565 566
f 553 566 554
f 554 566 567
f 554 567 555
f 555 567 568
f 555 568 556
f 556 568 569
f 556 569 557
f 557 569 570
f 557 570 558
f 558 570 571
f 558 571 559
f 559 571 572
f 559 572 560
f 560 572 561
f 560 561 549
f 561 573 574
f 561 574 562
f 562 574 575
f 562 575 563
f 563 575 576
f 563 576 564
f 564 576 577
f 564 577 565
f 565 577 578
f 565 578 566
f 566 578 579
f 566 579 567
f 567 579 580
f 567 580 568
f 568 580 581
f 568 581 569
f 569 581 582
f 569 582 570
f 570 582 583
f 570 583 571
f 571 583 584
f 571 584 572
f 572 584 573
f 572 573 561
f 573 585 586
f 573 586 574
f 574 586 587
f 574 587 575
f 575 587 588
f 575 588 576
f 576 588 589
f 576 589 577
f 577 589 590
f 577 590 578
f 578 590 591
f 578 591 579
f 579 591 592
f 579 592 580
f 580 592 593
f 580 593 581
f 581 593 594
f 581 594 582
f 582 594 595
f 582 595 583
f 583 595 596
f 583 596 584
f 584 596 585
f 584 585 573
f 585 597 598
f 585 598 586
f 586 598 599
f 586 599 587
f 587 599 600
f 587 600 588
f 588 600 601
f 588 601 589
f 589 601 602
f 589 602 590
f 590 602 603
f 590 603 591
f 591 603 604
f 591 604 592
f 592 604 605
f 592 605 593
f 593 605 606
f 593 606 594
f 594 606 607
f 594 607 595
f 595 607 608
f 595 608 596
f 596 608 597
f 596 597 585
f 597 609 610
f 597 610 598
f 598 610 611
f 598 611 599
f 599 611 612
f 599 612 600
f 600 612 613
f 600 613 601
f 601 613 614
f 601 614 602
f 602 614 615
f 602 615 603
f 603 615 616
f 603 616 604
f 604 616 617
f 604 617 605
f 605 617 618
f 605 618 606
f 606 618 619
f 606 619 607
f 607 619 620
f 607 620 608
f 608 620 609
f 608 609 597
f 609 621 622
f 609 622 610
f 610 622 623
f 610 623 611
f 611 623 624
f 611 624 612
f 612 624 625
f 612 625 613
f 613 625 626
f 613 626 614
f 614 626 627
f 614 627 615
f 615 627 628
f 615 628 616
f 616 628 629
f 616 629 617
f 617 629 630
f 617 630 618
f 618 630 631
f 618 631 619
f 619 631 632
f 619 632 620
f 620 632 621
f 620 621 609
f 621 633 634
f 621 634 622
f 622 634 635
f 622 635 623
f 623 635 636
f 623 636 624
f 624 636 637
f 624 637 625
f 625 637 638
f 625 638 626
f 626 638 639
f 626 639 627
f 627 639 640
f 627 640 628
f 628 640 641
f 628 641 629
f 629 641 642
f 629 642 630
f 630 642 643
f 630 643 631
f 631 643 644
f 631 644 632
f 632 644 633
f 632 633 621
f 633 645 646
f 633 646 634
f 634 646 647
f 634 647 635
f 635 647 648
f 635 648 636
f 636 648 649
f 636 649 637
f 637 649 650
f 637 650 638
f 638 650 651
f 638 651 639
f 639 651 652
f 639 652 640
f 640 652 653
f 640 653 641
f 641 653 654
f 641 654 642
f 642 654 655
f 642 655 643
f 643 655 656
f 643 656 644
f 644 656 645
f 644 645 633
f 645 657 658
f 645 658 646
f 646 658 659
f 646 659 647
f 647 659 660
f 647 660 648
f 648 660 661
f 648 661 649
f 649 661 662
f 649 662 650
f 650 662 663
f 650 663 651
f 651 663 664
f 651 664 652
f 652 664 665
f 652 665 653
f 653 665 666
f 653 666 654
f 654 666 667
f 654 667 655
f 655 667 668
f 655 668 656
f 656 668 657
f 656 657 645
f 657 669 670
f 657 670 658
f 658 670 671
f 658 671 659
f 659 671 672
f 659 672 660
f 660 672 673
f 660 673 661
f 661 673 674
f 661 674 662
f 662 674 675
f 662 675 663
f 663 675 676
f 663 676 664
f 664 676 677
f 664 677 665
f 665 677 678
f 665 678 666
f 666 678 679
f 666 679 667
f 667 679 680
f 667 680 668
f 668 680 669
f 668 669 657
f 669 681 682
f 669 682 670
f 670 682 683
f 670 683 671
f 671 683 684
f 671 684 672
f 672 684 685
f 672 685 673
f 673 685 686
f 673 686 674
f 674 686 687
f 674 687 675
f 675 687 688
f 675 688 676
f 676 688 689
f 676 689 677
f 677 689 690
f 677 690 678
f 678 690 691
f 678 691 679
f 679 691 692
f 679 692 680
f 680 692 681
f 680 681 669
f 681 693 694
f 681 694 682
f 682 694 695
f 682 695 683
f 683 695 696
f 683 696 684
f 684 696 697
f 684 697 685
f 685 697 698
f 685 698 686
f 686 698 699
f 686 699 687
f 687 699 700
f 687 700 688
f 688 700 701
f 688 701 689
f 689 701 702
f 689 702 690
f 690 702 703
f 690 703 691
f 691 703 704
f 691 704 692
f 692 704 693
f 692 693 681
f 693 705 706
f 693 706 694
f 694 706 707
f 694 707 695
f 695 707 708
f 695 708 696
f 696 708 709
f 696 709 697
f 697 709 710
f 697 710 698
f 698 710 711
f 698 711 699
f 699 711 712
f 699 712 700
f 700 712 713
f 700 713 701
f 701 713 714
f 701 714 702
f 702 714 715
f 702 715 703
f 703 715 716
f 703 716 704
f 704 716 705
f 704 705 693
f 705 717 718
f 705 718 706
f 706 718 719
f 706 719 707
f 707 719 720
f 707 720 708
f 708 720 721
f 708 721 709
f 709 721 722
f 709 722 710
f 710 722 723
f 710 723 711
f 711 723 724
f 711 724 712
f 712 724 725
f 712 725 713
f 713 725 726
f 713 726 714
f 714 726 727
f 714 727 715
f 715 727 728
f 715 728 716
f 716 728 717
f 716 717 705
f 717 729 730
f 717 730 718
f 718 730 731
f 718 731 719
f 719 731 732
f 719 732 720
f 720 732 733
f 720 733 721
f 721 733 734
f 721 734 722
f 722 734 735
f 722 735 723
f 723 735 736
f 723 736 724
f 724 736 737
f 724 737 725
f 725 737 738
f 725 738 726
f 726 738 739
f 726 739 727
f 727 739 740
f 727 740 728
f 728 740 729
f 728 729 717
f 729 741 742
f 729 742 730
f 730 742 743
f 730 743 731
f 731 743 744
f 731 744 732
f 732 744 745
f 732 745 733
f 733 745 746
f 733 746 734
f 734 746 747
f 734 747 735
f 735 747 748
f 735 748 736
f 736 748 749
f 736 749 737
f 737 749 750
f 737 750 738
f 738 750 751
f 738 751 739
f 739 751 752
f 739 752 740
f 740 752 741
f 740 741 729
f 741 753 754
f 741 754 742
f 742 754 755
f 742 755 743
f 743 755 756
f 743 756 744
f 744 756 757
f 744 757 745
f 745 757 758
f 745 758 746
f 746 758 759
f 746 759 747
f 747 759 760
f 747 760 748
f 748 760 761
f 748 761 749
f 749 761 762
f 749 762 750
f 750 762 763
f 750 763 751
f 751 763 764
f 751 764 752
f 752 764 753
f 752 753 741
f 753 765 766
f 753 766 754
f 754 766 767
f 754 767 755
f 755 767 768
f 755 768 756
f 756 768 769
f 756 769 757
f 757 769 770
f 757 770 758
f 758 770 771
f 758 771 759
f 759 771 772
f 759 772 760
f 760 772 773
f 760 773 761
f 761 773 774
f 761 774 762
f 762 774 775
f 762 775 763
f 763 775 776
f 763 776 764
f 764 776 765
f 764 765 753
f 765 777 778
f 765 778 766
f 766 778 779
f 766 779 767
f 767 779 780
f 767 780 768
f 768 780 781
f 768 781 769
f 769 781 782
f 769 782 770
f 770 782 783
f 770 783 771
f 771 783 784
f 771 784 772
f 772 784 785
f 772 785 773
f 773 785 786
f 773 786 774
f 774 786 787
f 774 787 775
f 775 787 788
f 775 788 776
f 776 788 777
f 776 777 765
f 777 789 790
f 777 790 778
f 778 790 791
f 778 791 779
f 779 791 792
f 779 792 780
f 780 792 793
f 780 793 781
f 781 793 794
f 781 794 782
f 782 794 795
f 782 795 783
f 783 795 796
f 783 796 784
f 784 796 797
f 784 797 785
f 785 797 798
f 785 798 786
f 786 798 799
f 786 799 787
f 787 799 800
f 787 800 788
f 788 800 789
f 788 789 777
f 789 801 802
f 789 802 790
f 790 802 803
f 790 803 791
f 791 803 804
f 791 804 792
f 792 804 805
f 792 805 793
f 793 805 806
f 793 806 794
f 794 806 807
f 794 807 795
f 795 807 808
f 795 808 796
f 796 808 809
f 796 809 797
f 797 809 810
f 797 810 798
f 798 810 811
f 798 811 799
f 799 811 812
f 799 812 800
f 800 812 801
f 800 801 789
f 801 813 814
f 801 814 802
f 802 814 815
f 802 815 803
f 803 815 816
f 803 816 804
f 804 816 817
f 804 817 805
f 805 817 818
f 805 818 806
f 806 818 819
f 806 819 807
f 807 819 820
f 807 820 808
f 808 820 821
f 808 821 809
f 809 821 822
f 809 822 810
f 810 822 823
f 810 823 811
f 811 823 824
f 811 824 812
f 812 824 813
f 812 813 801
f 813 825 826
f 813 826 814
f 814 826 827
f 814 827 815
f 815 827 828
f 815 828 816
f 816 828 829
f 816 829 817
f 817 829 830
f 817 830 818
f 818 830 831
f 818 831 819
f 819 831 832
f 819 832 820
f 820 832 833
f 820 833 821
f 821 833 834
f 821 834 822
f 822 834 835
f 822 835 823
f 823 835 836
f 823 836 824
f 824 836 825
f 824 825 813
f 825 837 838
f 825 838 826
f 826 838 839
f 826 839 827
f 827 839 840
f 827 840 828
f 828 840 841
f 828 841 829
f 829 841 842
f 829 842 830
f 830 842 843
f 830 843 831
f 831 843 844
f 831 844 832
f 832 844 845
f 832 845 833
f 833 845 846
f 833 846 834
f 834 846 847
f 834 847 835
f 835 847 848
f 835 848 836
f 836 848 837
f 836 837 825
f 837 849 850
f 837 850 838
f 838 850 851
f 838 851 839
f 839 851 852
f 839 852 840
f 840 852 853
f 840 853 841
f 841 853 854
f 841 854 842
f 842 854 855
f 842 855 843
f 843 855 856
f 843 856 844
f 844 856 857
f 844 857 845
f 845 857 858
f 845 858 846
f 846 858 859
f 846 859 847
f 847 859 860
f 847 860 848
f 848 860 849
f 848 849 837
f 849 861 862
f 849 862 850
f 850 862 863
f 850 863 851
f 851 863 864
f 851 864 852
f 852 864 865
f 852 865 853
f 853 865 866
f 853 866 854
f 854 866 867
f 854 867 855
f 855 867 868
f 855 868 856
f 856 868 869
f 856 869 857
f 857 869 870
f 857 870 858
f 858 870 871
f 858 871 859
f 859 871 872
f 859 872 860
f 860 872 861
f 860 861 849
f 861 873 874
f 861 874 862
f 862 874 875
f 862 875 863
f 863 875 876
f 863 876 864
f 864 876 877
f 864 877 865
f 865 877 878
f 865 878 866
f 866 878 879
f 866 879 867
f 867 879 880
f 867 880 868
f 868 880 881
f 868 881 869
f 869 881 882
f 869 882 870
f 870 882 883
f 870 883 871
f 871 883 884
f 871 884 872
f 872 884 873
f 872 873 861
f 873 885 886
f 873 886 874
f 874 886 887
f 874 887 875
f 875 887 888
f 875 888 876
f 876 888 889
f 876 889 877
f 877 889 890
f 877 890 878
f 878 890 891
f 878 891 879
f 879 891 892
f 879 892 880
f 880 892 893
f 880 893 881
f 881 893 894
f 881 894 882
f 882 894 895
f 882 895 883
f 883 895 896
f 883 896 884
f 884 896 885
f 884 885 873
f 885 897 898
f 885 898 886
f 886 898 899
f 886 899 887
f 887 899 900
f 887 900 888
f 888 900 901
f 888 901 889
f 889 901 902
f 889 902 890
f 890 902 903
f 890 903 891
f 891 903 904
f 891 904 892
f 892 904 905
f 892 905 893
f 893 905 906
f 893 906 894
f 894 906 907
f 894 907 895
f 895 907 908
f 895 908 896
f 896 908 897
f 896 897 885
f 897 909 910
f 897 910 898
f 898 910 911
f 898 911 899
f 899 911 912
f 899 912 900
f 900 912 913
f 900 913 901
f 901 913 914
f 901 914 902
f 902 914 915
f 902 915 903
f 903 915 916
f 903 916 904
f 904 916 917
f 904 917 905
f 905 917 918
f 905 918 906
f 906 918 919
f 906 919 907
f 907 919 920
f 907 920 908
f 908 920 909
f 908 909 897
f 909 921 922
f 909 922 910
f 910 922 923
f 910 923 911
f 911 923 924
f 911 924 912
f 912 924 925
f 912 925 913
f 913 925 926
f 913 926 914
f 914 926 927
f 914 927 915
f 915 927 928
f 915 928 916
f 916 928 929
f 916 929 917
f 917 929 930
f 917 930 918
f 918 930 931
f 918 931 919
f 919 931 932
f 919 932 920
f 920 932 921
f 920 921 909
f 921 933 934
f 921 934 922
f 922 934 935
f 922 935 923
f 923 935 936
f 923 936 924
f 924 936 937
f 924 937 925
f 925 937 938
f 925 938 926
f 926 938 939
f 926 939 927
f 927 939 940
f 927 940 928
f 928 940 941
f 928 941 929
f 929 941 942
f 929 942 930
f 930 942 943
f 930 943 931
f 931 943 944
f 931 944 932
f 932 944 933
f 932 933 921
f 933 945 946
f 933 946 934
f 934 946 947
f 934 947 935
f 935 947 948
f 935 948 936
f 936 948 949
f 936 949 937
f 937 949 950
f 937 950 938
f 938 950 951
f 938 951 939
f 939 951 952
f 939 952 940
f 940 952 953
f 940 953 941
f 941 953 954
f 941 954 942
f 942 954 955
f 942 955 943
f 943 955 956
f 943 956 944
f 944 956 945
f 944 945 933
f 945 957 958
f 945 958 946
f 946 958 959
f 946 959 947
f 947 959 960
f 947 960 948
f 948 960 961
f 948 961 949
f 949 961 962
f 949 962 950
f 950 962 963
f 950 963 951
f 951 963 964
f 951 964 952
f 952 964 965
f 952 965 953
f 953 965 966
f 953 966 954
f 954 966 967
f 954 967 955
f 955 967 968
f 955 968 956
f 956 968 957
f 956 957 945
f 957 969 970
f 957 970 958
f 958 970 971
f 958 971 959
f 959 971 972
f 959 972 960
f 960 972 973
f 960 973 961
f 961 973 974
f 961 974 962
f 962 974 975
f 962 975 963
f 963 975 976
f 963 976 964
f 964 976 977
f 964 977 965
f 965 977 978
f 965 978 966
f 966 978 979
f 966 979 967
f 967 979 980
f 967 980 968
f 968 980 969
f 968 969 957
f 969 981 982
f 969 982 970
f 970 982 983
f 970 983 971
f 971 983 984
f 971 984 972
f 972 984 985
f 972 985 973
f 973 985 986
f 973 986 974
f 974 986 987
f 974 987 975
f 975 987 988
f 975 988 976
f 976 988 989
f 976 989 977
f 977 989 990
f 977 990 978
f 978 990 991
f 978 991 979
f 979 991 992
f 979 992 980
f 980 992 981
f 980 981 969
f 981 993 994
f 981 994 982
f 982 994 995
f 982 995 983
f 983 995 996
f 983 996 984
f 984 996 997
f 984 997 985
f 985 997 998
f 985 998 986
f 986 998 999
f 986 999 987
f 987 999 1000
f 987 1000 988
f 988 1000 1001
f 988 1001 989
f 989 1001 1002
f 989 1002 990
f 990 1002 1003
f 990 1003 991
f 991 1003 1004
f 991 1004 992
f 992 1004 993
f 992 993 981
f 993 1005 1006
f 993 1006 994
f 994 1006 1007
f 994 1007 995
f 995 1007 1008
f 995 1008 996
f 996 1008 1009
f 996 1009 997
f 997 1009 1010
f 997 1010 998
f 998 1010 1011
f 998 1011 999
f 999 1011 1012
f 999 1012 1000
f 1000 1012 1013
f 1000 1013 1001
f 1001 1013 1014
f 1001 1014 1002
f 1002 1014 1015
f 1002 1015 1003
f 1003 1015 1016
f 1003 1016 1004
f 1004 1016 1005
f 1004 1005 993
f 1005 1017 1018
f 1005 1018 1006
f 1006 1018 1019
f 1006 1019 1007
f 1007 1019 1020
f 1007 1020 1008
f 1008 1020 1021
f 1008 1021 1009
f 1009 1021 1022
f 1009 1022 1010
f 1010 1022 1023
f 1010 1023 1011
f 1011 1023 1024
f 1011 1024 1012
f 1012 1024 1025
f 1012 1025 1013
f 1013 1025 1026
f 1013 1026 1014
f 1014 1026 1027
f 1014 1027 1015
f 1015 1027 1028
f 1015 1028 1016
f 1016 1028 1017
f 1016 1017 1005
f 1017 1029 1030
f 1017 1030 1018
f 1018 1030 1031
f 1018 1031 1019
f 1019 1031 1032
f 1019 1032 1020
f 1020 1032 1033
f 1020 1033 1021
f 1021 1033 1034
f 1021 1034 1022
f 1022 1034 1035
f 1022 1035 1023
f 1023 1035 1036
f 1023 1036 1024
f 1024 1036 1037
f 1024 1037 1025
f 1025 1037 1038
f 1025 1038 1026
f 1026 1038 1039
f 1026 1039 1027
f 1027 1039 1040
f 1027 1040 1028
f 1028 1040 1029
f 1028 1029 1017
f 1029 1041 1042
f 1029 1042 1030
f 1030 1042 1043
f 1030 1043 1031
f 1031 1043 1044
f 1031 1044 1032
f 1032 1044 1045
f 1032 1045 1033
f 1033 1045 1046
f 1033 1046 1034
f 1034 1046 1047
f 1034 1047 1035
f 1035 1047 1048
f 1035 1048 1036
f 1036 1048 1049
f 1036 1049 1037
f 1037 1049 1050
f 1037 1050 1038
f 1038 1050 1051
f 1038 1051 1039
f 1039 1051 1052
f 1039 1052 1040
f 1040 1052 1041
f 1040 1041 1029
f 1041 1053 1054
f 1041 1054 1042
f 1042 1054 1055
f 1042 1055 1043
f 1043 1055 1056
f 1043 1056 1044
f 1044 1056 1057
f 1044 1057 1045
f 1045 1057 1058
f 1045 1058 1046
f 1046 1058 1059
f 1046 1059 1047
f 1047 1059 1060
f 1047 1060 1048
f 1048 1060 1061
f 1048 1061 1049
f 1049 1061 1062
f 1049 1062 1050
f 1050 1062 1063
f 1050 1063 1051
f 1051 1063 1064
f 1051 1064 1052
f 1052 1064 1053
f 1052 1053 1041
f 1053 1065 1066
f 1053 1066 1054
f 1054 1066 1067
f 1054 1067 1055
f 1055 1067 1068
f 1055 1068 1056
f 1056 1068 1069
f 1056 1069 1057
f 1057 1069 1070
f 1057 1070 1058
f 1058 1070 1071
f 1058 1071 1059
f 1059 1071 1072
f 1059 1072 1060
f 1060 1072 1073
f 1060 1073 1061
f 1061 1073 1074
f 1061 1074 1062
f 1062 1074 1075
f 1062 1075 1063
f 1063 1075 1076
f 1063 1076 1064
f 1064 1076 1065
f 1064 1065 1053
f 1065 1077 1078
f 1065 1078 1066
f 1066 1078 1079
f 1066 1079 1067
f 1067 1079 1080
f 1067 1080 1068
f 1068 1080 1081
f 1068 1081 1069
f 1069 1081 1082
f 1069 1082 1070
f 1070 1082 1083
f 1070 1083 1071
f 1071 1083 1084
f 1071 1084 1072
f 1072 1084 1085
f 1072 1085 1073
f 1073 1085 1086
f 1073 1086 1074
f 1074 1086 1087
f 1074 1087 1075
f 1075 1087 1088
f 1075 1088 1076
f 1076 1088 1077
f 1076 1077 1065
f 1077 1089 1090
f 1077 1090 1078
f 1078 1090 1091
f 1078 1091 1079
f 1079 1091 1092
f 1079 1092 1080
f 1080 1092 1093
f 1080 1093 1081
f 1081 1093 1094
f 1081 1094 1082
f 1082 1094 1095
f 1082 1095 1083
f 1083 1095 1096
f 1083 1096 1084
f 1084 1096 1097
f 1084 1097 1085
f 1085 1097 1098
f 1085 1098 1086
f 1086 1098 1099
f 1086 1099 1087
f 1087 1099 1100
f 1087 1100 1088
f 1088 1100 1089
f 1088 1089 1077
f 1089 1101 1102
f 1089 1102 1090
f 1090 1102 1103
f 1090 1103 1091
f 1091 1103 1104
f 1091 1104 1092
f 1092 1104 1105
f 1092 1105 1093
f 1093 1105 1106
f 1093 1106 1094
f 1094 1106 1107
f 1094 1107 1095
f 1095 1107 1108
f 1095 1108 1096
f 1096 1108 1109
f 1096 1109 1097
f 1097 1109 1110
f 1097 1110 1098
f 1098 1110 1111
f 1098 1111 1099
f 1099 1111 1112
f 1099 1112 1100
f 1100 1112 1101
f 1100 1101 1089
f 1101 1113 1114
f 1101 1114 1102
f 1102 1114 1115
f 1102 1115 1103
f 1103 1115 1116
f 1103 1116 1104
f 1104 1116 1117
f 1104 1117 1105
f 1105 1117 1118
f 1105 1118 1106
f 1106 1118 1119
f 1106 1119 1107
f 1107 1119 1120
f 1107 1120 1108
f 1108 1120 1121
f 1108 1121 1109
f 1109 1121 1122
f 1109 1122 1110
f 1110 1122 1123
f 1110 1123 1111
f 1111 1123 1124
f 1111 1124 1112
f 1112 1124 1113
f 1112 1113 1101
f 1113 1125 1126
f 1113 1126 1114
f 1114 1126 1127
f 1114 1127 1115
f 1115 1127 1128
f 1115 1128 1116
f 1116 1128 1129
f 1116 1129 1117
f 1117 1129 1130
f 1117 1130 1118
f 1118 1130 1131
f 1118 1131 1119
f 1119 1131 1132
f 1119 1132 1120
f 1120 1132 1133
f 1120 1133 1121
f 1121 1133 1134
f 1121 1134 1122
f 1122 1134 1135
f 1122 1135 1123
f 1123 1135 1136
f 1123 1136 1124
f 1124 1136 1125
f 1124 1125 1113
f 1125 1137 1138
f 1125 1138 1126
f 1126 1138 1139
f 1126 1139 1127
f 1127 1139 1140
f 1127 1140 1128
f 1128 1140 1141
f 1128 1141 1129
f 1129 1141 1142
f 1129 1142 1130
f 1130 1142 1143
f 1130 1143 1131
f 1131 1143 1144
f 1131 1144 1132
f 1132 1144 1145
f 1132 1145 1133
f 1133 1145 1146
f 1133 1146 1134
f 1134 1146 1147
f 1134 1147 1135
f 1135 1147 1148
f 1135 1148 1136
f 1136 1148 1137
f 1136 1137 1125
f 1137 1149 1150
f 1137 1150 1138
f 1138 1150 1151
f 1138 1151 1139
f 1139 1151 1152
f 1139 1152 1140
f 1140 1152 1153
f 1140 1153 1141
f 1141 1153 1154
f 1141 1154 1142
f 1142 1154 1155
f 1142 1155 1143
f 1143 1155 1156
f 1143 1156 1144
f 1144 1156 1157
f 1144 1157 1145
f 1145 1157 1158
f 1145 1158 1146
f 1146 1158 1159
f 1146 1159 1147
f 1147 1159 1160
f 1147 1160 1148
f 1148 1160 1149
f 1148 1149 1137
f 1149 1161 1162
f 1149 1162 1150
f 1150 1162 1163
f 1150 1163 1151
f 1151 1163 1164
f 1151 1164 1152
f 1152 1164 1165
f 1152 1165 1153
f 1153 1165 1166
f 1153 1166 1154
f 1154 1166 1167
f 1154 1167 1155
f 1155 1167 1168
f 1155 1168 1156
f 1156 1168 1169
f 1156 1169 1157
f 1157 1169 1170
f 1157 1170 1158
f 1158 1170 1171
f 1158 1171 1159
f 1159 1171 1172
f 1159 1172 1160
f 1160 1172 1161
f 1160 1161 1149
f 1161 1173 1174
f 1161 1174 1162
f 1162 1174 1175
f 1162 1175 1163
f 1163 1175 1176
f 1163 1176 1164
f 1164 1176 1177
f 1164 1177 1165
f 1165 1177 1178
f 1165 1178 1166
f 1166 1178 1179
f 1166 1179 1167
f 1167 1179 1180
f 1167 1180 1168
f 1168 1180 1181
f 1168 1181 1169
f 1169 1181 1182
f 1169 1182 1170
f 1170 1182 1183
f 1170 1183 1171
f 1171 1183 1184
f 1171 1184 1172
f 1172 1184 1173
f 1172 1173 1161
f 1173 33 34
f 1173 34 1174
f 1174 34 35
f 1174 35 1175
f 1175 35 36
f 1175 36 1176
f 1176 36 37
f 1176 37 1177
f 1177 37 38
f 1177 38 1178
f 1178 38 39
f 1178 39 1179
f 1179 39 40
f 1179 40 1180
f 1180 40 41
f 1180 41 1181
f 1181 41 42
f 1181 42 1182
f 1182 42 43
f 1182 43 1183
f 1183 43 44
f 1183 44 1184
f 1184 44 33
f 1184 33 1173
v -0.9174154 0.0000000 0.5854349
v -0.9517150 0.0000000 0.6060147
v -0.9185903 -0.0114805 0.5834767
v -0.9528899 -0.0114805 0.6040565
v -0.9219362 -0.0212132 0.5779002
v -0.9562358 -0.0212132 0.5984800
v -0.9269435 -0.0277164 0.5695545
v -0.9612432 -0.0277164 0.5901343
v -0.9328502 -0.0300000 0.5597101
v -0.9671499 -0.0300000 0.5802899
v -0.9387569 -0.0277164 0.5498657
v -0.9730566 -0.0277164 0.5704455
v -0.9437643 -0.0212132 0.5415199
v -0.9780639 -0.0212132 0.5620998
v -0.9471102 -0.0114805 0.5359434
v -0.9814098 -0.0114805 0.5565233
v -0.9482851 0.0000000 0.5339853
v -0.9825847 0.0000000 0.5545651
v -0.9471102 0.0114805 0.5359434
v -0.9814098 0.0114805 0.5565233
v -0.9437643 0.0212132 0.5415199
v -0.9780639 0.0212132 0.5620998
v -0.9387569 0.0277164 0.5498657
v -0.9730566 0.0277164 0.5704455
v -0.9328502 0.0300000 0.5597101
v -0.9671499 0.0300000 0.5802899
v -0.9269435 0.0277164 0.5695545
v -0.9612432 0.0277164 0.5901343
v -0.9219362 0.0212132 0.5779002
v -0.9562358 0.0212132 0.5984800
v -0.9185903 0.0114805 0.5834767
v -0.9528899 0.0114805 0.6040565
f 1185 1186 1188
f 1185 1188 1187
f 1187 1188 1190
f 1187 1190 1189
f 1189 1190 1192
f 1189 1192 1191
f 1191 1192 1194
f 1191 1194 1193
f 1193 1194 1196
f 1193 1196 1195
f 1195 1196 1198
f 1195 1198 1197
f 1197 1198 1200
f 1197 1200 1199
f 1199 1200 1202
f 1199 1202 1201
f 1201 1202 1204
f 1201 1204 1203
f 1203 1204 1206
f 1203 1206 1205
f 1205 1206 1208
f 1205 1208 1207
f 1207 1208 1210
f 1207 1210 1209
f 1209 1210 1212
f 1209 1212 1211
f 1211 1212 1214
f 1211 1214 1213
f 1190 1188 1186
f 1186 1216 1214
f 1214 1212 1210
f 1210 1208 1206
f 1206 1204 1202
f 1202 1200 1198
f 1198 1196 1194
f 1194 1192 1190
f 1190 1186 1214
f 1214 1210 1206
f 1206 1202 1198
f 1198 1194 1190
f 1190 1214 1206
f 1206 1198 1190
f 1213 1214 1216
f 1213 1216 1215
f 1215 1216 1186
f 1215 1186 1185
f 1215 1185 1187
f 1187 1189 1191
f 1191 1193 1195
f 1195 1197 1199
f 1199 1201 1203
f 1203 1205 1207
f 1207 1209 1211
f 1211 1213 1215
f 1215 1187 1191
f 1191 1195 1199
f 1199 1203 1207
f 1207 1211 1215
f 1215 1191 1199
f 1199 1207 1215
v -0.9631133 -0.0218554 0.5613177
v -1.0314624 -0.1357707 0.4474023
v -0.9595768 -0.0233994 0.5607398
v -1.0279261 -0.1373147 0.4468245
v -0.9560690 -0.0238586 0.5590943
v -1.0244181 -0.1377739 0.4451789
v -0.9531237 -0.0231630 0.5566315
v -1.0214728 -0.1370783 0.4427162
v -0.9511893 -0.0214186 0.5537265
v -1.0195384 -0.1353339 0.4398111
v -0.9505605 -0.0188909 0.5508214
v -1.0189096 -0.1328062 0.4369060
v -0.9513327 -0.0159647 0.5483586
v -1.0196818 -0.1298800 0.4344433
v -0.9533886 -0.0130856 0.5467131
v -1.0217377 -0.1270009 0.4327977
v -0.9564152 -0.0106918 0.5461352
v -1.0247643 -0.1246071 0.4322198
v -0.9599515 -0.0091478 0.5467131
v -1.0283008 -0.1230631 0.4327977
v -0.9634595 -0.0086887 0.5483586
v -1.0318086 -0.1226040 0.4344433
v -0.9664048 -0.0093842 0.5508214
v -1.0347539 -0.1232996 0.4369060
v -0.9683392 -0.0111287 0.5537265
v -1.0366883 -0.1250440 0.4398111
v -0.9689680 -0.0136563 0.5566315
v -1.0373172 -0.1275717 0.4427162
v -0.9681958 -0.0165825 0.5590943
v -1.0365449 -0.1304978 0.4451789
v -0.9661399 -0.0194616 0.5607398
v -1.0344890 -0.1333770 0.4468245
f 1217 1218 1220
f 1217 1220 1219
f 1219 1220 1222
f 1219 1222 1221
f 1221 1222 1224
f 1221 1224 1223
f 1223 1224 1226
f 1223 1226 1225
f 1225 1226 1228
f 1225 1228 1227
f 1227 1228 1230
f 1227 1230 1229
f 1229 1230 1232
f 1229 1232 1231
f 1231 1232 1234
f 1231 1234 1233
f 1233 1234 1236
f 1233 1236 1235
f 1235 1236 1238
f 1235 1238 1237
f 1237 1238 1240
f 1237 1240 1239
f 1239 1240 1242
f 1239 1242 1241
f 1241 1242 1244
f 1241 1244 1243
f 1243 1244 1246
f 1243 1246 1245
f 1222 1220 1218
f 1218 1248 1246
f 1246 1244 1242
f 1242 1240 1238
f 1238 1236 1234
f 1234 1232 1230
f 1230 1228 1226
f 1226 1224 1222
f 1222 1218 1246
f 1246 1242 1238
f 1238 1234 1230
f 1230 1226 1222
f 1222 1246 1238
f 1238 1230 1222
f 1245 1246 1248
f 1245 1248 1247
f 1247 1248 1218
f 1247 1218 1217
f 1247 1217 1219
f 1219 1221 1223
f 1223 1225 1227
f 1227 1229 1231
f 1231 1233 1235
f 1235 1237 1239
f 1239 1241 1243
f 1243 1245 1247
f 1247 1219 1223
f 1223 1227 1231
f 1231 1235 1239
f 1239 1243 1247
f 1247 1223 1231
f 1231 1239 1247
v -0.9438804 -0.0138712 0.5922517
v -0.8852714 -0.1467182 0.6899332
v -0.9402077 -0.0127153 0.5916201
v -0.8815987 -0.1455623 0.6893017
v -0.9367511 -0.0125128 0.5898215
v -0.8781421 -0.1453598 0.6875030
v -0.9340369 -0.0132946 0.5871297
v -0.8754278 -0.1461416 0.6848113
v -0.9324782 -0.0149417 0.5839545
v -0.8738692 -0.1477887 0.6816360
v -0.9323125 -0.0172033 0.5807793
v -0.8737035 -0.1500503 0.6784609
v -0.9335648 -0.0197351 0.5780875
v -0.8749558 -0.1525820 0.6757690
v -0.9360446 -0.0221516 0.5762889
v -0.8774356 -0.1549986 0.6739704
v -0.9393743 -0.0240850 0.5756573
v -0.8807653 -0.1569320 0.6733388
v -0.9430470 -0.0252409 0.5762889
v -0.8844380 -0.1580879 0.6739704
v -0.9465036 -0.0254434 0.5780875
v -0.8878946 -0.1582904 0.6757690
v -0.9492179 -0.0246616 0.5807793
v -0.8906089 -0.1575086 0.6784609
v -0.9507766 -0.0230145 0.5839545
v -0.8921676 -0.1558615 0.6816360
v -0.9509423 -0.0207529 0.5871297
v -0.8923333 -0.1535999 0.6848113
v -0.9496900 -0.0182212 0.5898215
v -0.8910810 -0.1510681 0.6875030
v -0.9472102 -0.0158046 0.5916201
v -0.8886012 -0.1486516 0.6893017
f 1249 1250 1252
f 1249 1252 1251
f 1251 1252 1254
f 1251 1254 1253
f 1253 1254 1256
f 1253 1256 1255
f 1255 1256 1258
f 1255 1258 1257
f 1257 1258 1260
f 1257 1260 1259
f 1259 1260 1262
f 1259 1262 1261
f 1261 1262 1264
f 1261 1264 1263
f 1263 1264 1266
f 1263 1266 1265
f 1265 1266 1268
f 1265 1268 1267
f 1267 1268 1270
f 1267 1270 1269
f 1269 1270 1272
f 1269 1272 1271
f 1271 1272 1274
f 1271 1274 1273
f 1273 1274 1276
f 1273 1276 1275
f 1275 1276 1278
f 1275 1278 1277
f 1254 1252 1250
f 1250 1280 1278
f 1278 1276 1274
f 1274 1272 1270
f 1270 1268 1266
f 1266 1264 1262
f 1262 1260 1258
f 1258 1256 1254
f 1254 1250 1278
f 1278 1274 1270
f 1270 1266 1262
f 1262 1258 1254
f 1254 1278 1270
f 1270 1262 1254
f 1277 1278 1280
f 1277 1280 1279
f 1279 1280 1250
f 1279 1250 1249
f 1279 1249 1251
f 1251 1253 1255
f 1255 1257 1259
f 1259 1261 1263
f 1263 1265 1267
f 1267 1269 1271
f 1271 1273 1275
f 1275 1277 1279
f 1279 1251 1255
f 1255 1259 1263
f 1263 1267 1271
f 1271 1275 1279
f 1279 1255 1263
f 1263 1271 1279
v -0.9435849 0.0106918 0.5938649
v -0.8752358 0.1246071 0.7077802
v -0.9466115 0.0130856 0.5932869
v -0.8782624 0.1270009 0.7072023
v -0.9486674 0.0159647 0.5916414
v -0.8803183 0.1298800 0.7055567
v -0.9494396 0.0188909 0.5891786
v -0.8810905 0.1328062 0.7030939
v -0.9488108 0.0214186 0.5862736
v -0.8804617 0.1353339 0.7001889
v -0.9468764 0.0231630 0.5833685
v -0.8785273 0.1370783 0.6972838
v -0.9439311 0.0238586 0.5809057
v -0.8755820 0.1377739 0.6948211
v -0.9404233 0.0233994 0.5792602
v -0.8720740 0.1373147 0.6931755
v -0.9368868 0.0218554 0.5786822
v -0.8685377 0.1357707 0.6925976
v -0.9338602 0.0194617 0.5792602
v -0.8655111 0.1333770 0.6931755
v -0.9318043 0.0165825 0.5809057
v -0.8634552 0.1304978 0.6948211
v -0.9310321 0.0136564 0.5833685
v -0.8626829 0.1275717 0.6972838
v -0.9316609 0.0111287 0.5862735
v -0.8633118 0.1250440 0.7001888
v -0.9335953 0.0093842 0.5891786
v -0.8652462 0.1232996 0.7030939
v -0.9365406 0.0086887 0.5916414
v -0.8681915 0.1226040 0.7055567
v -0.9400486 0.0091478 0.5932869
v -0.8716993 0.1230631 0.7072023
f 1281 1282 1284
f 1281 1284 1283
f 1283 1284 1286
f 1283 1286 1285
f 1285 1286 1288
f 1285 1288 1287
f 1287 1288 1290
f 1287 1290 1289
f 1289 1290 1292
f 1289 1292 1291
f 1291 1292 1294
f 1291 1294 1293
f 1293 1294 1296
f 1293 1296 1295
f 1295 1296 1298
f 1295 1298 1297
f 1297 1298 1300
f 1297 1300 1299
f 1299 1300 1302
f 1299 1302 1301
f 1301 1302 1304
f 1301 1304 1303
f 1303 1304 1306
f 1303 1306 1305
f 1305 1306 1308
f 1305 1308 1307
f 1307 1308 1310
f 1307 1310 1309
f 1286 1284 1282
f 1282 1312 1310
f 1310 1308 1306
f 1306 1304 1302
f 1302 1300 1298
f 1298 1296 1294
f 1294 1292 1290
f 1290 1288 1286
f 1286 1282 1310
f 1310 1306 1302
f 1302 1298 1294
f 1294 1290 1286
f 1286 1310 1302
f 1302 1294 1286
f 1309 1310 1312
f 1309 1312 1311
f 1311 1312 1282
f 1311 1282 1281
f 1311 1281 1283
f 1283 1285 1287
f 1287 1289 1291
f 1291 1293 1295
f 1295 1297 1299
f 1299 1301 1303
f 1303 1305 1307
f 1307 1309 1311
f 1311 1283 1287
f 1287 1291 1295
f 1295 1299 1303
f 1303 1307 1311
f 1311 1287 1295
f 1295 1303 1311
v -0.9606258 0.0240850 0.5643427
v -1.0192348 0.1569320 0.4666612
v -0.9639555 0.0221516 0.5637111
v -1.0225645 0.1549985 0.4660296
v -0.9664353 0.0197351 0.5619125
v -1.0250443 0.1525820 0.4642310
v -0.9676876 0.0172033 0.5592207
v -1.0262966 0.1500502 0.4615392
v -0.9675219 0.0149417 0.5560455
v -1.0261309 0.1477887 0.4583640
v -0.9659632 0.0132947 0.5528702
v -1.0245723 0.1461416 0.4551887
v -0.9632490 0.0125128 0.5501785
v -1.0218580 0.1453598 0.4524969
v -0.9597924 0.0127153 0.5483798
v -1.0184014 0.1455622 0.4506983
v -0.9561197 0.0138712 0.5477483
v -1.0147287 0.1467182 0.4500667
v -0.9527899 0.0158046 0.5483798
v -1.0113989 0.1486516 0.4506983
v -0.9503101 0.0182212 0.5501785
v -1.0089191 0.1510681 0.4524969
v -0.9490578 0.0207530 0.5528702
v -1.0076668 0.1535999 0.4551887
v -0.9492235 0.0230145 0.5560455
v -1.0078325 0.1558615 0.4583640
v -0.9507822 0.0246616 0.5592207
v -1.0093912 0.1575085 0.4615392
v -0.9534965 0.0254434 0.5619125
v -1.0121055 0.1582904 0.4642310
v -0.9569530 0.0252409 0.5637111
v -1.0155621 0.1580879 0.4660296
f 1313 1314 1316
f 1313 1316 1315
f 1315 1316 1318
f 1315 1318 1317
f 1317 1318 1320
f 1317 1320 1319
f 1319 1320 1322
f 1319 1322 1321
f 1321 1322 1324
f 1321 1324 1323
f 1323 1324 1326
f 1323 1326 1325
f 1325 1326 1328
f 1325 1328 1327
f 1327 1328 1330
f 1327 1330 1329
f 1329 1330 1332
f 1329 1332 1331
f 1331 1332 1334
f 1331 1334 1333
f 1333 1334 1336
f 1333 1336 1335
f 1335 1336 1338
f 1335 1338 1337
f 1337 1338 1340
f 1337 1340 1339
f 1339 1340 1342
f 1339 1342 1341
f 1318 1316 1314
f 1314 1344 1342
f 1342 1340 1338
f 1338 1336 1334
f 1334 1332 1330
f 1330 1328 1326
f 1326 1324 1322
f 1322 1320 1318
f 1318 1314 1342
f 1342 1338 1334
f 1334 1330 1326
f 1326 1322 1318
f 1318 1342 1334
f 1334 1326 1318
f 1341 1342 1344
f 1341 1344 1343
f 1343 1344 1314
f 1343 1314 1313
f 1343 1313 1315
f 1315 1317 1319
f 1319 1321 1323
f 1323 1325 1327
f 1327 1329 1331
f 1331 1333 1335
f 1335 1337 1339
f 1339 1341 1343
f 1343 1315 1319
f 1319 1323 1327
f 1327 1331 1335
f 1335 1339 1343
f 1343 1319 1327
f 1327 1335 1343
