v 0.0000000 0.0000000 0.0110001
v 0.0000000 -0.6683352 0.0110000
v 0.0042095 0.0000000 0.0101627
v 0.0042095 -0.6683352 0.0101626
v 0.0077782 0.0000000 0.0077782
v 0.0077782 -0.6683352 0.0077781
v 0.0101627 0.0000000 0.0042096
v 0.0101627 -0.6683352 0.0042095
v 0.0110000 0.0000000 0.0000000
v 0.0110000 -0.6683352 -0.0000000
v 0.0101627 0.0000000 -0.0042095
v 0.0101627 -0.6683352 -0.0042096
v 0.0077782 0.0000000 -0.0077781
v 0.0077782 -0.6683352 -0.0077782
v 0.0042095 0.0000000 -0.0101626
v 0.0042095 -0.6683352 -0.0101627
v 0.0000000 0.0000000 -0.0110000
v 0.0000000 -0.6683352 -0.0110000
v -0.0042095 0.0000000 -0.0101626
v -0.0042095 -0.6683352 -0.0101627
v -0.0077782 0.0000000 -0.0077781
v -0.0077782 -0.6683352 -0.0077782
v -0.0101627 0.0000000 -0.0042095
v -0.0101627 -0.6683352 -0.0042096
v -0.0110000 0.0000000 0.0000000
v -0.0110000 -0.6683352 -0.0000000
v -0.0101627 0.0000000 0.0042096
v -0.0101627 -0.6683352 0.0042095
v -0.0077782 0.0000000 0.0077782
v -0.0077782 -0.6683352 0.0077781
v -0.0042095 0.0000000 0.0101627
v -0.0042095 -0.6683352 0.0101626
f 1 2 4
f 1 4 3
f 3 4 6
f 3 6 5
f 5 6 8
f 5 8 7
f 7 8 10
f 7 10 9
f 9 10 12
f 9 12 11
f 11 12 14
f 11 14 13
f 13 14 16
f 13 16 15
f 15 16 18
f 15 18 17
f 17 18 20
f 17 20 19
f 19 20 22
f 19 22 21
f 21 22 24
f 21 24 23
f 23 24 26
f 23 26 25
f 25 26 28
f 25 28 27
f 27 28 30
f 27 30 29
f 6 4 2
f 2 32 30
f 30 28 26
f 26 24 22
f 22 20 18
f 18 16 14
f 14 12 10
f 10 8 6
f 6 2 30
f 30 26 22
f 22 18 14
f 14 10 6
f 6 30 22
f 22 14 6
f 29 30 32
f 29 32 31
f 31 32 2
f 31 2 1
f 31 1 3
f 3 5 7
f 7 9 11
f 11 13 15
f 15 17 19
f 19 21 23
f 23 25 27
f 27 29 31
f 31 3 7
f 7 11 15
f 15 19 23
f 23 27 31
f 31 7 15
f 15 23 31
