v 0.0000000 -0.0160000 0.0150000
v 0.0000000 -0.0160000 0.8500000
v -0.0061229 -0.0147821 0.0150000
v -0.0061229 -0.0147821 0.8500000
v -0.0113137 -0.0113137 0.0150000
v -0.0113137 -0.0113137 0.8500000
v -0.0147821 -0.0061229 0.0150000
v -0.0147821 -0.0061229 0.8500000
v -0.0160000 -0.0000000 0.0150000
v -0.0160000 -0.0000000 0.8500000
v -0.0147821 0.0061229 0.0150000
v -0.0147821 0.0061229 0.8500000
v -0.0113137 0.0113137 0.0150000
v -0.0113137 0.0113137 0.8500000
v -0.0061229 0.0147821 0.0150000
v -0.0061229 0.0147821 0.8500000
v 0.0000000 0.0160000 0.0150000
v 0.0000000 0.0160000 0.8500000
v 0.0061229 0.0147821 0.0150000
v 0.0061229 0.0147821 0.8500000
v 0.0113137 0.0113137 0.0150000
v 0.0113137 0.0113137 0.8500000
v 0.0147821 0.0061229 0.0150000
v 0.0147821 0.0061229 0.8500000
v 0.0160000 0.0000000 0.0150000
v 0.0160000 0.0000000 0.8500000
v 0.0147821 -0.0061229 0.0150000
v 0.0147821 -0.0061229 0.8500000
v 0.0113137 -0.0113137 0.0150000
v 0.0113137 -0.0113137 0.8500000
v 0.0061229 -0.0147821 0.0150000
v 0.0061229 -0.0147821 0.8500000
f 1 2 4
f 1 4 3
f 3 4 6
f 3 6 5
f 5 6 8
f 5 8 7
f 7 8 10
f 7 10 9
f 9 10 12
f 9 12 11
f 11 12 14
f 11 14 13
f 13 14 16
f 13 16 15
f 15 16 18
f 15 18 17
f 17 18 20
f 17 20 19
f 19 20 22
f 19 22 21
f 21 22 24
f 21 24 23
f 23 24 26
f 23 26 25
f 25 26 28
f 25 28 27
f 27 28 30
f 27 30 29
f 6 4 2
f 2 32 30
f 30 28 26
f 26 24 22
f 22 20 18
f 18 16 14
f 14 12 10
f 10 8 6
f 6 2 30
f 30 26 22
f 22 18 14
f 14 10 6
f 6 30 22
f 22 14 6
f 29 30 32
f 29 32 31
f 31 32 2
f 31 2 1
f 31 1 3
f 3 5 7
f 7 9 11
f 11 13 15
f 15 17 19
f 19 21 23
f 23 25 27
f 27 29 31
f 31 3 7
f 7 11 15
f 15 19 23
f 23 27 31
f 31 7 15
f 15 23 31
v 0.0000000 0.0000000 0.0260000
v 0.0000000 -0.1000000 0.0260000
v 0.0042095 0.0000000 0.0251627
v 0.0042095 -0.1000000 0.0251627
v 0.0077782 0.0000000 0.0227782
v 0.0077782 -0.1000000 0.0227782
v 0.0101627 0.0000000 0.0192095
v 0.0101627 -0.1000000 0.0192095
v 0.0110000 0.0000000 0.0150000
v 0.0110000 -0.1000000 0.0150000
v 0.0101627 0.0000000 0.0107905
v 0.0101627 -0.1000000 0.0107905
v 0.0077782 0.0000000 0.0072218
v 0.0077782 -0.1000000 0.0072218
v 0.0042095 0.0000000 0.0048373
v 0.0042095 -0.1000000 0.0048373
v 0.0000000 0.0000000 0.0040000
v 0.0000000 -0.1000000 0.0040000
v -0.0042095 0.0000000 0.0048373
v -0.0042095 -0.1000000 0.0048373
v -0.0077782 0.0000000 0.0072218
v -0.0077782 -0.1000000 0.0072218
v -0.0101627 0.0000000 0.0107905
v -0.0101627 -0.1000000 0.0107905
v -0.0110000 0.0000000 0.0150000
v -0.0110000 -0.1000000 0.0150000
v -0.0101627 0.0000000 0.0192095
v -0.0101627 -0.1000000 0.0192095
v -0.0077782 0.0000000 0.0227782
v -0.0077782 -0.1000000 0.0227782
v -0.0042095 0.0000000 0.0251627
v -0.0042095 -0.1000000 0.0251627
f 33 34 36
f 33 36 35
f 35 36 38
f 35 38 37
f 37 38 40
f 37 40 39
f 39 40 42
f 39 42 41
f 41 42 44
f 41 44 43
f 43 44 46
f 43 46 45
f 45 46 48
f 45 48 47
f 47 48 50
f 47 50 49
f 49 50 52
f 49 52 51
f 51 52 54
f 51 54 53
f 53 54 56
f 53 56 55
f 55 56 58
f 55 58 57
f 57 58 60
f 57 60 59
f 59 60 62
f 59 62 61
f 38 36 34
f 34 64 62
f 62 60 58
f 58 56 54
f 54 52 50
f 50 48 46
f 46 44 42
f 42 40 38
f 38 34 62
f 62 58 54
f 54 50 46
f 46 42 38
f 38 62 54
f 54 46 38
f 61 62 64
f 61 64 63
f 63 64 34
f 63 34 33
f 63 33 35
f 35 37 39
f 39 41 43
f 43 45 47
f 47 49 51
f 51 53 55
f 55 57 59
f 59 61 63
f 63 35 39
f 39 43 47
f 47 51 55
f 55 59 63
f 63 39 47
f 47 55 63
v 0.0000000 -0.0920000 0.0150000
v 0.0000000 -0.0920000 -0.0280000
v -0.0030615 -0.0926090 0.0150000
v -0.0030615 -0.0926090 -0.0280000
v -0.0056568 -0.0943431 0.0150000
v -0.0056568 -0.0943431 -0.0280000
v -0.0073910 -0.0969385 0.0150000
v -0.0073910 -0.0969385 -0.0280000
v -0.0080000 -0.1000000 0.0150000
v -0.0080000 -0.1000000 -0.0280000
v -0.0073910 -0.1030615 0.0150000
v -0.0073910 -0.1030615 -0.0280000
v -0.0056568 -0.1056569 0.0150000
v -0.0056568 -0.1056569 -0.0280000
v -0.0030615 -0.1073910 0.0150000
v -0.0030615 -0.1073910 -0.0280000
v 0.0000000 -0.1080000 0.0150000
v 0.0000000 -0.1080000 -0.0280000
v 0.0030615 -0.1073910 0.0150000
v 0.0030615 -0.1073910 -0.0280000
v 0.0056568 -0.1056569 0.0150000
v 0.0056568 -0.1056569 -0.0280000
v 0.0073910 -0.1030615 0.0150000
v 0.0073910 -0.1030615 -0.0280000
v 0.0080000 -0.1000000 0.0150000
v 0.0080000 -0.1000000 -0.0280000
v 0.0073910 -0.0969385 0.0150000
v 0.0073910 -0.0969385 -0.0280000
v 0.0056568 -0.0943431 0.0150000
v 0.0056568 -0.0943431 -0.0280000
v 0.0030615 -0.0926090 0.0150000
v 0.0030615 -0.0926090 -0.0280000
f 65 66 68
f 65 68 67
f 67 68 70
f 67 70 69
f 69 70 72
f 69 72 71
f 71 72 74
f 71 74 73
f 73 74 76
f 73 76 75
f 75 76 78
f 75 78 77
f 77 78 80
f 77 80 79
f 79 80 82
f 79 82 81
f 81 82 84
f 81 84 83
f 83 84 86
f 83 86 85
f 85 86 88
f 85 88 87
f 87 88 90
f 87 90 89
f 89 90 92
f 89 92 91
f 91 92 94
f 91 94 93
f 70 68 66
f 66 96 94
f 94 92 90
f 90 88 86
f 86 84 82
f 82 80 78
f 78 76 74
f 74 72 70
f 70 66 94
f 94 90 86
f 86 82 78
f 78 74 70
f 70 94 86
f 86 78 70
f 93 94 96
f 93 96 95
f 95 96 66
f 95 66 65
f 95 65 67
f 67 69 71
f 71 73 75
f 75 77 79
f 79 81 83
f 83 85 87
f 87 89 91
f 91 93 95
f 95 67 71
f 71 75 79
f 79 83 87
f 87 91 95
f 95 71 79
f 79 87 95
v 0.1410000 0.0000000 0.8500000
v 0.1395263 0.0000000 0.8554999
v 0.1355000 0.0000000 0.8595262
v 0.1299999 0.0000000 0.8610000
v 0.1245000 0.0000000 0.8595262
v 0.1204737 0.0000000 0.8554999
v 0.1190000 0.0000000 0.8500000
v 0.1204737 0.0000000 0.8445000
v 0.1245000 0.0000000 0.8404737
v 0.1299999 0.0000000 0.8389999
v 0.1355000 0.0000000 0.8404737
v 0.1395263 0.0000000 0.8445000
v 0.1406981 0.0092219 0.8500000
v 0.1392276 0.0091255 0.8554999
v 0.1352099 0.0088621 0.8595262
v 0.1297217 0.0085024 0.8610000
v 0.1242334 0.0081427 0.8595262
v 0.1202157 0.0078794 0.8554999
v 0.1187451 0.0077830 0.8500000
v 0.1202157 0.0078794 0.8445000
v 0.1242334 0.0081427 0.8404737
v 0.1297217 0.0085024 0.8389999
v 0.1352099 0.0088621 0.8404737
v 0.1392276 0.0091255 0.8445000
v 0.1397937 0.0184042 0.8500000
v 0.1383327 0.0182118 0.8554999
v 0.1343408 0.0176863 0.8595262
v 0.1288878 0.0169684 0.8610000
v 0.1234348 0.0162505 0.8595262
v 0.1194430 0.0157250 0.8554999
v 0.1179820 0.0155326 0.8500000
v 0.1194430 0.0157250 0.8445000
v 0.1234348 0.0162505 0.8404737
v 0.1288878 0.0169684 0.8389999
v 0.1343408 0.0176863 0.8404737
v 0.1383327 0.0182118 0.8445000
v 0.1382907 0.0275077 0.8500000
v 0.1368453 0.0272202 0.8554999
v 0.1328964 0.0264347 0.8595262
v 0.1275020 0.0253618 0.8610000
v 0.1221078 0.0242888 0.8595262
v 0.1181589 0.0235033 0.8554999
v 0.1167135 0.0232158 0.8500000
v 0.1181589 0.0235033 0.8445000
v 0.1221078 0.0242888 0.8404737
v 0.1275020 0.0253618 0.8389999
v 0.1328964 0.0264347 0.8404737
v 0.1368453 0.0272202 0.8445000
v 0.1361955 0.0364935 0.8500000
v 0.1347720 0.0361120 0.8554999
v 0.1308829 0.0350700 0.8595262
v 0.1255704 0.0336465 0.8610000
v 0.1202578 0.0322230 0.8595262
v 0.1163687 0.0311809 0.8554999
v 0.1149451 0.0307995 0.8500000
v 0.1163687 0.0311809 0.8445000
v 0.1202578 0.0322230 0.8404737
v 0.1255704 0.0336465 0.8389999
v 0.1308829 0.0350700 0.8404737
v 0.1347720 0.0361120 0.8445000
v 0.1335171 0.0453230 0.8500000
v 0.1321216 0.0448493 0.8554999
v 0.1283091 0.0435551 0.8595262
v 0.1231009 0.0417871 0.8610000
v 0.1178928 0.0400192 0.8595262
v 0.1140801 0.0387250 0.8554999
v 0.1126847 0.0382513 0.8500000
v 0.1140801 0.0387250 0.8445000
v 0.1178928 0.0400192 0.8404737
v 0.1231009 0.0417871 0.8389999
v 0.1283091 0.0435551 0.8404737
v 0.1321216 0.0448493 0.8445000
v 0.1302670 0.0539584 0.8500000
v 0.1289055 0.0533944 0.8554999
v 0.1251857 0.0518536 0.8595262
v 0.1201044 0.0497488 0.8610000
v 0.1150230 0.0476441 0.8595262
v 0.1113032 0.0461033 0.8554999
v 0.1099417 0.0455393 0.8500000
v 0.1113032 0.0461033 0.8445000
v 0.1150230 0.0476441 0.8404737
v 0.1201044 0.0497488 0.8389999
v 0.1251857 0.0518536 0.8404737
v 0.1289055 0.0533944 0.8445000
v 0.1264591 0.0623627 0.8500000
v 0.1251373 0.0617109 0.8554999
v 0.1215263 0.0599301 0.8595262
v 0.1165934 0.0574975 0.8610000
v 0.1116607 0.0550649 0.8595262
v 0.1080496 0.0532842 0.8554999
v 0.1067279 0.0526324 0.8500000
v 0.1080496 0.0532842 0.8445000
v 0.1116607 0.0550649 0.8404737
v 0.1165934 0.0574975 0.8389999
v 0.1215263 0.0599301 0.8404737
v 0.1251373 0.0617109 0.8445000
v 0.1221096 0.0705000 0.8500000
v 0.1208333 0.0697632 0.8554999
v 0.1173465 0.0677500 0.8595262
v 0.1125833 0.0650000 0.8610000
v 0.1078201 0.0622500 0.8595262
v 0.1043333 0.0602369 0.8554999
v 0.1030570 0.0595000 0.8500000
v 0.1043333 0.0602369 0.8445000
v 0.1078201 0.0622500 0.8404737
v 0.1125833 0.0650000 0.8389999
v 0.1173465 0.0677500 0.8404737
v 0.1208333 0.0697632 0.8445000
v 0.1172373 0.0783354 0.8500000
v 0.1160119 0.0775166 0.8554999
v 0.1126642 0.0752798 0.8595262
v 0.1080911 0.0722241 0.8610000
v 0.1035179 0.0691685 0.8595262
v 0.1001702 0.0669316 0.8554999
v 0.0989448 0.0661129 0.8500000
v 0.1001702 0.0669316 0.8445000
v 0.1035179 0.0691685 0.8404737
v 0.1080911 0.0722241 0.8389999
v 0.1126642 0.0752798 0.8404737
v 0.1160119 0.0775166 0.8445000
v 0.1118628 0.0858353 0.8500000
v 0.1106936 0.0849382 0.8554999
v 0.1074994 0.0824872 0.8595262
v 0.1031359 0.0791390 0.8610000
v 0.0987725 0.0757908 0.8595262
v 0.0955783 0.0733397 0.8554999
v 0.0944090 0.0724426 0.8500000
v 0.0955783 0.0733397 0.8445000
v 0.0987725 0.0757908 0.8404737
v 0.1031359 0.0791390 0.8389999
v 0.1074994 0.0824872 0.8404737
v 0.1106936 0.0849382 0.8445000
v 0.1060094 0.0929678 0.8500000
v 0.1049014 0.0919961 0.8554999
v 0.1018743 0.0893414 0.8595262
v 0.0977392 0.0857150 0.8610000
v 0.0936040 0.0820885 0.8595262
v 0.0905769 0.0794338 0.8554999
v 0.0894689 0.0784621 0.8500000
v 0.0905769 0.0794338 0.8445000
v 0.0936040 0.0820885 0.8404737
v 0.0977392 0.0857150 0.8389999
v 0.1018743 0.0893414 0.8404737
v 0.1049014 0.0919961 0.8445000
v 0.0997021 0.0997021 0.8500000
v 0.0986599 0.0986600 0.8554999
v 0.0958130 0.0958130 0.8595262
v 0.0919239 0.0919239 0.8610000
v 0.0880348 0.0880348 0.8595262
v 0.0851877 0.0851878 0.8554999
v 0.0841457 0.0841457 0.8500000
v 0.0851877 0.0851878 0.8445000
v 0.0880348 0.0880348 0.8404737
v 0.0919239 0.0919239 0.8389999
v 0.0958130 0.0958130 0.8404737
v 0.0986599 0.0986600 0.8445000
v 0.0929678 0.1060094 0.8500000
v 0.0919960 0.1049014 0.8554999
v 0.0893413 0.1018743 0.8595262
v 0.0857150 0.0977392 0.8610000
v 0.0820885 0.0936040 0.8595262
v 0.0794339 0.0905769 0.8554999
v 0.0784622 0.0894689 0.8500000
v 0.0794339 0.0905769 0.8445000
v 0.0820885 0.0936040 0.8404737
v 0.0857150 0.0977392 0.8389999
v 0.0893413 0.1018743 0.8404737
v 0.0919960 0.1049014 0.8445000
v 0.0858354 0.1118628 0.8500000
v 0.0849382 0.1106936 0.8554999
v 0.0824872 0.1074994 0.8595262
v 0.0791391 0.1031359 0.8610000
v 0.0757908 0.0987725 0.8595262
v 0.0733398 0.0955782 0.8554999
v 0.0724426 0.0944090 0.8500000
v 0.0733398 0.0955782 0.8445000
v 0.0757908 0.0987725 0.8404737
v 0.0791391 0.1031359 0.8389999
v 0.0824872 0.1074994 0.8404737
v 0.0849382 0.1106936 0.8445000
v 0.0783353 0.1172372 0.8500000
v 0.0775166 0.1160119 0.8554999
v 0.0752798 0.1126641 0.8595262
v 0.0722241 0.1080911 0.8610000
v 0.0691685 0.1035180 0.8595262
v 0.0669315 0.1001702 0.8554999
v 0.0661128 0.0989449 0.8500000
v 0.0669315 0.1001702 0.8445000
v 0.0691685 0.1035180 0.8404737
v 0.0722241 0.1080911 0.8389999
v 0.0752798 0.1126641 0.8404737
v 0.0775166 0.1160119 0.8445000
v 0.0705000 0.1221096 0.8500000
v 0.0697631 0.1208333 0.8554999
v 0.0677500 0.1173465 0.8595262
v 0.0650000 0.1125833 0.8610000
v 0.0622500 0.1078202 0.8595262
v 0.0602369 0.1043333 0.8554999
v 0.0595000 0.1030570 0.8500000
v 0.0602369 0.1043333 0.8445000
v 0.0622500 0.1078202 0.8404737
v 0.0650000 0.1125833 0.8389999
v 0.0677500 0.1173465 0.8404737
v 0.0697631 0.1208333 0.8445000
v 0.0623627 0.1264590 0.8500000
v 0.0617109 0.1251373 0.8554999
v 0.0599301 0.1215262 0.8595262
v 0.0574976 0.1165935 0.8610000
v 0.0550650 0.1116606 0.8595262
v 0.0532842 0.1080496 0.8554999
v 0.0526324 0.1067278 0.8500000
v 0.0532842 0.1080496 0.8445000
v 0.0550650 0.1116606 0.8404737
v 0.0574976 0.1165935 0.8389999
v 0.0599301 0.1215262 0.8404737
v 0.0617109 0.1251373 0.8445000
v 0.0539584 0.1302670 0.8500000
v 0.0533944 0.1289055 0.8554999
v 0.0518536 0.1251857 0.8595262
v 0.0497489 0.1201043 0.8610000
v 0.0476441 0.1150230 0.8595262
v 0.0461033 0.1113032 0.8554999
v 0.0455394 0.1099416 0.8500000
v 0.0461033 0.1113032 0.8445000
v 0.0476441 0.1150230 0.8404737
v 0.0497489 0.1201043 0.8389999
v 0.0518536 0.1251857 0.8404737
v 0.0533944 0.1289055 0.8445000
v 0.0453230 0.1335172 0.8500000
v 0.0448492 0.1321216 0.8554999
v 0.0435550 0.1283090 0.8595262
v 0.0417871 0.1231009 0.8610000
v 0.0400192 0.1178928 0.8595262
v 0.0387250 0.1140802 0.8554999
v 0.0382513 0.1126847 0.8500000
v 0.0387250 0.1140802 0.8445000
v 0.0400192 0.1178928 0.8404737
v 0.0417871 0.1231009 0.8389999
v 0.0435550 0.1283090 0.8404737
v 0.0448492 0.1321216 0.8445000
v 0.0364935 0.1361955 0.8500000
v 0.0361121 0.1347720 0.8554999
v 0.0350700 0.1308829 0.8595262
v 0.0336465 0.1255704 0.8610000
v 0.0322230 0.1202578 0.8595262
v 0.0311809 0.1163687 0.8554999
v 0.0307994 0.1149452 0.8500000
v 0.0311809 0.1163687 0.8445000
v 0.0322230 0.1202578 0.8404737
v 0.0336465 0.1255704 0.8389999
v 0.0350700 0.1308829 0.8404737
v 0.0361121 0.1347720 0.8445000
v 0.0275078 0.1382907 0.8500000
v 0.0272202 0.1368453 0.8554999
v 0.0264348 0.1328964 0.8595262
v 0.0253618 0.1275021 0.8610000
v 0.0242888 0.1221078 0.8595262
v 0.0235032 0.1181588 0.8554999
v 0.0232158 0.1167134 0.8500000
v 0.0235032 0.1181588 0.8445000
v 0.0242888 0.1221078 0.8404737
v 0.0253618 0.1275021 0.8389999
v 0.0264348 0.1328964 0.8404737
v 0.0272202 0.1368453 0.8445000
v 0.0184042 0.1397937 0.8500000
v 0.0182118 0.1383326 0.8554999
v 0.0176862 0.1343408 0.8595262
v 0.0169684 0.1288878 0.8610000
v 0.0162505 0.1234349 0.8595262
v 0.0157250 0.1194430 0.8554999
v 0.0155326 0.1179819 0.8500000
v 0.0157250 0.1194430 0.8445000
v 0.0162505 0.1234349 0.8404737
v 0.0169684 0.1288878 0.8389999
v 0.0176862 0.1343408 0.8404737
v 0.0182118 0.1383326 0.8445000
v 0.0092219 0.1406981 0.8500000
v 0.0091255 0.1392275 0.8554999
v 0.0088621 0.1352099 0.8595262
v 0.0085024 0.1297217 0.8610000
v 0.0081427 0.1242334 0.8595262
v 0.0078794 0.1202158 0.8554999
v 0.0077829 0.1187452 0.8500000
v 0.0078794 0.1202158 0.8445000
v 0.0081427 0.1242334 0.8404737
v 0.0085024 0.1297217 0.8389999
v 0.0088621 0.1352099 0.8404737
v 0.0091255 0.1392275 0.8445000
v 0.0000000 0.1410000 0.8500000
v 0.0000000 0.1395263 0.8554999
v 0.0000000 0.1355000 0.8595262
v 0.0000000 0.1300000 0.8610000
v 0.0000000 0.1245000 0.8595262
v 0.0000000 0.1204737 0.8554999
v 0.0000000 0.1190000 0.8500000
v 0.0000000 0.1204737 0.8445000
v 0.0000000 0.1245000 0.8404737
v 0.0000000 0.1300000 0.8389999
v 0.0000000 0.1355000 0.8404737
v 0.0000000 0.1395263 0.8445000
v -0.0092218 0.1406981 0.8500000
v -0.0091254 0.1392275 0.8554999
v -0.0088621 0.1352099 0.8595262
v -0.0085024 0.1297217 0.8610000
v -0.0081427 0.1242334 0.8595262
v -0.0078793 0.1202158 0.8554999
v -0.0077829 0.1187452 0.8500000
v -0.0078793 0.1202158 0.8445000
v -0.0081427 0.1242334 0.8404737
v -0.0085024 0.1297217 0.8389999
v -0.0088621 0.1352099 0.8404737
v -0.0091254 0.1392275 0.8445000
v -0.0184042 0.1397937 0.8500000
v -0.0182118 0.1383326 0.8554999
v -0.0176863 0.1343408 0.8595262
v -0.0169684 0.1288878 0.8610000
v -0.0162506 0.1234349 0.8595262
v -0.0157250 0.1194430 0.8554999
v -0.0155326 0.1179819 0.8500000
v -0.0157250 0.1194430 0.8445000
v -0.0162506 0.1234349 0.8404737
v -0.0169684 0.1288878 0.8389999
v -0.0176863 0.1343408 0.8404737
v -0.0182118 0.1383326 0.8445000
v -0.0275077 0.1382907 0.8500000
v -0.0272202 0.1368453 0.8554999
v -0.0264347 0.1328964 0.8595262
v -0.0253617 0.1275021 0.8610000
v -0.0242887 0.1221078 0.8595262
v -0.0235032 0.1181588 0.8554999
v -0.0232158 0.1167134 0.8500000
v -0.0235032 0.1181588 0.8445000
v -0.0242887 0.1221078 0.8404737
v -0.0253617 0.1275021 0.8389999
v -0.0264347 0.1328964 0.8404737
v -0.0272202 0.1368453 0.8445000
v -0.0364935 0.1361956 0.8500000
v -0.0361120 0.1347720 0.8554999
v -0.0350699 0.1308829 0.8595262
v -0.0336465 0.1255704 0.8610000
v -0.0322229 0.1202578 0.8595262
v -0.0311809 0.1163687 0.8554999
v -0.0307994 0.1149452 0.8500000
v -0.0311809 0.1163687 0.8445000
v -0.0322229 0.1202578 0.8404737
v -0.0336465 0.1255704 0.8389999
v -0.0350699 0.1308829 0.8404737
v -0.0361120 0.1347720 0.8445000
v -0.0453230 0.1335171 0.8500000
v -0.0448493 0.1321216 0.8554999
v -0.0435551 0.1283090 0.8595262
v -0.0417871 0.1231009 0.8610000
v -0.0400192 0.1178928 0.8595262
v -0.0387250 0.1140802 0.8554999
v -0.0382513 0.1126847 0.8500000
v -0.0387250 0.1140802 0.8445000
v -0.0400192 0.1178928 0.8404737
v -0.0417871 0.1231009 0.8389999
v -0.0435551 0.1283090 0.8404737
v -0.0448493 0.1321216 0.8445000
v -0.0539584 0.1302670 0.8500000
v -0.0533944 0.1289055 0.8554999
v -0.0518536 0.1251857 0.8595262
v -0.0497488 0.1201043 0.8610000
v -0.0476441 0.1150230 0.8595262
v -0.0461033 0.1113032 0.8554999
v -0.0455393 0.1099417 0.8500000
v -0.0461033 0.1113032 0.8445000
v -0.0476441 0.1150230 0.8404737
v -0.0497488 0.1201043 0.8389999
v -0.0518536 0.1251857 0.8404737
v -0.0533944 0.1289055 0.8445000
v -0.0623627 0.1264591 0.8500000
v -0.0617109 0.1251373 0.8554999
v -0.0599301 0.1215263 0.8595262
v -0.0574975 0.1165935 0.8610000
v -0.0550649 0.1116607 0.8595262
v -0.0532842 0.1080496 0.8554999
v -0.0526323 0.1067279 0.8500000
v -0.0532842 0.1080496 0.8445000
v -0.0550649 0.1116607 0.8404737
v -0.0574975 0.1165935 0.8389999
v -0.0599301 0.1215263 0.8404737
v -0.0617109 0.1251373 0.8445000
v -0.0705000 0.1221096 0.8500000
v -0.0697631 0.1208333 0.8554999
v -0.0677500 0.1173465 0.8595262
v -0.0650000 0.1125833 0.8610000
v -0.0622500 0.1078202 0.8595262
v -0.0602368 0.1043333 0.8554999
v -0.0595000 0.1030570 0.8500000
v -0.0602368 0.1043333 0.8445000
v -0.0622500 0.1078202 0.8404737
v -0.0650000 0.1125833 0.8389999
v -0.0677500 0.1173465 0.8404737
v -0.0697631 0.1208333 0.8445000
v -0.0783353 0.1172372 0.8500000
v -0.0775166 0.1160119 0.8554999
v -0.0752797 0.1126642 0.8595262
v -0.0722241 0.1080911 0.8610000
v -0.0691684 0.1035180 0.8595262
v -0.0669315 0.1001702 0.8554999
v -0.0661128 0.0989449 0.8500000
v -0.0669315 0.1001702 0.8445000
v -0.0691684 0.1035180 0.8404737
v -0.0722241 0.1080911 0.8389999
v -0.0752797 0.1126642 0.8404737
v -0.0775166 0.1160119 0.8445000
v -0.0858353 0.1118628 0.8500000
v -0.0849382 0.1106936 0.8554999
v -0.0824872 0.1074994 0.8595262
v -0.0791390 0.1031359 0.8610000
v -0.0757908 0.0987725 0.8595262
v -0.0733398 0.0955782 0.8554999
v -0.0724426 0.0944090 0.8500000
v -0.0733398 0.0955782 0.8445000
v -0.0757908 0.0987725 0.8404737
v -0.0791390 0.1031359 0.8389999
v -0.0824872 0.1074994 0.8404737
v -0.0849382 0.1106936 0.8445000
v -0.0929677 0.1060094 0.8500000
v -0.0919961 0.1049014 0.8554999
v -0.0893413 0.1018743 0.8595262
v -0.0857149 0.0977392 0.8610000
v -0.0820885 0.0936041 0.8595262
v -0.0794339 0.0905769 0.8554999
v -0.0784621 0.0894689 0.8500000
v -0.0794339 0.0905769 0.8445000
v -0.0820885 0.0936041 0.8404737
v -0.0857149 0.0977392 0.8389999
v -0.0893413 0.1018743 0.8404737
v -0.0919961 0.1049014 0.8445000
v -0.0997021 0.0997020 0.8500000
v -0.0986600 0.0986599 0.8554999
v -0.0958130 0.0958129 0.8595262
v -0.0919239 0.0919239 0.8610000
v -0.0880348 0.0880348 0.8595262
v -0.0851878 0.0851878 0.8554999
v -0.0841457 0.0841457 0.8500000
v -0.0851878 0.0851878 0.8445000
v -0.0880348 0.0880348 0.8404737
v -0.0919239 0.0919239 0.8389999
v -0.0958130 0.0958129 0.8404737
v -0.0986600 0.0986599 0.8445000
v -0.1060094 0.0929677 0.8500000
v -0.1049014 0.0919961 0.8554999
v -0.1018743 0.0893413 0.8595262
v -0.0977392 0.0857149 0.8610000
v -0.0936040 0.0820885 0.8595262
v -0.0905769 0.0794338 0.8554999
v -0.0894690 0.0784621 0.8500000
v -0.0905769 0.0794338 0.8445000
v -0.0936040 0.0820885 0.8404737
v -0.0977392 0.0857149 0.8389999
v -0.1018743 0.0893413 0.8404737
v -0.1049014 0.0919961 0.8445000
v -0.1118628 0.0858354 0.8500000
v -0.1106936 0.0849382 0.8554999
v -0.1074994 0.0824872 0.8595262
v -0.1031359 0.0791390 0.8610000
v -0.0987725 0.0757908 0.8595262
v -0.0955783 0.0733398 0.8554999
v -0.0944090 0.0724426 0.8500000
v -0.0955783 0.0733398 0.8445000
v -0.0987725 0.0757908 0.8404737
v -0.1031359 0.0791390 0.8389999
v -0.1074994 0.0824872 0.8404737
v -0.1106936 0.0849382 0.8445000
v -0.1172372 0.0783354 0.8500000
v -0.1160119 0.0775167 0.8554999
v -0.1126641 0.0752798 0.8595262
v -0.1080911 0.0722241 0.8610000
v -0.1035179 0.0691685 0.8595262
v -0.1001702 0.0669316 0.8554999
v -0.0989448 0.0661129 0.8500000
v -0.1001702 0.0669316 0.8445000
v -0.1035179 0.0691685 0.8404737
v -0.1080911 0.0722241 0.8389999
v -0.1126641 0.0752798 0.8404737
v -0.1160119 0.0775167 0.8445000
v -0.1221096 0.0705000 0.8500000
v -0.1208333 0.0697632 0.8554999
v -0.1173464 0.0677500 0.8595262
v -0.1125833 0.0650000 0.8610000
v -0.1078202 0.0622500 0.8595262
v -0.1043333 0.0602369 0.8554999
v -0.1030570 0.0595000 0.8500000
v -0.1043333 0.0602369 0.8445000
v -0.1078202 0.0622500 0.8404737
v -0.1125833 0.0650000 0.8389999
v -0.1173464 0.0677500 0.8404737
v -0.1208333 0.0697632 0.8445000
v -0.1264591 0.0623627 0.8500000
v -0.1251373 0.0617109 0.8554999
v -0.1215262 0.0599301 0.8595262
v -0.1165935 0.0574975 0.8610000
v -0.1116607 0.0550649 0.8595262
v -0.1080496 0.0532842 0.8554999
v -0.1067278 0.0526323 0.8500000
v -0.1080496 0.0532842 0.8445000
v -0.1116607 0.0550649 0.8404737
v -0.1165935 0.0574975 0.8389999
v -0.1215262 0.0599301 0.8404737
v -0.1251373 0.0617109 0.8445000
v -0.1302670 0.0539584 0.8500000
v -0.1289055 0.0533944 0.8554999
v -0.1251857 0.0518536 0.8595262
v -0.1201043 0.0497489 0.8610000
v -0.1150230 0.0476441 0.8595262
v -0.1113032 0.0461033 0.8554999
v -0.1099417 0.0455393 0.8500000
v -0.1113032 0.0461033 0.8445000
v -0.1150230 0.0476441 0.8404737
v -0.1201043 0.0497489 0.8389999
v -0.1251857 0.0518536 0.8404737
v -0.1289055 0.0533944 0.8445000
v -0.1335171 0.0453229 0.8500000
v -0.1321216 0.0448492 0.8554999
v -0.1283091 0.0435550 0.8595262
v -0.1231009 0.0417871 0.8610000
v -0.1178928 0.0400192 0.8595262
v -0.1140802 0.0387250 0.8554999
v -0.1126847 0.0382513 0.8500000
v -0.1140802 0.0387250 0.8445000
v -0.1178928 0.0400192 0.8404737
v -0.1231009 0.0417871 0.8389999
v -0.1283091 0.0435550 0.8404737
v -0.1321216 0.0448492 0.8445000
v -0.1361955 0.0364935 0.8500000
v -0.1347721 0.0361120 0.8554999
v -0.1308829 0.0350700 0.8595262
v -0.1255704 0.0336465 0.8610000
v -0.1202578 0.0322230 0.8595262
v -0.1163687 0.0311809 0.8554999
v -0.1149452 0.0307995 0.8500000
v -0.1163687 0.0311809 0.8445000
v -0.1202578 0.0322230 0.8404737
v -0.1255704 0.0336465 0.8389999
v -0.1308829 0.0350700 0.8404737
v -0.1347721 0.0361120 0.8445000
v -0.1382907 0.0275077 0.8500000
v -0.1368453 0.0272202 0.8554999
v -0.1328964 0.0264347 0.8595262
v -0.1275021 0.0253617 0.8610000
v -0.1221077 0.0242887 0.8595262
v -0.1181589 0.0235033 0.8554999
v -0.1167135 0.0232157 0.8500000
v -0.1181589 0.0235033 0.8445000
v -0.1221077 0.0242887 0.8404737
v -0.1275021 0.0253617 0.8389999
v -0.1328964 0.0264347 0.8404737
v -0.1368453 0.0272202 0.8445000
v -0.1397937 0.0184042 0.8500000
v -0.1383326 0.0182119 0.8554999
v -0.1343408 0.0176863 0.8595262
v -0.1288878 0.0169684 0.8610000
v -0.1234348 0.0162505 0.8595262
v -0.1194431 0.0157250 0.8554999
v -0.1179819 0.0155326 0.8500000
v -0.1194431 0.0157250 0.8445000
v -0.1234348 0.0162505 0.8404737
v -0.1288878 0.0169684 0.8389999
v -0.1343408 0.0176863 0.8404737
v -0.1383326 0.0182119 0.8445000
v -0.1406981 0.0092219 0.8500000
v -0.1392276 0.0091255 0.8554999
v -0.1352099 0.0088622 0.8595262
v -0.1297216 0.0085024 0.8610000
v -0.1242334 0.0081427 0.8595262
v -0.1202158 0.0078794 0.8554999
v -0.1187452 0.0077830 0.8500000
v -0.1202158 0.0078794 0.8445000
v -0.1242334 0.0081427 0.8404737
v -0.1297216 0.0085024 0.8389999
v -0.1352099 0.0088622 0.8404737
v -0.1392276 0.0091255 0.8445000
v -0.1410000 0.0000000 0.8500000
v -0.1395263 0.0000000 0.8554999
v -0.1355000 0.0000000 0.8595262
v -0.1300000 0.0000000 0.8610000
v -0.1245000 0.0000000 0.8595262
v -0.1204737 0.0000000 0.8554999
v -0.1190000 0.0000000 0.8500000
v -0.1204737 0.0000000 0.8445000
v -0.1245000 0.0000000 0.8404737
v -0.1300000 0.0000000 0.8389999
v -0.1355000 0.0000000 0.8404737
v -0.1395263 0.0000000 0.8445000
v -0.1406981 -0.0092218 0.8500000
v -0.1392276 -0.0091254 0.8554999
v -0.1352099 -0.0088621 0.8595262
v -0.1297216 -0.0085024 0.8610000
v -0.1242334 -0.0081427 0.8595262
v -0.1202158 -0.0078793 0.8554999
v -0.1187452 -0.0077829 0.8500000
v -0.1202158 -0.0078793 0.8445000
v -0.1242334 -0.0081427 0.8404737
v -0.1297216 -0.0085024 0.8389999
v -0.1352099 -0.0088621 0.8404737
v -0.1392276 -0.0091254 0.8445000
v -0.1397937 -0.0184042 0.8500000
v -0.1383326 -0.0182119 0.8554999
v -0.1343408 -0.0176863 0.8595262
v -0.1288878 -0.0169684 0.8610000
v -0.1234348 -0.0162505 0.8595262
v -0.1194431 -0.0157250 0.8554999
v -0.1179819 -0.0155326 0.8500000
v -0.1194431 -0.0157250 0.8445000
v -0.1234348 -0.0162505 0.8404737
v -0.1288878 -0.0169684 0.8389999
v -0.1343408 -0.0176863 0.8404737
v -0.1383326 -0.0182119 0.8445000
v -0.1382907 -0.0275077 0.8500000
v -0.1368453 -0.0272202 0.8554999
v -0.1328964 -0.0264347 0.8595262
v -0.1275021 -0.0253617 0.8610000
v -0.1221077 -0.0242887 0.8595262
v -0.1181589 -0.0235033 0.8554999
v -0.1167135 -0.0232157 0.8500000
v -0.1181589 -0.0235033 0.8445000
v -0.1221077 -0.0242887 0.8404737
v -0.1275021 -0.0253617 0.8389999
v -0.1328964 -0.0264347 0.8404737
v -0.1368453 -0.0272202 0.8445000
v -0.1361955 -0.0364935 0.8500000
v -0.1347721 -0.0361120 0.8554999
v -0.1308829 -0.0350700 0.8595262
v -0.1255704 -0.0336465 0.8610000
v -0.1202578 -0.0322230 0.8595262
v -0.1163687 -0.0311809 0.8554999
v -0.1149452 -0.0307995 0.8500000
v -0.1163687 -0.0311809 0.8445000
v -0.1202578 -0.0322230 0.8404737
v -0.1255704 -0.0336465 0.8389999
v -0.1308829 -0.0350700 0.8404737
v -0.1347721 -0.0361120 0.8445000
v -0.1335171 -0.0453229 0.8500000
v -0.1321216 -0.0448492 0.8554999
v -0.1283091 -0.0435550 0.8595262
v -0.1231009 -0.0417871 0.8610000
v -0.1178928 -0.0400192 0.8595262
v -0.1140802 -0.0387250 0.8554999
v -0.1126847 -0.0382513 0.8500000
v -0.1140802 -0.0387250 0.8445000
v -0.1178928 -0.0400192 0.8404737
v -0.1231009 -0.0417871 0.8389999
v -0.1283091 -0.0435550 0.8404737
v -0.1321216 -0.0448492 0.8445000
v -0.1302670 -0.0539583 0.8500000
v -0.1289055 -0.0533943 0.8554999
v -0.1251857 -0.0518536 0.8595262
v -0.1201044 -0.0497488 0.8610000
v -0.1150230 -0.0476440 0.8595262
v -0.1113032 -0.0461033 0.8554999
v -0.1099417 -0.0455393 0.8500000
v -0.1113032 -0.0461033 0.8445000
v -0.1150230 -0.0476440 0.8404737
v -0.1201044 -0.0497488 0.8389999
v -0.1251857 -0.0518536 0.8404737
v -0.1289055 -0.0533943 0.8445000
v -0.1264591 -0.0623627 0.8500000
v -0.1251373 -0.0617109 0.8554999
v -0.1215262 -0.0599301 0.8595262
v -0.1165935 -0.0574975 0.8610000
v -0.1116607 -0.0550649 0.8595262
v -0.1080496 -0.0532842 0.8554999
v -0.1067278 -0.0526323 0.8500000
v -0.1080496 -0.0532842 0.8445000
v -0.1116607 -0.0550649 0.8404737
v -0.1165935 -0.0574975 0.8389999
v -0.1215262 -0.0599301 0.8404737
v -0.1251373 -0.0617109 0.8445000
v -0.1221096 -0.0705000 0.8500000
v -0.1208333 -0.0697631 0.8554999
v -0.1173465 -0.0677500 0.8595262
v -0.1125833 -0.0650000 0.8610000
v -0.1078202 -0.0622500 0.8595262
v -0.1043333 -0.0602368 0.8554999
v -0.1030570 -0.0595000 0.8500000
v -0.1043333 -0.0602368 0.8445000
v -0.1078202 -0.0622500 0.8404737
v -0.1125833 -0.0650000 0.8389999
v -0.1173465 -0.0677500 0.8404737
v -0.1208333 -0.0697631 0.8445000
v -0.1172372 -0.0783354 0.8500000
v -0.1160119 -0.0775167 0.8554999
v -0.1126641 -0.0752798 0.8595262
v -0.1080911 -0.0722241 0.8610000
v -0.1035179 -0.0691685 0.8595262
v -0.1001702 -0.0669316 0.8554999
v -0.0989448 -0.0661129 0.8500000
v -0.1001702 -0.0669316 0.8445000
v -0.1035179 -0.0691685 0.8404737
v -0.1080911 -0.0722241 0.8389999
v -0.1126641 -0.0752798 0.8404737
v -0.1160119 -0.0775167 0.8445000
v -0.1118628 -0.0858354 0.8500000
v -0.1106936 -0.0849382 0.8554999
v -0.1074994 -0.0824872 0.8595262
v -0.1031359 -0.0791390 0.8610000
v -0.0987725 -0.0757908 0.8595262
v -0.0955783 -0.0733398 0.8554999
v -0.0944090 -0.0724426 0.8500000
v -0.0955783 -0.0733398 0.8445000
v -0.0987725 -0.0757908 0.8404737
v -0.1031359 -0.0791390 0.8389999
v -0.1074994 -0.0824872 0.8404737
v -0.1106936 -0.0849382 0.8445000
v -0.1060094 -0.0929677 0.8500000
v -0.1049014 -0.0919961 0.8554999
v -0.1018743 -0.0893413 0.8595262
v -0.0977392 -0.0857149 0.8610000
v -0.0936040 -0.0820885 0.8595262
v -0.0905769 -0.0794338 0.8554999
v -0.0894690 -0.0784621 0.8500000
v -0.0905769 -0.0794338 0.8445000
v -0.0936040 -0.0820885 0.8404737
v -0.0977392 -0.0857149 0.8389999
v -0.1018743 -0.0893413 0.8404737
v -0.1049014 -0.0919961 0.8445000
v -0.0997021 -0.0997020 0.8500000
v -0.0986600 -0.0986599 0.8554999
v -0.0958130 -0.0958129 0.8595262
v -0.0919239 -0.0919239 0.8610000
v -0.0880348 -0.0880348 0.8595262
v -0.0851878 -0.0851878 0.8554999
v -0.0841457 -0.0841457 0.8500000
v -0.0851878 -0.0851878 0.8445000
v -0.0880348 -0.0880348 0.8404737
v -0.0919239 -0.0919239 0.8389999
v -0.0958130 -0.0958129 0.8404737
v -0.0986600 -0.0986599 0.8445000
v -0.0929678 -0.1060094 0.8500000
v -0.0919961 -0.1049014 0.8554999
v -0.0893414 -0.1018743 0.8595262
v -0.0857150 -0.0977391 0.8610000
v -0.0820886 -0.0936040 0.8595262
v -0.0794339 -0.0905769 0.8554999
v -0.0784622 -0.0894689 0.8500000
v -0.0794339 -0.0905769 0.8445000
v -0.0820886 -0.0936040 0.8404737
v -0.0857150 -0.0977391 0.8389999
v -0.0893414 -0.1018743 0.8404737
v -0.0919961 -0.1049014 0.8445000
v -0.0858354 -0.1118628 0.8500000
v -0.0849383 -0.1106936 0.8554999
v -0.0824872 -0.1074993 0.8595262
v -0.0791391 -0.1031359 0.8610000
v -0.0757908 -0.0987724 0.8595262
v -0.0733398 -0.0955782 0.8554999
v -0.0724427 -0.0944090 0.8500000
v -0.0733398 -0.0955782 0.8445000
v -0.0757908 -0.0987724 0.8404737
v -0.0791391 -0.1031359 0.8389999
v -0.0824872 -0.1074993 0.8404737
v -0.0849383 -0.1106936 0.8445000
v -0.0783355 -0.1172372 0.8500000
v -0.0775167 -0.1160118 0.8554999
v -0.0752798 -0.1126641 0.8595262
v -0.0722242 -0.1080910 0.8610000
v -0.0691686 -0.1035179 0.8595262
v -0.0669317 -0.1001702 0.8554999
v -0.0661129 -0.0989448 0.8500000
v -0.0669317 -0.1001702 0.8445000
v -0.0691686 -0.1035179 0.8404737
v -0.0722242 -0.1080910 0.8389999
v -0.0752798 -0.1126641 0.8404737
v -0.0775167 -0.1160118 0.8445000
v -0.0705000 -0.1221096 0.8500000
v -0.0697631 -0.1208333 0.8554999
v -0.0677500 -0.1173465 0.8595262
v -0.0650000 -0.1125833 0.8610000
v -0.0622500 -0.1078202 0.8595262
v -0.0602368 -0.1043333 0.8554999
v -0.0595000 -0.1030570 0.8500000
v -0.0602368 -0.1043333 0.8445000
v -0.0622500 -0.1078202 0.8404737
v -0.0650000 -0.1125833 0.8389999
v -0.0677500 -0.1173465 0.8404737
v -0.0697631 -0.1208333 0.8445000
v -0.0623627 -0.1264591 0.8500000
v -0.0617109 -0.1251373 0.8554999
v -0.0599301 -0.1215263 0.8595262
v -0.0574975 -0.1165935 0.8610000
v -0.0550649 -0.1116607 0.8595262
v -0.0532842 -0.1080496 0.8554999
v -0.0526323 -0.1067279 0.8500000
v -0.0532842 -0.1080496 0.8445000
v -0.0550649 -0.1116607 0.8404737
v -0.0574975 -0.1165935 0.8389999
v -0.0599301 -0.1215263 0.8404737
v -0.0617109 -0.1251373 0.8445000
v -0.0539584 -0.1302670 0.8500000
v -0.0533944 -0.1289055 0.8554999
v -0.0518536 -0.1251857 0.8595262
v -0.0497488 -0.1201043 0.8610000
v -0.0476441 -0.1150230 0.8595262
v -0.0461033 -0.1113032 0.8554999
v -0.0455393 -0.1099417 0.8500000
v -0.0461033 -0.1113032 0.8445000
v -0.0476441 -0.1150230 0.8404737
v -0.0497488 -0.1201043 0.8389999
v -0.0518536 -0.1251857 0.8404737
v -0.0533944 -0.1289055 0.8445000
v -0.0453230 -0.1335171 0.8500000
v -0.0448493 -0.1321216 0.8554999
v -0.0435551 -0.1283090 0.8595262
v -0.0417871 -0.1231009 0.8610000
v -0.0400192 -0.1178928 0.8595262
v -0.0387250 -0.1140802 0.8554999
v -0.0382513 -0.1126847 0.8500000
v -0.0387250 -0.1140802 0.8445000
v -0.0400192 -0.1178928 0.8404737
v -0.0417871 -0.1231009 0.8389999
v -0.0435551 -0.1283090 0.8404737
v -0.0448493 -0.1321216 0.8445000
v -0.0364935 -0.1361955 0.8500000
v -0.0361121 -0.1347720 0.8554999
v -0.0350700 -0.1308829 0.8595262
v -0.0336465 -0.1255703 0.8610000
v -0.0322230 -0.1202578 0.8595262
v -0.0311809 -0.1163687 0.8554999
v -0.0307995 -0.1149452 0.8500000
v -0.0311809 -0.1163687 0.8445000
v -0.0322230 -0.1202578 0.8404737
v -0.0336465 -0.1255703 0.8389999
v -0.0350700 -0.1308829 0.8404737
v -0.0361121 -0.1347720 0.8445000
v -0.0275078 -0.1382907 0.8500000
v -0.0272203 -0.1368453 0.8554999
v -0.0264348 -0.1328964 0.8595262
v -0.0253618 -0.1275021 0.8610000
v -0.0242888 -0.1221078 0.8595262
v -0.0235033 -0.1181588 0.8554999
v -0.0232158 -0.1167134 0.8500000
v -0.0235033 -0.1181588 0.8445000
v -0.0242888 -0.1221078 0.8404737
v -0.0253618 -0.1275021 0.8389999
v -0.0264348 -0.1328964 0.8404737
v -0.0272203 -0.1368453 0.8445000
v -0.0184043 -0.1397937 0.8500000
v -0.0182119 -0.1383326 0.8554999
v -0.0176864 -0.1343408 0.8595262
v -0.0169685 -0.1288878 0.8610000
v -0.0162506 -0.1234349 0.8595262
v -0.0157251 -0.1194430 0.8554999
v -0.0155327 -0.1179819 0.8500000
v -0.0157251 -0.1194430 0.8445000
v -0.0162506 -0.1234349 0.8404737
v -0.0169685 -0.1288878 0.8389999
v -0.0176864 -0.1343408 0.8404737
v -0.0182119 -0.1383326 0.8445000
v -0.0092218 -0.1406981 0.8500000
v -0.0091254 -0.1392275 0.8554999
v -0.0088621 -0.1352099 0.8595262
v -0.0085024 -0.1297217 0.8610000
v -0.0081427 -0.1242334 0.8595262
v -0.0078793 -0.1202158 0.8554999
v -0.0077829 -0.1187452 0.8500000
v -0.0078793 -0.1202158 0.8445000
v -0.0081427 -0.1242334 0.8404737
v -0.0085024 -0.1297217 0.8389999
v -0.0088621 -0.1352099 0.8404737
v -0.0091254 -0.1392275 0.8445000
v 0.0000000 -0.1410000 0.8500000
v 0.0000000 -0.1395263 0.8554999
v 0.0000000 -0.1355000 0.8595262
v 0.0000000 -0.1300000 0.8610000
v 0.0000000 -0.1245000 0.8595262
v 0.0000000 -0.1204737 0.8554999
v 0.0000000 -0.1190000 0.8500000
v 0.0000000 -0.1204737 0.8445000
v 0.0000000 -0.1245000 0.8404737
v 0.0000000 -0.1300000 0.8389999
v 0.0000000 -0.1355000 0.8404737
v 0.0000000 -0.1395263 0.8445000
v 0.0092219 -0.1406981 0.8500000
v 0.0091255 -0.1392275 0.8554999
v 0.0088621 -0.1352099 0.8595262
v 0.0085024 -0.1297217 0.8610000
v 0.0081427 -0.1242334 0.8595262
v 0.0078794 -0.1202158 0.8554999
v 0.0077829 -0.1187452 0.8500000
v 0.0078794 -0.1202158 0.8445000
v 0.0081427 -0.1242334 0.8404737
v 0.0085024 -0.1297217 0.8389999
v 0.0088621 -0.1352099 0.8404737
v 0.0091255 -0.1392275 0.8445000
v 0.0184042 -0.1397937 0.8500000
v 0.0182118 -0.1383326 0.8554999
v 0.0176862 -0.1343408 0.8595262
v 0.0169684 -0.1288878 0.8610000
v 0.0162505 -0.1234349 0.8595262
v 0.0157250 -0.1194430 0.8554999
v 0.0155326 -0.1179819 0.8500000
v 0.0157250 -0.1194430 0.8445000
v 0.0162505 -0.1234349 0.8404737
v 0.0169684 -0.1288878 0.8389999
v 0.0176862 -0.1343408 0.8404737
v 0.0182118 -0.1383326 0.8445000
v 0.0275077 -0.1382907 0.8500000
v 0.0272202 -0.1368453 0.8554999
v 0.0264347 -0.1328964 0.8595262
v 0.0253617 -0.1275021 0.8610000
v 0.0242887 -0.1221078 0.8595262
v 0.0235032 -0.1181589 0.8554999
v 0.0232157 -0.1167135 0.8500000
v 0.0235032 -0.1181589 0.8445000
v 0.0242887 -0.1221078 0.8404737
v 0.0253617 -0.1275021 0.8389999
v 0.0264347 -0.1328964 0.8404737
v 0.0272202 -0.1368453 0.8445000
v 0.0364934 -0.1361956 0.8500000
v 0.0361120 -0.1347720 0.8554999
v 0.0350699 -0.1308830 0.8595262
v 0.0336464 -0.1255704 0.8610000
v 0.0322229 -0.1202578 0.8595262
v 0.0311809 -0.1163687 0.8554999
v 0.0307994 -0.1149452 0.8500000
v 0.0311809 -0.1163687 0.8445000
v 0.0322229 -0.1202578 0.8404737
v 0.0336464 -0.1255704 0.8389999
v 0.0350699 -0.1308830 0.8404737
v 0.0361120 -0.1347720 0.8445000
v 0.0453229 -0.1335172 0.8500000
v 0.0448492 -0.1321217 0.8554999
v 0.0435550 -0.1283091 0.8595262
v 0.0417871 -0.1231009 0.8610000
v 0.0400192 -0.1178928 0.8595262
v 0.0387250 -0.1140802 0.8554999
v 0.0382512 -0.1126847 0.8500000
v 0.0387250 -0.1140802 0.8445000
v 0.0400192 -0.1178928 0.8404737
v 0.0417871 -0.1231009 0.8389999
v 0.0435550 -0.1283091 0.8404737
v 0.0448492 -0.1321217 0.8445000
v 0.0539584 -0.1302670 0.8500000
v 0.0533944 -0.1289055 0.8554999
v 0.0518536 -0.1251857 0.8595262
v 0.0497489 -0.1201043 0.8610000
v 0.0476441 -0.1150230 0.8595262
v 0.0461033 -0.1113032 0.8554999
v 0.0455394 -0.1099416 0.8500000
v 0.0461033 -0.1113032 0.8445000
v 0.0476441 -0.1150230 0.8404737
v 0.0497489 -0.1201043 0.8389999
v 0.0518536 -0.1251857 0.8404737
v 0.0533944 -0.1289055 0.8445000
v 0.0623627 -0.1264590 0.8500000
v 0.0617109 -0.1251373 0.8554999
v 0.0599301 -0.1215262 0.8595262
v 0.0574976 -0.1165935 0.8610000
v 0.0550650 -0.1116606 0.8595262
v 0.0532842 -0.1080496 0.8554999
v 0.0526324 -0.1067278 0.8500000
v 0.0532842 -0.1080496 0.8445000
v 0.0550650 -0.1116606 0.8404737
v 0.0574976 -0.1165935 0.8389999
v 0.0599301 -0.1215262 0.8404737
v 0.0617109 -0.1251373 0.8445000
v 0.0705000 -0.1221096 0.8500000
v 0.0697631 -0.1208333 0.8554999
v 0.0677500 -0.1173465 0.8595262
v 0.0650000 -0.1125833 0.8610000
v 0.0622500 -0.1078202 0.8595262
v 0.0602369 -0.1043333 0.8554999
v 0.0595000 -0.1030570 0.8500000
v 0.0602369 -0.1043333 0.8445000
v 0.0622500 -0.1078202 0.8404737
v 0.0650000 -0.1125833 0.8389999
v 0.0677500 -0.1173465 0.8404737
v 0.0697631 -0.1208333 0.8445000
v 0.0783353 -0.1172372 0.8500000
v 0.0775166 -0.1160119 0.8554999
v 0.0752798 -0.1126641 0.8595262
v 0.0722241 -0.1080911 0.8610000
v 0.0691685 -0.1035180 0.8595262
v 0.0669315 -0.1001702 0.8554999
v 0.0661128 -0.0989449 0.8500000
v 0.0669315 -0.1001702 0.8445000
v 0.0691685 -0.1035180 0.8404737
v 0.0722241 -0.1080911 0.8389999
v 0.0752798 -0.1126641 0.8404737
v 0.0775166 -0.1160119 0.8445000
v 0.0858353 -0.1118628 0.8500000
v 0.0849382 -0.1106937 0.8554999
v 0.0824872 -0.1074994 0.8595262
v 0.0791389 -0.1031360 0.8610000
v 0.0757907 -0.0987725 0.8595262
v 0.0733398 -0.0955782 0.8554999
v 0.0724426 -0.0944091 0.8500000
v 0.0733398 -0.0955782 0.8445000
v 0.0757907 -0.0987725 0.8404737
v 0.0791389 -0.1031360 0.8389999
v 0.0824872 -0.1074994 0.8404737
v 0.0849382 -0.1106937 0.8445000
v 0.0929677 -0.1060095 0.8500000
v 0.0919960 -0.1049015 0.8554999
v 0.0893413 -0.1018743 0.8595262
v 0.0857149 -0.0977392 0.8610000
v 0.0820885 -0.0936041 0.8595262
v 0.0794337 -0.0905770 0.8554999
v 0.0784621 -0.0894690 0.8500000
v 0.0794337 -0.0905770 0.8445000
v 0.0820885 -0.0936041 0.8404737
v 0.0857149 -0.0977392 0.8389999
v 0.0893413 -0.1018743 0.8404737
v 0.0919960 -0.1049015 0.8445000
v 0.0997021 -0.0997021 0.8500000
v 0.0986599 -0.0986600 0.8554999
v 0.0958129 -0.0958130 0.8595262
v 0.0919238 -0.0919239 0.8610000
v 0.0880347 -0.0880348 0.8595262
v 0.0851877 -0.0851878 0.8554999
v 0.0841456 -0.0841458 0.8500000
v 0.0851877 -0.0851878 0.8445000
v 0.0880347 -0.0880348 0.8404737
v 0.0919238 -0.0919239 0.8389999
v 0.0958129 -0.0958130 0.8404737
v 0.0986599 -0.0986600 0.8445000
v 0.1060094 -0.0929677 0.8500000
v 0.1049014 -0.0919960 0.8554999
v 0.1018743 -0.0893413 0.8595262
v 0.0977392 -0.0857149 0.8610000
v 0.0936040 -0.0820885 0.8595262
v 0.0905769 -0.0794338 0.8554999
v 0.0894690 -0.0784621 0.8500000
v 0.0905769 -0.0794338 0.8445000
v 0.0936040 -0.0820885 0.8404737
v 0.0977392 -0.0857149 0.8389999
v 0.1018743 -0.0893413 0.8404737
v 0.1049014 -0.0919960 0.8445000
v 0.1118628 -0.0858353 0.8500000
v 0.1106936 -0.0849382 0.8554999
v 0.1074994 -0.0824872 0.8595262
v 0.1031359 -0.0791390 0.8610000
v 0.0987725 -0.0757908 0.8595262
v 0.0955783 -0.0733397 0.8554999
v 0.0944090 -0.0724426 0.8500000
v 0.0955783 -0.0733397 0.8445000
v 0.0987725 -0.0757908 0.8404737
v 0.1031359 -0.0791390 0.8389999
v 0.1074994 -0.0824872 0.8404737
v 0.1106936 -0.0849382 0.8445000
v 0.1172373 -0.0783354 0.8500000
v 0.1160119 -0.0775166 0.8554999
v 0.1126642 -0.0752798 0.8595262
v 0.1080911 -0.0722241 0.8610000
v 0.1035179 -0.0691685 0.8595262
v 0.1001702 -0.0669316 0.8554999
v 0.0989448 -0.0661129 0.8500000
v 0.1001702 -0.0669316 0.8445000
v 0.1035179 -0.0691685 0.8404737
v 0.1080911 -0.0722241 0.8389999
v 0.1126642 -0.0752798 0.8404737
v 0.1160119 -0.0775166 0.8445000
v 0.1221096 -0.0705000 0.8500000
v 0.1208333 -0.0697632 0.8554999
v 0.1173465 -0.0677500 0.8595262
v 0.1125833 -0.0650000 0.8610000
v 0.1078201 -0.0622500 0.8595262
v 0.1043333 -0.0602369 0.8554999
v 0.1030570 -0.0595000 0.8500000
v 0.1043333 -0.0602369 0.8445000
v 0.1078201 -0.0622500 0.8404737
v 0.1125833 -0.0650000 0.8389999
v 0.1173465 -0.0677500 0.8404737
v 0.1208333 -0.0697632 0.8445000
v 0.1264591 -0.0623627 0.8500000
v 0.1251373 -0.0617109 0.8554999
v 0.1215263 -0.0599301 0.8595262
v 0.1165934 -0.0574976 0.8610000
v 0.1116607 -0.0550650 0.8595262
v 0.1080496 -0.0532842 0.8554999
v 0.1067279 -0.0526324 0.8500000
v 0.1080496 -0.0532842 0.8445000
v 0.1116607 -0.0550650 0.8404737
v 0.1165934 -0.0574976 0.8389999
v 0.1215263 -0.0599301 0.8404737
v 0.1251373 -0.0617109 0.8445000
v 0.1302670 -0.0539584 0.8500000
v 0.1289055 -0.0533944 0.8554999
v 0.1251857 -0.0518537 0.8595262
v 0.1201044 -0.0497489 0.8610000
v 0.1150230 -0.0476441 0.8595262
v 0.1113032 -0.0461033 0.8554999
v 0.1099417 -0.0455394 0.8500000
v 0.1113032 -0.0461033 0.8445000
v 0.1150230 -0.0476441 0.8404737
v 0.1201044 -0.0497489 0.8389999
v 0.1251857 -0.0518537 0.8404737
v 0.1289055 -0.0533944 0.8445000
v 0.1335171 -0.0453230 0.8500000
v 0.1321216 -0.0448493 0.8554999
v 0.1283091 -0.0435551 0.8595262
v 0.1231009 -0.0417872 0.8610000
v 0.1178928 -0.0400193 0.8595262
v 0.1140801 -0.0387251 0.8554999
v 0.1126847 -0.0382514 0.8500000
v 0.1140801 -0.0387251 0.8445000
v 0.1178928 -0.0400193 0.8404737
v 0.1231009 -0.0417872 0.8389999
v 0.1283091 -0.0435551 0.8404737
v 0.1321216 -0.0448493 0.8445000
v 0.1361956 -0.0364934 0.8500000
v 0.1347720 -0.0361120 0.8554999
v 0.1308829 -0.0350699 0.8595262
v 0.1255704 -0.0336464 0.8610000
v 0.1202578 -0.0322229 0.8595262
v 0.1163687 -0.0311809 0.8554999
v 0.1149452 -0.0307994 0.8500000
v 0.1163687 -0.0311809 0.8445000
v 0.1202578 -0.0322229 0.8404737
v 0.1255704 -0.0336464 0.8389999
v 0.1308829 -0.0350699 0.8404737
v 0.1347720 -0.0361120 0.8445000
v 0.1382907 -0.0275077 0.8500000
v 0.1368453 -0.0272202 0.8554999
v 0.1328964 -0.0264347 0.8595262
v 0.1275020 -0.0253617 0.8610000
v 0.1221078 -0.0242887 0.8595262
v 0.1181589 -0.0235032 0.8554999
v 0.1167135 -0.0232157 0.8500000
v 0.1181589 -0.0235032 0.8445000
v 0.1221078 -0.0242887 0.8404737
v 0.1275020 -0.0253617 0.8389999
v 0.1328964 -0.0264347 0.8404737
v 0.1368453 -0.0272202 0.8445000
v 0.1397937 -0.0184042 0.8500000
v 0.1383327 -0.0182118 0.8554999
v 0.1343408 -0.0176863 0.8595262
v 0.1288878 -0.0169684 0.8610000
v 0.1234348 -0.0162505 0.8595262
v 0.1194430 -0.0157250 0.8554999
v 0.1179820 -0.0155326 0.8500000
v 0.1194430 -0.0157250 0.8445000
v 0.1234348 -0.0162505 0.8404737
v 0.1288878 -0.0169684 0.8389999
v 0.1343408 -0.0176863 0.8404737
v 0.1383327 -0.0182118 0.8445000
v 0.1406981 -0.0092219 0.8500000
v 0.1392276 -0.0091255 0.8554999
v 0.1352099 -0.0088621 0.8595262
v 0.1297217 -0.0085024 0.8610000
v 0.1242334 -0.0081427 0.8595262
v 0.1202157 -0.0078794 0.8554999
v 0.1187451 -0.0077830 0.8500000
v 0.1202157 -0.0078794 0.8445000
v 0.1242334 -0.0081427 0.8404737
v 0.1297217 -0.0085024 0.8389999
v 0.1352099 -0.0088621 0.8404737
v 0.1392276 -0.0091255 0.8445000
f 97 109 110
f 97 110 98
f 98 110 111
f 98 111 99
f 99 111 112
f 99 112 100
f 100 112 113
f 100 113 101
f 101 113 114
f 101 114 102
f 102 114 115
f 102 115 103
f 103 115 116
f 103 116 104
f 104 116 117
f 104 117 105
f 105 117 118
f 105 118 106
f 106 118 119
f 106 119 107
f 107 119 120
f 107 120 108
f 108 120 109
f 108 109 97
f 109 121 122
f 109 122 110
f 110 122 123
f 110 123 111
f 111 123 124
f 111 124 112
f 112 124 125
f 112 125 113
f 113 125 126
f 113 126 114
f 114 126 127
f 114 127 115
f 115 127 128
f 115 128 116
f 116 128 129
f 116 129 117
f 117 129 130
f 117 130 118
f 118 130 131
f 118 131 119
f 119 131 132
f 119 132 120
f 120 132 121
f 120 121 109
f 121 133 134
f 121 134 122
f 122 134 135
f 122 135 123
f 123 135 136
f 123 136 124
f 124 136 137
f 124 137 125
f 125 137 138
f 125 138 126
f 126 138 139
f 126 139 127
f 127 139 140
f 127 140 128
f 128 140 141
f 128 141 129
f 129 141 142
f 129 142 130
f 130 142 143
f 130 143 131
f 131 143 144
f 131 144 132
f 132 144 133
f 132 133 121
f 133 145 146
f 133 146 134
f 134 146 147
f 134 147 135
f 135 147 148
f 135 148 136
f 136 148 149
f 136 149 137
f 137 149 150
f 137 150 138
f 138 150 151
f 138 151 139
f 139 151 152
f 139 152 140
f 140 152 153
f 140 153 141
f 141 153 154
f 141 154 142
f 142 154 155
f 142 155 143
f 143 155 156
f 143 156 144
f 144 156 145
f 144 145 133
f 145 157 158
f 145 158 146
f 146 158 159
f 146 159 147
f 147 159 160
f 147 160 148
f 148 160 161
f 148 161 149
f 149 161 162
f 149 162 150
f 150 162 163
f 150 163 151
f 151 163 164
f 151 164 152
f 152 164 165
f 152 165 153
f 153 165 166
f 153 166 154
f 154 166 167
f 154 167 155
f 155 167 168
f 155 168 156
f 156 168 157
f 156 157 145
f 157 169 170
f 157 170 158
f 158 170 171
f 158 171 159
f 159 171 172
f 159 172 160
f 160 172 173
f 160 173 161
f 161 173 174
f 161 174 162
f 162 174 175
f 162 175 163
f 163 175 176
f 163 176 164
f 164 176 177
f 164 177 165
f 165 177 178
f 165 178 166
f 166 178 179
f 166 179 167
f 167 179 180
f 167 180 168
f 168 180 169
f 168 169 157
f 169 181 182
f 169 182 170
f 170 182 183
f 170 183 171
f 171 183 184
f 171 184 172
f 172 184 185
f 172 185 173
f 173 185 186
f 173 186 174
f 174 186 187
f 174 187 175
f 175 187 188
f 175 188 176
f 176 188 189
f 176 189 177
f 177 189 190
f 177 190 178
f 178 190 191
f 178 191 179
f 179 191 192
f 179 192 180
f 180 192 181
f 180 181 169
f 181 193 194
f 181 194 182
f 182 194 195
f 182 195 183
f 183 195 196
f 183 196 184
f 184 196 197
f 184 197 185
f 185 197 198
f 185 198 186
f 186 198 199
f 186 199 187
f 187 199 200
f 187 200 188
f 188 200 201
f 188 201 189
f 189 201 202
f 189 202 190
f 190 202 203
f 190 203 191
f 191 203 204
f 191 204 192
f 192 204 193
f 192 193 181
f 193 205 206
f 193 206 194
f 194 206 207
f 194 207 195
f 195 207 208
f 195 208 196
f 196 208 209
f 196 209 197
f 197 209 210
f 197 210 198
f 198 210 211
f 198 211 199
f 199 211 212
f 199 212 200
f 200 212 213
f 200 213 201
f 201 213 214
f 201 214 202
f 202 214 215
f 202 215 203
f 203 215 216
f 203 216 204
f 204 216 205
f 204 205 193
f 205 217 218
f 205 218 206
f 206 218 219
f 206 219 207
f 207 219 220
f 207 220 208
f 208 220 221
f 208 221 209
f 209 221 222
f 209 222 210
f 210 222 223
f 210 223 211
f 211 223 224
f 211 224 212
f 212 224 225
f 212 225 213
f 213 225 226
f 213 226 214
f 214 226 227
f 214 227 215
f 215 227 228
f 215 228 216
f 216 228 217
f 216 217 205
f 217 229 230
f 217 230 218
f 218 230 231
f 218 231 219
f 219 231 232
f 219 232 220
f 220 232 233
f 220 233 221
f 221 233 234
f 221 234 222
f 222 234 235
f 222 235 223
f 223 235 236
f 223 236 224
f 224 236 237
f 224 237 225
f 225 237 238
f 225 238 226
f 226 238 239
f 226 239 227
f 227 239 240
f 227 240 228
f 228 240 229
f 228 229 217
f 229 241 242
f 229 242 230
f 230 242 243
f 230 243 231
f 231 243 244
f 231 244 232
f 232 244 245
f 232 245 233
f 233 245 246
f 233 246 234
f 234 246 247
f 234 247 235
f 235 247 248
f 235 248 236
f 236 248 249
f 236 249 237
f 237 249 250
f 237 250 238
f 238 250 251
f 238 251 239
f 239 251 252
f 239 252 240
f 240 252 241
f 240 241 229
f 241 253 254
f 241 254 242
f 242 254 255
f 242 255 243
f 243 255 256
f 243 256 244
f 244 256 257
f 244 257 245
f 245 257 258
f 245 258 246
f 246 258 259
f 246 259 247
f 247 259 260
f 247 260 248
f 248 260 261
f 248 261 249
f 249 261 262
f 249 262 250
f 250 262 263
f 250 263 251
f 251 263 264
f 251 264 252
f 252 264 253
f 252 253 241
f 253 265 266
f 253 266 254
f 254 266 267
f 254 267 255
f 255 267 268
f 255 268 256
f 256 268 269
f 256 269 257
f 257 269 270
f 257 270 258
f 258 270 271
f 258 271 259
f 259 271 272
f 259 272 260
f 260 272 273
f 260 273 261
f 261 273 274
f 261 274 262
f 262 274 275
f 262 275 263
f 263 275 276
f 263 276 264
f 264 276 265
f 264 265 253
f 265 277 278
f 265 278 266
f 266 278 279
f 266 279 267
f 267 279 280
f 267 280 268
f 268 280 281
f 268 281 269
f 269 281 282
f 269 282 270
f 270 282 283
f 270 283 271
f 271 283 284
f 271 284 272
f 272 284 285
f 272 285 273
f 273 285 286
f 273 286 274
f 274 286 287
f 274 287 275
f 275 287 288
f 275 288 276
f 276 288 277
f 276 277 265
f 277 289 290
f 277 290 278
f 278 290 291
f 278 291 279
f 279 291 292
f 279 292 280
f 280 292 293
f 280 293 281
f 281 293 294
f 281 294 282
f 282 294 295
f 282 295 283
f 283 295 296
f 283 296 284
f 284 296 297
f 284 297 285
f 285 297 298
f 285 298 286
f 286 298 299
f 286 299 287
f 287 299 300
f 287 300 288
f 288 300 289
f 288 289 277
f 289 301 302
f 289 302 290
f 290 302 303
f 290 303 291
f 291 303 304
f 291 304 292
f 292 304 305
f 292 305 293
f 293 305 306
f 293 306 294
f 294 306 307
f 294 307 295
f 295 307 308
f 295 308 296
f 296 308 309
f 296 309 297
f 297 309 310
f 297 310 298
f 298 310 311
f 298 311 299
f 299 311 312
f 299 312 300
f 300 312 301
f 300 301 289
f 301 313 314
f 301 314 302
f 302 314 315
f 302 315 303
f 303 315 316
f 303 316 304
f 304 316 317
f 304 317 305
f 305 317 318
f 305 318 306
f 306 318 319
f 306 319 307
f 307 319 320
f 307 320 308
f 308 320 321
f 308 321 309
f 309 321 322
f 309 322 310
f 310 322 323
f 310 323 311
f 311 323 324
f 311 324 312
f 312 324 313
f 312 313 301
f 313 325 326
f 313 326 314
f 314 326 327
f 314 327 315
f 315 327 328
f 315 328 316
f 316 328 329
f 316 329 317
f 317 329 330
f 317 330 318
f 318 330 331
f 318 331 319
f 319 331 332
f 319 332 320
f 320 332 333
f 320 333 321
f 321 333 334
f 321 334 322
f 322 334 335
f 322 335 323
f 323 335 336
f 323 336 324
f 324 336 325
f 324 325 313
f 325 337 338
f 325 338 326
f 326 338 339
f 326 339 327
f 327 339 340
f 327 340 328
f 328 340 341
f 328 341 329
f 329 341 342
f 329 342 330
f 330 342 343
f 330 343 331
f 331 343 344
f 331 344 332
f 332 344 345
f 332 345 333
f 333 345 346
f 333 346 334
f 334 346 347
f 334 347 335
f 335 347 348
f 335 348 336
f 336 348 337
f 336 337 325
f 337 349 350
f 337 350 338
f 338 350 351
f 338 351 339
f 339 351 352
f 339 352 340
f 340 352 353
f 340 353 341
f 341 353 354
f 341 354 342
f 342 354 355
f 342 355 343
f 343 355 356
f 343 356 344
f 344 356 357
f 344 357 345
f 345 357 358
f 345 358 346
f 346 358 359
f 346 359 347
f 347 359 360
f 347 360 348
f 348 360 349
f 348 349 337
f 349 361 362
f 349 362 350
f 350 362 363
f 350 363 351
f 351 363 364
f 351 364 352
f 352 364 365
f 352 365 353
f 353 365 366
f 353 366 354
f 354 366 367
f 354 367 355
f 355 367 368
f 355 368 356
f 356 368 369
f 356 369 357
f 357 369 370
f 357 370 358
f 358 370 371
f 358 371 359
f 359 371 372
f 359 372 360
f 360 372 361
f 360 361 349
f 361 373 374
f 361 374 362
f 362 374 375
f 362 375 363
f 363 375 376
f 363 376 364
f 364 376 377
f 364 377 365
f 365 377 378
f 365 378 366
f 366 378 379
f 366 379 367
f 367 379 380
f 367 380 368
f 368 380 381
f 368 381 369
f 369 381 382
f 369 382 370
f 370 382 383
f 370 383 371
f 371 383 384
f 371 384 372
f 372 384 373
f 372 373 361
f 373 385 386
f 373 386 374
f 374 386 387
f 374 387 375
f 375 387 388
f 375 388 376
f 376 388 389
f 376 389 377
f 377 389 390
f 377 390 378
f 378 390 391
f 378 391 379
f 379 391 392
f 379 392 380
f 380 392 393
f 380 393 381
f 381 393 394
f 381 394 382
f 382 394 395
f 382 395 383
f 383 395 396
f 383 396 384
f 384 396 385
f 384 385 373
f 385 397 398
f 385 398 386
f 386 398 399
f 386 399 387
f 387 399 400
f 387 400 388
f 388 400 401
f 388 401 389
f 389 401 402
f 389 402 390
f 390 402 403
f 390 403 391
f 391 403 404
f 391 404 392
f 392 404 405
f 392 405 393
f 393 405 406
f 393 406 394
f 394 406 407
f 394 407 395
f 395 407 408
f 395 408 396
f 396 408 397
f 396 397 385
f 397 409 410
f 397 410 398
f 398 410 411
f 398 411 399
f 399 411 412
f 399 412 400
f 400 412 413
f 400 413 401
f 401 413 414
f 401 414 402
f 402 414 415
f 402 415 403
f 403 415 416
f 403 416 404
f 404 416 417
f 404 417 405
f 405 417 418
f 405 418 406
f 406 418 419
f 406 419 407
f 407 419 420
f 407 420 408
f 408 420 409
f 408 409 397
f 409 421 422
f 409 422 410
f 410 422 423
f 410 423 411
f 411 423 424
f 411 424 412
f 412 424 425
f 412 425 413
f 413 425 426
f 413 426 414
f 414 426 427
f 414 427 415
f 415 427 428
f 415 428 416
f 416 428 429
f 416 429 417
f 417 429 430
f 417 430 418
f 418 430 431
f 418 431 419
f 419 431 432
f 419 432 420
f 420 432 421
f 420 421 409
f 421 433 434
f 421 434 422
f 422 434 435
f 422 435 423
f 423 435 436
f 423 436 424
f 424 436 437
f 424 437 425
f 425 437 438
f 425 438 426
f 426 438 439
f 426 439 427
f 427 439 440
f 427 440 428
f 428 440 441
f 428 441 429
f 429 441 442
f 429 442 430
f 430 442 443
f 430 443 431
f 431 443 444
f 431 444 432
f 432 444 433
f 432 433 421
f 433 445 446
f 433 446 434
f 434 446 447
f 434 447 435
f 435 447 448
f 435 448 436
f 436 448 449
f 436 449 437
f 437 449 450
f 437 450 438
f 438 450 451
f 438 451 439
f 439 451 452
f 439 452 440
f 440 452 453
f 440 453 441
f 441 453 454
f 441 454 442
f 442 454 455
f 442 455 443
f 443 455 456
f 443 456 444
f 444 456 445
f 444 445 433
f 445 457 458
f 445 458 446
f 446 458 459
f 446 459 447
f 447 459 460
f 447 460 448
f 448 460 461
f 448 461 449
f 449 461 462
f 449 462 450
f 450 462 463
f 450 463 451
f 451 463 464
f 451 464 452
f 452 464 465
f 452 465 453
f 453 465 466
f 453 466 454
f 454 466 467
f 454 467 455
f 455 467 468
f 455 468 456
f 456 468 457
f 456 457 445
f 457 469 470
f 457 470 458
f 458 470 471
f 458 471 459
f 459 471 472
f 459 472 460
f 460 472 473
f 460 473 461
f 461 473 474
f 461 474 462
f 462 474 475
f 462 475 463
f 463 475 476
f 463 476 464
f 464 476 477
f 464 477 465
f 465 477 478
f 465 478 466
f 466 478 479
f 466 479 467
f 467 479 480
f 467 480 468
f 468 480 469
f 468 469 457
f 469 481 482
f 469 482 470
f 470 482 483
f 470 483 471
f 471 483 484
f 471 484 472
f 472 484 485
f 472 485 473
f 473 485 486
f 473 486 474
f 474 486 487
f 474 487 475
f 475 487 488
f 475 488 476
f 476 488 489
f 476 489 477
f 477 489 490
f 477 490 478
f 478 490 491
f 478 491 479
f 479 491 492
f 479 492 480
f 480 492 481
f 480 481 469
f 481 493 494
f 481 494 482
f 482 494 495
f 482 495 483
f 483 495 496
f 483 496 484
f 484 496 497
f 484 497 485
f 485 497 498
f 485 498 486
f 486 498 499
f 486 499 487
f 487 499 500
f 487 500 488
f 488 500 501
f 488 501 489
f 489 501 502
f 489 502 490
f 490 502 503
f 490 503 491
f 491 503 504
f 491 504 492
f 492 504 493
f 492 493 481
f 493 505 506
f 493 506 494
f 494 506 507
f 494 507 495
f 495 507 508
f 495 508 496
f 496 508 509
f 496 509 497
f 497 509 510
f 497 510 498
f 498 510 511
f 498 511 499
f 499 511 512
f 499 512 500
f 500 512 513
f 500 513 501
f 501 513 514
f 501 514 502
f 502 514 515
f 502 515 503
f 503 515 516
f 503 516 504
f 504 516 505
f 504 505 493
f 505 517 518
f 505 518 506
f 506 518 519
f 506 519 507
f 507 519 520
f 507 520 508
f 508 520 521
f 508 521 509
f 509 521 522
f 509 522 510
f 510 522 523
f 510 523 511
f 511 523 524
f 511 524 512
f 512 524 525
f 512 525 513
f 513 525 526
f 513 526 514
f 514 526 527
f 514 527 515
f 515 527 528
f 515 528 516
f 516 528 517
f 516 517 505
f 517 529 530
f 517 530 518
f 518 530 531
f 518 531 519
f 519 531 532
f 519 532 520
f 520 532 533
f 520 533 521
f 521 533 534
f 521 534 522
f 522 534 535
f 522 535 523
f 523 535 536
f 523 536 524
f 524 536 537
f 524 537 525
f 525 537 538
f 525 538 526
f 526 538 539
f 526 539 527
f 527 539 540
f 527 540 528
f 528 540 529
f 528 529 517
f 529 541 542
f 529 542 530
f 530 542 543
f 530 543 531
f 531 543 544
f 531 544 532
f 532 544 545
f 532 545 533
f 533 545 546
f 533 546 534
f 534 546 547
f 534 547 535
f 535 547 548
f 535 548 536
f 536 548 549
f 536 549 537
f 537 549 550
f 537 550 538
f 538 550 551
f 538 551 539
f 539 551 552
f 539 552 540
f 540 552 541
f 540 541 529
f 541 553 554
f 541 554 542
f 542 554 555
f 542 555 543
f 543 555 556
f 543 556 544
f 544 556 557
f 544 557 545
f 545 557 558
f 545 558 546
f 546 558 559
f 546 559 547
f 547 559 560
f 547 560 548
f 548 560 561
f 548 561 549
f 549 561 562
f 549 562 550
f 550 562 563
f 550 563 551
f 551 563 564
f 551 564 552
f 552 564 553
f 552 553 541
f 553 565 566
f 553 566 554
f 554 566 567
f 554 567 555
f 555 567 568
f 555 568 556
f 556 568 569
f 556 569 557
f 557 569 570
f 557 570 558
f 558 570 571
f 558 571 559
f 559 571 572
f 559 572 560
f 560 572 573
f 560 573 561
f 561 573 574
f 561 574 562
f 562 574 575
f 562 575 563
f 563 575 576
f 563 576 564
f 564 576 565
f 564 565 553
f 565 577 578
f 565 578 566
f 566 578 579
f 566 579 567
f 567 579 580
f 567 580 568
f 568 580 581
f 568 581 569
f 569 581 582
f 569 582 570
f 570 582 583
f 570 583 571
f 571 583 584
f 571 584 572
f 572 584 585
f 572 585 573
f 573 585 586
f 573 586 574
f 574 586 587
f 574 587 575
f 575 587 588
f 575 588 576
f 576 588 577
f 576 577 565
f 577 589 590
f 577 590 578
f 578 590 591
f 578 591 579
f 579 591 592
f 579 592 580
f 580 592 593
f 580 593 581
f 581 593 594
f 581 594 582
f 582 594 595
f 582 595 583
f 583 595 596
f 583 596 584
f 584 596 597
f 584 597 585
f 585 597 598
f 585 598 586
f 586 598 599
f 586 599 587
f 587 599 600
f 587 600 588
f 588 600 589
f 588 589 577
f 589 601 602
f 589 602 590
f 590 602 603
f 590 603 591
f 591 603 604
f 591 604 592
f 592 604 605
f 592 605 593
f 593 605 606
f 593 606 594
f 594 606 607
f 594 607 595
f 595 607 608
f 595 608 596
f 596 608 609
f 596 609 597
f 597 609 610
f 597 610 598
f 598 610 611
f 598 611 599
f 599 611 612
f 599 612 600
f 600 612 601
f 600 601 589
f 601 613 614
f 601 614 602
f 602 614 615
f 602 615 603
f 603 615 616
f 603 616 604
f 604 616 617
f 604 617 605
f 605 617 618
f 605 618 606
f 606 618 619
f 606 619 607
f 607 619 620
f 607 620 608
f 608 620 621
f 608 621 609
f 609 621 622
f 609 622 610
f 610 622 623
f 610 623 611
f 611 623 624
f 611 624 612
f 612 624 613
f 612 613 601
f 613 625 626
f 613 626 614
f 614 626 627
f 614 627 615
f 615 627 628
f 615 628 616
f 616 628 629
f 616 629 617
f 617 629 630
f 617 630 618
f 618 630 631
f 618 631 619
f 619 631 632
f 619 632 620
f 620 632 633
f 620 633 621
f 621 633 634
f 621 634 622
f 622 634 635
f 622 635 623
f 623 635 636
f 623 636 624
f 624 636 625
f 624 625 613
f 625 637 638
f 625 638 626
f 626 638 639
f 626 639 627
f 627 639 640
f 627 640 628
f 628 640 641
f 628 641 629
f 629 641 642
f 629 642 630
f 630 642 643
f 630 643 631
f 631 643 644
f 631 644 632
f 632 644 645
f 632 645 633
f 633 645 646
f 633 646 634
f 634 646 647
f 634 647 635
f 635 647 648
f 635 648 636
f 636 648 637
f 636 637 625
f 637 649 650
f 637 650 638
f 638 650 651
f 638 651 639
f 639 651 652
f 639 652 640
f 640 652 653
f 640 653 641
f 641 653 654
f 641 654 642
f 642 654 655
f 642 655 643
f 643 655 656
f 643 656 644
f 644 656 657
f 644 657 645
f 645 657 658
f 645 658 646
f 646 658 659
f 646 659 647
f 647 659 660
f 647 660 648
f 648 660 649
f 648 649 637
f 649 661 662
f 649 662 650
f 650 662 663
f 650 663 651
f 651 663 664
f 651 664 652
f 652 664 665
f 652 665 653
f 653 665 666
f 653 666 654
f 654 666 667
f 654 667 655
f 655 667 668
f 655 668 656
f 656 668 669
f 656 669 657
f 657 669 670
f 657 670 658
f 658 670 671
f 658 671 659
f 659 671 672
f 659 672 660
f 660 672 661
f 660 661 649
f 661 673 674
f 661 674 662
f 662 674 675
f 662 675 663
f 663 675 676
f 663 676 664
f 664 676 677
f 664 677 665
f 665 677 678
f 665 678 666
f 666 678 679
f 666 679 667
f 667 679 680
f 667 680 668
f 668 680 681
f 668 681 669
f 669 681 682
f 669 682 670
f 670 682 683
f 670 683 671
f 671 683 684
f 671 684 672
f 672 684 673
f 672 673 661
f 673 685 686
f 673 686 674
f 674 686 687
f 674 687 675
f 675 687 688
f 675 688 676
f 676 688 689
f 676 689 677
f 677 689 690
f 677 690 678
f 678 690 691
f 678 691 679
f 679 691 692
f 679 692 680
f 680 692 693
f 680 693 681
f 681 693 694
f 681 694 682
f 682 694 695
f 682 695 683
f 683 695 696
f 683 696 684
f 684 696 685
f 684 685 673
f 685 697 698
f 685 698 686
f 686 698 699
f 686 699 687
f 687 699 700
f 687 700 688
f 688 700 701
f 688 701 689
f 689 701 702
f 689 702 690
f 690 702 703
f 690 703 691
f 691 703 704
f 691 704 692
f 692 704 705
f 692 705 693
f 693 705 706
f 693 706 694
f 694 706 707
f 694 707 695
f 695 707 708
f 695 708 696
f 696 708 697
f 696 697 685
f 697 709 710
f 697 710 698
f 698 710 711
f 698 711 699
f 699 711 712
f 699 712 700
f 700 712 713
f 700 713 701
f 701 713 714
f 701 714 702
f 702 714 715
f 702 715 703
f 703 715 716
f 703 716 704
f 704 716 717
f 704 717 705
f 705 717 718
f 705 718 706
f 706 718 719
f 706 719 707
f 707 719 720
f 707 720 708
f 708 720 709
f 708 709 697
f 709 721 722
f 709 722 710
f 710 722 723
f 710 723 711
f 711 723 724
f 711 724 712
f 712 724 725
f 712 725 713
f 713 725 726
f 713 726 714
f 714 726 727
f 714 727 715
f 715 727 728
f 715 728 716
f 716 728 729
f 716 729 717
f 717 729 730
f 717 730 718
f 718 730 731
f 718 731 719
f 719 731 732
f 719 732 720
f 720 732 721
f 720 721 709
f 721 733 734
f 721 734 722
f 722 734 735
f 722 735 723
f 723 735 736
f 723 736 724
f 724 736 737
f 724 737 725
f 725 737 738
f 725 738 726
f 726 738 739
f 726 739 727
f 727 739 740
f 727 740 728
f 728 740 741
f 728 741 729
f 729 741 742
f 729 742 730
f 730 742 743
f 730 743 731
f 731 743 744
f 731 744 732
f 732 744 733
f 732 733 721
f 733 745 746
f 733 746 734
f 734 746 747
f 734 747 735
f 735 747 748
f 735 748 736
f 736 748 749
f 736 749 737
f 737 749 750
f 737 750 738
f 738 750 751
f 738 751 739
f 739 751 752
f 739 752 740
f 740 752 753
f 740 753 741
f 741 753 754
f 741 754 742
f 742 754 755
f 742 755 743
f 743 755 756
f 743 756 744
f 744 756 745
f 744 745 733
f 745 757 758
f 745 758 746
f 746 758 759
f 746 759 747
f 747 759 760
f 747 760 748
f 748 760 761
f 748 761 749
f 749 761 762
f 749 762 750
f 750 762 763
f 750 763 751
f 751 763 764
f 751 764 752
f 752 764 765
f 752 765 753
f 753 765 766
f 753 766 754
f 754 766 767
f 754 767 755
f 755 767 768
f 755 768 756
f 756 768 757
f 756 757 745
f 757 769 770
f 757 770 758
f 758 770 771
f 758 771 759
f 759 771 772
f 759 772 760
f 760 772 773
f 760 773 761
f 761 773 774
f 761 774 762
f 762 774 775
f 762 775 763
f 763 775 776
f 763 776 764
f 764 776 777
f 764 777 765
f 765 777 778
f 765 778 766
f 766 778 779
f 766 779 767
f 767 779 780
f 767 780 768
f 768 780 769
f 768 769 757
f 769 781 782
f 769 782 770
f 770 782 783
f 770 783 771
f 771 783 784
f 771 784 772
f 772 784 785
f 772 785 773
f 773 785 786
f 773 786 774
f 774 786 787
f 774 787 775
f 775 787 788
f 775 788 776
f 776 788 789
f 776 789 777
f 777 789 790
f 777 790 778
f 778 790 791
f 778 791 779
f 779 791 792
f 779 792 780
f 780 792 781
f 780 781 769
f 781 793 794
f 781 794 782
f 782 794 795
f 782 795 783
f 783 795 796
f 783 796 784
f 784 796 797
f 784 797 785
f 785 797 798
f 785 798 786
f 786 798 799
f 786 799 787
f 787 799 800
f 787 800 788
f 788 800 801
f 788 801 789
f 789 801 802
f 789 802 790
f 790 802 803
f 790 803 791
f 791 803 804
f 791 804 792
f 792 804 793
f 792 793 781
f 793 805 806
f 793 806 794
f 794 806 807
f 794 807 795
f 795 807 808
f 795 808 796
f 796 808 809
f 796 809 797
f 797 809 810
f 797 810 798
f 798 810 811
f 798 811 799
f 799 811 812
f 799 812 800
f 800 812 813
f 800 813 801
f 801 813 814
f 801 814 802
f 802 814 815
f 802 815 803
f 803 815 816
f 803 816 804
f 804 816 805
f 804 805 793
f 805 817 818
f 805 818 806
f 806 818 819
f 806 819 807
f 807 819 820
f 807 820 808
f 808 820 821
f 808 821 809
f 809 821 822
f 809 822 810
f 810 822 823
f 810 823 811
f 811 823 824
f 811 824 812
f 812 824 825
f 812 825 813
f 813 825 826
f 813 826 814
f 814 826 827
f 814 827 815
f 815 827 828
f 815 828 816
f 816 828 817
f 816 817 805
f 817 829 830
f 817 830 818
f 818 830 831
f 818 831 819
f 819 831 832
f 819 832 820
f 820 832 833
f 820 833 821
f 821 833 834
f 821 834 822
f 822 834 835
f 822 835 823
f 823 835 836
f 823 836 824
f 824 836 837
f 824 837 825
f 825 837 838
f 825 838 826
f 826 838 839
f 826 839 827
f 827 839 840
f 827 840 828
f 828 840 829
f 828 829 817
f 829 841 842
f 829 842 830
f 830 842 843
f 830 843 831
f 831 843 844
f 831 844 832
f 832 844 845
f 832 845 833
f 833 845 846
f 833 846 834
f 834 846 847
f 834 847 835
f 835 847 848
f 835 848 836
f 836 848 849
f 836 849 837
f 837 849 850
f 837 850 838
f 838 850 851
f 838 851 839
f 839 851 852
f 839 852 840
f 840 852 841
f 840 841 829
f 841 853 854
f 841 854 842
f 842 854 855
f 842 855 843
f 843 855 856
f 843 856 844
f 844 856 857
f 844 857 845
f 845 857 858
f 845 858 846
f 846 858 859
f 846 859 847
f 847 859 860
f 847 860 848
f 848 860 861
f 848 861 849
f 849 861 862
f 849 862 850
f 850 862 863
f 850 863 851
f 851 863 864
f 851 864 852
f 852 864 853
f 852 853 841
f 853 865 866
f 853 866 854
f 854 866 867
f 854 867 855
f 855 867 868
f 855 868 856
f 856 868 869
f 856 869 857
f 857 869 870
f 857 870 858
f 858 870 871
f 858 871 859
f 859 871 872
f 859 872 860
f 860 872 873
f 860 873 861
f 861 873 874
f 861 874 862
f 862 874 875
f 862 875 863
f 863 875 876
f 863 876 864
f 864 876 865
f 864 865 853
f 865 877 878
f 865 878 866
f 866 878 879
f 866 879 867
f 867 879 880
f 867 880 868
f 868 880 881
f 868 881 869
f 869 881 882
f 869 882 870
f 870 882 883
f 870 883 871
f 871 883 884
f 871 884 872
f 872 884 885
f 872 885 873
f 873 885 886
f 873 886 874
f 874 886 887
f 874 887 875
f 875 887 888
f 875 888 876
f 876 888 877
f 876 877 865
f 877 889 890
f 877 890 878
f 878 890 891
f 878 891 879
f 879 891 892
f 879 892 880
f 880 892 893
f 880 893 881
f 881 893 894
f 881 894 882
f 882 894 895
f 882 895 883
f 883 895 896
f 883 896 884
f 884 896 897
f 884 897 885
f 885 897 898
f 885 898 886
f 886 898 899
f 886 899 887
f 887 899 900
f 887 900 888
f 888 900 889
f 888 889 877
f 889 901 902
f 889 902 890
f 890 902 903
f 890 903 891
f 891 903 904
f 891 904 892
f 892 904 905
f 892 905 893
f 893 905 906
f 893 906 894
f 894 906 907
f 894 907 895
f 895 907 908
f 895 908 896
f 896 908 909
f 896 909 897
f 897 909 910
f 897 910 898
f 898 910 911
f 898 911 899
f 899 911 912
f 899 912 900
f 900 912 901
f 900 901 889
f 901 913 914
f 901 914 902
f 902 914 915
f 902 915 903
f 903 915 916
f 903 916 904
f 904 916 917
f 904 917 905
f 905 917 918
f 905 918 906
f 906 918 919
f 906 919 907
f 907 919 920
f 907 920 908
f 908 920 921
f 908 921 909
f 909 921 922
f 909 922 910
f 910 922 923
f 910 923 911
f 911 923 924
f 911 924 912
f 912 924 913
f 912 913 901
f 913 925 926
f 913 926 914
f 914 926 927
f 914 927 915
f 915 927 928
f 915 928 916
f 916 928 929
f 916 929 917
f 917 929 930
f 917 930 918
f 918 930 931
f 918 931 919
f 919 931 932
f 919 932 920
f 920 932 933
f 920 933 921
f 921 933 934
f 921 934 922
f 922 934 935
f 922 935 923
f 923 935 936
f 923 936 924
f 924 936 925
f 924 925 913
f 925 937 938
f 925 938 926
f 926 938 939
f 926 939 927
f 927 939 940
f 927 940 928
f 928 940 941
f 928 941 929
f 929 941 942
f 929 942 930
f 930 942 943
f 930 943 931
f 931 943 944
f 931 944 932
f 932 944 945
f 932 945 933
f 933 945 946
f 933 946 934
f 934 946 947
f 934 947 935
f 935 947 948
f 935 948 936
f 936 948 937
f 936 937 925
f 937 949 950
f 937 950 938
f 938 950 951
f 938 951 939
f 939 951 952
f 939 952 940
f 940 952 953
f 940 953 941
f 941 953 954
f 941 954 942
f 942 954 955
f 942 955 943
f 943 955 956
f 943 956 944
f 944 956 957
f 944 957 945
f 945 957 958
f 945 958 946
f 946 958 959
f 946 959 947
f 947 959 960
f 947 960 948
f 948 960 949
f 948 949 937
f 949 961 962
f 949 962 950
f 950 962 963
f 950 963 951
f 951 963 964
f 951 964 952
f 952 964 965
f 952 965 953
f 953 965 966
f 953 966 954
f 954 966 967
f 954 967 955
f 955 967 968
f 955 968 956
f 956 968 969
f 956 969 957
f 957 969 970
f 957 970 958
f 958 970 971
f 958 971 959
f 959 971 972
f 959 972 960
f 960 972 961
f 960 961 949
f 961 973 974
f 961 974 962
f 962 974 975
f 962 975 963
f 963 975 976
f 963 976 964
f 964 976 977
f 964 977 965
f 965 977 978
f 965 978 966
f 966 978 979
f 966 979 967
f 967 979 980
f 967 980 968
f 968 980 981
f 968 981 969
f 969 981 982
f 969 982 970
f 970 982 983
f 970 983 971
f 971 983 984
f 971 984 972
f 972 984 973
f 972 973 961
f 973 985 986
f 973 986 974
f 974 986 987
f 974 987 975
f 975 987 988
f 975 988 976
f 976 988 989
f 976 989 977
f 977 989 990
f 977 990 978
f 978 990 991
f 978 991 979
f 979 991 992
f 979 992 980
f 980 992 993
f 980 993 981
f 981 993 994
f 981 994 982
f 982 994 995
f 982 995 983
f 983 995 996
f 983 996 984
f 984 996 985
f 984 985 973
f 985 997 998
f 985 998 986
f 986 998 999
f 986 999 987
f 987 999 1000
f 987 1000 988
f 988 1000 1001
f 988 1001 989
f 989 1001 1002
f 989 1002 990
f 990 1002 1003
f 990 1003 991
f 991 1003 1004
f 991 1004 992
f 992 1004 1005
f 992 1005 993
f 993 1005 1006
f 993 1006 994
f 994 1006 1007
f 994 1007 995
f 995 1007 1008
f 995 1008 996
f 996 1008 997
f 996 997 985
f 997 1009 1010
f 997 1010 998
f 998 1010 1011
f 998 1011 999
f 999 1011 1012
f 999 1012 1000
f 1000 1012 1013
f 1000 1013 1001
f 1001 1013 1014
f 1001 1014 1002
f 1002 1014 1015
f 1002 1015 1003
f 1003 1015 1016
f 1003 1016 1004
f 1004 1016 1017
f 1004 1017 1005
f 1005 1017 1018
f 1005 1018 1006
f 1006 1018 1019
f 1006 1019 1007
f 1007 1019 1020
f 1007 1020 1008
f 1008 1020 1009
f 1008 1009 997
f 1009 1021 1022
f 1009 1022 1010
f 1010 1022 1023
f 1010 1023 1011
f 1011 1023 1024
f 1011 1024 1012
f 1012 1024 1025
f 1012 1025 1013
f 1013 1025 1026
f 1013 1026 1014
f 1014 1026 1027
f 1014 1027 1015
f 1015 1027 1028
f 1015 1028 1016
f 1016 1028 1029
f 1016 1029 1017
f 1017 1029 1030
f 1017 1030 1018
f 1018 1030 1031
f 1018 1031 1019
f 1019 1031 1032
f 1019 1032 1020
f 1020 1032 1021
f 1020 1021 1009
f 1021 1033 1034
f 1021 1034 1022
f 1022 1034 1035
f 1022 1035 1023
f 1023 1035 1036
f 1023 1036 1024
f 1024 1036 1037
f 1024 1037 1025
f 1025 1037 1038
f 1025 1038 1026
f 1026 1038 1039
f 1026 1039 1027
f 1027 1039 1040
f 1027 1040 1028
f 1028 1040 1041
f 1028 1041 1029
f 1029 1041 1042
f 1029 1042 1030
f 1030 1042 1043
f 1030 1043 1031
f 1031 1043 1044
f 1031 1044 1032
f 1032 1044 1033
f 1032 1033 1021
f 1033 1045 1046
f 1033 1046 1034
f 1034 1046 1047
f 1034 1047 1035
f 1035 1047 1048
f 1035 1048 1036
f 1036 1048 1049
f 1036 1049 1037
f 1037 1049 1050
f 1037 1050 1038
f 1038 1050 1051
f 1038 1051 1039
f 1039 1051 1052
f 1039 1052 1040
f 1040 1052 1053
f 1040 1053 1041
f 1041 1053 1054
f 1041 1054 1042
f 1042 1054 1055
f 1042 1055 1043
f 1043 1055 1056
f 1043 1056 1044
f 1044 1056 1045
f 1044 1045 1033
f 1045 1057 1058
f 1045 1058 1046
f 1046 1058 1059
f 1046 1059 1047
f 1047 1059 1060
f 1047 1060 1048
f 1048 1060 1061
f 1048 1061 1049
f 1049 1061 1062
f 1049 1062 1050
f 1050 1062 1063
f 1050 1063 1051
f 1051 1063 1064
f 1051 1064 1052
f 1052 1064 1065
f 1052 1065 1053
f 1053 1065 1066
f 1053 1066 1054
f 1054 1066 1067
f 1054 1067 1055
f 1055 1067 1068
f 1055 1068 1056
f 1056 1068 1057
f 1056 1057 1045
f 1057 1069 1070
f 1057 1070 1058
f 1058 1070 1071
f 1058 1071 1059
f 1059 1071 1072
f 1059 1072 1060
f 1060 1072 1073
f 1060 1073 1061
f 1061 1073 1074
f 1061 1074 1062
f 1062 1074 1075
f 1062 1075 1063
f 1063 1075 1076
f 1063 1076 1064
f 1064 1076 1077
f 1064 1077 1065
f 1065 1077 1078
f 1065 1078 1066
f 1066 1078 1079
f 1066 1079 1067
f 1067 1079 1080
f 1067 1080 1068
f 1068 1080 1069
f 1068 1069 1057
f 1069 1081 1082
f 1069 1082 1070
f 1070 1082 1083
f 1070 1083 1071
f 1071 1083 1084
f 1071 1084 1072
f 1072 1084 1085
f 1072 1085 1073
f 1073 1085 1086
f 1073 1086 1074
f 1074 1086 1087
f 1074 1087 1075
f 1075 1087 1088
f 1075 1088 1076
f 1076 1088 1089
f 1076 1089 1077
f 1077 1089 1090
f 1077 1090 1078
f 1078 1090 1091
f 1078 1091 1079
f 1079 1091 1092
f 1079 1092 1080
f 1080 1092 1081
f 1080 1081 1069
f 1081 1093 1094
f 1081 1094 1082
f 1082 1094 1095
f 1082 1095 1083
f 1083 1095 1096
f 1083 1096 1084
f 1084 1096 1097
f 1084 1097 1085
f 1085 1097 1098
f 1085 1098 1086
f 1086 1098 1099
f 1086 1099 1087
f 1087 1099 1100
f 1087 1100 1088
f 1088 1100 1101
f 1088 1101 1089
f 1089 1101 1102
f 1089 1102 1090
f 1090 1102 1103
f 1090 1103 1091
f 1091 1103 1104
f 1091 1104 1092
f 1092 1104 1093
f 1092 1093 1081
f 1093 1105 1106
f 1093 1106 1094
f 1094 1106 1107
f 1094 1107 1095
f 1095 1107 1108
f 1095 1108 1096
f 1096 1108 1109
f 1096 1109 1097
f 1097 1109 1110
f 1097 1110 1098
f 1098 1110 1111
f 1098 1111 1099
f 1099 1111 1112
f 1099 1112 1100
f 1100 1112 1113
f 1100 1113 1101
f 1101 1113 1114
f 1101 1114 1102
f 1102 1114 1115
f 1102 1115 1103
f 1103 1115 1116
f 1103 1116 1104
f 1104 1116 1105
f 1104 1105 1093
f 1105 1117 1118
f 1105 1118 1106
f 1106 1118 1119
f 1106 1119 1107
f 1107 1119 1120
f 1107 1120 1108
f 1108 1120 1121
f 1108 1121 1109
f 1109 1121 1122
f 1109 1122 1110
f 1110 1122 1123
f 1110 1123 1111
f 1111 1123 1124
f 1111 1124 1112
f 1112 1124 1125
f 1112 1125 1113
f 1113 1125 1126
f 1113 1126 1114
f 1114 1126 1127
f 1114 1127 1115
f 1115 1127 1128
f 1115 1128 1116
f 1116 1128 1117
f 1116 1117 1105
f 1117 1129 1130
f 1117 1130 1118
f 1118 1130 1131
f 1118 1131 1119
f 1119 1131 1132
f 1119 1132 1120
f 1120 1132 1133
f 1120 1133 1121
f 1121 1133 1134
f 1121 1134 1122
f 1122 1134 1135
f 1122 1135 1123
f 1123 1135 1136
f 1123 1136 1124
f 1124 1136 1137
f 1124 1137 1125
f 1125 1137 1138
f 1125 1138 1126
f 1126 1138 1139
f 1126 1139 1127
f 1127 1139 1140
f 1127 1140 1128
f 1128 1140 1129
f 1128 1129 1117
f 1129 1141 1142
f 1129 1142 1130
f 1130 1142 1143
f 1130 1143 1131
f 1131 1143 1144
f 1131 1144 1132
f 1132 1144 1145
f 1132 1145 1133
f 1133 1145 1146
f 1133 1146 1134
f 1134 1146 1147
f 1134 1147 1135
f 1135 1147 1148
f 1135 1148 1136
f 1136 1148 1149
f 1136 1149 1137
f 1137 1149 1150
f 1137 1150 1138
f 1138 1150 1151
f 1138 1151 1139
f 1139 1151 1152
f 1139 1152 1140
f 1140 1152 1141
f 1140 1141 1129
f 1141 1153 1154
f 1141 1154 1142
f 1142 1154 1155
f 1142 1155 1143
f 1143 1155 1156
f 1143 1156 1144
f 1144 1156 1157
f 1144 1157 1145
f 1145 1157 1158
f 1145 1158 1146
f 1146 1158 1159
f 1146 1159 1147
f 1147 1159 1160
f 1147 1160 1148
f 1148 1160 1161
f 1148 1161 1149
f 1149 1161 1162
f 1149 1162 1150
f 1150 1162 1163
f 1150 1163 1151
f 1151 1163 1164
f 1151 1164 1152
f 1152 1164 1153
f 1152 1153 1141
f 1153 1165 1166
f 1153 1166 1154
f 1154 1166 1167
f 1154 1167 1155
f 1155 1167 1168
f 1155 1168 1156
f 1156 1168 1169
f 1156 1169 1157
f 1157 1169 1170
f 1157 1170 1158
f 1158 1170 1171
f 1158 1171 1159
f 1159 1171 1172
f 1159 1172 1160
f 1160 1172 1173
f 1160 1173 1161
f 1161 1173 1174
f 1161 1174 1162
f 1162 1174 1175
f 1162 1175 1163
f 1163 1175 1176
f 1163 1176 1164
f 1164 1176 1165
f 1164 1165 1153
f 1165 1177 1178
f 1165 1178 1166
f 1166 1178 1179
f 1166 1179 1167
f 1167 1179 1180
f 1167 1180 1168
f 1168 1180 1181
f 1168 1181 1169
f 1169 1181 1182
f 1169 1182 1170
f 1170 1182 1183
f 1170 1183 1171
f 1171 1183 1184
f 1171 1184 1172
f 1172 1184 1185
f 1172 1185 1173
f 1173 1185 1186
f 1173 1186 1174
f 1174 1186 1187
f 1174 1187 1175
f 1175 1187 1188
f 1175 1188 1176
f 1176 1188 1177
f 1176 1177 1165
f 1177 1189 1190
f 1177 1190 1178
f 1178 1190 1191
f 1178 1191 1179
f 1179 1191 1192
f 1179 1192 1180
f 1180 1192 1193
f 1180 1193 1181
f 1181 1193 1194
f 1181 1194 1182
f 1182 1194 1195
f 1182 1195 1183
f 1183 1195 1196
f 1183 1196 1184
f 1184 1196 1197
f 1184 1197 1185
f 1185 1197 1198
f 1185 1198 1186
f 1186 1198 1199
f 1186 1199 1187
f 1187 1199 1200
f 1187 1200 1188
f 1188 1200 1189
f 1188 1189 1177
f 1189 1201 1202
f 1189 1202 1190
f 1190 1202 1203
f 1190 1203 1191
f 1191 1203 1204
f 1191 1204 1192
f 1192 1204 1205
f 1192 1205 1193
f 1193 1205 1206
f 1193 1206 1194
f 1194 1206 1207
f 1194 1207 1195
f 1195 1207 1208
f 1195 1208 1196
f 1196 1208 1209
f 1196 1209 1197
f 1197 1209 1210
f 1197 1210 1198
f 1198 1210 1211
f 1198 1211 1199
f 1199 1211 1212
f 1199 1212 1200
f 1200 1212 1201
f 1200 1201 1189
f 1201 1213 1214
f 1201 1214 1202
f 1202 1214 1215
f 1202 1215 1203
f 1203 1215 1216
f 1203 1216 1204
f 1204 1216 1217
f 1204 1217 1205
f 1205 1217 1218
f 1205 1218 1206
f 1206 1218 1219
f 1206 1219 1207
f 1207 1219 1220
f 1207 1220 1208
f 1208 1220 1221
f 1208 1221 1209
f 1209 1221 1222
f 1209 1222 1210
f 1210 1222 1223
f 1210 1223 1211
f 1211 1223 1224
f 1211 1224 1212
f 1212 1224 1213
f 1212 1213 1201
f 1213 1225 1226
f 1213 1226 1214
f 1214 1226 1227
f 1214 1227 1215
f 1215 1227 1228
f 1215 1228 1216
f 1216 1228 1229
f 1216 1229 1217
f 1217 1229 1230
f 1217 1230 1218
f 1218 1230 1231
f 1218 1231 1219
f 1219 1231 1232
f 1219 1232 1220
f 1220 1232 1233
f 1220 1233 1221
f 1221 1233 1234
f 1221 1234 1222
f 1222 1234 1235
f 1222 1235 1223
f 1223 1235 1236
f 1223 1236 1224
f 1224 1236 1225
f 1224 1225 1213
f 1225 1237 1238
f 1225 1238 1226
f 1226 1238 1239
f 1226 1239 1227
f 1227 1239 1240
f 1227 1240 1228
f 1228 1240 1241
f 1228 1241 1229
f 1229 1241 1242
f 1229 1242 1230
f 1230 1242 1243
f 1230 1243 1231
f 1231 1243 1244
f 1231 1244 1232
f 1232 1244 1245
f 1232 1245 1233
f 1233 1245 1246
f 1233 1246 1234
f 1234 1246 1247
f 1234 1247 1235
f 1235 1247 1248
f 1235 1248 1236
f 1236 1248 1237
f 1236 1237 1225
f 1237 97 98
f 1237 98 1238
f 1238 98 99
f 1238 99 1239
f 1239 99 100
f 1239 100 1240
f 1240 100 101
f 1240 101 1241
f 1241 101 102
f 1241 102 1242
f 1242 102 103
f 1242 103 1243
f 1243 103 104
f 1243 104 1244
f 1244 104 105
f 1244 105 1245
f 1245 105 106
f 1245 106 1246
f 1246 106 107
f 1246 107 1247
f 1247 107 108
f 1247 108 1248
f 1248 108 97
f 1248 97 1237
v 0.0000000 -0.0250000 0.8300000
v 0.0000000 -0.0250000 0.8650001
v -0.0095671 -0.0230970 0.8300000
v -0.0095671 -0.0230970 0.8650001
v -0.0176777 -0.0176777 0.8300000
v -0.0176777 -0.0176777 0.8650001
v -0.0230970 -0.0095671 0.8300000
v -0.0230970 -0.0095671 0.8650001
v -0.0250000 -0.0000000 0.8300000
v -0.0250000 -0.0000000 0.8650001
v -0.0230970 0.0095671 0.8300000
v -0.0230970 0.0095671 0.8650001
v -0.0176777 0.0176777 0.8300000
v -0.0176777 0.0176777 0.8650001
v -0.0095671 0.0230970 0.8300000
v -0.0095671 0.0230970 0.8650001
v 0.0000000 0.0250000 0.8300000
v 0.0000000 0.0250000 0.8650001
v 0.0095671 0.0230970 0.8300000
v 0.0095671 0.0230970 0.8650001
v 0.0176777 0.0176777 0.8300000
v 0.0176777 0.0176777 0.8650001
v 0.0230970 0.0095671 0.8300000
v 0.0230970 0.0095671 0.8650001
v 0.0250000 0.0000000 0.8300000
v 0.0250000 0.0000000 0.8650001
v 0.0230970 -0.0095671 0.8300000
v 0.0230970 -0.0095671 0.8650001
v 0.0176777 -0.0176777 0.8300000
v 0.0176777 -0.0176777 0.8650001
v 0.0095671 -0.0230970 0.8300000
v 0.0095671 -0.0230970 0.8650001
f 1249 1250 1252
f 1249 1252 1251
f 1251 1252 1254
f 1251 1254 1253
f 1253 1254 1256
f 1253 1256 1255
f 1255 1256 1258
f 1255 1258 1257
f 1257 1258 1260
f 1257 1260 1259
f 1259 1260 1262
f 1259 1262 1261
f 1261 1262 1264
f 1261 1264 1263
f 1263 1264 1266
f 1263 1266 1265
f 1265 1266 1268
f 1265 1268 1267
f 1267 1268 1270
f 1267 1270 1269
f 1269 1270 1272
f 1269 1272 1271
f 1271 1272 1274
f 1271 1274 1273
f 1273 1274 1276
f 1273 1276 1275
f 1275 1276 1278
f 1275 1278 1277
f 1254 1252 1250
f 1250 1280 1278
f 1278 1276 1274
f 1274 1272 1270
f 1270 1268 1266
f 1266 1264 1262
f 1262 1260 1258
f 1258 1256 1254
f 1254 1250 1278
f 1278 1274 1270
f 1270 1266 1262
f 1262 1258 1254
f 1254 1278 1270
f 1270 1262 1254
f 1277 1278 1280
f 1277 1280 1279
f 1279 1280 1250
f 1279 1250 1249
f 1279 1249 1251
f 1251 1253 1255
f 1255 1257 1259
f 1259 1261 1263
f 1263 1265 1267
f 1267 1269 1271
f 1271 1273 1275
f 1275 1277 1279
f 1279 1251 1255
f 1255 1259 1263
f 1263 1267 1271
f 1271 1275 1279
f 1279 1255 1263
f 1263 1271 1279
v 0.0200001 -0.0000000 0.8580000
v 0.1300002 -0.0000000 0.8580000
v 0.0200001 0.0030615 0.8573911
v 0.1300002 0.0030615 0.8573911
v 0.0200001 0.0056569 0.8556568
v 0.1300002 0.0056569 0.8556568
v 0.0200001 0.0073910 0.8530614
v 0.1300002 0.0073910 0.8530614
v 0.0200001 0.0080000 0.8500000
v 0.1300002 0.0080000 0.8500000
v 0.0200001 0.0073910 0.8469386
v 0.1300002 0.0073910 0.8469386
v 0.0200001 0.0056569 0.8443431
v 0.1300002 0.0056569 0.8443431
v 0.0200001 0.0030615 0.8426089
v 0.1300002 0.0030615 0.8426089
v 0.0200001 0.0000000 0.8419999
v 0.1300002 0.0000000 0.8419999
v 0.0200001 -0.0030615 0.8426089
v 0.1300002 -0.0030615 0.8426089
v 0.0200001 -0.0056569 0.8443431
v 0.1300002 -0.0056569 0.8443431
v 0.0200001 -0.0073910 0.8469386
v 0.1300002 -0.0073910 0.8469386
v 0.0200001 -0.0080000 0.8500000
v 0.1300002 -0.0080000 0.8500000
v 0.0200001 -0.0073910 0.8530614
v 0.1300002 -0.0073910 0.8530614
v 0.0200001 -0.0056569 0.8556568
v 0.1300002 -0.0056569 0.8556568
v 0.0200001 -0.0030615 0.8573911
v 0.1300002 -0.0030615 0.8573911
f 1281 1282 1284
f 1281 1284 1283
f 1283 1284 1286
f 1283 1286 1285
f 1285 1286 1288
f 1285 1288 1287
f 1287 1288 1290
f 1287 1290 1289
f 1289 1290 1292
f 1289 1292 1291
f 1291 1292 1294
f 1291 1294 1293
f 1293 1294 1296
f 1293 1296 1295
f 1295 1296 1298
f 1295 1298 1297
f 1297 1298 1300
f 1297 1300 1299
f 1299 1300 1302
f 1299 1302 1301
f 1301 1302 1304
f 1301 1304 1303
f 1303 1304 1306
f 1303 1306 1305
f 1305 1306 1308
f 1305 1308 1307
f 1307 1308 1310
f 1307 1310 1309
f 1286 1284 1282
f 1282 1312 1310
f 1310 1308 1306
f 1306 1304 1302
f 1302 1300 1298
f 1298 1296 1294
f 1294 1292 1290
f 1290 1288 1286
f 1286 1282 1310
f 1310 1306 1302
f 1302 1298 1294
f 1294 1290 1286
f 1286 1310 1302
f 1302 1294 1286
f 1309 1310 1312
f 1309 1312 1311
f 1311 1312 1282
f 1311 1282 1281
f 1311 1281 1283
f 1283 1285 1287
f 1287 1289 1291
f 1291 1293 1295
f 1295 1297 1299
f 1299 1301 1303
f 1303 1305 1307
f 1307 1309 1311
f 1311 1283 1287
f 1287 1291 1295
f 1295 1299 1303
f 1303 1307 1311
f 1311 1287 1295
f 1295 1303 1311
v -0.0099999 0.0173205 0.8580000
v -0.0650000 0.1125833 0.8580000
v -0.0126513 0.0157898 0.8573911
v -0.0676513 0.1110526 0.8573909
v -0.0148990 0.0144921 0.8556568
v -0.0698990 0.1097549 0.8556568
v -0.0164008 0.0136250 0.8530614
v -0.0714008 0.1088878 0.8530614
v -0.0169281 0.0133205 0.8500000
v -0.0719282 0.1085833 0.8500000
v -0.0164008 0.0136250 0.8469386
v -0.0714008 0.1088878 0.8469386
v -0.0148990 0.0144921 0.8443431
v -0.0698990 0.1097549 0.8443431
v -0.0126513 0.0157898 0.8426090
v -0.0676513 0.1110526 0.8426089
v -0.0099999 0.0173205 0.8419999
v -0.0650000 0.1125833 0.8419999
v -0.0073487 0.0188512 0.8426090
v -0.0623487 0.1141140 0.8426089
v -0.0051010 0.0201489 0.8443431
v -0.0601010 0.1154117 0.8443431
v -0.0035991 0.0210160 0.8469386
v -0.0585992 0.1162788 0.8469386
v -0.0030717 0.0213205 0.8500000
v -0.0580718 0.1165833 0.8500000
v -0.0035991 0.0210160 0.8530614
v -0.0585992 0.1162788 0.8530614
v -0.0051010 0.0201489 0.8556568
v -0.0601010 0.1154117 0.8556568
v -0.0073487 0.0188512 0.8573911
v -0.0623487 0.1141140 0.8573909
f 1313 1314 1316
f 1313 1316 1315
f 1315 1316 1318
f 1315 1318 1317
f 1317 1318 1320
f 1317 1320 1319
f 1319 1320 1322
f 1319 1322 1321
f 1321 1322 1324
f 1321 1324 1323
f 1323 1324 1326
f 1323 1326 1325
f 1325 1326 1328
f 1325 1328 1327
f 1327 1328 1330
f 1327 1330 1329
f 1329 1330 1332
f 1329 1332 1331
f 1331 1332 1334
f 1331 1334 1333
f 1333 1334 1336
f 1333 1336 1335
f 1335 1336 1338
f 1335 1338 1337
f 1337 1338 1340
f 1337 1340 1339
f 1339 1340 1342
f 1339 1342 1341
f 1318 1316 1314
f 1314 1344 1342
f 1342 1340 1338
f 1338 1336 1334
f 1334 1332 1330
f 1330 1328 1326
f 1326 1324 1322
f 1322 1320 1318
f 1318 1314 1342
f 1342 1338 1334
f 1334 1330 1326
f 1326 1322 1318
f 1318 1342 1334
f 1334 1326 1318
f 1341 1342 1344
f 1341 1344 1343
f 1343 1344 1314
f 1343 1314 1313
f 1343 1313 1315
f 1315 1317 1319
f 1319 1321 1323
f 1323 1325 1327
f 1327 1329 1331
f 1331 1333 1335
f 1335 1337 1339
f 1339 1341 1343
f 1343 1315 1319
f 1319 1323 1327
f 1327 1331 1335
f 1335 1339 1343
f 1343 1319 1327
f 1327 1335 1343
v -0.0099999 -0.0173205 0.8580000
v -0.0650000 -0.1125833 0.8580000
v -0.0073487 -0.0188512 0.8573911
v -0.0623487 -0.1141140 0.8573909
v -0.0051010 -0.0201489 0.8556568
v -0.0601010 -0.1154117 0.8556568
v -0.0035991 -0.0210160 0.8530614
v -0.0585991 -0.1162788 0.8530614
v -0.0030718 -0.0213205 0.8500000
v -0.0580718 -0.1165833 0.8500000
v -0.0035991 -0.0210160 0.8469386
v -0.0585991 -0.1162788 0.8469386
v -0.0051010 -0.0201489 0.8443431
v -0.0601010 -0.1154117 0.8443431
v -0.0073487 -0.0188512 0.8426090
v -0.0623487 -0.1141140 0.8426089
v -0.0099999 -0.0173205 0.8419999
v -0.0650000 -0.1125833 0.8419999
v -0.0126513 -0.0157898 0.8426090
v -0.0676513 -0.1110526 0.8426089
v -0.0148990 -0.0144921 0.8443431
v -0.0698990 -0.1097549 0.8443431
v -0.0164008 -0.0136250 0.8469386
v -0.0714008 -0.1088878 0.8469386
v -0.0169281 -0.0133205 0.8500000
v -0.0719281 -0.1085833 0.8500000
v -0.0164008 -0.0136250 0.8530614
v -0.0714008 -0.1088878 0.8530614
v -0.0148990 -0.0144921 0.8556568
v -0.0698990 -0.1097549 0.8556568
v -0.0126513 -0.0157898 0.8573911
v -0.0676513 -0.1110526 0.8573909
f 1345 1346 1348
f 1345 1348 1347
f 1347 1348 1350
f 1347 1350 1349
f 1349 1350 1352
f 1349 1352 1351
f 1351 1352 1354
f 1351 1354 1353
f 1353 1354 1356
f 1353 1356 1355
f 1355 1356 1358
f 1355 1358 1357
f 1357 1358 1360
f 1357 1360 1359
f 1359 1360 1362
f 1359 1362 1361
f 1361 1362 1364
f 1361 1364 1363
f 1363 1364 1366
f 1363 1366 1365
f 1365 1366 1368
f 1365 1368 1367
f 1367 1368 1370
f 1367 1370 1369
f 1369 1370 1372
f 1369 1372 1371
f 1371 1372 1374
f 1371 1374 1373
f 1350 1348 1346
f 1346 1376 1374
f 1374 1372 1370
f 1370 1368 1366
f 1366 1364 1362
f 1362 1360 1358
f 1358 1356 1354
f 1354 1352 1350
f 1350 1346 1374
f 1374 1370 1366
f 1366 1362 1358
f 1358 1354 1350
f 1350 1374 1366
f 1366 1358 1350
f 1373 1374 1376
f 1373 1376 1375
f 1375 1376 1346
f 1375 1346 1345
f 1375 1345 1347
f 1347 1349 1351
f 1351 1353 1355
f 1355 1357 1359
f 1359 1361 1363
f 1363 1365 1367
f 1367 1369 1371
f 1371 1373 1375
f 1375 1347 1351
f 1351 1355 1359
f 1359 1363 1367
f 1367 1371 1375
f 1375 1351 1359
f 1359 1367 1375
